<svg width="375" height="667" viewBox="0 0 375 667" fill="none" xmlns="http://www.w3.org/2000/svg">
    <g clip-path="url(#clip0_1839_38537)">
        <rect width="375" height="667" fill="#FCF9D1"/>
        <g clip-path="url(#clip1_1839_38537)">
            <path d="M375 624.75V110.75H298.2V125.53C301.23 127.25 303.2 130.5 303.2 134.23C303.2 139.75 298.72 144.23 293.2 144.23C287.68 144.23 283.2 139.75 283.2 134.23C283.2 130.5 285.17 127.25 288.2 125.53V110.75H245.36V125.53H245.28C248.31 127.25 250.36 130.5 250.36 134.23C250.36 139.75 245.88 144.23 240.36 144.23C234.84 144.23 230.36 139.75 230.36 134.23C230.36 130.5 232.41 127.25 235.44 125.53H235.36V110.75H192.51V125.53C195.54 127.25 197.51 130.5 197.51 134.23C197.51 139.75 193.03 144.23 187.51 144.23C181.99 144.23 177.51 139.75 177.51 134.23C177.51 130.5 179.48 127.25 182.51 125.53V110.75H139.67V125.53C142.7 127.25 144.67 130.5 144.67 134.23C144.67 139.75 140.19 144.23 134.67 144.23C129.15 144.23 124.67 139.75 124.67 134.23C124.67 130.5 126.64 127.25 129.67 125.53V110.75H86.84V125.53C89.87 127.25 91.84 130.5 91.84 134.23C91.84 139.75 87.36 144.23 81.84 144.23C76.32 144.23 71.84 139.75 71.84 134.23C71.84 130.5 73.81 127.25 76.84 125.53V110.75H0.0100098V624.75H375Z" fill="white" stroke="#777677" stroke-width="0.5" stroke-miterlimit="10"/>
            <path d="M65.5693 200.344V201.4C65.5693 205.168 68.2333 207.712 71.7373 208.936C72.7453 209.296 72.2413 210.904 71.1133 210.568C68.2813 209.704 65.8573 207.664 64.5373 205.144C63.2413 207.664 60.8413 209.704 57.9613 210.568C56.8333 210.904 56.3293 209.296 57.3373 208.936C60.8413 207.712 63.5053 205.168 63.5053 201.4V200.344C63.5053 199.672 64.0093 199.312 64.5373 199.312C65.0413 199.312 65.5693 199.672 65.5693 200.344ZM56.1373 214.96H72.8893C73.4653 214.96 73.7533 215.416 73.7533 215.8C73.7533 216.208 73.4653 216.616 72.8893 216.616H56.1373C55.5853 216.616 55.2973 216.208 55.2973 215.8C55.2973 215.416 55.5853 214.96 56.1373 214.96ZM90.5128 210.64H77.9128C77.3608 210.64 77.0968 210.232 77.0968 209.8C77.0968 209.368 77.3608 208.984 77.9128 208.984H80.0008V201.712H78.0328C77.4808 201.712 77.2168 201.304 77.2168 200.872C77.2168 200.44 77.4808 200.056 78.0328 200.056H90.3928C90.9448 200.056 91.2088 200.44 91.2088 200.872C91.2088 201.304 90.9448 201.712 90.3928 201.712H88.4248V208.984H90.5128C91.0648 208.984 91.3288 209.368 91.3288 209.8C91.3288 210.232 91.0648 210.64 90.5128 210.64ZM81.9448 201.712V208.984H86.4808V201.712H81.9448ZM75.8248 214.96H92.5768C93.1528 214.96 93.4408 215.416 93.4408 215.8C93.4408 216.208 93.1528 216.616 92.5768 216.616H75.8248C75.2728 216.616 74.9848 216.208 74.9848 215.8C74.9848 215.416 75.2728 214.96 75.8248 214.96ZM112.552 199.6V209.224C112.552 209.896 112.048 210.256 111.592 210.256C111.088 210.256 110.608 209.896 110.608 209.224V199.6C110.608 198.904 111.088 198.568 111.592 198.568C112.048 198.568 112.552 198.904 112.552 199.6ZM103.744 204.904H99.3763C98.2963 204.904 97.7443 205.384 97.7443 206.248C97.7443 207.136 98.2963 207.616 99.3763 207.616H107.152C107.656 207.616 107.92 208.072 107.92 208.456C107.92 208.84 107.656 209.272 107.152 209.272H99.0883C96.9763 209.272 95.8003 207.928 95.8003 206.296C95.8003 204.688 96.9763 203.344 99.0883 203.344H103.528C104.584 203.344 105.112 202.984 105.112 202.12C105.112 201.304 104.584 200.896 103.528 200.896H97.0723C96.5443 200.896 96.2803 200.464 96.2803 200.08C96.2803 199.696 96.5443 199.24 97.0723 199.24H103.744C105.856 199.24 107.032 200.488 107.032 202.072C107.032 203.68 105.856 204.904 103.744 204.904ZM101.104 215.656C101.104 212.848 103.408 210.4 106.72 210.4C110.032 210.4 112.336 212.848 112.336 215.656C112.336 218.464 110.032 220.912 106.72 220.912C103.408 220.912 101.104 218.464 101.104 215.656ZM110.464 215.656C110.464 213.568 108.928 212.104 106.72 212.104C104.512 212.104 102.976 213.568 102.976 215.656C102.976 217.744 104.512 219.208 106.72 219.208C108.928 219.208 110.464 217.744 110.464 215.656ZM117.613 205.024C117.613 201.928 120.013 199.576 123.301 199.576C126.589 199.576 128.989 201.928 128.989 205.024C128.989 208.12 126.589 210.472 123.301 210.472C120.013 210.472 117.613 208.12 117.613 205.024ZM133.813 199.6V218.92C133.813 219.592 133.309 219.952 132.853 219.952C132.349 219.952 131.869 219.592 131.869 218.92V215.896H116.869C116.317 215.896 116.029 215.488 116.029 215.08C116.029 214.696 116.317 214.24 116.869 214.24H131.869V199.6C131.869 198.904 132.349 198.568 132.853 198.568C133.309 198.568 133.813 198.904 133.813 199.6ZM127.045 205.024C127.045 202.696 125.341 201.232 123.301 201.232C121.261 201.232 119.557 202.696 119.557 205.024C119.557 207.352 121.261 208.816 123.301 208.816C125.341 208.816 127.045 207.352 127.045 205.024ZM161.934 199.6V218.92C161.934 219.592 161.43 219.952 160.974 219.952C160.47 219.952 159.99 219.592 159.99 218.92V199.6C159.99 198.904 160.47 198.568 160.974 198.568C161.43 198.568 161.934 198.904 161.934 199.6ZM144.822 206.248C144.822 202.528 147.63 200.368 150.846 200.368C154.062 200.368 156.87 202.528 156.87 206.248C156.87 209.968 154.062 212.128 150.846 212.128C147.63 212.128 144.822 209.968 144.822 206.248ZM154.926 206.248C154.926 203.656 153.03 202.024 150.846 202.024C148.662 202.024 146.766 203.656 146.766 206.248C146.766 208.84 148.662 210.472 150.846 210.472C153.03 210.472 154.926 208.84 154.926 206.248ZM170.739 206.296H180.603C181.131 206.296 181.419 206.704 181.419 207.088C181.419 207.496 181.131 207.904 180.603 207.904H170.475C168.555 207.904 167.619 206.752 167.619 205.336C167.619 203.824 168.555 202.72 170.475 202.72H177.891C178.755 202.72 179.187 202.384 179.187 201.688C179.187 200.992 178.755 200.68 177.891 200.68H168.843C168.339 200.68 168.099 200.272 168.099 199.888C168.099 199.504 168.339 199.072 168.843 199.072H178.179C180.099 199.072 181.035 200.152 181.035 201.664C181.035 203.08 180.099 204.208 178.179 204.208H170.739C169.899 204.208 169.467 204.52 169.467 205.24C169.467 205.912 169.899 206.296 170.739 206.296ZM166.059 209.776H182.811C183.387 209.776 183.675 210.208 183.675 210.592C183.675 211 183.387 211.384 182.811 211.384H166.059C165.507 211.384 165.219 211 165.219 210.592C165.219 210.208 165.507 209.776 166.059 209.776ZM169.731 213.208H179.163C180.483 213.208 181.083 213.664 181.083 214.912V218.896C181.083 220.144 180.483 220.6 179.163 220.6H169.731C168.411 220.6 167.811 220.144 167.811 218.896V214.912C167.811 213.664 168.411 213.208 169.731 213.208ZM179.139 218.992V214.816H169.755V218.992H179.139ZM188.483 203.8C188.483 200.896 190.763 198.568 194.123 198.568C197.483 198.568 199.763 200.896 199.763 203.8C199.763 205.36 199.091 206.776 197.963 207.736H202.523C203.099 207.736 203.387 208.144 203.387 208.528C203.387 208.936 203.099 209.296 202.523 209.296H185.747C185.195 209.296 184.907 208.936 184.907 208.528C184.907 208.144 185.195 207.736 185.747 207.736H190.283C189.131 206.776 188.483 205.36 188.483 203.8ZM197.555 216.784H190.475C189.611 216.784 188.963 217.12 188.963 217.984C188.963 218.8 189.611 219.232 190.475 219.232H200.483C201.035 219.232 201.299 219.664 201.299 220.048C201.299 220.432 201.035 220.84 200.483 220.84H190.331C188.171 220.84 187.115 219.688 187.115 218.08C187.115 216.424 188.171 215.224 190.331 215.224H197.411C198.251 215.224 198.899 214.888 198.899 214.048C198.899 213.208 198.251 212.896 197.411 212.896H188.387C187.859 212.896 187.571 212.488 187.571 212.104C187.571 211.72 187.859 211.288 188.387 211.288H197.555C199.715 211.288 200.747 212.368 200.747 214.024C200.747 215.608 199.715 216.784 197.555 216.784ZM190.355 203.92C190.355 206.008 191.891 207.664 194.123 207.664C196.355 207.664 197.891 206.008 197.891 203.92C197.891 201.832 196.355 200.176 194.123 200.176C191.891 200.176 190.355 201.832 190.355 203.92ZM223.789 213.568C221.413 211.96 219.781 209.752 218.845 207.304C217.909 209.8 216.301 212.104 214.069 213.688C213.013 214.432 212.077 212.896 212.989 212.2C216.133 209.8 217.885 206.824 217.885 202.312V201.88H214.093C213.565 201.88 213.301 201.472 213.301 201.064C213.301 200.632 213.565 200.224 214.093 200.224H223.621C224.173 200.224 224.413 200.632 224.413 201.064C224.413 201.472 224.173 201.88 223.621 201.88H219.877V202.696C219.877 207.184 221.701 209.728 224.869 212.08C225.853 212.824 224.773 214.24 223.789 213.568ZM229.669 199.6V218.92C229.669 219.592 229.165 219.952 228.709 219.952C228.205 219.952 227.725 219.592 227.725 218.92V199.6C227.725 198.904 228.205 198.568 228.709 198.568C229.165 198.568 229.669 198.904 229.669 199.6ZM233.723 206.248C233.723 202.528 236.411 200.368 239.627 200.368C242.579 200.368 245.075 202.192 245.459 205.384H248.843V199.6C248.843 198.904 249.323 198.568 249.827 198.568C250.283 198.568 250.787 198.904 250.787 199.6V218.92C250.787 219.592 250.283 219.952 249.827 219.952C249.323 219.952 248.843 219.592 248.843 218.92V207.04H245.483C245.123 210.28 242.603 212.128 239.627 212.128C236.411 212.128 233.723 209.968 233.723 206.248ZM243.587 206.248C243.587 203.656 241.811 202.024 239.627 202.024C237.443 202.024 235.667 203.656 235.667 206.248C235.667 208.84 237.443 210.472 239.627 210.472C241.811 210.472 243.587 208.84 243.587 206.248ZM269.768 209.248C266.912 208.384 264.536 206.56 263.24 204.28C261.968 206.56 259.592 208.408 256.736 209.248C255.608 209.584 255.032 208 256.064 207.616C259.448 206.464 261.992 204.544 262.184 201.256H257.192C256.664 201.256 256.424 200.872 256.424 200.464C256.424 200.032 256.664 199.624 257.192 199.624H269.312C269.864 199.624 270.104 200.032 270.104 200.464C270.104 200.872 269.864 201.256 269.312 201.256H264.272C264.464 204.568 267.032 206.464 270.392 207.616C271.472 208.048 270.848 209.584 269.768 209.248ZM264.224 213.232V219.16C264.224 219.832 263.792 220.168 263.24 220.168C262.712 220.168 262.28 219.832 262.28 219.16V213.232H254.864C254.312 213.232 254.024 212.824 254.024 212.416C254.024 212.032 254.312 211.576 254.864 211.576H271.616C272.192 211.576 272.48 212.032 272.48 212.416C272.48 212.824 272.192 213.232 271.616 213.232H264.224ZM282.807 213.448C280.959 212.128 279.759 210.328 279.039 208.384C278.343 210.352 277.167 212.2 275.223 213.688C274.215 214.456 273.207 212.992 274.143 212.224C277.143 209.704 277.983 206.728 277.983 202.312V200.536C277.983 199.816 278.487 199.456 278.991 199.456C279.471 199.456 279.975 199.816 279.975 200.536V202.552C279.975 207.208 281.127 209.872 283.887 211.984C284.871 212.728 283.767 214.144 282.807 213.448ZM287.631 199.72V218.44C287.631 219.112 287.175 219.472 286.719 219.472C286.215 219.472 285.783 219.112 285.783 218.44V206.272H282.831C282.303 206.272 282.063 205.864 282.063 205.432C282.063 205.024 282.303 204.616 282.831 204.616H285.783V199.72C285.783 199.024 286.215 198.688 286.719 198.688C287.175 198.688 287.631 199.024 287.631 199.72ZM292.143 199.6V218.92C292.143 219.592 291.639 219.952 291.183 219.952C290.679 219.952 290.199 219.592 290.199 218.92V199.6C290.199 198.904 290.679 198.568 291.183 198.568C291.639 198.568 292.143 198.904 292.143 199.6ZM297.733 205.336C297.733 201.952 300.397 199.312 304.069 199.312C307.741 199.312 310.405 201.952 310.405 205.336C310.405 207.136 309.661 208.72 308.413 209.8V215.008H312.421C312.997 215.008 313.285 215.464 313.285 215.848C313.285 216.256 312.997 216.664 312.421 216.664H295.669C295.117 216.664 294.829 216.256 294.829 215.848C294.829 215.464 295.117 215.008 295.669 215.008H299.725V209.8C298.477 208.72 297.733 207.136 297.733 205.336ZM308.509 205.336C308.509 202.84 306.637 200.944 304.069 200.944C301.501 200.944 299.629 202.84 299.629 205.336C299.629 207.832 301.501 209.728 304.069 209.728C306.637 209.728 308.509 207.832 308.509 205.336ZM304.069 211.36C303.205 211.36 302.389 211.216 301.669 210.952V215.008H306.469V210.952C305.725 211.216 304.933 211.36 304.069 211.36ZM314.876 216.784C314.876 216.088 315.428 215.512 316.124 215.512C316.82 215.512 317.372 216.088 317.372 216.784C317.372 217.48 316.82 218.08 316.124 218.08C315.428 218.08 314.876 217.48 314.876 216.784Z" fill="black"/>
            <rect x="24.2598" y="249.75" width="326.5" height="60.5" rx="20.25" stroke="#767676" stroke-width="0.5"/>
            <path d="M54.7098 286.3H68.6698C69.1498 286.3 69.3898 286.68 69.3898 287C69.3898 287.34 69.1498 287.68 68.6698 287.68H54.7098C54.2498 287.68 54.0098 287.34 54.0098 287C54.0098 286.68 54.2498 286.3 54.7098 286.3ZM65.5698 276.78C65.5698 275.74 64.9498 275.26 64.1698 275.26H56.5698C56.0898 275.26 55.8898 274.96 55.8898 274.56C55.8898 274.22 56.0898 273.88 56.5698 273.88H64.4098C65.9898 273.88 67.1698 274.94 67.1698 276.7C67.1698 279.16 66.8298 281.68 66.3098 283.7C66.1898 284.14 65.8698 284.32 65.4898 284.32C65.0098 284.32 64.6498 283.88 64.7698 283.28C65.1698 281.3 65.5698 279.16 65.5698 276.78ZM83.136 284.94V289.56C83.136 290.56 82.676 291 81.616 291H73.596C72.556 291 72.076 290.56 72.076 289.56V284.94C72.076 284.38 72.476 284.08 72.876 284.08C73.276 284.08 73.696 284.38 73.696 284.94V286.3H81.516V284.94C81.516 284.38 81.916 284.08 82.316 284.08C82.716 284.08 83.136 284.38 83.136 284.94ZM74.516 278.92H82.736C83.176 278.92 83.416 279.26 83.416 279.58C83.416 279.92 83.176 280.26 82.736 280.26H74.296C72.696 280.26 71.916 279.34 71.916 278.16C71.916 276.9 72.696 276.02 74.296 276.02H80.476C81.196 276.02 81.556 275.78 81.556 275.2C81.556 274.62 81.196 274.4 80.476 274.4H72.936C72.516 274.4 72.316 274.06 72.316 273.74C72.316 273.42 72.516 273.06 72.936 273.06H80.716C82.316 273.06 83.096 273.92 83.096 275.18C83.096 276.36 82.316 277.26 80.716 277.26H74.516C73.816 277.26 73.456 277.48 73.456 278.08C73.456 278.64 73.816 278.92 74.516 278.92ZM70.616 281.46H84.576C85.056 281.46 85.296 281.82 85.296 282.14C85.296 282.48 85.056 282.8 84.576 282.8H78.416V284.28C78.416 284.84 77.996 285.14 77.616 285.14C77.196 285.14 76.796 284.84 76.796 284.28V282.8H70.616C70.156 282.8 69.916 282.48 69.916 282.14C69.916 281.82 70.156 281.46 70.616 281.46ZM73.696 289.68H81.516V287.58H73.696V289.68ZM87.0023 279.56V274.74C87.0023 273.54 87.5823 273.2 88.6223 273.2H93.7023C94.7423 273.2 95.3223 273.54 95.3223 274.74V274.76H99.1023V273.5C99.1023 272.92 99.5023 272.64 99.9223 272.64C100.302 272.64 100.722 272.92 100.722 273.5V281.12C100.722 281.68 100.302 281.98 99.9223 281.98C99.5023 281.98 99.1023 281.68 99.1023 281.12V279.5H95.3223V279.56C95.3223 280.76 94.7423 281.1 93.7023 281.1H88.6223C87.5823 281.1 87.0023 280.76 87.0023 279.56ZM91.0023 286.68C91.0023 284.2 92.9423 282.1 95.7823 282.1C98.6223 282.1 100.562 284.2 100.562 286.68C100.562 289.16 98.6223 291.26 95.7823 291.26C92.9423 291.26 91.0023 289.16 91.0023 286.68ZM99.0023 286.68C99.0023 284.8 97.7023 283.52 95.7823 283.52C93.8623 283.52 92.5623 284.8 92.5623 286.68C92.5623 288.56 93.8623 289.84 95.7823 289.84C97.7023 289.84 99.0023 288.56 99.0023 286.68ZM88.6023 279.72H93.7223V274.58H88.6023V279.72ZM95.3223 276.12V278.14H99.1023V276.12H95.3223Z" fill="#767676"/>
        </g>
        <g clip-path="url(#clip2_1839_38537)">
            <rect x="113.25" y="545.25" width="149.5" height="49.5" rx="19.75" fill="white" stroke="black" stroke-width="0.5"/>
            <path d="M174.925 568.576C174.925 567.2 176.397 566.304 178.653 566.304C180.909 566.304 182.381 567.2 182.381 568.576C182.381 569.712 181.357 570.56 179.725 570.816V571.776C180.781 571.728 181.613 571.616 182.429 571.456C183.197 571.296 183.645 571.728 183.645 572.272C183.645 572.72 183.373 573.056 182.829 573.184C181.597 573.472 180.221 573.6 178.157 573.6H174.749C174.173 573.6 173.789 573.248 173.789 572.704C173.789 572.16 174.173 571.808 174.749 571.808H177.581V570.816C175.949 570.56 174.925 569.712 174.925 568.576ZM173.917 564.976C173.917 564.432 174.301 564.096 174.877 564.096H177.581V563.664C177.581 563.056 178.109 562.784 178.653 562.784C179.197 562.784 179.725 563.056 179.725 563.664V564.096H182.301C182.877 564.096 183.261 564.432 183.261 564.976C183.261 565.52 182.877 565.856 182.301 565.856H174.877C174.301 565.856 173.917 565.52 173.917 564.976ZM175.661 575.344C175.661 574.8 175.981 574.432 176.557 574.432H185.101C185.789 574.432 186.301 574.816 186.301 575.44V578.064C186.301 578.752 185.677 579.04 185.229 579.04C184.781 579.04 184.157 578.752 184.157 578.064V576.256H176.557C175.981 576.256 175.661 575.888 175.661 575.344ZM177.005 568.576C177.005 569.024 177.629 569.264 178.653 569.264C179.677 569.264 180.301 569.024 180.301 568.576C180.301 568.128 179.677 567.888 178.653 567.888C177.629 567.888 177.005 568.128 177.005 568.576ZM184.157 564.144C184.157 563.456 184.781 563.168 185.229 563.168C185.677 563.168 186.301 563.456 186.301 564.144V567.376H187.629C188.205 567.376 188.525 567.76 188.525 568.304C188.525 568.848 188.205 569.232 187.629 569.232H186.301V573.088C186.301 573.776 185.677 573.968 185.229 573.968C184.781 573.968 184.157 573.776 184.157 573.088V564.144ZM199.852 564.144C199.852 563.456 200.476 563.168 200.924 563.168C201.372 563.168 201.996 563.456 201.996 564.144V573.312C201.996 574 201.372 574.288 200.924 574.288C200.476 574.288 199.852 574 199.852 573.312V564.144ZM189.34 567.824C189.34 565.552 191.196 563.872 193.692 563.872C196.188 563.872 198.044 565.552 198.044 567.824C198.044 570.08 196.188 571.776 193.692 571.776C191.196 571.776 189.34 570.08 189.34 567.824ZM191.452 567.824C191.452 569.056 192.396 569.968 193.692 569.968C194.988 569.968 195.932 569.056 195.932 567.824C195.932 566.592 194.988 565.68 193.692 565.68C192.396 565.68 191.452 566.592 191.452 567.824ZM191.644 573.856C191.644 573.168 192.268 572.88 192.716 572.88C193.164 572.88 193.788 573.168 193.788 573.856V576.672C193.788 576.816 193.884 576.912 194.028 576.912H201.436C202.012 576.912 202.332 577.296 202.332 577.84C202.332 578.384 202.012 578.768 201.436 578.768H193.02C192.236 578.768 191.644 578.208 191.644 577.472V573.856Z" fill="black"/>
        </g>
        <rect x="70" y="88" width="22" height="44" rx="11" fill="#5A402A"/>
        <rect x="123" y="87" width="22" height="44" rx="11" fill="#5A402A"/>
        <rect x="176.5" y="87.5" width="21" height="43" rx="10.5" fill="white" stroke="#5A402A"/>
        <rect x="229.5" y="87.5" width="21" height="43" rx="10.5" fill="white" stroke="#5A402A"/>
        <rect x="282.5" y="87.5" width="21" height="43" rx="10.5" fill="white" stroke="#5A402A"/>
        <path d="M162.088 51.4398C163.86 56.1467 165.687 61.9316 170.681 64.1566C172.064 64.7713 173.492 65.1246 175.012 64.9594C176.386 64.8126 177.654 64.4502 178.881 63.8125C181.065 62.6794 182.818 60.7618 184.114 58.6974C186.467 54.931 187.946 49.6919 185.977 45.4714C184.837 43.0308 182.099 41.2141 179.384 42.1912C176.537 43.2189 175.379 46.2054 175.324 49.0359C175.232 53.7474 177.214 58.9222 181.298 61.5233C186.622 64.9181 193.197 62.3583 197.399 58.3854C199.542 56.3577 201.227 53.8621 202.302 51.1141C203.282 48.6047 203.726 45.4438 202.316 43.0078C201.515 41.627 200.128 40.4709 198.548 40.1314C196.561 39.7002 194.721 40.3654 193.174 41.6132C190.267 43.9483 189.378 48.1918 189.502 51.7426C189.621 55.1695 190.775 58.7983 193.819 60.6976C196.548 62.4041 199.968 62.2344 202.829 60.982C204.17 60.3948 205.37 59.4819 206.537 58.6102C207.503 57.89 208.451 57.1376 209.316 56.3027C210.822 54.8484 212.058 53.1418 213.363 51.5132C214.366 50.2608 215.391 49.0313 216.444 47.8248C217.113 47.0587 217.255 45.8154 216.444 45.0722C215.712 44.3979 214.412 44.2511 213.697 45.0722C211.99 47.0311 210.392 49.0726 208.762 51.1003C207.654 52.4766 206.464 53.7474 205.086 54.8576C204.985 54.9401 204.884 55.0181 204.779 55.1007C204.82 55.0686 205.127 54.8346 204.852 55.0457C204.624 55.22 204.39 55.3943 204.157 55.5641C203.571 55.9907 202.975 56.4082 202.371 56.8073C202.138 56.9587 201.904 57.1055 201.662 57.2385C201.52 57.3165 201.373 57.3945 201.227 57.4633C201.162 57.4954 200.668 57.6973 201.103 57.5275C200.467 57.7753 199.826 57.9496 199.153 58.0597C199.665 57.9771 199.166 58.0505 199.07 58.0597C198.919 58.0689 198.773 58.0781 198.622 58.0826C198.374 58.0872 198.132 58.0826 197.885 58.0643C197.743 58.0551 197.34 58.1102 197.825 58.0643C197.701 58.0735 197.523 58.0138 197.399 57.9863C197.074 57.9175 196.763 57.812 196.442 57.7065C195.994 57.5597 196.804 57.9037 196.388 57.6835C196.264 57.6193 196.136 57.5597 196.012 57.4908C195.806 57.3762 195.618 57.2431 195.422 57.1147C195.834 57.3899 195.458 57.1376 195.376 57.0688C195.27 56.977 195.165 56.8761 195.069 56.7752C194.973 56.6742 194.877 56.5641 194.781 56.4586C194.648 56.2935 194.657 56.3118 194.817 56.5137C194.758 56.4357 194.703 56.3531 194.648 56.2751C194.483 56.0228 194.341 55.7613 194.208 55.4907C194.222 55.5182 193.97 54.9814 194.08 55.2246C194.19 55.4677 193.966 54.9126 193.975 54.9401C193.847 54.5869 193.741 54.2245 193.654 53.8575C193.609 53.6694 193.572 53.4813 193.535 53.2932C193.512 53.1647 193.49 53.0363 193.471 52.9124C193.494 53.1097 193.49 53.0868 193.462 52.8482C193.389 52.1188 193.361 51.3939 193.384 50.6599C193.398 50.2562 193.435 49.8617 193.471 49.458C193.526 48.8157 193.398 49.8158 193.508 49.1827C193.549 48.9304 193.595 48.6735 193.65 48.4258C193.732 48.0542 193.833 47.6826 193.952 47.3202C194.011 47.1412 194.076 46.9623 194.144 46.788C194.35 46.2329 194.053 46.9669 194.204 46.655C194.355 46.343 194.501 46.0586 194.675 45.7741C194.767 45.6227 194.868 45.4759 194.968 45.3291C195.101 45.1456 195.106 45.1411 194.982 45.3062C195.055 45.219 195.133 45.1319 195.211 45.0493C195.339 44.9117 195.476 44.7924 195.609 44.6594C196.017 44.2511 195.399 44.7649 195.847 44.4575C196.003 44.352 196.159 44.2511 196.319 44.1639C196.378 44.1318 196.891 43.9299 196.479 44.0721C196.635 44.0171 197.381 43.8703 196.877 43.9208C197.024 43.907 197.175 43.8978 197.321 43.8978C197.418 43.8978 197.514 43.9024 197.61 43.9116C197.331 43.8703 197.299 43.8657 197.514 43.9116C197.647 43.9529 197.784 43.9896 197.921 44.0263C198.352 44.1455 197.592 43.8107 197.967 44.0492C198.081 44.1226 198.205 44.196 198.324 44.2648C198.713 44.4896 198.054 43.9804 198.374 44.3015C198.539 44.4713 198.704 44.6318 198.86 44.8107C198.539 44.4346 198.832 44.7924 198.887 44.8796C198.988 45.0401 199.07 45.2099 199.157 45.3842C198.933 44.9438 199.134 45.3475 199.166 45.453C199.208 45.5906 199.235 45.7328 199.276 45.8705C199.409 46.3246 199.276 45.453 199.29 45.9255C199.29 46.0632 199.304 46.2008 199.308 46.3384C199.313 46.5403 199.313 46.7421 199.308 46.9486C199.304 47.0724 199.295 47.1963 199.285 47.3202C199.281 47.4027 199.272 47.4853 199.263 47.5725C199.235 47.7881 199.244 47.7422 199.285 47.4348C199.208 47.4853 199.166 48.0955 199.144 48.2056C199.084 48.4671 199.015 48.7285 198.942 48.9855C198.878 49.2057 198.805 49.4259 198.732 49.6415C198.686 49.7745 198.635 49.9076 198.585 50.036C198.553 50.1232 198.516 50.2103 198.48 50.3021C198.585 50.0589 198.594 50.036 198.507 50.2333C198.004 51.3251 197.418 52.3665 196.717 53.3437C196.626 53.4675 196.534 53.5914 196.442 53.7153C196.722 53.3391 196.41 53.7565 196.365 53.8116C196.168 54.0547 195.966 54.2933 195.756 54.5273C195.335 54.9998 194.89 55.4494 194.424 55.876C194.19 56.0916 193.952 56.2981 193.705 56.4999C193.654 56.5412 193.233 56.8715 193.604 56.5871C193.48 56.6834 193.352 56.7752 193.224 56.8715C192.711 57.2385 192.18 57.5826 191.631 57.89C191.356 58.0414 191.077 58.1882 190.798 58.3212C190.656 58.39 190.514 58.4542 190.372 58.5185C190.807 58.3212 190.331 58.5322 190.262 58.5597C189.685 58.7845 189.09 58.968 188.486 59.1057C188.335 59.1378 188.184 59.1699 188.032 59.202C187.932 59.2204 187.446 59.2479 187.932 59.2249C187.62 59.2387 187.314 59.2617 187.002 59.2617C186.709 59.2617 186.412 59.2479 186.119 59.2204L185.977 59.2066C185.757 59.1791 185.789 59.1837 186.073 59.2204C185.986 59.2387 185.753 59.1653 185.666 59.147C185.4 59.0919 185.139 59.0277 184.883 58.9543C184.768 58.9176 184.191 58.8029 184.146 58.6974L184.375 58.7937C184.297 58.7616 184.219 58.7249 184.146 58.6882C184.031 58.6332 183.921 58.5781 183.807 58.5185C183.569 58.39 183.335 58.2524 183.111 58.101C183.024 58.0459 182.942 57.9817 182.859 57.9267C182.498 57.6835 183.193 58.2157 182.859 57.9313C182.672 57.7707 182.484 57.6147 182.31 57.445C182.136 57.2752 181.962 57.1009 181.802 56.9174C181.719 56.8256 181.641 56.7339 181.564 56.6376C181.216 56.2201 181.683 56.8256 181.49 56.5504C181.234 56.1788 180.982 55.8072 180.758 55.4173C180.639 55.2016 180.52 54.986 180.415 54.7612C180.36 54.6511 180.309 54.541 180.259 54.4263C180.03 53.9217 180.337 54.6465 180.213 54.3254C179.865 53.4125 179.581 52.4858 179.403 51.5224C179.366 51.3297 179.334 51.1324 179.307 50.9352C179.238 50.5085 179.357 51.4169 179.316 50.9856C179.307 50.871 179.288 50.7563 179.279 50.6416C179.233 50.1599 179.215 49.6736 179.22 49.1873C179.22 49.0084 179.229 48.8295 179.238 48.6506C179.247 48.5175 179.357 47.7927 179.261 48.279C179.32 47.9854 179.375 47.6963 179.462 47.4119C179.485 47.3293 179.531 47.0724 179.6 47.0174C179.485 47.2743 179.476 47.3064 179.563 47.1137C179.6 47.0357 179.636 46.9577 179.677 46.8843C179.737 46.7742 179.801 46.6687 179.865 46.5632C179.897 46.5127 180.14 46.2191 179.92 46.4669C179.7 46.7146 180.154 46.2329 180.227 46.1549C180.515 45.8521 180.176 46.1274 180.167 46.1824C180.167 46.1411 180.396 46.031 180.433 46.0081C180.451 45.9989 180.698 45.8521 180.708 45.8659C180.396 45.9898 180.337 46.0173 180.524 45.9485C180.588 45.9255 180.653 45.9072 180.717 45.8888C180.749 45.8797 181.001 45.843 181.01 45.8246C180.932 45.9898 180.483 45.8338 180.886 45.8567C180.95 45.8567 181.023 45.8567 181.083 45.8567C181.518 45.8475 180.978 45.9485 180.964 45.8338C180.964 45.8338 181.239 45.9026 181.261 45.9072C181.66 45.9943 181.248 45.8384 181.188 45.8567C181.234 45.843 181.435 45.9806 181.477 46.0035C181.541 46.0402 181.605 46.0769 181.664 46.1182C181.829 46.2329 181.793 46.2008 181.55 46.0173C181.651 46.187 181.93 46.3751 182.076 46.5219C182.369 46.8155 181.925 46.2512 182.058 46.4852C182.113 46.5816 182.191 46.6733 182.25 46.7696C182.411 47.0174 182.539 47.2835 182.667 47.5495C182.461 47.1229 182.685 47.6092 182.708 47.6826C182.745 47.7881 182.781 47.8982 182.813 48.0037C182.864 48.1734 182.905 48.3478 182.942 48.5221C182.96 48.6139 182.974 48.7056 182.992 48.7928C183.033 48.9992 182.896 48.8708 182.96 48.5542C182.928 48.7194 183.001 48.9671 183.01 49.1368C183.024 49.3754 183.024 49.6139 183.019 49.8525C183.01 50.1782 183.074 50.7471 182.932 51.0407C183.111 50.6645 182.978 50.7196 182.937 50.9719C182.919 51.0866 182.9 51.1967 182.878 51.3114C182.827 51.582 182.772 51.8481 182.708 52.1142C182.603 52.5684 182.475 53.0134 182.328 53.4584C182.26 53.674 182.182 53.8896 182.104 54.1052C182.058 54.2245 182.017 54.3392 181.971 54.4539C181.765 54.9677 182.067 54.2566 181.925 54.5685C181.504 55.4998 181.028 56.399 180.456 57.2431C180.373 57.3624 180.144 57.8257 180.012 57.8624L180.163 57.6698C180.112 57.734 180.057 57.8028 180.007 57.867C179.929 57.9634 179.847 58.0597 179.764 58.156C179.439 58.5368 179.091 58.8946 178.725 59.2341C178.542 59.3993 178.354 59.5598 178.162 59.7158C177.828 59.9957 178.524 59.4635 178.162 59.7112C178.061 59.78 177.965 59.8535 177.865 59.9223C177.462 60.1929 177.04 60.4361 176.606 60.6379L176.496 60.6884C176.303 60.771 176.349 60.7526 176.628 60.6333C176.555 60.6242 176.363 60.7343 176.29 60.7618C176.061 60.8398 175.827 60.9132 175.594 60.9728C175.379 61.0279 175.15 61.0508 174.935 61.1105C174.664 61.1839 175.447 61.0646 175.022 61.0967C174.857 61.1104 174.687 61.1288 174.523 61.1334C174.266 61.1426 174.01 61.1334 173.753 61.1334C173.314 61.1334 174.184 61.2573 173.712 61.1242C173.57 61.0829 173.419 61.0554 173.277 61.0187C172.998 60.9407 172.723 60.8398 172.449 60.7434C172.504 60.7618 172.833 60.9224 172.522 60.771C172.352 60.6884 172.183 60.6104 172.018 60.5187C171.776 60.3856 171.538 60.2388 171.309 60.0828C171.194 60.0048 171.084 59.9223 170.974 59.8397C171.387 60.1471 171.016 59.8626 170.938 59.7984C170.517 59.4406 170.132 59.0414 169.775 58.6194C169.683 58.5139 169.596 58.4038 169.509 58.2983C169.835 58.6928 169.532 58.3258 169.477 58.2478C169.313 58.0184 169.152 57.789 169.001 57.5505C168.695 57.0734 168.415 56.5825 168.154 56.0779C167.893 55.5732 167.651 55.064 167.422 54.541C167.367 54.4126 167.312 54.2841 167.252 54.1557C167.458 54.6374 167.271 54.197 167.234 54.1052C167.129 53.8483 167.028 53.5914 166.927 53.3345C166.552 52.3757 166.209 51.4031 165.842 50.4397C165.476 49.4763 164.515 48.7331 163.453 49.0818C162.528 49.38 161.713 50.4581 162.098 51.4765L162.088 51.4398Z" fill="#E84D59"/>
        <g clip-path="url(#clip3_1839_38537)">
            <path d="M44.4167 63L34 53L44.4167 43L46.2656 44.775L37.6979 53L46.2656 61.225L44.4167 63Z" fill="#767676"/>
        </g>
        <path fill-rule="evenodd" clip-rule="evenodd" d="M375 0H0V667H375V0ZM41 244C28.2975 244 18 254.297 18 267V293C18 305.703 28.2975 316 41 316H333C345.703 316 356 305.703 356 293V267C356 254.297 345.703 244 333 244H41Z" fill="#050505" fill-opacity="0.5"/>
        <path d="M185 274.667C182.054 274.667 179.667 277.054 179.667 280C179.667 282.946 182.054 285.333 185 285.333C187.946 285.333 190.333 282.946 190.333 280C190.333 277.054 187.946 274.667 185 274.667ZM184 368C184 368.552 184.448 369 185 369C185.552 369 186 368.552 186 368L184 368ZM184 280L184 368L186 368L186 280L184 280Z" fill="#FFCC00"/>
        <path d="M121.317 386.716H124.305C124.701 386.716 124.893 387.004 124.893 387.292C124.893 387.592 124.701 387.88 124.305 387.88H116.109C115.725 387.88 115.533 387.592 115.533 387.292C115.533 387.004 115.725 386.716 116.109 386.716H117.609V383.656C117.609 383.224 117.945 382.996 118.269 382.996C118.617 382.996 118.953 383.224 118.953 383.656V386.716H119.973V383.656C119.973 383.224 120.309 382.996 120.633 382.996C120.981 382.996 121.317 383.224 121.317 383.656V386.716ZM122.409 381.268C122.409 380.8 122.157 380.596 121.821 380.596H117.273C116.853 380.596 116.673 380.32 116.673 379.996C116.673 379.72 116.853 379.432 117.273 379.432H121.965C122.985 379.432 123.753 380.104 123.753 381.232C123.753 382.756 123.573 384.136 123.249 385.396C123.165 385.732 122.877 385.888 122.601 385.888C122.217 385.888 121.857 385.6 121.965 385.096C122.229 383.896 122.409 382.624 122.409 381.268ZM126.673 382.036C126.673 381.568 126.829 381.16 127.093 380.836H126.445C126.061 380.836 125.881 380.572 125.881 380.296C125.881 380.008 126.061 379.72 126.445 379.72H128.353V379.156C128.353 378.676 128.713 378.46 129.049 378.46C129.409 378.46 129.745 378.676 129.745 379.156V379.72H131.617C132.001 379.72 132.193 380.008 132.193 380.296C132.193 380.572 132.001 380.836 131.617 380.836H131.029C131.293 381.16 131.449 381.568 131.449 382.036C131.449 383.032 130.729 383.764 129.733 384.004V384.724H132.793V379.432C132.793 378.988 133.105 378.76 133.441 378.76C133.777 378.76 134.101 378.988 134.101 379.432V381.892H135.241C135.625 381.892 135.817 382.18 135.817 382.468C135.817 382.756 135.625 383.044 135.241 383.044H134.101V386.74C134.101 387.184 133.777 387.412 133.441 387.412C133.105 387.412 132.793 387.184 132.793 386.74V385.828H126.169C125.809 385.828 125.617 385.552 125.617 385.276C125.617 384.988 125.809 384.724 126.169 384.724H128.365V384.004C127.381 383.764 126.673 383.032 126.673 382.036ZM127.177 387.988V387.16C127.177 386.692 127.501 386.464 127.873 386.464C128.209 386.464 128.569 386.692 128.569 387.16V387.952C128.569 388.42 128.809 388.612 129.157 388.612H133.669C134.053 388.612 134.245 388.9 134.245 389.188C134.245 389.476 134.053 389.764 133.669 389.764H128.881C127.861 389.764 127.177 389.128 127.177 387.988ZM127.945 381.964C127.945 382.636 128.449 383.044 129.049 383.044C129.661 383.044 130.153 382.636 130.153 381.964C130.153 381.268 129.709 380.872 129.133 380.836H129.049C128.449 380.836 127.945 381.232 127.945 381.964ZM145.344 379.432V383.536C145.344 383.98 145.008 384.208 144.672 384.208C144.336 384.208 144 383.98 144 383.536V379.432C144 378.988 144.336 378.76 144.672 378.76C145.008 378.76 145.344 378.988 145.344 379.432ZM143.652 387.832H140.136C139.848 387.832 139.716 388.072 139.716 388.312C139.716 388.528 139.848 388.768 140.136 388.768H144.96C145.344 388.768 145.536 389.056 145.536 389.344C145.536 389.632 145.344 389.92 144.96 389.92H140.112C138.96 389.92 138.396 389.176 138.396 388.336C138.396 387.46 138.96 386.728 140.112 386.728H143.616C143.892 386.728 144.024 386.5 144.024 386.284C144.024 386.056 143.892 385.828 143.616 385.828H139.2C138.828 385.828 138.636 385.54 138.636 385.264C138.636 384.976 138.828 384.688 139.2 384.688H143.652C144.792 384.688 145.344 385.408 145.344 386.272C145.344 387.1 144.792 387.832 143.652 387.832ZM136.692 381.424C136.692 379.876 137.94 378.88 139.416 378.88C140.904 378.88 142.152 379.876 142.152 381.424C142.152 382.972 140.904 383.956 139.416 383.956C137.94 383.956 136.692 382.972 136.692 381.424ZM137.988 381.424C137.988 382.324 138.672 382.84 139.416 382.84C140.172 382.84 140.856 382.324 140.856 381.424C140.856 380.512 140.172 379.996 139.416 379.996C138.672 379.996 137.988 380.512 137.988 381.424ZM152.962 381.268V381.928C152.962 383.908 150.85 385.72 148.114 386.524C147.67 386.656 147.37 386.296 147.37 385.936C147.37 385.708 147.49 385.48 147.754 385.396C149.746 384.748 151.63 383.5 151.63 381.928V381.256C151.63 380.848 151.366 380.644 151.03 380.644H148.234C147.814 380.644 147.634 380.368 147.634 380.044C147.634 379.768 147.814 379.48 148.234 379.48H151.174C152.194 379.48 152.962 380.128 152.962 381.268ZM156.022 379.432V388.84C156.022 389.284 155.686 389.512 155.35 389.512C155.014 389.512 154.678 389.284 154.678 388.84V379.432C154.678 378.988 155.014 378.76 155.35 378.76C155.686 378.76 156.022 378.988 156.022 379.432ZM158.421 382.012C158.421 380.428 159.525 379.18 161.361 379.18C163.185 379.18 164.301 380.428 164.301 382.012C164.301 383.584 163.197 384.832 161.361 384.832C159.525 384.832 158.421 383.584 158.421 382.012ZM165.429 387.64H158.349C157.965 387.64 157.773 387.352 157.773 387.052C157.773 386.764 157.965 386.476 158.349 386.476H165.429V379.432C165.429 378.988 165.765 378.76 166.101 378.76C166.437 378.76 166.773 378.988 166.773 379.432V388.852C166.773 389.296 166.437 389.524 166.101 389.524C165.765 389.524 165.429 389.296 165.429 388.852V387.64ZM159.753 382.012C159.753 382.936 160.329 383.68 161.361 383.68C162.405 383.68 162.969 382.936 162.969 382.012C162.969 381.1 162.405 380.332 161.361 380.332C160.329 380.332 159.753 381.1 159.753 382.012ZM181.097 379.432V388.84C181.097 389.284 180.761 389.512 180.425 389.512C180.089 389.512 179.753 389.284 179.753 388.84V379.432C179.753 378.988 180.089 378.76 180.425 378.76C180.761 378.76 181.097 378.988 181.097 379.432ZM172.313 382.636C172.313 380.788 173.681 379.6 175.361 379.6C177.053 379.6 178.421 380.788 178.421 382.636C178.421 384.484 177.053 385.66 175.361 385.66C173.681 385.66 172.313 384.484 172.313 382.636ZM173.645 382.636C173.645 383.812 174.437 384.508 175.361 384.508C176.285 384.508 177.077 383.812 177.077 382.636C177.077 381.448 176.285 380.752 175.361 380.752C174.437 380.752 173.645 381.448 173.645 382.636ZM191.368 385.468H183.196C182.8 385.468 182.608 385.204 182.608 384.904C182.608 384.592 182.8 384.328 183.196 384.328H191.368C191.764 384.328 191.968 384.592 191.968 384.904C191.968 385.204 191.764 385.468 191.368 385.468ZM185.224 387.328V388.672H189.352V387.328H185.224ZM189.436 389.8H185.14C184.276 389.8 183.892 389.368 183.892 388.564V387.436C183.892 386.632 184.276 386.2 185.14 386.2H189.436C190.3 386.2 190.684 386.632 190.684 387.436V388.564C190.684 389.368 190.3 389.8 189.436 389.8ZM189.148 381.808H185.5C185.26 381.808 185.152 382 185.152 382.168C185.152 382.324 185.26 382.516 185.5 382.516H190.24C190.624 382.516 190.828 382.804 190.828 383.08C190.828 383.356 190.624 383.632 190.24 383.632H185.32C184.3 383.632 183.82 382.936 183.82 382.192C183.82 381.412 184.3 380.752 185.32 380.752H188.968C189.208 380.752 189.316 380.56 189.316 380.392C189.316 380.224 189.208 380.032 188.968 380.032H184.612C184.24 380.032 184.048 379.768 184.048 379.492C184.048 379.216 184.24 378.94 184.612 378.94H189.148C190.168 378.94 190.648 379.6 190.648 380.38C190.648 381.124 190.168 381.808 189.148 381.808ZM201.331 384.352H193.159C192.763 384.352 192.571 384.1 192.571 383.8C192.571 383.488 192.763 383.224 193.159 383.224H194.959C194.503 382.768 194.239 382.156 194.239 381.448C194.239 379.924 195.499 378.7 197.239 378.7C198.991 378.7 200.263 379.924 200.263 381.448C200.263 382.156 199.987 382.768 199.531 383.224H201.331C201.727 383.224 201.931 383.488 201.931 383.8C201.931 384.1 201.727 384.352 201.331 384.352ZM199.135 387.988H195.379C195.151 387.988 195.043 388.18 195.043 388.384C195.043 388.588 195.163 388.792 195.379 388.792H200.311C200.695 388.792 200.887 389.08 200.887 389.356C200.887 389.644 200.695 389.92 200.311 389.92H195.223C194.227 389.92 193.735 389.176 193.735 388.42C193.735 387.676 194.227 386.92 195.223 386.92H198.991C199.207 386.92 199.327 386.728 199.327 386.524C199.327 386.332 199.207 386.128 198.991 386.128H194.491C194.119 386.128 193.927 385.852 193.927 385.576C193.927 385.3 194.119 385.024 194.491 385.024H199.135C200.119 385.024 200.623 385.768 200.623 386.512C200.623 387.256 200.119 387.988 199.135 387.988ZM195.535 381.52C195.535 382.444 196.231 383.188 197.167 383.224H197.239C198.211 383.224 198.943 382.468 198.943 381.52C198.943 380.56 198.211 379.828 197.239 379.828C196.267 379.828 195.535 380.56 195.535 381.52ZM209.157 380.632H207.561C207.177 380.632 206.985 380.356 206.985 380.068C206.985 379.768 207.177 379.48 207.561 379.48H212.109C212.505 379.48 212.697 379.768 212.697 380.068C212.697 380.356 212.505 380.632 212.109 380.632H210.549V381.04C210.549 383.152 211.401 384.424 212.853 385.408C213.045 385.54 213.129 385.708 213.129 385.888C213.129 386.212 212.841 386.548 212.493 386.548C212.361 386.548 212.229 386.5 212.097 386.404C211.101 385.708 210.345 384.748 209.841 383.704C209.349 384.772 208.617 385.756 207.657 386.44C207.525 386.536 207.393 386.584 207.261 386.584C206.913 386.584 206.625 386.248 206.625 385.924C206.625 385.744 206.709 385.576 206.901 385.444C208.353 384.46 209.157 382.96 209.157 380.848V380.632ZM215.421 379.432V388.84C215.421 389.284 215.085 389.512 214.749 389.512C214.413 389.512 214.077 389.284 214.077 388.84V379.432C214.077 378.988 214.413 378.76 214.749 378.76C215.085 378.76 215.421 378.988 215.421 379.432ZM217.267 382.636C217.267 380.788 218.635 379.6 220.315 379.6C221.815 379.6 223.051 380.536 223.315 382.036H224.755V379.432C224.755 378.988 225.091 378.76 225.427 378.76C225.763 378.76 226.099 378.988 226.099 379.432V388.852C226.099 389.296 225.763 389.524 225.427 389.524C225.091 389.524 224.755 389.296 224.755 388.852V383.188H223.327C223.087 384.724 221.827 385.66 220.315 385.66C218.635 385.66 217.267 384.484 217.267 382.636ZM218.599 382.636C218.599 383.812 219.391 384.508 220.315 384.508C221.239 384.508 222.031 383.812 222.031 382.636C222.031 381.448 221.239 380.752 220.315 380.752C219.391 380.752 218.599 381.448 218.599 382.636ZM231.594 380.392H229.398C229.026 380.392 228.834 380.104 228.834 379.816C228.834 379.528 229.026 379.216 229.398 379.216H235.17C235.554 379.216 235.746 379.528 235.746 379.816C235.746 380.104 235.554 380.392 235.17 380.392H232.974C233.13 381.784 234.234 382.516 235.722 383.032C236.01 383.128 236.13 383.356 236.13 383.584C236.13 383.956 235.794 384.316 235.29 384.148C234.042 383.728 232.95 382.984 232.29 382.024C231.63 382.984 230.538 383.728 229.29 384.148C228.786 384.316 228.45 383.956 228.45 383.584C228.45 383.356 228.57 383.128 228.858 383.032C230.334 382.516 231.45 381.784 231.594 380.392ZM231.606 386.272H228.186C227.802 386.272 227.61 385.984 227.61 385.696C227.61 385.396 227.802 385.108 228.186 385.108H236.382C236.778 385.108 236.97 385.396 236.97 385.696C236.97 385.984 236.778 386.272 236.382 386.272H232.974V388.936C232.974 389.404 232.626 389.62 232.29 389.62C231.942 389.62 231.606 389.404 231.606 388.936V386.272ZM244.654 379.48V388.612C244.654 389.056 244.354 389.284 244.018 389.284C243.682 389.284 243.358 389.056 243.358 388.612V382.804H242.242C241.858 382.804 241.666 382.516 241.666 382.228C241.666 381.94 241.858 381.652 242.242 381.652H243.358V379.48C243.358 379.036 243.682 378.808 244.018 378.808C244.354 378.808 244.654 379.036 244.654 379.48ZM241.918 386.26C241.126 385.708 240.574 385 240.202 384.22C239.842 385.06 239.29 385.828 238.51 386.38C238.378 386.476 238.246 386.524 238.114 386.524C237.766 386.524 237.478 386.2 237.478 385.876C237.478 385.708 237.562 385.528 237.754 385.396C239.206 384.412 239.518 382.9 239.518 380.788V379.936C239.518 379.48 239.854 379.24 240.202 379.24C240.538 379.24 240.886 379.48 240.886 379.936V380.968C240.886 383.08 241.222 384.292 242.674 385.276C242.866 385.408 242.95 385.588 242.95 385.756C242.95 386.08 242.662 386.404 242.314 386.404C242.182 386.404 242.05 386.356 241.918 386.26ZM247.018 379.432V388.852C247.018 389.296 246.694 389.524 246.358 389.524C246.022 389.524 245.686 389.296 245.686 388.852V379.432C245.686 378.988 246.022 378.76 246.358 378.76C246.694 378.76 247.018 378.988 247.018 379.432ZM255.272 386.716H257.024C257.42 386.716 257.612 387.004 257.612 387.292C257.612 387.592 257.42 387.88 257.024 387.88H248.828C248.444 387.88 248.252 387.592 248.252 387.292C248.252 387.004 248.444 386.716 248.828 386.716H250.568V384.448C249.968 383.908 249.62 383.128 249.62 382.252C249.62 380.5 251.012 379.18 252.92 379.18C254.828 379.18 256.244 380.5 256.244 382.252C256.244 383.14 255.872 383.908 255.272 384.46V386.716ZM250.952 382.252C250.952 383.38 251.816 384.16 252.92 384.16C254.048 384.16 254.912 383.38 254.912 382.252C254.912 381.136 254.048 380.332 252.92 380.332C251.816 380.332 250.952 381.136 250.952 382.252ZM252.92 385.312C252.56 385.312 252.224 385.264 251.912 385.18V386.716H253.928V385.18C253.604 385.264 253.268 385.312 252.92 385.312ZM258.456 387.892C258.456 387.412 258.852 387.016 259.344 387.016C259.836 387.016 260.232 387.412 260.232 387.892C260.232 388.372 259.836 388.78 259.344 388.78C258.852 388.78 258.456 388.372 258.456 387.892ZM75.5508 407.8H71.3508C70.4868 407.8 70.1028 407.368 70.1028 406.564V404.836C70.1028 404.032 70.4868 403.6 71.3508 403.6H75.5508C76.4148 403.6 76.7988 404.032 76.7988 404.836V406.564C76.7988 407.368 76.4148 407.8 75.5508 407.8ZM69.0108 400.612C69.0108 400.012 69.2268 399.496 69.5988 399.112H68.9508C68.5668 399.112 68.3748 398.836 68.3748 398.548C68.3748 398.248 68.5668 397.96 68.9508 397.96H70.9068V397.156C70.9068 396.676 71.2668 396.46 71.6028 396.46C71.9628 396.46 72.2988 396.676 72.2988 397.156V397.96H74.2188C74.6148 397.96 74.8068 398.248 74.8068 398.548C74.8068 398.836 74.6148 399.112 74.2188 399.112H73.6308C73.9908 399.496 74.2188 400.012 74.2188 400.612C74.2188 402.004 73.0548 402.904 71.6148 402.904C70.1748 402.904 69.0108 402.004 69.0108 400.612ZM76.7988 400.42V402.328C76.7988 402.772 76.4628 403 76.1268 403C75.7908 403 75.4548 402.772 75.4548 402.328V397.432C75.4548 396.988 75.7908 396.76 76.1268 396.76C76.4628 396.76 76.7988 396.988 76.7988 397.432V399.268H78.0588C78.4428 399.268 78.6348 399.556 78.6348 399.844C78.6348 400.132 78.4428 400.42 78.0588 400.42H76.7988ZM71.4348 404.74V406.672H75.4668V404.74H71.4348ZM70.2468 400.456C70.2468 401.32 70.8828 401.836 71.6148 401.836C72.3348 401.836 72.9588 401.32 72.9588 400.456C72.9588 399.64 72.3588 399.136 71.6628 399.112H71.6148C70.8828 399.112 70.2468 399.616 70.2468 400.456ZM84.4894 398.932V399.724C84.4894 399.904 84.4774 400.084 84.4654 400.252H85.3294V397.48C85.3294 397.036 85.6414 396.808 85.9774 396.808C86.3014 396.808 86.6014 397.036 86.6014 397.48V406.612C86.6014 407.056 86.3014 407.284 85.9774 407.284C85.6414 407.284 85.3294 407.056 85.3294 406.612V401.404H84.2734C83.9734 402.544 83.4214 403.612 82.7374 404.488C82.6294 404.62 82.4734 404.668 82.3414 404.668C82.0294 404.668 81.7534 404.368 81.7534 404.056C81.7534 403.924 81.8254 403.792 81.9214 403.66C82.6534 402.64 83.2414 401.116 83.2414 399.724V399.052C83.2414 398.764 83.1214 398.596 82.8214 398.596H82.3654C82.2454 398.596 82.1374 398.572 82.0534 398.536C82.0774 398.656 82.0894 398.788 82.0894 398.932V399.484C82.0894 401.188 81.1894 402.748 80.0734 403.84C79.9654 403.948 79.8214 403.972 79.7014 403.972C79.3894 403.972 79.1374 403.684 79.1374 403.372C79.1374 403.216 79.2214 403.084 79.3534 402.94C80.1214 402.088 80.8414 400.828 80.8414 399.484V399.052C80.8414 398.764 80.7214 398.596 80.4214 398.596H80.0014C79.6054 398.596 79.4014 398.332 79.4014 398.044C79.4014 397.768 79.6054 397.492 80.0014 397.492H80.6374C81.1294 397.492 81.5254 397.624 81.7774 397.912C81.8254 397.684 82.0294 397.492 82.3654 397.492H83.0614C83.9614 397.492 84.4894 397.912 84.4894 398.932ZM88.5574 397.432V406.852C88.5574 407.296 88.2334 407.524 87.9094 407.524C87.5734 407.524 87.2494 407.296 87.2494 406.852V397.432C87.2494 396.988 87.5734 396.76 87.9094 396.76C88.2334 396.76 88.5574 396.988 88.5574 397.432ZM96.2216 406.792H101.106C101.442 406.792 101.682 407.008 101.682 407.356C101.682 407.704 101.442 407.92 101.106 407.92H96.1256C95.2016 407.92 94.5536 407.26 94.5536 406.456C94.5536 405.652 95.2016 405.04 96.1256 405.04H99.7736C99.9896 405.04 100.146 404.884 100.146 404.68C100.146 404.476 99.9896 404.368 99.7736 404.368H95.3216C94.9856 404.368 94.7456 404.176 94.7456 403.828C94.7456 403.48 94.9856 403.264 95.3216 403.264H99.8696C100.794 403.264 101.442 403.756 101.442 404.68C101.442 405.604 100.794 406.108 99.8696 406.108H96.2216C96.0056 406.108 95.8496 406.252 95.8496 406.456C95.8496 406.66 96.0056 406.792 96.2216 406.792ZM99.1136 397.72V397.372C99.1136 396.928 99.4496 396.7 99.7856 396.7C100.122 396.7 100.458 396.928 100.458 397.372V397.804C100.458 398.488 101.022 399.124 101.898 399.856C102.042 399.976 102.09 400.132 102.09 400.276C102.09 400.588 101.802 400.828 101.478 400.828C101.322 400.828 101.19 400.756 101.022 400.624C100.53 400.216 100.098 399.736 99.7736 399.244C99.4496 399.688 99.0296 400.144 98.5256 400.6C98.3576 400.744 98.2016 400.816 98.0456 400.816C97.8896 400.816 97.7336 400.756 97.5656 400.6C97.0616 400.132 96.6296 399.688 96.3176 399.244C95.9816 399.736 95.5616 400.228 95.0696 400.624C94.9016 400.756 94.7696 400.828 94.6136 400.828C94.2896 400.828 94.0016 400.588 94.0016 400.276C94.0016 400.132 94.0496 399.976 94.1936 399.856C95.0696 399.124 95.6336 398.488 95.6336 397.804V397.372C95.6336 396.928 95.9696 396.7 96.3056 396.7C96.6416 396.7 96.9776 396.928 96.9776 397.372V397.72C96.9776 398.332 97.4216 398.932 98.0456 399.46C98.6576 398.932 99.1136 398.332 99.1136 397.72ZM93.9656 401.428H102.162C102.558 401.428 102.75 401.692 102.75 401.98C102.75 402.28 102.558 402.544 102.162 402.544H93.9656C93.5816 402.544 93.3896 402.28 93.3896 401.98C93.3896 401.692 93.5816 401.428 93.9656 401.428ZM109.963 399.016H108.307C107.923 399.016 107.731 398.74 107.731 398.452C107.731 398.152 107.923 397.864 108.307 397.864H109.963V397.072C109.963 396.616 110.311 396.376 110.659 396.376C111.007 396.376 111.355 396.616 111.355 397.072V397.864H112.975C113.371 397.864 113.563 398.152 113.563 398.452C113.563 398.74 113.371 399.016 112.975 399.016H111.355C111.355 400.252 111.955 401.248 113.419 401.992C113.659 402.112 113.755 402.304 113.767 402.496C113.779 402.82 113.527 403.156 113.179 403.168C113.071 403.18 112.951 403.144 112.819 403.072C111.931 402.628 111.151 401.98 110.623 401.116C110.071 402.004 109.267 402.7 108.391 403.168C108.259 403.24 108.139 403.276 108.031 403.264C107.683 403.252 107.419 402.928 107.431 402.604C107.443 402.412 107.539 402.208 107.779 402.1C109.195 401.332 109.927 400.192 109.963 399.016ZM109.399 405.988V404.68C109.399 404.212 109.723 403.984 110.095 403.984C110.431 403.984 110.791 404.212 110.791 404.68V405.952C110.791 406.42 111.031 406.612 111.379 406.612H115.843C116.227 406.612 116.419 406.9 116.419 407.188C116.419 407.476 116.227 407.764 115.843 407.764H111.103C110.083 407.764 109.399 407.128 109.399 405.988ZM116.239 397.432V404.092C116.239 404.536 115.903 404.764 115.567 404.764C115.231 404.764 114.895 404.536 114.895 404.092V397.432C114.895 396.988 115.231 396.76 115.567 396.76C115.903 396.76 116.239 396.988 116.239 397.432ZM121.746 403.528H118.326C117.942 403.528 117.75 403.24 117.75 402.952C117.75 402.652 117.942 402.364 118.326 402.364H126.522C126.918 402.364 127.11 402.652 127.11 402.952C127.11 403.24 126.918 403.528 126.522 403.528H123.114V406.936C123.114 407.404 122.766 407.62 122.43 407.62C122.082 407.62 121.746 407.404 121.746 406.936V403.528ZM124.506 398.992C124.506 398.524 124.254 398.38 123.918 398.38H119.49C119.07 398.38 118.89 398.104 118.89 397.78C118.89 397.504 119.07 397.216 119.49 397.216H124.062C125.082 397.216 125.85 397.828 125.85 398.956C125.85 399.784 125.742 400.564 125.562 401.32C125.478 401.656 125.19 401.812 124.914 401.812C124.53 401.812 124.182 401.524 124.278 401.02C124.41 400.384 124.506 399.7 124.506 398.992ZM128.289 401.464H136.485C136.881 401.464 137.073 401.728 137.073 402.016C137.073 402.316 136.881 402.58 136.485 402.58H128.289C127.905 402.58 127.713 402.316 127.713 402.016C127.713 401.728 127.905 401.464 128.289 401.464ZM130.545 406.792H135.429C135.765 406.792 136.005 407.008 136.005 407.356C136.005 407.704 135.765 407.92 135.429 407.92H130.449C129.525 407.92 128.877 407.26 128.877 406.456C128.877 405.652 129.525 405.04 130.449 405.04H134.097C134.313 405.04 134.469 404.884 134.469 404.68C134.469 404.476 134.313 404.368 134.097 404.368H129.645C129.309 404.368 129.069 404.176 129.069 403.828C129.069 403.48 129.309 403.264 129.645 403.264H134.193C135.117 403.264 135.765 403.756 135.765 404.68C135.765 405.604 135.117 406.108 134.193 406.108H130.545C130.329 406.108 130.173 406.252 130.173 406.456C130.173 406.66 130.329 406.792 130.545 406.792ZM130.353 398.464V399.064C130.353 399.484 130.581 399.676 130.941 399.676H135.225C135.597 399.676 135.777 399.964 135.777 400.252C135.777 400.54 135.597 400.816 135.225 400.816H130.725C129.705 400.816 129.021 400.228 129.021 399.088V398.188C129.021 397.384 129.405 396.94 130.269 396.94H135.141C135.513 396.94 135.705 397.228 135.705 397.516C135.705 397.804 135.513 398.092 135.141 398.092H130.737C130.485 398.092 130.353 398.212 130.353 398.464ZM143.413 404.512C142.405 403.876 141.673 402.964 141.193 401.944C140.713 403 139.993 403.948 139.021 404.572C138.877 404.668 138.745 404.716 138.613 404.704C138.265 404.692 137.989 404.344 138.001 404.032C138.013 403.852 138.097 403.684 138.301 403.552C139.717 402.688 140.425 401.272 140.497 399.352H138.853C138.469 399.352 138.277 399.076 138.277 398.788C138.277 398.488 138.469 398.2 138.853 398.2H140.509V397.276C140.509 396.82 140.857 396.58 141.205 396.58C141.553 396.58 141.901 396.82 141.901 397.276V398.2H143.521C143.917 398.2 144.109 398.488 144.109 398.788C144.109 399.076 143.917 399.352 143.521 399.352H141.901C141.937 401.356 142.669 402.604 144.133 403.492C144.337 403.624 144.421 403.792 144.433 403.972C144.445 404.284 144.169 404.632 143.821 404.644C143.689 404.656 143.557 404.608 143.413 404.512ZM146.845 397.432V406.84C146.845 407.284 146.509 407.512 146.173 407.512C145.837 407.512 145.501 407.284 145.501 406.84V401.536H143.881C143.497 401.536 143.305 401.248 143.305 400.96C143.305 400.672 143.497 400.384 143.881 400.384H145.501V397.432C145.501 396.988 145.837 396.76 146.173 396.76C146.509 396.76 146.845 396.988 146.845 397.432ZM156.276 407.8H152.004C151.14 407.8 150.756 407.368 150.756 406.564V404.836C150.756 404.032 151.14 403.6 152.004 403.6H156.276C157.14 403.6 157.524 404.032 157.524 404.836V406.564C157.524 407.368 157.14 407.8 156.276 407.8ZM149.724 397H152.412C153.468 397 153.996 397.852 153.996 398.692C153.996 399.532 153.468 400.372 152.412 400.372H150.732C150.408 400.372 150.24 400.684 150.24 400.984C150.24 401.284 150.408 401.584 150.732 401.584H154.056C154.428 401.584 154.608 401.872 154.608 402.16C154.608 402.448 154.428 402.724 154.056 402.724H150.516C149.46 402.724 148.932 401.872 148.932 401.008C148.932 400.144 149.46 399.28 150.516 399.28H152.22C152.544 399.28 152.7 398.992 152.7 398.704C152.7 398.416 152.544 398.128 152.22 398.128H149.724C149.352 398.128 149.16 397.852 149.16 397.564C149.16 397.288 149.352 397 149.724 397ZM157.524 397.432V402.328C157.524 402.772 157.188 403 156.852 403C156.516 403 156.18 402.772 156.18 402.328V400.36H154.776C154.392 400.36 154.2 400.072 154.2 399.784C154.2 399.496 154.392 399.208 154.776 399.208H156.18V397.432C156.18 396.988 156.516 396.76 156.852 396.76C157.188 396.76 157.524 396.988 157.524 397.432ZM152.088 404.74V406.672H156.192V404.74H152.088ZM164.312 399.676C164.312 398.092 165.524 396.844 167.432 396.844C169.328 396.844 170.564 398.092 170.564 399.676C170.564 401.248 169.34 402.496 167.432 402.496C165.524 402.496 164.312 401.248 164.312 399.676ZM166.748 404.272H163.328C162.944 404.272 162.752 403.984 162.752 403.696C162.752 403.396 162.944 403.108 163.328 403.108H171.524C171.92 403.108 172.112 403.396 172.112 403.696C172.112 403.984 171.92 404.272 171.524 404.272H168.116V406.936C168.116 407.404 167.768 407.62 167.432 407.62C167.084 407.62 166.748 407.404 166.748 406.936V404.272ZM165.644 399.676C165.644 400.636 166.328 401.344 167.432 401.344C168.548 401.344 169.232 400.636 169.232 399.676C169.232 398.728 168.548 397.996 167.432 397.996C166.328 397.996 165.644 398.728 165.644 399.676ZM181.884 397.432V406.84C181.884 407.284 181.548 407.512 181.212 407.512C180.876 407.512 180.54 407.284 180.54 406.84V397.432C180.54 396.988 180.876 396.76 181.212 396.76C181.548 396.76 181.884 396.988 181.884 397.432ZM178.908 404.5H175.212C173.964 404.5 173.34 403.492 173.34 402.472C173.34 401.452 173.964 400.432 175.212 400.432H176.952C177.456 400.432 177.72 399.988 177.72 399.532C177.72 399.064 177.456 398.62 176.952 398.62H174.192C173.82 398.62 173.628 398.344 173.628 398.056C173.628 397.768 173.82 397.48 174.192 397.48H177.156C178.404 397.48 179.028 398.5 179.028 399.508C179.028 400.528 178.404 401.536 177.156 401.536H175.416C174.912 401.536 174.648 401.98 174.648 402.448C174.648 402.904 174.912 403.348 175.416 403.348H178.908C179.268 403.348 179.46 403.636 179.46 403.924C179.46 404.212 179.268 404.5 178.908 404.5ZM187.762 402.724H185.122C184.258 402.724 183.874 402.292 183.874 401.488V398.236C183.874 397.432 184.258 397 185.122 397H187.762C188.626 397 189.01 397.432 189.01 398.236V401.488C189.01 402.292 188.626 402.724 187.762 402.724ZM191.878 400.804V403.852C191.878 404.296 191.542 404.524 191.206 404.524C190.87 404.524 190.534 404.296 190.534 403.852V397.432C190.534 396.988 190.87 396.76 191.206 396.76C191.542 396.76 191.878 396.988 191.878 397.432V399.652H193.138C193.522 399.652 193.714 399.94 193.714 400.228C193.714 400.516 193.522 400.804 193.138 400.804H191.878ZM185.194 405.988V404.32C185.194 403.852 185.518 403.624 185.89 403.624C186.226 403.624 186.586 403.852 186.586 404.32V405.952C186.586 406.42 186.826 406.612 187.174 406.612H191.566C191.95 406.612 192.142 406.9 192.142 407.188C192.142 407.476 191.95 407.764 191.566 407.764H186.898C185.878 407.764 185.194 407.128 185.194 405.988ZM185.206 398.152V401.584H187.69V398.152H185.206ZM194.961 400.012C194.961 398.428 196.065 397.18 197.901 397.18C199.725 397.18 200.841 398.428 200.841 400.012C200.841 401.584 199.737 402.832 197.901 402.832C196.065 402.832 194.961 401.584 194.961 400.012ZM201.969 405.64H194.889C194.505 405.64 194.313 405.352 194.313 405.052C194.313 404.764 194.505 404.476 194.889 404.476H201.969V397.432C201.969 396.988 202.305 396.76 202.641 396.76C202.977 396.76 203.313 396.988 203.313 397.432V406.852C203.313 407.296 202.977 407.524 202.641 407.524C202.305 407.524 201.969 407.296 201.969 406.852V405.64ZM196.293 400.012C196.293 400.936 196.869 401.68 197.901 401.68C198.945 401.68 199.509 400.936 199.509 400.012C199.509 399.1 198.945 398.332 197.901 398.332C196.869 398.332 196.293 399.1 196.293 400.012ZM217.637 397.432V406.84C217.637 407.284 217.301 407.512 216.965 407.512C216.629 407.512 216.293 407.284 216.293 406.84V397.432C216.293 396.988 216.629 396.76 216.965 396.76C217.301 396.76 217.637 396.988 217.637 397.432ZM208.853 400.636C208.853 398.788 210.221 397.6 211.901 397.6C213.593 397.6 214.961 398.788 214.961 400.636C214.961 402.484 213.593 403.66 211.901 403.66C210.221 403.66 208.853 402.484 208.853 400.636ZM210.185 400.636C210.185 401.812 210.977 402.508 211.901 402.508C212.825 402.508 213.617 401.812 213.617 400.636C213.617 399.448 212.825 398.752 211.901 398.752C210.977 398.752 210.185 399.448 210.185 400.636ZM227.908 403.468H219.736C219.34 403.468 219.148 403.204 219.148 402.904C219.148 402.592 219.34 402.328 219.736 402.328H227.908C228.304 402.328 228.508 402.592 228.508 402.904C228.508 403.204 228.304 403.468 227.908 403.468ZM221.764 405.328V406.672H225.892V405.328H221.764ZM225.976 407.8H221.68C220.816 407.8 220.432 407.368 220.432 406.564V405.436C220.432 404.632 220.816 404.2 221.68 404.2H225.976C226.84 404.2 227.224 404.632 227.224 405.436V406.564C227.224 407.368 226.84 407.8 225.976 407.8ZM225.688 399.808H222.04C221.8 399.808 221.692 400 221.692 400.168C221.692 400.324 221.8 400.516 222.04 400.516H226.78C227.164 400.516 227.368 400.804 227.368 401.08C227.368 401.356 227.164 401.632 226.78 401.632H221.86C220.84 401.632 220.36 400.936 220.36 400.192C220.36 399.412 220.84 398.752 221.86 398.752H225.508C225.748 398.752 225.856 398.56 225.856 398.392C225.856 398.224 225.748 398.032 225.508 398.032H221.152C220.78 398.032 220.588 397.768 220.588 397.492C220.588 397.216 220.78 396.94 221.152 396.94H225.688C226.708 396.94 227.188 397.6 227.188 398.38C227.188 399.124 226.708 399.808 225.688 399.808ZM237.871 402.352H229.699C229.303 402.352 229.111 402.1 229.111 401.8C229.111 401.488 229.303 401.224 229.699 401.224H231.499C231.043 400.768 230.779 400.156 230.779 399.448C230.779 397.924 232.039 396.7 233.779 396.7C235.531 396.7 236.803 397.924 236.803 399.448C236.803 400.156 236.527 400.768 236.071 401.224H237.871C238.267 401.224 238.471 401.488 238.471 401.8C238.471 402.1 238.267 402.352 237.871 402.352ZM235.675 405.988H231.919C231.691 405.988 231.583 406.18 231.583 406.384C231.583 406.588 231.703 406.792 231.919 406.792H236.851C237.235 406.792 237.427 407.08 237.427 407.356C237.427 407.644 237.235 407.92 236.851 407.92H231.763C230.767 407.92 230.275 407.176 230.275 406.42C230.275 405.676 230.767 404.92 231.763 404.92H235.531C235.747 404.92 235.867 404.728 235.867 404.524C235.867 404.332 235.747 404.128 235.531 404.128H231.031C230.659 404.128 230.467 403.852 230.467 403.576C230.467 403.3 230.659 403.024 231.031 403.024H235.675C236.659 403.024 237.163 403.768 237.163 404.512C237.163 405.256 236.659 405.988 235.675 405.988ZM232.075 399.52C232.075 400.444 232.771 401.188 233.707 401.224H233.779C234.751 401.224 235.483 400.468 235.483 399.52C235.483 398.56 234.751 397.828 233.779 397.828C232.807 397.828 232.075 398.56 232.075 399.52ZM245.805 405.196C245.805 403.516 247.077 402.34 248.805 402.34C250.545 402.34 251.829 403.516 251.829 405.196C251.829 406.864 250.545 408.04 248.805 408.04C247.077 408.04 245.805 406.864 245.805 405.196ZM249.897 400.156V401.392C249.897 401.836 249.597 402.064 249.261 402.064C248.925 402.064 248.601 401.836 248.601 401.392V397.48C248.601 397.036 248.925 396.808 249.261 396.808C249.597 396.808 249.897 397.036 249.897 397.48V399.004H250.905V397.432C250.905 396.988 251.241 396.76 251.577 396.76C251.913 396.76 252.237 396.988 252.237 397.432V401.944C252.237 402.388 251.913 402.616 251.577 402.616C251.241 402.616 250.905 402.388 250.905 401.944V400.156H249.897ZM247.233 401.848C246.489 401.392 245.913 400.876 245.517 400.264C245.073 400.972 244.449 401.56 243.669 402.064C243.549 402.148 243.417 402.172 243.309 402.172C242.961 402.172 242.697 401.848 242.697 401.524C242.697 401.332 242.793 401.14 243.021 401.02C244.557 400.156 244.821 399.052 244.821 398.14V397.516C244.821 397.06 245.157 396.82 245.505 396.82C245.841 396.82 246.189 397.06 246.189 397.516V398.092C246.189 399.028 246.321 399.952 247.869 400.792C248.097 400.912 248.193 401.116 248.193 401.308C248.193 401.632 247.929 401.956 247.581 401.956C247.473 401.956 247.353 401.92 247.233 401.848ZM247.125 405.196C247.125 406.204 247.809 406.888 248.805 406.888C249.801 406.888 250.485 406.204 250.485 405.196C250.485 404.2 249.801 403.492 248.805 403.492C247.809 403.492 247.125 404.2 247.125 405.196ZM259.123 398.668V399.052C259.123 400.696 257.407 401.92 254.419 402.628C253.951 402.736 253.687 402.4 253.687 402.064C253.687 401.812 253.831 401.56 254.143 401.5C256.123 401.068 257.791 400.216 257.791 399.124V398.716C257.791 398.344 257.647 398.164 257.311 398.164H254.551C254.131 398.164 253.951 397.888 253.951 397.564C253.951 397.288 254.131 397 254.551 397H257.575C258.643 397 259.123 397.624 259.123 398.668ZM260.023 404.728H255.583C255.187 404.728 254.995 404.44 254.995 404.152C254.995 403.864 255.187 403.576 255.583 403.576H260.167C261.187 403.576 261.955 404.236 261.955 405.376V407.248C261.955 407.692 261.619 407.92 261.283 407.92C260.947 407.92 260.611 407.692 260.611 407.248V405.424C260.611 404.956 260.359 404.728 260.023 404.728ZM261.955 400.3V402.304C261.955 402.748 261.619 402.976 261.283 402.976C260.947 402.976 260.611 402.748 260.611 402.304V397.432C260.611 396.988 260.947 396.76 261.283 396.76C261.619 396.76 261.955 396.988 261.955 397.432V399.148H263.215C263.599 399.148 263.791 399.436 263.791 399.724C263.791 400.012 263.599 400.3 263.215 400.3H261.955ZM271.374 401.752V406.612C271.374 407.056 271.074 407.284 270.738 407.284C270.402 407.284 270.078 407.056 270.078 406.612V397.48C270.078 397.036 270.402 396.808 270.738 396.808C271.074 396.808 271.374 397.036 271.374 397.48V400.6H272.382V397.432C272.382 396.988 272.718 396.76 273.054 396.76C273.39 396.76 273.714 396.988 273.714 397.432V406.852C273.714 407.296 273.39 407.524 273.054 407.524C272.718 407.524 272.382 407.296 272.382 406.852V401.752H271.374ZM264.486 401.176C264.486 400.552 264.678 400.012 265.002 399.592H264.726C264.342 399.592 264.15 399.316 264.15 399.028C264.15 398.728 264.342 398.44 264.726 398.44H266.274V397.576C266.274 397.096 266.61 396.88 266.958 396.88C267.318 396.88 267.642 397.096 267.642 397.576V398.44H269.154C269.55 398.44 269.742 398.728 269.742 399.028C269.742 399.316 269.55 399.592 269.154 399.592H268.926C269.25 400.012 269.454 400.54 269.454 401.176C269.454 402.712 268.338 403.66 266.97 403.66C265.602 403.66 264.486 402.712 264.486 401.176ZM265.71 401.08C265.71 401.992 266.274 402.544 266.97 402.544C267.642 402.544 268.206 401.992 268.206 401.08C268.206 400.168 267.666 399.616 267.018 399.592H266.97C266.274 399.592 265.71 400.144 265.71 401.08ZM280.193 404.716H283.601C283.997 404.716 284.189 405.004 284.189 405.292C284.189 405.592 283.997 405.88 283.601 405.88H275.405C275.021 405.88 274.829 405.592 274.829 405.292C274.829 405.004 275.021 404.716 275.405 404.716H278.825V403.12H277.421C276.557 403.12 276.173 402.688 276.173 401.884V397.96C276.173 397.516 276.497 397.288 276.833 397.288C277.169 397.288 277.505 397.516 277.505 397.96V399.208H281.513V397.96C281.513 397.516 281.837 397.288 282.173 397.288C282.509 397.288 282.845 397.516 282.845 397.96V401.884C282.845 402.688 282.461 403.12 281.597 403.12H280.193V404.716ZM277.505 401.98H281.513V400.348H277.505V401.98ZM284.888 400.636C284.888 398.788 286.256 397.6 287.936 397.6C289.628 397.6 290.996 398.788 290.996 400.636C290.996 402.484 289.628 403.66 287.936 403.66C286.256 403.66 284.888 402.484 284.888 400.636ZM293.276 401.248V406.852C293.276 407.296 292.94 407.524 292.604 407.524C292.268 407.524 291.932 407.296 291.932 406.852V397.432C291.932 396.988 292.268 396.76 292.604 396.76C292.94 396.76 293.276 396.988 293.276 397.432V400.096H294.536C294.92 400.096 295.112 400.384 295.112 400.672C295.112 400.96 294.92 401.248 294.536 401.248H293.276ZM286.22 400.636C286.22 401.812 287.012 402.508 287.936 402.508C288.86 402.508 289.652 401.812 289.652 400.636C289.652 399.448 288.86 398.752 287.936 398.752C287.012 398.752 286.22 399.448 286.22 400.636ZM302.491 404.716H304.243C304.639 404.716 304.831 405.004 304.831 405.292C304.831 405.592 304.639 405.88 304.243 405.88H296.047C295.663 405.88 295.471 405.592 295.471 405.292C295.471 405.004 295.663 404.716 296.047 404.716H297.787V402.448C297.187 401.908 296.839 401.128 296.839 400.252C296.839 398.5 298.231 397.18 300.139 397.18C302.047 397.18 303.463 398.5 303.463 400.252C303.463 401.14 303.091 401.908 302.491 402.46V404.716ZM298.171 400.252C298.171 401.38 299.035 402.16 300.139 402.16C301.267 402.16 302.131 401.38 302.131 400.252C302.131 399.136 301.267 398.332 300.139 398.332C299.035 398.332 298.171 399.136 298.171 400.252ZM300.139 403.312C299.779 403.312 299.443 403.264 299.131 403.18V404.716H301.147V403.18C300.823 403.264 300.487 403.312 300.139 403.312ZM305.675 405.892C305.675 405.412 306.071 405.016 306.563 405.016C307.055 405.016 307.451 405.412 307.451 405.892C307.451 406.372 307.055 406.78 306.563 406.78C306.071 406.78 305.675 406.372 305.675 405.892Z" fill="#FFCC00"/>
    </g>
    <defs>
        <clipPath id="clip0_1839_38537">
            <rect width="375" height="667" fill="white"/>
        </clipPath>
        <clipPath id="clip1_1839_38537">
            <rect width="375.49" height="514.5" fill="white" transform="matrix(-1 0 0 -1 375 625)"/>
        </clipPath>
        <clipPath id="clip2_1839_38537">
            <rect width="150" height="50" fill="white" transform="translate(113 545)"/>
        </clipPath>
        <clipPath id="clip3_1839_38537">
            <rect width="25" height="24" fill="white" transform="translate(34 41)"/>
        </clipPath>
    </defs>
</svg>
