<svg width="375" height="667" viewBox="0 0 375 667" fill="none" xmlns="http://www.w3.org/2000/svg">
    <g clip-path="url(#clip0_1839_38564)">
        <rect width="375" height="667" fill="#FCF9D1"/>
        <g clip-path="url(#clip1_1839_38564)">
            <path d="M375 624.75V110.75H298.2V125.53C301.23 127.25 303.2 130.5 303.2 134.23C303.2 139.75 298.72 144.23 293.2 144.23C287.68 144.23 283.2 139.75 283.2 134.23C283.2 130.5 285.17 127.25 288.2 125.53V110.75H245.36V125.53H245.28C248.31 127.25 250.36 130.5 250.36 134.23C250.36 139.75 245.88 144.23 240.36 144.23C234.84 144.23 230.36 139.75 230.36 134.23C230.36 130.5 232.41 127.25 235.44 125.53H235.36V110.75H192.51V125.53C195.54 127.25 197.51 130.5 197.51 134.23C197.51 139.75 193.03 144.23 187.51 144.23C181.99 144.23 177.51 139.75 177.51 134.23C177.51 130.5 179.48 127.25 182.51 125.53V110.75H139.67V125.53C142.7 127.25 144.67 130.5 144.67 134.23C144.67 139.75 140.19 144.23 134.67 144.23C129.15 144.23 124.67 139.75 124.67 134.23C124.67 130.5 126.64 127.25 129.67 125.53V110.75H86.84V125.53C89.87 127.25 91.84 130.5 91.84 134.23C91.84 139.75 87.36 144.23 81.84 144.23C76.32 144.23 71.84 139.75 71.84 134.23C71.84 130.5 73.81 127.25 76.84 125.53V110.75H0.0100098V624.75H375Z" fill="white" stroke="#777677" stroke-width="0.5" stroke-miterlimit="10"/>
            <path d="M63.4673 203.48C63.4673 200.92 65.3473 198.86 68.4473 198.86C71.5473 198.86 73.4273 200.92 73.4273 203.48C73.4273 206.04 71.5473 208.1 68.4473 208.1C65.3473 208.1 63.4673 206.04 63.4673 203.48ZM71.8473 203.48C71.8473 201.6 70.5073 200.22 68.4473 200.22C66.3873 200.22 65.0473 201.6 65.0473 203.48C65.0473 205.36 66.3873 206.74 68.4473 206.74C70.5073 206.74 71.8473 205.36 71.8473 203.48ZM69.2473 210.76V215.8C69.2473 216.36 68.8873 216.64 68.4273 216.64C67.9873 216.64 67.6273 216.36 67.6273 215.8V210.76H61.4473C60.9873 210.76 60.7473 210.42 60.7473 210.08C60.7473 209.76 60.9873 209.38 61.4473 209.38H75.4073C75.8873 209.38 76.1273 209.76 76.1273 210.08C76.1273 210.42 75.8873 210.76 75.4073 210.76H69.2473ZM92.4535 199.5V215.6C92.4535 216.16 92.0335 216.46 91.6335 216.46C91.2135 216.46 90.8135 216.16 90.8135 215.6V199.5C90.8135 198.92 91.2135 198.64 91.6335 198.64C92.0335 198.64 92.4535 198.92 92.4535 199.5ZM87.9535 211.3H81.5735C79.5935 211.3 78.4935 209.68 78.4935 208.08C78.4935 206.5 79.5935 204.82 81.5735 204.82H84.5735C85.6735 204.82 86.2335 204.08 86.2335 203.1C86.2335 202.08 85.6735 201.38 84.5735 201.38H79.6735C79.2335 201.38 79.0135 201 79.0135 200.7C79.0135 200.38 79.2335 200 79.6735 200H84.7935C86.7735 200 87.8535 201.42 87.8535 203.02C87.8535 204.62 86.7735 206.16 84.7935 206.16H81.7735C80.6935 206.16 80.1135 207.04 80.1135 208.04C80.1135 209.04 80.6935 209.92 81.7735 209.92H87.9535C88.3735 209.92 88.5935 210.3 88.5935 210.62C88.5935 210.94 88.3735 211.3 87.9535 211.3ZM96.3912 206.82V200.74C96.3912 199.54 96.9712 199.2 98.0112 199.2H102.931C103.971 199.2 104.551 199.54 104.551 200.74V206.82C104.551 208.02 103.971 208.36 102.931 208.36H98.0112C96.9712 208.36 96.3912 208.02 96.3912 206.82ZM97.9912 206.98H102.951V200.58H97.9912V206.98ZM109.311 205.04V210.54C109.311 211.1 108.891 211.4 108.511 211.4C108.091 211.4 107.691 211.1 107.691 210.54V199.5C107.691 198.92 108.091 198.64 108.511 198.64C108.891 198.64 109.311 198.92 109.311 199.5V203.66H111.631C112.071 203.66 112.271 204.02 112.271 204.34C112.271 204.7 112.071 205.04 111.631 205.04H109.311ZM101.431 215.46H109.111C109.591 215.46 109.831 215.82 109.831 216.14C109.831 216.46 109.591 216.84 109.111 216.84H101.291C99.7112 216.84 98.6912 216.18 98.6912 214.4V211C98.6912 210.44 99.0712 210.18 99.4912 210.18C99.9312 210.18 100.311 210.44 100.311 211V214.28C100.311 215.14 100.651 215.46 101.431 215.46ZM115.069 204.02C115.069 201.44 117.069 199.48 119.809 199.48C122.549 199.48 124.549 201.44 124.549 204.02C124.549 206.6 122.549 208.56 119.809 208.56C117.069 208.56 115.069 206.6 115.069 204.02ZM128.569 199.5V215.6C128.569 216.16 128.149 216.46 127.769 216.46C127.349 216.46 126.949 216.16 126.949 215.6V213.08H114.449C113.989 213.08 113.749 212.74 113.749 212.4C113.749 212.08 113.989 211.7 114.449 211.7H126.949V199.5C126.949 198.92 127.349 198.64 127.769 198.64C128.149 198.64 128.569 198.92 128.569 199.5ZM122.929 204.02C122.929 202.08 121.509 200.86 119.809 200.86C118.109 200.86 116.689 202.08 116.689 204.02C116.689 205.96 118.109 207.18 119.809 207.18C121.509 207.18 122.929 205.96 122.929 204.02ZM146.503 200.12V201C146.503 204.14 148.723 206.26 151.643 207.28C152.483 207.58 152.063 208.92 151.123 208.64C148.763 207.92 146.743 206.22 145.643 204.12C144.563 206.22 142.563 207.92 140.163 208.64C139.223 208.92 138.803 207.58 139.643 207.28C142.563 206.26 144.783 204.14 144.783 201V200.12C144.783 199.56 145.203 199.26 145.643 199.26C146.063 199.26 146.503 199.56 146.503 200.12ZM138.643 212.3H152.603C153.083 212.3 153.323 212.68 153.323 213C153.323 213.34 153.083 213.68 152.603 213.68H138.643C138.183 213.68 137.943 213.34 137.943 213C137.943 212.68 138.183 212.3 138.643 212.3ZM167.689 208.7H157.189C156.729 208.7 156.509 208.36 156.509 208C156.509 207.64 156.729 207.32 157.189 207.32H158.929V201.26H157.289C156.829 201.26 156.609 200.92 156.609 200.56C156.609 200.2 156.829 199.88 157.289 199.88H167.589C168.049 199.88 168.269 200.2 168.269 200.56C168.269 200.92 168.049 201.26 167.589 201.26H165.949V207.32H167.689C168.149 207.32 168.369 207.64 168.369 208C168.369 208.36 168.149 208.7 167.689 208.7ZM160.549 201.26V207.32H164.329V201.26H160.549ZM155.449 212.3H169.409C169.889 212.3 170.129 212.68 170.129 213C170.129 213.34 169.889 213.68 169.409 213.68H155.449C154.989 213.68 154.749 213.34 154.749 213C154.749 212.68 154.989 212.3 155.449 212.3ZM186.455 199.5V207.52C186.455 208.08 186.035 208.38 185.655 208.38C185.235 208.38 184.835 208.08 184.835 207.52V199.5C184.835 198.92 185.235 198.64 185.655 198.64C186.035 198.64 186.455 198.92 186.455 199.5ZM179.115 203.92H175.475C174.575 203.92 174.115 204.32 174.115 205.04C174.115 205.78 174.575 206.18 175.475 206.18H181.955C182.375 206.18 182.595 206.56 182.595 206.88C182.595 207.2 182.375 207.56 181.955 207.56H175.235C173.475 207.56 172.495 206.44 172.495 205.08C172.495 203.74 173.475 202.62 175.235 202.62H178.935C179.815 202.62 180.255 202.32 180.255 201.6C180.255 200.92 179.815 200.58 178.935 200.58H173.555C173.115 200.58 172.895 200.22 172.895 199.9C172.895 199.58 173.115 199.2 173.555 199.2H179.115C180.875 199.2 181.855 200.24 181.855 201.56C181.855 202.9 180.875 203.92 179.115 203.92ZM176.915 212.88C176.915 210.54 178.835 208.5 181.595 208.5C184.355 208.5 186.275 210.54 186.275 212.88C186.275 215.22 184.355 217.26 181.595 217.26C178.835 217.26 176.915 215.22 176.915 212.88ZM184.715 212.88C184.715 211.14 183.435 209.92 181.595 209.92C179.755 209.92 178.475 211.14 178.475 212.88C178.475 214.62 179.755 215.84 181.595 215.84C183.435 215.84 184.715 214.62 184.715 212.88ZM204.413 199.5V215.6C204.413 216.16 203.993 216.46 203.613 216.46C203.193 216.46 202.793 216.16 202.793 215.6V199.5C202.793 198.92 203.193 198.64 203.613 198.64C203.993 198.64 204.413 198.92 204.413 199.5ZM190.153 205.04C190.153 201.94 192.493 200.14 195.173 200.14C197.853 200.14 200.193 201.94 200.193 205.04C200.193 208.14 197.853 209.94 195.173 209.94C192.493 209.94 190.153 208.14 190.153 205.04ZM198.573 205.04C198.573 202.88 196.993 201.52 195.173 201.52C193.353 201.52 191.773 202.88 191.773 205.04C191.773 207.2 193.353 208.56 195.173 208.56C196.993 208.56 198.573 207.2 198.573 205.04ZM227.926 205.5V211.72C227.926 212.28 227.506 212.58 227.126 212.58C226.706 212.58 226.306 212.28 226.306 211.72V210.24H214.646C214.186 210.24 213.946 209.9 213.946 209.56C213.946 209.24 214.186 208.86 214.646 208.86H218.846V206.88C216.686 206.58 215.246 205.04 215.246 202.9C215.246 200.5 217.046 198.86 219.646 198.86C222.246 198.86 224.046 200.5 224.046 202.9C224.046 205.04 222.606 206.58 220.466 206.88V208.86H226.306V199.5C226.306 198.92 226.706 198.64 227.126 198.64C227.506 198.64 227.926 198.92 227.926 199.5V204.2H229.966C230.426 204.2 230.666 204.54 230.666 204.86C230.666 205.18 230.426 205.5 229.966 205.5H227.926ZM216.806 202.9C216.806 204.42 217.786 205.6 219.646 205.6C221.506 205.6 222.486 204.42 222.486 202.9C222.486 201.38 221.506 200.2 219.646 200.2C217.786 200.2 216.806 201.38 216.806 202.9ZM219.826 215.46H227.906C228.386 215.46 228.626 215.82 228.626 216.14C228.626 216.46 228.386 216.84 227.906 216.84H219.686C218.106 216.84 217.086 216.18 217.086 214.4V212.12C217.086 211.56 217.466 211.3 217.886 211.3C218.326 211.3 218.706 211.56 218.706 212.12V214.28C218.706 215.14 219.046 215.46 219.826 215.46ZM237.124 212.68C237.124 210.2 239.064 208.1 241.904 208.1C244.744 208.1 246.684 210.2 246.684 212.68C246.684 215.16 244.744 217.26 241.904 217.26C239.064 217.26 237.124 215.16 237.124 212.68ZM245.124 212.68C245.124 210.8 243.824 209.52 241.904 209.52C239.984 209.52 238.684 210.8 238.684 212.68C238.684 214.56 239.984 215.84 241.904 215.84C243.824 215.84 245.124 214.56 245.124 212.68ZM241.404 206.94C239.764 206.12 238.384 204.86 237.564 203.38C236.684 205 235.184 206.36 233.504 207.32C232.664 207.8 231.904 206.46 232.744 206.02C235.364 204.62 236.704 202.58 236.704 200.9V199.68C236.704 199.1 237.084 198.78 237.524 198.78C237.944 198.78 238.364 199.1 238.364 199.68V200.82C238.364 202.56 239.484 204.2 242.124 205.62C242.964 206.08 242.284 207.38 241.404 206.94ZM246.844 199.5V207.12C246.844 207.68 246.424 207.98 246.044 207.98C245.624 207.98 245.224 207.68 245.224 207.12V203.06H241.904C241.464 203.06 241.244 202.72 241.244 202.38C241.244 202.04 241.464 201.68 241.904 201.68H245.224V199.5C245.224 198.92 245.624 198.64 246.044 198.64C246.424 198.64 246.844 198.92 246.844 199.5ZM264.962 199.5V215.6C264.962 216.16 264.542 216.46 264.162 216.46C263.742 216.46 263.342 216.16 263.342 215.6V213.06H250.842C250.382 213.06 250.142 212.72 250.142 212.38C250.142 212.06 250.382 211.68 250.842 211.68H255.382V208.34H254.142C252.542 208.34 251.682 207.5 251.682 205.72V201.82C251.682 200.64 252.242 200 253.542 200H259.982C260.462 200 260.702 200.34 260.702 200.66C260.702 201 260.462 201.38 259.982 201.38H254.082C253.442 201.38 253.302 201.48 253.302 202.18V205.62C253.302 206.7 253.662 206.96 254.442 206.96H260.182C260.642 206.96 260.862 207.34 260.862 207.64C260.862 207.98 260.642 208.34 260.182 208.34H257.002V211.68H263.342V199.5C263.342 198.92 263.742 198.64 264.162 198.64C264.542 198.64 264.962 198.92 264.962 199.5ZM268.779 203.34C268.779 200.76 270.699 198.84 273.439 198.84C275.939 198.84 277.739 200.44 278.039 202.68H281.219V199.5C281.219 198.92 281.619 198.64 282.039 198.64C282.419 198.64 282.839 198.92 282.839 199.5V207.94C282.839 208.5 282.419 208.8 282.039 208.8C281.619 208.8 281.219 208.5 281.219 207.94V204.04H278.039C277.719 206.26 275.919 207.84 273.439 207.84C270.699 207.84 268.779 205.92 268.779 203.34ZM277.259 215.44C278.659 214.44 279.339 212.98 279.339 211.24V210.44C279.339 209.88 279.739 209.6 280.159 209.6C280.559 209.6 280.979 209.88 280.979 210.44V211.22C280.999 213.2 281.899 214.48 283.979 215.74C284.819 216.24 284.099 217.34 283.219 216.94C281.999 216.22 280.919 215.26 280.219 214.06C279.619 215.22 278.719 216.24 277.679 216.84C277.439 216.98 277.239 217.04 277.039 217.04C276.859 217.04 276.679 216.98 276.459 216.84C275.399 216.2 274.499 215.14 273.919 213.98C273.159 215.22 271.979 216.2 270.739 216.94C269.799 217.4 269.219 216.16 269.999 215.74C272.119 214.56 273.159 213.2 273.199 211.22V210.44C273.199 209.88 273.599 209.6 273.999 209.6C274.399 209.6 274.819 209.88 274.819 210.44V211.24C274.819 212.98 275.419 214.46 276.839 215.44C276.959 215.54 277.099 215.56 277.259 215.44ZM276.499 203.34C276.499 201.4 275.139 200.2 273.439 200.2C271.739 200.2 270.379 201.4 270.379 203.34C270.379 205.28 271.739 206.48 273.439 206.48C275.139 206.48 276.499 205.28 276.499 203.34ZM286.617 205.04C286.617 201.94 288.857 200.14 291.537 200.14C293.997 200.14 296.077 201.66 296.397 204.32H299.217V199.5C299.217 198.92 299.617 198.64 300.037 198.64C300.417 198.64 300.837 198.92 300.837 199.5V215.6C300.837 216.16 300.417 216.46 300.037 216.46C299.617 216.46 299.217 216.16 299.217 215.6V205.7H296.417C296.117 208.4 294.017 209.94 291.537 209.94C288.857 209.94 286.617 208.14 286.617 205.04ZM294.837 205.04C294.837 202.88 293.357 201.52 291.537 201.52C289.717 201.52 288.237 202.88 288.237 205.04C288.237 207.2 289.717 208.56 291.537 208.56C293.357 208.56 294.837 207.2 294.837 205.04ZM306.355 204.28C306.355 201.46 308.575 199.26 311.635 199.26C314.695 199.26 316.915 201.46 316.915 204.28C316.915 205.78 316.295 207.1 315.255 208V212.34H318.595C319.075 212.34 319.315 212.72 319.315 213.04C319.315 213.38 319.075 213.72 318.595 213.72H304.635C304.175 213.72 303.935 213.38 303.935 213.04C303.935 212.72 304.175 212.34 304.635 212.34H308.015V208C306.975 207.1 306.355 205.78 306.355 204.28ZM315.335 204.28C315.335 202.2 313.775 200.62 311.635 200.62C309.495 200.62 307.935 202.2 307.935 204.28C307.935 206.36 309.495 207.94 311.635 207.94C313.775 207.94 315.335 206.36 315.335 204.28ZM311.635 209.3C310.915 209.3 310.235 209.18 309.635 208.96V212.34H313.635V208.96C313.015 209.18 312.355 209.3 311.635 209.3ZM321.461 213.82C321.461 213.24 321.921 212.76 322.501 212.76C323.081 212.76 323.541 213.24 323.541 213.82C323.541 214.4 323.081 214.9 322.501 214.9C321.921 214.9 321.461 214.4 321.461 213.82ZM321.741 210.36V200.3C321.741 199.84 322.001 199.5 322.501 199.5C323.001 199.5 323.261 199.84 323.261 200.3V210.36C323.261 210.82 323.001 211.16 322.501 211.16C322.001 211.16 321.741 210.82 321.741 210.36ZM122.881 238.3H136.841C137.321 238.3 137.561 238.68 137.561 239C137.561 239.34 137.321 239.68 136.841 239.68H122.881C122.421 239.68 122.181 239.34 122.181 239C122.181 238.68 122.421 238.3 122.881 238.3ZM133.741 228.78C133.741 227.74 133.121 227.26 132.341 227.26H124.741C124.261 227.26 124.061 226.96 124.061 226.56C124.061 226.22 124.261 225.88 124.741 225.88H132.581C134.161 225.88 135.341 226.94 135.341 228.7C135.341 231.16 135.001 233.68 134.481 235.7C134.361 236.14 134.041 236.32 133.661 236.32C133.181 236.32 132.821 235.88 132.941 235.28C133.341 233.3 133.741 231.16 133.741 228.78ZM152.208 236.94V241.56C152.208 242.56 151.748 243 150.688 243H142.668C141.628 243 141.148 242.56 141.148 241.56V236.94C141.148 236.38 141.548 236.08 141.948 236.08C142.348 236.08 142.768 236.38 142.768 236.94V238.3H150.588V236.94C150.588 236.38 150.988 236.08 151.388 236.08C151.788 236.08 152.208 236.38 152.208 236.94ZM143.588 230.92H151.808C152.248 230.92 152.488 231.26 152.488 231.58C152.488 231.92 152.248 232.26 151.808 232.26H143.368C141.768 232.26 140.988 231.34 140.988 230.16C140.988 228.9 141.768 228.02 143.368 228.02H149.548C150.268 228.02 150.628 227.78 150.628 227.2C150.628 226.62 150.268 226.4 149.548 226.4H142.008C141.588 226.4 141.388 226.06 141.388 225.74C141.388 225.42 141.588 225.06 142.008 225.06H149.788C151.388 225.06 152.168 225.92 152.168 227.18C152.168 228.36 151.388 229.26 149.788 229.26H143.588C142.888 229.26 142.528 229.48 142.528 230.08C142.528 230.64 142.888 230.92 143.588 230.92ZM139.688 233.46H153.648C154.128 233.46 154.368 233.82 154.368 234.14C154.368 234.48 154.128 234.8 153.648 234.8H147.488V236.28C147.488 236.84 147.068 237.14 146.688 237.14C146.268 237.14 145.868 236.84 145.868 236.28V234.8H139.688C139.228 234.8 138.988 234.48 138.988 234.14C138.988 233.82 139.228 233.46 139.688 233.46ZM142.768 241.68H150.588V239.58H142.768V241.68ZM167.354 228.78C167.354 227.74 166.734 227.26 165.954 227.26H158.354C157.874 227.26 157.674 226.96 157.674 226.56C157.674 226.22 157.874 225.88 158.354 225.88H166.194C167.774 225.88 168.954 226.94 168.954 228.7C168.954 231.36 168.594 233.56 168.174 235.5C168.074 235.94 167.714 236.12 167.394 236.12C166.954 236.12 166.514 235.72 166.634 235.12C166.814 234.14 166.994 233.18 167.114 232.2H158.554C158.114 232.2 157.914 231.86 157.914 231.5C157.914 231.2 158.114 230.86 158.554 230.86H167.274C167.314 230.2 167.354 229.52 167.354 228.78ZM163.234 238.3H170.454C170.934 238.3 171.174 238.68 171.174 239C171.174 239.34 170.934 239.68 170.454 239.68H156.494C156.034 239.68 155.794 239.34 155.794 239C155.794 238.68 156.034 238.3 156.494 238.3H161.614V234.68C161.614 234.12 161.994 233.82 162.414 233.82C162.834 233.82 163.234 234.12 163.234 234.68V238.3ZM173.3 238.3H187.26C187.74 238.3 187.98 238.68 187.98 239C187.98 239.34 187.74 239.68 187.26 239.68H173.3C172.84 239.68 172.6 239.34 172.6 239C172.6 238.68 172.84 238.3 173.3 238.3ZM176.36 228.24V232.12C176.36 233.04 176.7 233.4 177.54 233.4H185.34C185.76 233.4 185.98 233.74 185.98 234.06C185.98 234.42 185.76 234.78 185.34 234.78H177.16C175.6 234.78 174.74 233.94 174.74 232.16V227.74C174.74 226.56 175.3 225.88 176.56 225.88H185.2C185.62 225.88 185.84 226.24 185.84 226.6C185.84 226.96 185.62 227.26 185.2 227.26H177.38C176.52 227.26 176.36 227.38 176.36 228.24ZM202.246 232.04H193.846C192.346 232.04 191.406 231.32 191.406 229.98C191.406 228.86 192.146 227.9 193.846 227.9H200.146C200.726 227.9 201.026 227.62 201.026 227.12C201.026 226.64 200.726 226.34 200.146 226.34H192.426C192.006 226.34 191.806 226.02 191.806 225.7C191.806 225.38 192.006 225.06 192.426 225.06H200.166C201.646 225.06 202.566 225.78 202.566 227.08C202.566 228.4 201.646 229.12 200.166 229.12H193.846C193.266 229.12 192.946 229.44 192.946 229.9C192.946 230.42 193.266 230.7 193.846 230.7H202.246C202.686 230.7 202.906 231.06 202.906 231.36C202.906 231.7 202.686 232.04 202.246 232.04ZM202.426 243.2H193.626C192.126 243.2 191.306 242.36 191.306 241.14C191.306 239.92 192.126 239.06 193.626 239.06H200.226C200.786 239.06 201.086 238.78 201.086 238.3C201.086 237.84 200.786 237.52 200.226 237.52H192.286C191.866 237.52 191.666 237.18 191.666 236.88C191.666 236.56 191.866 236.22 192.286 236.22H200.346C201.826 236.22 202.626 237.04 202.626 238.26C202.626 239.48 201.826 240.3 200.346 240.3H193.706C193.146 240.3 192.846 240.64 192.846 241.08C192.846 241.58 193.146 241.86 193.706 241.86H202.426C202.866 241.86 203.066 242.22 203.066 242.54C203.066 242.86 202.866 243.2 202.426 243.2ZM190.106 233.42H204.066C204.546 233.42 204.786 233.76 204.786 234.08C204.786 234.42 204.546 234.72 204.066 234.72H190.106C189.646 234.72 189.406 234.42 189.406 234.08C189.406 233.76 189.646 233.42 190.106 233.42ZM219.969 233.54H227.269C227.749 233.54 227.989 233.92 227.989 234.24C227.989 234.58 227.749 234.92 227.269 234.92H223.689C224.749 235.8 225.389 237.08 225.389 238.54C225.389 241.24 223.229 243.3 220.289 243.3C217.349 243.3 215.189 241.24 215.189 238.54C215.189 237.08 215.829 235.8 216.889 234.92H213.309C212.849 234.92 212.609 234.58 212.609 234.24C212.609 233.92 212.849 233.54 213.309 233.54H218.349V230.3C218.349 229.7 218.749 229.42 219.169 229.42C219.589 229.42 219.969 229.7 219.969 230.3V233.54ZM223.789 238.44C223.789 236.42 222.289 234.96 220.289 234.96C218.289 234.96 216.789 236.42 216.789 238.44C216.789 240.46 218.289 241.92 220.289 241.92C222.289 241.92 223.789 240.46 223.789 238.44ZM224.189 227.88C224.189 226.82 223.589 226.5 222.809 226.5H215.169C214.689 226.5 214.489 226.16 214.489 225.76C214.489 225.42 214.689 225.1 215.169 225.1H223.049C224.629 225.1 225.809 226.06 225.809 227.8C225.809 229.1 225.629 230.12 225.389 231.18C225.289 231.6 224.969 231.84 224.589 231.84C224.149 231.84 223.709 231.46 223.829 230.86C224.049 229.84 224.189 228.92 224.189 227.88ZM232.135 229.48C232.135 226.92 234.015 224.86 237.115 224.86C240.215 224.86 242.095 226.92 242.095 229.48C242.095 232.04 240.215 234.1 237.115 234.1C234.015 234.1 232.135 232.04 232.135 229.48ZM230.115 235.38H244.075C244.555 235.38 244.795 235.76 244.795 236.08C244.795 236.42 244.555 236.76 244.075 236.76H240.715V241.8C240.715 242.36 240.355 242.64 239.895 242.64C239.455 242.64 239.095 242.36 239.095 241.8V236.76H235.115V241.8C235.115 242.36 234.755 242.64 234.295 242.64C233.855 242.64 233.495 242.36 233.495 241.8V236.76H230.115C229.655 236.76 229.415 236.42 229.415 236.08C229.415 235.76 229.655 235.38 230.115 235.38ZM240.515 229.48C240.515 227.6 239.175 226.22 237.115 226.22C235.055 226.22 233.715 227.6 233.715 229.48C233.715 231.36 235.055 232.74 237.115 232.74C239.175 232.74 240.515 231.36 240.515 229.48ZM250.801 225C251.221 225 251.661 225.26 251.661 225.88V227.7H254.761C255.221 227.7 255.421 228.04 255.421 228.38C255.421 228.72 255.221 229.04 254.761 229.04H253.541C254.281 229.72 254.761 230.68 254.761 231.84C254.761 234.3 252.901 235.74 250.801 235.74C248.701 235.74 246.841 234.3 246.841 231.84C246.841 230.68 247.301 229.72 248.041 229.04H246.921C246.481 229.04 246.281 228.72 246.281 228.38C246.281 228.04 246.481 227.7 246.921 227.7H249.941V225.88C249.941 225.26 250.381 225 250.801 225ZM257.741 232.64V241.2C257.741 241.76 257.361 242.06 256.981 242.06C256.561 242.06 256.201 241.76 256.201 241.2V225.6C256.201 225.02 256.561 224.74 256.981 224.74C257.361 224.74 257.741 225.02 257.741 225.6V231.26H259.961V225.5C259.961 224.92 260.361 224.64 260.781 224.64C261.161 224.64 261.581 224.92 261.581 225.5V241.6C261.581 242.16 261.161 242.46 260.781 242.46C260.361 242.46 259.961 242.16 259.961 241.6V232.64H257.741ZM248.301 231.78C248.301 233.18 249.221 234.44 250.801 234.44C252.381 234.44 253.301 233.18 253.301 231.78C253.301 230.38 252.381 229.12 250.801 229.12C249.221 229.12 248.301 230.38 248.301 231.78ZM111.652 260.68C109.872 259.88 108.212 258.16 107.532 256.48C106.752 258.34 105.012 259.98 103.352 260.84C102.452 261.32 101.872 260.12 102.692 259.62C104.732 258.38 106.512 256.44 106.732 254.32H103.492C103.052 254.32 102.852 254 102.852 253.66C102.852 253.3 103.052 252.98 103.492 252.98H106.712V250.84C106.712 250.22 107.112 249.96 107.512 249.96C107.932 249.96 108.332 250.22 108.332 250.84V252.98H111.512C111.972 252.98 112.172 253.3 112.172 253.66C112.172 254 111.972 254.32 111.512 254.32H108.312C108.512 256.32 110.112 258.3 112.212 259.42C112.992 259.84 112.492 261.06 111.652 260.68ZM108.292 267.46H116.172C116.652 267.46 116.892 267.82 116.892 268.14C116.892 268.46 116.652 268.84 116.172 268.84H108.152C106.572 268.84 105.552 268.18 105.552 266.4V263C105.552 262.44 105.932 262.18 106.352 262.18C106.792 262.18 107.172 262.44 107.172 263V266.28C107.172 267.14 107.512 267.46 108.292 267.46ZM116.452 251.5V262.54C116.452 263.1 116.032 263.4 115.652 263.4C115.232 263.4 114.832 263.1 114.832 262.54V251.5C114.832 250.92 115.232 250.64 115.652 250.64C116.032 250.64 116.452 250.92 116.452 251.5ZM127.85 261.46V267.8C127.85 268.36 127.49 268.64 127.03 268.64C126.59 268.64 126.23 268.36 126.23 267.8V261.46H120.25C119.79 261.46 119.55 261.12 119.55 260.78C119.55 260.46 119.79 260.08 120.25 260.08H134.21C134.69 260.08 134.93 260.46 134.93 260.78C134.93 261.12 134.69 261.46 134.21 261.46H127.85ZM131.05 254.32C131.05 253.26 130.45 252.94 129.67 252.94H122.11C121.63 252.94 121.43 252.6 121.43 252.2C121.43 251.86 121.63 251.54 122.11 251.54H129.91C131.49 251.54 132.67 252.5 132.67 254.24C132.67 255.54 132.39 257.18 132.15 258.24C132.05 258.66 131.73 258.9 131.35 258.9C130.91 258.9 130.47 258.52 130.59 257.92C130.81 256.9 131.05 255.36 131.05 254.32ZM146.896 266.02H140.996C140.276 266.02 139.736 266.26 139.736 266.92C139.736 267.54 140.276 267.86 140.996 267.86H149.336C149.796 267.86 150.016 268.22 150.016 268.54C150.016 268.86 149.796 269.2 149.336 269.2H140.876C139.076 269.2 138.196 268.28 138.196 267C138.196 265.66 139.076 264.72 140.876 264.72H146.776C147.476 264.72 148.016 264.48 148.016 263.84C148.016 263.2 147.476 262.98 146.776 262.98H139.256C138.816 262.98 138.576 262.64 138.576 262.32C138.576 262 138.816 261.64 139.256 261.64H146.896C148.696 261.64 149.556 262.5 149.556 263.82C149.556 265.08 148.696 266.02 146.896 266.02ZM137.056 258.68H151.016C151.496 258.68 151.736 259.06 151.736 259.38C151.736 259.72 151.496 260.06 151.016 260.06H137.056C136.596 260.06 136.356 259.72 136.356 259.38C136.356 259.06 136.596 258.68 137.056 258.68ZM140.196 253.24V254.54C140.196 255.48 140.536 255.72 141.376 255.72H148.976C149.396 255.72 149.576 256.06 149.576 256.4C149.576 256.74 149.396 257.1 148.976 257.1H141.056C139.496 257.1 138.576 256.32 138.576 254.54V252.82C138.576 251.62 139.056 251.06 140.296 251.06H148.816C149.236 251.06 149.456 251.4 149.456 251.74C149.456 252.1 149.236 252.42 148.816 252.42H141.036C140.336 252.42 140.196 252.54 140.196 253.24ZM156.142 255C156.142 252.58 158.042 250.64 160.842 250.64C163.642 250.64 165.542 252.58 165.542 255C165.542 256.3 164.982 257.48 164.042 258.28H167.842C168.322 258.28 168.562 258.62 168.562 258.94C168.562 259.28 168.322 259.58 167.842 259.58H153.862C153.402 259.58 153.162 259.28 153.162 258.94C153.162 258.62 153.402 258.28 153.862 258.28H157.642C156.682 257.48 156.142 256.3 156.142 255ZM163.702 265.82H157.802C157.082 265.82 156.542 266.1 156.542 266.82C156.542 267.5 157.082 267.86 157.802 267.86H166.142C166.602 267.86 166.822 268.22 166.822 268.54C166.822 268.86 166.602 269.2 166.142 269.2H157.682C155.882 269.2 155.002 268.24 155.002 266.9C155.002 265.52 155.882 264.52 157.682 264.52H163.582C164.282 264.52 164.822 264.24 164.822 263.54C164.822 262.84 164.282 262.58 163.582 262.58H156.062C155.622 262.58 155.382 262.24 155.382 261.92C155.382 261.6 155.622 261.24 156.062 261.24H163.702C165.502 261.24 166.362 262.14 166.362 263.52C166.362 264.84 165.502 265.82 163.702 265.82ZM157.702 255.1C157.702 256.84 158.982 258.22 160.842 258.22C162.702 258.22 163.982 256.84 163.982 255.1C163.982 253.36 162.702 251.98 160.842 251.98C158.982 251.98 157.702 253.36 157.702 255.1ZM189.544 261.12C187.184 260.52 185.144 259.08 184.064 257.16C182.984 259.12 180.944 260.56 178.584 261.12C177.624 261.34 177.284 259.94 178.164 259.72C180.524 259.1 182.944 257.44 183.204 254.78H179.104C178.684 254.78 178.464 254.42 178.464 254.06C178.464 253.68 178.684 253.3 179.104 253.3H183.224V251.54C183.224 250.92 183.624 250.66 184.044 250.66C184.464 250.66 184.864 250.92 184.864 251.54V253.3H189.044C189.504 253.3 189.704 253.68 189.704 254.06C189.704 254.42 189.504 254.78 189.044 254.78H184.904C185.184 257.44 187.604 259.1 189.944 259.72C190.884 259.98 190.464 261.36 189.544 261.12ZM184.864 264.3H191.024C191.504 264.3 191.744 264.68 191.744 265C191.744 265.34 191.504 265.68 191.024 265.68H177.064C176.604 265.68 176.364 265.34 176.364 265C176.364 264.68 176.604 264.3 177.064 264.3H183.244V261.3C183.244 260.74 183.624 260.44 184.044 260.44C184.464 260.44 184.864 260.74 184.864 261.3V264.3ZM204.431 258.14V267.2C204.431 267.76 204.051 268.06 203.671 268.06C203.251 268.06 202.891 267.76 202.891 267.2V251.6C202.891 251.02 203.251 250.74 203.671 250.74C204.051 250.74 204.431 251.02 204.431 251.6V256.76H206.911V251.5C206.911 250.92 207.311 250.64 207.731 250.64C208.111 250.64 208.531 250.92 208.531 251.5V267.6C208.531 268.16 208.111 268.46 207.731 268.46C207.311 268.46 206.911 268.16 206.911 267.6V258.14H204.431ZM201.191 262.9H196.811C195.211 262.9 194.151 261.86 194.151 260.08V253.82C194.151 252.64 194.711 252 196.011 252H200.511C200.991 252 201.231 252.34 201.231 252.66C201.231 253 200.991 253.38 200.511 253.38H196.551C195.911 253.38 195.771 253.48 195.771 254.18V259.98C195.771 261.06 196.331 261.52 197.111 261.52H201.191C201.651 261.52 201.871 261.9 201.871 262.2C201.871 262.54 201.651 262.9 201.191 262.9ZM215.748 251C216.168 251 216.608 251.26 216.608 251.88V253.7H219.708C220.168 253.7 220.368 254.04 220.368 254.38C220.368 254.72 220.168 255.04 219.708 255.04H218.488C219.228 255.72 219.708 256.68 219.708 257.84C219.708 260.3 217.848 261.74 215.748 261.74C213.648 261.74 211.788 260.3 211.788 257.84C211.788 256.68 212.248 255.72 212.988 255.04H211.868C211.428 255.04 211.228 254.72 211.228 254.38C211.228 254.04 211.428 253.7 211.868 253.7H214.888V251.88C214.888 251.26 215.328 251 215.748 251ZM222.688 258.64V267.2C222.688 267.76 222.308 268.06 221.928 268.06C221.508 268.06 221.148 267.76 221.148 267.2V251.6C221.148 251.02 221.508 250.74 221.928 250.74C222.308 250.74 222.688 251.02 222.688 251.6V257.26H224.908V251.5C224.908 250.92 225.308 250.64 225.728 250.64C226.108 250.64 226.528 250.92 226.528 251.5V267.6C226.528 268.16 226.108 268.46 225.728 268.46C225.308 268.46 224.908 268.16 224.908 267.6V258.64H222.688ZM213.248 257.78C213.248 259.18 214.168 260.44 215.748 260.44C217.328 260.44 218.248 259.18 218.248 257.78C218.248 256.38 217.328 255.12 215.748 255.12C214.168 255.12 213.248 256.38 213.248 257.78ZM233.146 252.42V254.88H240.566V252.42C240.566 251.84 240.966 251.56 241.366 251.56C241.766 251.56 242.186 251.84 242.186 252.42V259.52C242.186 260.6 241.606 261.02 240.506 261.02H237.666V264.3H243.826C244.306 264.3 244.546 264.68 244.546 265C244.546 265.34 244.306 265.68 243.826 265.68H229.866C229.406 265.68 229.166 265.34 229.166 265C229.166 264.68 229.406 264.3 229.866 264.3H236.046V261.02H233.206C232.106 261.02 231.526 260.6 231.526 259.52V252.42C231.526 251.84 231.926 251.56 232.326 251.56C232.726 251.56 233.146 251.84 233.146 252.42ZM233.146 259.64H240.566V256.24H233.146V259.64ZM253.552 263.04C252.012 261.94 251.012 260.44 250.412 258.82C249.832 260.46 248.852 262 247.232 263.24C246.392 263.88 245.552 262.66 246.332 262.02C248.832 259.92 249.532 257.44 249.532 253.76V252.28C249.532 251.68 249.952 251.38 250.372 251.38C250.772 251.38 251.192 251.68 251.192 252.28V253.96C251.192 257.84 252.152 260.06 254.452 261.82C255.272 262.44 254.352 263.62 253.552 263.04ZM257.572 251.6V267.2C257.572 267.76 257.192 268.06 256.812 268.06C256.392 268.06 256.032 267.76 256.032 267.2V257.06H253.572C253.132 257.06 252.932 256.72 252.932 256.36C252.932 256.02 253.132 255.68 253.572 255.68H256.032V251.6C256.032 251.02 256.392 250.74 256.812 250.74C257.192 250.74 257.572 251.02 257.572 251.6ZM261.332 251.5V267.6C261.332 268.16 260.912 268.46 260.532 268.46C260.112 268.46 259.712 268.16 259.712 267.6V251.5C259.712 250.92 260.112 250.64 260.532 250.64C260.912 250.64 261.332 250.92 261.332 251.5ZM266.39 256.28C266.39 253.46 268.61 251.26 271.67 251.26C274.73 251.26 276.95 253.46 276.95 256.28C276.95 257.78 276.33 259.1 275.29 260V264.34H278.63C279.11 264.34 279.35 264.72 279.35 265.04C279.35 265.38 279.11 265.72 278.63 265.72H264.67C264.21 265.72 263.97 265.38 263.97 265.04C263.97 264.72 264.21 264.34 264.67 264.34H268.05V260C267.01 259.1 266.39 257.78 266.39 256.28ZM275.37 256.28C275.37 254.2 273.81 252.62 271.67 252.62C269.53 252.62 267.97 254.2 267.97 256.28C267.97 258.36 269.53 259.94 271.67 259.94C273.81 259.94 275.37 258.36 275.37 256.28ZM271.67 261.3C270.95 261.3 270.27 261.18 269.67 260.96V264.34H273.67V260.96C273.05 261.18 272.39 261.3 271.67 261.3ZM281.076 265.82C281.076 265.24 281.536 264.76 282.116 264.76C282.696 264.76 283.156 265.24 283.156 265.82C283.156 266.4 282.696 266.9 282.116 266.9C281.536 266.9 281.076 266.4 281.076 265.82Z" fill="black"/>
            <g clip-path="url(#clip2_1839_38564)">
                <path d="M122.328 402.962C126.174 403.168 130.121 402.539 133.844 401.599C138.144 400.508 142.292 398.833 146.306 396.969C154.602 393.113 162.272 387.91 169.226 382C172.424 379.278 175.46 376.351 178.205 373.179C180.95 370.007 183.555 366.607 185.539 362.901C186.546 361.026 187.412 359.056 188.111 357.041C188.81 355.027 189.089 353.191 189.324 351.176C189.755 347.514 188.927 343.764 187.228 340.508C186.903 339.891 186.523 339.306 186.104 338.75C185.383 337.793 184.645 336.769 183.745 335.956C182.409 334.749 180.793 333.68 178.999 333.291C177.204 332.901 175.51 332.901 173.66 333.335C170.876 333.986 168.578 335.706 166.392 337.431C164.793 338.689 163.334 340.102 161.825 341.465C161.171 342.055 160.511 342.64 159.812 343.179L161.092 342.194C160.511 342.64 159.902 343.063 159.225 343.357L160.735 342.723C160.483 342.823 160.226 342.907 159.952 342.946L161.635 342.723C161.288 342.762 160.941 342.751 160.6 342.706L162.283 342.929C161.897 342.868 161.534 342.762 161.176 342.612L162.686 343.246C162.071 342.979 161.512 342.617 160.975 342.211L162.255 343.196C159.678 341.198 157.593 338.488 154.557 337.114C153.445 336.613 152.366 336.129 151.164 335.945C149.19 335.645 147.793 335.65 145.808 336.012C144.433 336.262 143.097 336.874 141.861 337.481C140.905 337.954 140.083 338.611 139.25 339.284C137.087 341.043 135.55 343.92 135.063 346.635C134.448 350.046 134.661 353.313 135.432 356.696C136.204 360.08 137.551 363.252 139.049 366.312C140.547 369.373 142.292 372.2 144.265 374.916C149.084 381.566 154.82 387.448 161.707 391.994C164.972 394.148 168.55 395.884 172.262 397.125C176.198 398.438 180.351 398.844 184.483 398.883C193.5 398.967 202.68 397.492 211.155 394.409C215.219 392.929 219.211 391.159 222.973 389.028C226.467 387.047 229.737 384.732 232.851 382.206C235.272 380.241 237.542 378.082 239.565 375.711C241.589 373.341 243.591 370.703 245.072 367.882C246.324 365.489 247.442 362.884 247.873 360.202C248.331 357.37 248.493 354.415 247.509 351.655C247.051 350.38 246.52 349.1 245.709 348.004C244.463 346.329 243.339 345.227 241.623 344.003C238.034 341.443 233.153 340.931 229.352 343.335C227.96 344.214 226.747 345.355 225.45 346.363L226.73 345.378C225.953 345.973 225.131 346.502 224.231 346.891L225.74 346.257C224.997 346.568 224.225 346.78 223.426 346.897L225.109 346.674C224.058 346.813 223.007 346.791 221.95 346.657L223.633 346.88C223.426 346.852 223.241 346.824 223.051 346.752L224.561 347.386C224.393 347.314 224.242 347.225 224.097 347.114L225.377 348.099C225.181 347.943 225.014 347.759 224.857 347.565L225.846 348.839C225.433 348.294 225.142 347.67 224.874 347.047L225.511 348.549C224.896 347.08 224.427 345.556 223.828 344.075C222.794 341.504 221.726 339.345 219.921 337.219C215.957 332.556 208.617 331.849 203.468 334.888C198.867 337.603 196.497 342.812 195.658 347.887C194.909 352.445 194.847 356.952 195.11 361.549C195.395 366.574 195.815 371.638 197.156 376.507C197.749 378.644 198.369 380.814 199.141 382.896C200.091 385.461 201.321 387.459 203.054 389.568C204.485 391.304 206.263 392.695 208.069 394.025C209.629 395.172 211.311 396.145 213.05 396.991C217.327 399.073 221.866 400.62 226.529 401.566C231.191 402.512 236.099 403.068 240.902 402.918C243.417 402.84 245.939 402.551 248.415 402.105C250.159 401.788 251.892 401.337 253.536 400.67C254.738 400.186 255.951 399.696 257.086 399.061C258.456 398.299 259.579 396.797 259.993 395.3C260.407 393.803 260.222 391.788 259.356 390.447C257.472 387.537 253.793 386.463 250.702 388.188C250.137 388.505 249.55 388.783 248.957 389.039L250.467 388.405C248.236 389.34 245.866 389.879 243.473 390.208L245.156 389.985C240.846 390.553 236.463 390.425 232.158 389.863L233.841 390.085C229.117 389.451 224.454 388.282 220.055 386.446L221.564 387.08C218.914 385.962 216.359 384.604 214.067 382.857L215.348 383.842C213.989 382.795 212.742 381.621 211.686 380.269L212.675 381.543C211.96 380.614 211.356 379.612 210.892 378.533L211.529 380.035C210.652 377.926 210.053 375.645 209.433 373.447C208.868 371.449 208.438 369.429 208.164 367.37L208.388 369.045C207.935 365.628 207.733 362.161 207.616 358.722C207.521 355.973 207.577 353.213 207.935 350.48L207.711 352.155C207.979 350.202 208.399 348.266 209.165 346.44L208.527 347.943C208.907 347.053 209.371 346.212 209.958 345.439L208.969 346.713C209.399 346.162 209.88 345.667 210.434 345.233L209.153 346.218C209.645 345.851 210.165 345.55 210.73 345.311L209.22 345.945C209.83 345.7 210.456 345.544 211.104 345.455L209.422 345.678C210.098 345.6 210.775 345.589 211.451 345.678L209.768 345.455C210.322 345.539 210.847 345.678 211.362 345.895L209.852 345.261C210.294 345.455 210.702 345.7 211.088 345.984L209.807 344.999C210.35 345.416 210.819 345.901 211.233 346.44L210.244 345.166C211.004 346.168 211.574 347.292 212.066 348.444L211.429 346.941C212.815 350.236 213.587 353.825 216.002 356.58C217.925 358.772 220.821 359.351 223.621 359.356C226.422 359.362 229.016 358.666 231.415 357.364C233.187 356.401 234.663 354.988 236.245 353.758L234.965 354.743C235.451 354.37 235.954 354.025 236.519 353.775L235.009 354.409C235.322 354.276 235.647 354.181 235.982 354.125L234.299 354.348C234.663 354.298 235.02 354.304 235.384 354.348L233.701 354.125C234.132 354.192 234.54 354.315 234.942 354.476L233.433 353.842C234.159 354.148 234.842 354.554 235.473 355.027L234.193 354.042C234.763 354.482 235.283 354.982 235.73 355.55L234.741 354.276C235.166 354.821 235.512 355.416 235.786 356.056L235.149 354.554C235.451 355.277 235.647 356.034 235.753 356.808L235.529 355.133C235.663 356.168 235.635 357.208 235.496 358.243L235.719 356.568C235.496 358.138 235.026 359.651 234.417 361.109L235.054 359.607C233.992 362.105 232.527 364.415 230.867 366.557L231.856 365.283C229.229 368.655 226.104 371.621 222.716 374.231L223.996 373.246C219.535 376.669 214.621 379.468 209.439 381.655L210.948 381.02C205.212 383.424 199.169 385.049 193.003 385.884L194.685 385.661C192.024 386.012 189.346 386.218 186.663 386.273C184.175 386.324 181.643 386.312 179.172 385.984L180.855 386.207C178.216 385.839 175.661 385.083 173.207 384.059L174.716 384.693C171.306 383.246 168.142 381.299 165.207 379.056L166.487 380.041C162.339 376.847 158.655 373.074 155.452 368.95L156.441 370.224C153.445 366.351 150.839 362.15 148.922 357.642L149.559 359.145C148.491 356.613 147.631 353.975 147.25 351.254L147.474 352.929C147.29 351.549 147.234 350.147 147.418 348.767L147.194 350.442C147.312 349.623 147.508 348.822 147.832 348.06L147.194 349.562C147.435 349.006 147.737 348.488 148.106 348.004L147.116 349.278C147.452 348.85 147.837 348.472 148.273 348.138L146.993 349.123C147.586 348.677 148.24 348.344 148.922 348.054L147.413 348.689C148.106 348.41 148.81 348.199 149.548 348.099L147.865 348.321C148.413 348.255 148.95 348.249 149.498 348.316L147.815 348.093C148.408 348.171 148.972 348.327 149.526 348.549L148.016 347.915C148.832 348.26 149.576 348.733 150.28 349.273L149 348.288C152.069 350.675 154.49 353.886 158.426 354.96C161.126 355.695 163.904 355.283 166.308 353.886C168.019 352.89 169.54 351.51 171.004 350.18C172.469 348.85 173.978 347.409 175.588 346.162L174.308 347.147C175.275 346.407 176.293 345.717 177.422 345.227L175.913 345.862C176.46 345.634 177.02 345.461 177.607 345.383L175.924 345.606C176.293 345.567 176.651 345.561 177.02 345.606L175.337 345.383C175.667 345.433 175.985 345.517 176.293 345.639L174.783 345.005C175.152 345.161 175.488 345.361 175.806 345.606L174.526 344.621C175.136 345.105 175.655 345.706 176.131 346.312L175.141 345.038C175.79 345.873 176.326 346.78 176.74 347.754L176.103 346.251C176.511 347.231 176.779 348.255 176.919 349.301L176.695 347.626C176.863 348.917 176.835 350.213 176.662 351.499L176.885 349.824C176.611 351.76 176.03 353.636 175.27 355.433L175.907 353.931C174.509 357.197 172.564 360.202 170.389 363.007L171.379 361.733C168.125 365.912 164.34 369.679 160.304 373.107C159.08 374.148 157.833 375.155 156.564 376.129L157.844 375.144C152.88 378.956 147.563 382.345 141.951 385.138C140.43 385.895 138.887 386.607 137.322 387.264L138.831 386.63C134.7 388.355 130.39 389.751 125.94 390.364L127.622 390.141C125.878 390.375 124.112 390.48 122.351 390.386C120.785 390.302 118.968 391.148 117.878 392.228C116.788 393.307 115.933 395.099 116 396.669C116.162 400.23 118.778 402.773 122.323 402.962H122.328Z" fill="#E84D59"/>
            </g>
            <path d="M111.272 441.632C111.848 441.632 112.136 442.08 112.136 442.544C112.136 442.992 111.848 443.456 111.272 443.456H106.04V444.432H108.872C109.56 444.432 110.072 444.816 110.072 445.44V447.504C110.072 448.112 109.592 448.464 108.968 448.464H101.848V449.264H109.688C110.296 449.264 110.6 449.696 110.6 450.144C110.6 450.576 110.296 451.024 109.688 451.024H100.904C100.216 451.024 99.7041 450.64 99.7041 450.016V447.936C99.7041 447.312 100.216 446.928 100.904 446.928H107.928V446.192H100.44C99.8321 446.192 99.5281 445.744 99.5281 445.312C99.5281 444.864 99.8321 444.432 100.44 444.432H103.896V443.456H98.6641C98.0881 443.456 97.8001 442.992 97.8001 442.544C97.8001 442.08 98.0881 441.632 98.6641 441.632H111.272ZM99.8001 436.56C99.8001 435.952 100.328 435.568 100.872 435.568C101.416 435.568 101.912 435.952 101.912 436.56V438.608C101.912 438.688 101.976 438.768 102.056 438.784C102.808 438.928 103.8 438.976 104.968 438.976C106.248 438.976 107.768 438.848 109.128 438.56C109.192 438.544 109.32 438.528 109.384 438.528C109.912 438.528 110.376 438.864 110.376 439.408C110.376 439.84 110.072 440.176 109.608 440.288C108.184 440.656 106.44 440.768 104.968 440.768C103.496 440.768 101.8 440.656 100.92 440.384C100.072 440.128 99.8001 439.664 99.8001 438.848V436.56ZM114.199 441.36C114.199 440.704 114.695 440.32 115.399 440.32H119.335V438.032H114.903C114.215 438.032 114.023 437.568 114.023 437.104C114.023 436.656 114.215 436.192 114.903 436.192H120.263C120.967 436.192 121.463 436.576 121.463 437.232V441.216C121.463 441.744 120.983 442.112 120.407 442.112H116.327V444.672C116.327 444.768 116.391 444.832 116.487 444.848C116.967 444.912 117.767 444.912 118.295 444.912C118.967 444.912 120.343 444.8 121.447 444.528C121.575 444.496 121.687 444.48 121.799 444.464C122.359 444.416 122.727 444.912 122.727 445.392C122.727 445.808 122.503 446.144 121.975 446.288C120.759 446.624 119.127 446.736 118.295 446.736C117.479 446.736 116.311 446.72 115.351 446.448C114.471 446.192 114.199 445.6 114.199 444.864V441.36ZM121.847 441.36C121.847 440.816 122.087 440.432 122.663 440.432H124.359V436.144C124.359 435.456 124.983 435.168 125.431 435.168C125.879 435.168 126.503 435.456 126.503 436.144V450.112C126.503 450.8 125.879 451.088 125.431 451.088C124.983 451.088 124.359 450.8 124.359 450.112V442.288H122.663C122.087 442.288 121.847 441.904 121.847 441.36ZM130.967 446.672C130.743 446.848 130.455 446.96 130.199 446.96C129.655 446.96 129.143 446.56 129.143 445.984C129.143 445.664 129.303 445.408 129.559 445.2C130.887 444.128 131.863 442.592 132.311 441.12C132.567 440.288 132.647 439.44 132.647 438.256V437.04C132.647 436.352 133.271 436.064 133.703 436.064C134.167 436.064 134.759 436.352 134.759 437.04V438.256C134.759 439.408 134.855 440.304 135.063 441.088C135.511 442.752 136.567 444.096 137.847 445.024C138.135 445.248 138.295 445.504 138.295 445.808C138.295 446.352 137.751 446.8 137.207 446.8C137.015 446.8 136.727 446.704 136.519 446.56C135.271 445.68 134.311 444.464 133.687 443.12C133.031 444.48 132.103 445.76 130.967 446.672ZM136.807 440.816C136.807 440.272 137.175 439.888 137.751 439.888H139.879V436.144C139.879 435.456 140.503 435.168 140.951 435.168C141.399 435.168 142.023 435.456 142.023 436.144V450.112C142.023 450.8 141.399 451.088 140.951 451.088C140.503 451.088 139.879 450.8 139.879 450.112V441.744H137.751C137.175 441.744 136.807 441.36 136.807 440.816ZM155.483 449.264C153.163 449.264 150.987 449.024 149.083 448.496C148.539 448.352 148.315 447.968 148.315 447.584C148.315 447.12 148.667 446.656 149.227 446.656C149.307 446.656 149.419 446.672 149.515 446.704C151.355 447.184 153.355 447.408 155.483 447.408C157.627 447.408 159.611 447.184 161.451 446.704C161.547 446.672 161.659 446.672 161.739 446.672C162.299 446.672 162.651 447.12 162.651 447.584C162.651 447.968 162.427 448.352 161.883 448.496C159.979 449.024 157.803 449.264 155.483 449.264ZM150.171 437.28C150.171 436.736 150.491 436.352 151.051 436.352H159.515C160.075 436.352 160.587 436.736 160.587 437.328C160.587 440.304 160.571 441.648 159.963 444.448C159.851 444.96 159.323 445.136 158.987 445.136C158.427 445.136 157.851 444.752 157.851 444.176C157.851 444.096 157.883 443.984 157.899 443.888C158.315 442.016 158.459 440.176 158.443 438.208H151.051C150.491 438.208 150.171 437.824 150.171 437.28ZM177.307 442.992C177.883 442.992 178.171 443.408 178.171 443.872C178.171 444.32 177.883 444.752 177.307 444.752H172.075V445.44C172.075 445.92 171.547 446.16 171.003 446.16C170.459 446.16 169.931 445.92 169.931 445.44V444.752H164.699C164.123 444.752 163.835 444.32 163.835 443.872C163.835 443.408 164.123 442.992 164.699 442.992H177.307ZM165.723 446.304C165.723 445.616 166.347 445.392 166.795 445.392C167.243 445.392 167.867 445.616 167.867 446.304V446.624H174.139V446.304C174.139 445.616 174.763 445.392 175.211 445.392C175.659 445.392 176.283 445.616 176.283 446.304V449.968C176.283 450.592 175.771 450.976 175.083 450.976H166.923C166.235 450.976 165.723 450.592 165.723 449.968V446.304ZM165.867 439.136C165.867 438.496 166.379 438.096 167.067 438.096H173.947V437.328H166.683C165.403 437.328 165.403 435.6 166.683 435.6H174.891C175.579 435.6 176.091 436 176.091 436.656V438.768C176.091 439.312 175.611 439.696 175.019 439.696H168.011V440.176C168.011 440.272 168.059 440.336 168.155 440.352C168.827 440.464 169.787 440.512 170.987 440.512C172.315 440.512 174.123 440.4 175.451 440.208C175.531 440.192 175.595 440.192 175.675 440.192C176.283 440.16 176.603 440.512 176.603 441.008C176.603 441.424 176.379 441.808 175.771 441.904C174.379 442.144 172.475 442.24 170.987 442.24C169.307 442.24 167.883 442.128 167.003 441.888C166.139 441.648 165.867 441.168 165.867 440.32V439.136ZM174.139 449.184V448.256H167.867V449.184H174.139ZM188.527 444.048C188.527 443.44 189.055 443.056 189.599 443.056C190.143 443.056 190.671 443.44 190.671 444.048V447.408C192.735 447.392 194.655 447.168 196.447 446.704C196.543 446.672 196.655 446.672 196.735 446.672C197.295 446.672 197.647 447.12 197.647 447.584C197.647 447.968 197.423 448.352 196.879 448.496C194.975 449.024 192.799 449.264 190.479 449.264C188.159 449.264 185.983 449.024 184.079 448.496C183.535 448.352 183.311 447.968 183.311 447.584C183.311 447.12 183.663 446.656 184.223 446.656C184.303 446.656 184.415 446.672 184.511 446.704C185.775 447.04 187.119 447.248 188.527 447.344V444.048ZM185.039 441.136C185.039 440.592 185.295 440.192 185.871 440.176L193.503 440.064C193.551 439.408 193.551 438.736 193.551 438.08H186.207C185.023 438.08 185.023 436.256 186.207 436.256H194.623C195.183 436.256 195.695 436.64 195.695 437.232C195.695 440.208 195.679 441.648 195.071 444.448C194.959 444.96 194.431 445.136 194.095 445.136C193.535 445.136 192.959 444.752 192.959 444.176C192.959 444.096 192.991 443.984 193.007 443.888C193.151 443.216 193.279 442.528 193.359 441.824L185.983 442.064C185.391 442.08 185.039 441.696 185.039 441.136ZM205.998 449.264C203.678 449.264 201.502 449.024 199.598 448.496C199.054 448.352 198.83 447.968 198.83 447.584C198.83 447.12 199.182 446.656 199.742 446.656C199.822 446.656 199.934 446.672 200.03 446.704C201.87 447.184 203.87 447.408 205.998 447.408C208.142 447.408 210.126 447.184 211.966 446.704C212.062 446.672 212.174 446.672 212.254 446.672C212.814 446.672 213.166 447.12 213.166 447.584C213.166 447.968 212.942 448.352 212.398 448.496C210.494 449.024 208.318 449.264 205.998 449.264ZM200.798 437.264C200.798 436.64 201.31 436.256 201.998 436.256H210.158C210.75 436.256 211.054 436.64 211.054 437.168C211.054 437.712 210.734 438.08 210.158 438.08H202.91V442.064C202.91 442.144 202.958 442.208 203.038 442.224C203.694 442.416 204.814 442.512 205.998 442.512C207.278 442.512 208.782 442.288 210.142 441.904C210.222 441.872 210.382 441.856 210.446 441.856C210.974 441.856 211.422 442.24 211.422 442.752C211.422 443.2 211.102 443.536 210.654 443.664C209.23 444.08 207.47 444.336 205.998 444.336C204.542 444.336 203.07 444.208 201.934 443.824C201.086 443.536 200.798 443.024 200.798 442.288V437.264ZM228.61 447.36H220.946C220.338 447.36 219.954 446.96 219.954 446.448C219.954 445.904 220.354 445.536 220.946 445.536H229.554C230.242 445.536 230.754 445.92 230.754 446.544V450.064C230.754 450.752 230.13 451.04 229.682 451.04C229.234 451.04 228.61 450.752 228.61 450.064V447.36ZM218.306 443.712C218.306 443.248 218.594 442.8 219.17 442.8H224.402V441.968C222.818 441.904 221.538 441.68 221.058 441.456C220.45 441.168 220.258 440.832 220.258 440.08V436.56C220.258 435.952 220.77 435.648 221.314 435.648C221.858 435.648 222.37 435.952 222.37 436.56V437.216H228.578V436.56C228.578 435.952 229.09 435.648 229.634 435.648C230.178 435.648 230.69 435.952 230.69 436.56V440.08C230.69 440.832 230.498 441.168 229.922 441.44C229.426 441.68 228.13 441.904 226.546 441.968V442.8H231.778C232.354 442.8 232.642 443.248 232.642 443.712C232.642 444.16 232.354 444.624 231.778 444.624H219.17C218.594 444.624 218.306 444.16 218.306 443.712ZM222.37 439.776C222.37 439.856 222.418 439.904 222.498 439.936C222.882 440.064 224.146 440.208 225.474 440.208C226.802 440.208 228.066 440.064 228.45 439.936C228.53 439.904 228.578 439.856 228.578 439.776V438.944H222.37V439.776ZM244.13 436.144C244.13 435.456 244.754 435.168 245.202 435.168C245.65 435.168 246.274 435.456 246.274 436.144V440.256H247.602C248.178 440.256 248.498 440.64 248.498 441.184C248.498 441.728 248.178 442.112 247.602 442.112H246.274V450.112C246.274 450.8 245.65 451.088 245.202 451.088C244.754 451.088 244.13 450.8 244.13 450.112V436.144ZM233.81 445.984C233.81 445.664 233.97 445.408 234.226 445.2C235.554 444.128 236.53 442.592 236.978 441.12C237.234 440.288 237.314 439.44 237.314 438.256V437.04C237.314 436.352 237.938 436.064 238.37 436.064C238.834 436.064 239.426 436.352 239.426 437.04V438.256C239.426 439.408 239.522 440.304 239.73 441.088C240.178 442.752 241.234 444.096 242.514 445.024C242.802 445.248 242.962 445.504 242.962 445.808C242.962 446.352 242.514 446.8 241.97 446.8C241.618 446.8 241.394 446.704 241.186 446.56C239.938 445.68 238.978 444.464 238.354 443.12C237.698 444.48 236.77 445.76 235.634 446.672C235.41 446.848 235.122 446.96 234.866 446.96C234.322 446.96 233.81 446.56 233.81 445.984ZM254.177 447.376C251.841 447.376 250.353 445.776 250.353 443.68C250.353 441.568 251.841 439.952 254.177 439.952C256.513 439.952 258.001 441.568 258.001 443.68C258.001 445.776 256.513 447.376 254.177 447.376ZM249.377 437.92C249.377 437.264 249.905 436.928 250.465 437.024C251.249 437.168 252.225 437.264 253.105 437.296V436.144C253.105 435.456 253.665 435.168 254.177 435.168C254.625 435.168 255.249 435.456 255.249 436.144V437.296C256.097 437.248 257.025 437.168 257.761 437.024C258.321 436.928 258.849 437.264 258.849 437.92C258.849 438.384 258.545 438.72 258.065 438.816C257.025 439.04 255.425 439.152 254.097 439.152C252.769 439.152 251.201 439.04 250.161 438.816C249.681 438.72 249.377 438.384 249.377 437.92ZM252.433 443.68C252.433 444.832 253.041 445.584 254.177 445.584C255.313 445.584 255.921 444.832 255.921 443.68C255.921 442.48 255.297 441.712 254.177 441.712C253.057 441.712 252.433 442.48 252.433 443.68ZM259.649 436.144C259.649 435.456 260.273 435.168 260.721 435.168C261.169 435.168 261.793 435.456 261.793 436.144V440.736H263.121C263.697 440.736 264.017 441.12 264.017 441.664C264.017 442.208 263.697 442.592 263.121 442.592H261.793V450.112C261.793 450.8 261.169 451.088 260.721 451.088C260.273 451.088 259.649 450.8 259.649 450.112V436.144ZM275.905 436.144C275.905 435.456 276.529 435.168 276.977 435.168C277.425 435.168 278.049 435.456 278.049 436.144V450.112C278.049 450.8 277.425 451.088 276.977 451.088C276.529 451.088 275.905 450.8 275.905 450.112V436.144ZM265.553 437.344C265.553 436.8 265.873 436.416 266.433 436.416H272.737C273.281 436.416 273.777 436.768 273.777 437.36C273.777 438.224 273.649 439.04 273.425 439.904C272.737 442.672 270.865 445.008 267.249 446.752C267.073 446.832 266.833 446.896 266.689 446.896C266.113 446.896 265.633 446.416 265.633 445.872C265.633 445.504 265.825 445.232 266.129 445.088C269.201 443.664 270.817 441.648 271.393 439.392C271.473 439.024 271.553 438.64 271.585 438.272H266.433C265.873 438.272 265.553 437.888 265.553 437.344Z" fill="#E84D59"/>
            <path d="M97.2881 450H279.713V450.8H97.2881V450Z" fill="#E84D59"/>
            <rect x="113.25" y="548.25" width="149.5" height="49.5" rx="19.75" fill="white" stroke="black" stroke-width="0.5"/>
            <path d="M174.925 571.576C174.925 570.2 176.397 569.304 178.653 569.304C180.909 569.304 182.381 570.2 182.381 571.576C182.381 572.712 181.357 573.56 179.725 573.816V574.776C180.781 574.728 181.613 574.616 182.429 574.456C183.197 574.296 183.645 574.728 183.645 575.272C183.645 575.72 183.373 576.056 182.829 576.184C181.597 576.472 180.221 576.6 178.157 576.6H174.749C174.173 576.6 173.789 576.248 173.789 575.704C173.789 575.16 174.173 574.808 174.749 574.808H177.581V573.816C175.949 573.56 174.925 572.712 174.925 571.576ZM173.917 567.976C173.917 567.432 174.301 567.096 174.877 567.096H177.581V566.664C177.581 566.056 178.109 565.784 178.653 565.784C179.197 565.784 179.725 566.056 179.725 566.664V567.096H182.301C182.877 567.096 183.261 567.432 183.261 567.976C183.261 568.52 182.877 568.856 182.301 568.856H174.877C174.301 568.856 173.917 568.52 173.917 567.976ZM175.661 578.344C175.661 577.8 175.981 577.432 176.557 577.432H185.101C185.789 577.432 186.301 577.816 186.301 578.44V581.064C186.301 581.752 185.677 582.04 185.229 582.04C184.781 582.04 184.157 581.752 184.157 581.064V579.256H176.557C175.981 579.256 175.661 578.888 175.661 578.344ZM177.005 571.576C177.005 572.024 177.629 572.264 178.653 572.264C179.677 572.264 180.301 572.024 180.301 571.576C180.301 571.128 179.677 570.888 178.653 570.888C177.629 570.888 177.005 571.128 177.005 571.576ZM184.157 567.144C184.157 566.456 184.781 566.168 185.229 566.168C185.677 566.168 186.301 566.456 186.301 567.144V570.376H187.629C188.205 570.376 188.525 570.76 188.525 571.304C188.525 571.848 188.205 572.232 187.629 572.232H186.301V576.088C186.301 576.776 185.677 576.968 185.229 576.968C184.781 576.968 184.157 576.776 184.157 576.088V567.144ZM199.852 567.144C199.852 566.456 200.476 566.168 200.924 566.168C201.372 566.168 201.996 566.456 201.996 567.144V576.312C201.996 577 201.372 577.288 200.924 577.288C200.476 577.288 199.852 577 199.852 576.312V567.144ZM189.34 570.824C189.34 568.552 191.196 566.872 193.692 566.872C196.188 566.872 198.044 568.552 198.044 570.824C198.044 573.08 196.188 574.776 193.692 574.776C191.196 574.776 189.34 573.08 189.34 570.824ZM191.452 570.824C191.452 572.056 192.396 572.968 193.692 572.968C194.988 572.968 195.932 572.056 195.932 570.824C195.932 569.592 194.988 568.68 193.692 568.68C192.396 568.68 191.452 569.592 191.452 570.824ZM191.644 576.856C191.644 576.168 192.268 575.88 192.716 575.88C193.164 575.88 193.788 576.168 193.788 576.856V579.672C193.788 579.816 193.884 579.912 194.028 579.912H201.436C202.012 579.912 202.332 580.296 202.332 580.84C202.332 581.384 202.012 581.768 201.436 581.768H193.02C192.236 581.768 191.644 581.208 191.644 580.472V576.856Z" fill="black"/>
        </g>
        <g clip-path="url(#clip3_1839_38564)">
            <path d="M31.2497 63L20.833 53L31.2497 43L33.0986 44.775L24.5309 53L33.0986 61.225L31.2497 63Z" fill="#767676"/>
        </g>
        <path d="M162.552 40.0132C162.231 45.4648 163.394 50.9889 165.97 55.8596C167.14 58.073 168.608 60.2864 170.602 61.8947C171.735 62.8091 172.949 63.538 174.359 63.9979C175.769 64.4578 177.273 64.4927 178.722 64.2157C179.858 63.9979 180.999 63.4627 181.953 62.836C183.114 62.0722 184.065 61.1739 184.915 60.1035C186.339 58.307 187.237 55.9483 187.083 53.6703C186.912 51.1476 185.606 48.3237 182.854 47.5948C181.427 47.2183 179.824 47.6298 178.848 48.719C177.715 49.9804 177.327 51.6613 177.268 53.2911C177.215 54.7273 177.472 56.1742 177.763 57.5781C178.006 58.748 178.367 59.8695 178.851 60.9695C179.852 63.2529 181.433 65.3453 183.712 66.5905C188.285 69.0863 195.116 68.3494 197.93 63.7235C199.314 61.4456 199.591 58.5732 198.881 56.0451C198.486 54.6385 197.759 53.3933 196.551 52.495C195.099 51.4166 193.27 51.1826 191.617 51.9867C190.064 52.7425 189.452 54.3777 189.262 55.9295C189.125 57.0591 189.295 58.2747 189.547 59.3774C190.062 61.6365 191.359 63.7235 193.371 65.0252C195.488 66.3969 198.403 66.5098 200.758 65.6842C203.373 64.7671 205.364 62.9732 206.97 60.8324C208.576 58.6916 209.703 56.2818 210.637 53.8586C211.658 51.2122 212.282 48.4232 212.458 45.6046C212.539 44.3083 212.503 43.0066 212.352 41.7156C212.287 41.1643 212.161 40.6963 211.736 40.2902C211.373 39.9406 210.774 39.677 210.254 39.6985C209.734 39.7201 209.149 39.8922 208.771 40.2902C208.419 40.6587 208.097 41.1966 208.156 41.7156C208.374 43.5848 208.341 45.4675 208.089 47.3313L208.164 46.7961C207.812 49.3053 207.076 51.7474 206.058 54.0818L206.271 53.6004C205.448 55.4669 204.486 57.3253 203.228 58.9605C203.132 59.0842 202.836 59.4016 203.272 58.9094C203.194 58.9982 203.121 59.0923 203.046 59.181C202.892 59.3585 202.735 59.5361 202.573 59.7055C202.251 60.0444 201.91 60.3698 201.549 60.671C201.46 60.7463 201.37 60.8189 201.278 60.8915C201.225 60.9319 201.172 60.9722 201.119 61.0126C201.398 60.8082 201.471 60.7517 201.342 60.8458C201.152 60.9776 200.959 61.1094 200.76 61.2304C200.349 61.4805 199.919 61.6984 199.471 61.8786L199.972 61.6742C199.37 61.9109 198.747 62.0776 198.103 62.1664L198.66 62.0937C198.031 62.1744 197.401 62.1906 196.772 62.1152L197.328 62.1879C196.828 62.1206 196.344 61.9942 195.877 61.8087L196.377 62.013C196.011 61.8597 195.678 61.6688 195.348 61.4536C195.06 61.2654 195.757 61.7764 195.508 61.572C195.424 61.5021 195.337 61.4348 195.253 61.3622C195.119 61.2439 194.99 61.1201 194.867 60.9911C194.722 60.8378 194.366 60.3187 194.792 60.9265C194.68 60.7678 194.559 60.6118 194.453 60.4478C194.238 60.1143 194.053 59.762 193.894 59.3989L194.106 59.8803C193.779 59.1219 193.564 58.3285 193.446 57.5163L193.522 58.0515C193.424 57.3334 193.371 56.6018 193.463 55.8811L193.387 56.4163C193.443 56.0478 193.533 55.6928 193.681 55.3486L193.468 55.83C193.519 55.7224 193.572 55.6175 193.634 55.5153C193.642 55.5045 193.729 55.3701 193.731 55.3701C193.762 55.3889 193.323 55.7977 193.597 55.5476C193.636 55.5126 193.689 55.4696 193.723 55.4292C193.838 55.2921 193.34 55.6686 193.508 55.5906C193.648 55.5234 193.773 55.4427 193.919 55.3835L193.418 55.5879C193.572 55.5314 193.726 55.4911 193.888 55.4642L193.331 55.5368C193.552 55.5099 193.765 55.5099 193.983 55.5368L193.427 55.4642C193.645 55.4992 193.852 55.5583 194.056 55.6417L193.555 55.4373C193.765 55.5287 193.941 55.6578 194.14 55.76C193.689 55.5314 193.854 55.5395 194.022 55.6847C194.109 55.76 194.193 55.8407 194.271 55.9214C194.411 56.0666 194.537 56.3517 194.232 55.8488C194.282 55.9322 194.35 56.0075 194.403 56.0882C194.529 56.2764 194.632 56.4754 194.724 56.6825L194.512 56.2011C194.775 56.8358 194.951 57.4947 195.052 58.1725L194.976 57.6373C195.08 58.3957 195.082 59.1595 194.982 59.918L195.057 59.3828C194.959 60.0713 194.778 60.7409 194.501 61.381L194.713 60.8996C194.545 61.2734 194.35 61.6365 194.117 61.9754C194.061 62.0588 193.994 62.1932 193.913 62.2551L194.117 62.0023C194.075 62.0534 194.034 62.1045 193.989 62.1529C193.86 62.3008 193.72 62.4407 193.575 62.5751C193.429 62.7096 193.278 62.8253 193.13 62.9517C193.673 62.4945 193.172 62.914 192.999 63.0243C192.643 63.2475 192.266 63.4358 191.877 63.5971L192.378 63.3927C191.676 63.6751 190.946 63.858 190.193 63.9575L190.75 63.8849C189.888 63.9898 189.024 63.9871 188.162 63.8849L188.719 63.9575C187.832 63.8419 186.976 63.6187 186.151 63.2905L186.652 63.4949C186.107 63.2717 185.592 62.9947 185.111 62.6612C184.828 62.4649 185.203 62.7042 185.259 62.7742C185.223 62.7284 185.153 62.6908 185.105 62.6531C184.991 62.5617 184.879 62.4676 184.772 62.3707C184.554 62.1771 184.347 61.9727 184.151 61.7576C184.065 61.6634 183.978 61.5639 183.897 61.4671C183.679 61.2062 183.978 61.5316 184.012 61.6123C183.989 61.5585 183.928 61.5047 183.894 61.459C183.718 61.225 183.553 60.983 183.399 60.7356C183.086 60.2353 182.817 59.7109 182.579 59.173L182.792 59.6544C182.135 58.1375 181.76 56.5292 181.522 54.9048L181.598 55.44C181.458 54.4395 181.402 53.431 181.542 52.4305L181.466 52.9657C181.553 52.3928 181.704 51.8415 181.936 51.309L181.724 51.7904C181.793 51.6586 181.866 51.5322 181.95 51.4085C181.995 51.3413 182.146 51.1503 181.922 51.4327C181.698 51.7151 181.875 51.4999 181.931 51.4461C181.97 51.4085 182.012 51.3735 182.051 51.3359C182.233 51.1584 181.835 51.508 181.813 51.5107C181.894 51.5053 182.056 51.3735 182.138 51.3386L181.637 51.543C181.771 51.4919 181.903 51.4542 182.045 51.4327L181.489 51.5053C181.654 51.4838 181.813 51.4838 181.978 51.4972L181.421 51.4246C181.64 51.4542 181.847 51.5107 182.051 51.5914L181.55 51.387C181.74 51.4677 181.914 51.5699 182.087 51.6801C182.358 51.8549 181.62 51.2982 181.978 51.6102C182.051 51.6721 182.118 51.7393 182.185 51.8065C182.252 51.8738 182.314 51.9518 182.381 52.0217C181.914 51.5403 182.196 51.7877 182.305 51.9491C182.434 52.14 182.54 52.3417 182.635 52.5488L182.423 52.0674C182.663 52.6295 182.837 53.2024 182.921 53.8048L182.845 53.2696C182.921 53.8613 182.912 54.4557 182.831 55.0473L182.907 54.5121C182.803 55.1979 182.607 55.8622 182.331 56.5023L182.543 56.0209C182.311 56.54 182.034 57.0375 181.71 57.5082C181.62 57.6373 181.531 57.761 181.435 57.8847C181.388 57.9466 181.234 58.1402 181.455 57.8632C181.676 57.5862 181.497 57.8094 181.441 57.8767C181.248 58.1026 181.047 58.3177 180.831 58.5275C180.63 58.7238 180.42 58.9121 180.202 59.0896C180.14 59.138 180.079 59.1864 180.02 59.2348C179.81 59.407 180.196 59.103 180.222 59.0896C180.09 59.1703 179.967 59.2698 179.838 59.3559C179.349 59.6786 178.829 59.9502 178.28 60.1735L178.781 59.9691C178.261 60.1735 177.735 60.3241 177.175 60.3967L177.732 60.3241C177.206 60.3832 176.686 60.3832 176.163 60.3214L176.72 60.394C176.107 60.3106 175.517 60.1466 174.943 59.918L175.444 60.1224C174.999 59.9368 174.571 59.7162 174.163 59.4607C173.987 59.3505 173.813 59.2321 173.643 59.1138C173.329 58.8933 174.062 59.4392 173.69 59.1461C173.592 59.0708 173.497 58.9928 173.405 58.9148C173.055 58.6216 172.723 58.3097 172.406 57.9815C172.236 57.804 172.074 57.6238 171.911 57.4383C171.844 57.3603 171.777 57.2796 171.71 57.1989C171.464 56.9084 172.034 57.6131 171.746 57.2446C170.516 55.6578 169.528 53.864 168.728 52.0432L168.941 52.5246C167.934 50.2036 167.254 47.7643 166.899 45.2738L166.975 45.809C166.709 43.8887 166.633 41.9523 166.748 40.0186C166.809 38.9643 165.738 37.9558 164.65 38.0015C163.461 38.0526 162.619 38.889 162.552 40.0186V40.0132Z" fill="#E84D59"/>
        <rect x="305" y="132" width="22" height="44" rx="11" transform="rotate(180 305 132)" fill="#5A402A"/>
        <rect x="252" y="133" width="22" height="44" rx="11" transform="rotate(180 252 133)" fill="#5A402A"/>
        <rect x="199" y="133" width="22" height="44" rx="11" transform="rotate(180 199 133)" fill="#5A402A"/>
        <rect x="146" y="133" width="22" height="44" rx="11" transform="rotate(180 146 133)" fill="#5A402A"/>
        <rect x="93" y="133" width="22" height="44" rx="11" transform="rotate(180 93 133)" fill="#5A402A"/>
        <path fill-rule="evenodd" clip-rule="evenodd" d="M375 0H0V667H375V0ZM101 421C95.4771 421 91 425.477 91 431V453C91 458.523 95.4771 463 101 463H276C281.523 463 286 458.523 286 453V431C286 425.477 281.523 421 276 421H101Z" fill="#050505" fill-opacity="0.5"/>
        <path d="M181 448.667C178.054 448.667 175.667 451.054 175.667 454C175.667 456.946 178.054 459.333 181 459.333C183.946 459.333 186.333 456.946 186.333 454C186.333 451.054 183.946 448.667 181 448.667ZM180 490C180 490.552 180.448 491 181 491C181.552 491 182 490.552 182 490L180 490ZM180 454L180 490L182 490L182 454L180 454Z" fill="#FFCC00"/>
        <path d="M117.885 505.272H114.465C114.081 505.272 113.889 504.984 113.889 504.696C113.889 504.396 114.081 504.108 114.465 504.108H122.661C123.057 504.108 123.249 504.396 123.249 504.696C123.249 504.984 123.057 505.272 122.661 505.272H119.253V507.936C119.253 508.404 118.905 508.62 118.569 508.62C118.221 508.62 117.885 508.404 117.885 507.936V505.272ZM115.293 501.156V498.78C115.293 498.312 115.617 498.084 115.989 498.084C116.325 498.084 116.685 498.312 116.685 498.78V501.12C116.685 501.588 117.021 501.792 117.273 501.792H121.533C121.917 501.792 122.109 502.092 122.109 502.368C122.109 502.656 121.917 502.944 121.533 502.944H116.997C115.977 502.944 115.293 502.296 115.293 501.156ZM124.429 505.716H132.625C133.021 505.716 133.213 506.004 133.213 506.292C133.213 506.592 133.021 506.88 132.625 506.88H124.429C124.045 506.88 123.853 506.592 123.853 506.292C123.853 506.004 124.045 505.716 124.429 505.716ZM125.833 498.42H130.129C131.317 498.42 131.905 499.284 131.905 500.148C131.905 501.012 131.317 501.864 130.129 501.864H126.985C126.589 501.864 126.385 502.188 126.385 502.5C126.385 502.824 126.589 503.136 126.985 503.136H131.509C131.893 503.136 132.085 503.424 132.085 503.7C132.085 503.988 131.893 504.264 131.509 504.264H126.841C125.629 504.264 125.029 503.4 125.029 502.536C125.029 501.672 125.629 500.796 126.841 500.796H129.973C130.369 500.796 130.561 500.484 130.561 500.16C130.561 499.848 130.369 499.524 129.973 499.524H125.833C125.461 499.524 125.269 499.248 125.269 498.972C125.269 498.696 125.461 498.42 125.833 498.42ZM142.985 498.432V504.852C142.985 505.296 142.649 505.524 142.313 505.524C141.977 505.524 141.641 505.296 141.641 504.852V502.548H139.769C139.745 503.316 139.361 503.724 138.521 503.724H135.737C134.873 503.724 134.489 503.292 134.489 502.488V499.236C134.489 498.432 134.873 498 135.737 498H138.521C139.313 498 139.697 498.372 139.757 499.044H141.641V498.432C141.641 497.988 141.977 497.76 142.313 497.76C142.649 497.76 142.985 497.988 142.985 498.432ZM136.145 506.988V505.32C136.145 504.852 136.469 504.624 136.841 504.624C137.177 504.624 137.537 504.852 137.537 505.32V506.952C137.537 507.42 137.777 507.612 138.125 507.612H142.589C142.973 507.612 143.165 507.9 143.165 508.188C143.165 508.476 142.973 508.764 142.589 508.764H137.849C136.829 508.764 136.145 508.128 136.145 506.988ZM135.821 499.152V502.584H138.449V499.152H135.821ZM139.769 500.196V501.396H141.641V500.196H139.769ZM151.045 507.792H155.929C156.265 507.792 156.505 508.008 156.505 508.356C156.505 508.704 156.265 508.92 155.929 508.92H150.949C150.025 508.92 149.377 508.26 149.377 507.456C149.377 506.652 150.025 506.04 150.949 506.04H154.597C154.813 506.04 154.969 505.884 154.969 505.68C154.969 505.476 154.813 505.368 154.597 505.368H150.145C149.809 505.368 149.569 505.176 149.569 504.828C149.569 504.48 149.809 504.264 150.145 504.264H154.693C155.617 504.264 156.265 504.756 156.265 505.68C156.265 506.604 155.617 507.108 154.693 507.108H151.045C150.829 507.108 150.673 507.252 150.673 507.456C150.673 507.66 150.829 507.792 151.045 507.792ZM155.053 499.692C155.053 499.224 154.801 499.08 154.465 499.08H149.953C149.533 499.08 149.353 498.84 149.353 498.516C149.353 498.24 149.533 497.964 149.953 497.964H154.585C155.605 497.964 156.373 498.552 156.373 499.68C156.373 500.304 156.253 501.12 156.109 501.708C156.025 502.044 155.737 502.2 155.461 502.2C155.077 502.2 154.765 501.912 154.861 501.408C154.873 501.3 154.897 501.18 154.921 501.06H149.893C149.473 501.06 149.293 500.82 149.293 500.508C149.293 500.244 149.473 499.98 149.893 499.98H155.041C155.053 499.884 155.053 499.788 155.053 499.692ZM148.789 502.404H156.985C157.381 502.404 157.573 502.668 157.573 502.956C157.573 503.256 157.381 503.52 156.985 503.52H148.789C148.405 503.52 148.213 503.256 148.213 502.956C148.213 502.668 148.405 502.404 148.789 502.404ZM167.345 504.948V507.564C167.345 508.368 166.961 508.8 166.097 508.8H161.825C160.961 508.8 160.577 508.368 160.577 507.564V504.948C160.577 504.504 160.901 504.276 161.237 504.276C161.573 504.276 161.909 504.504 161.909 504.948V505.644H166.013V504.948C166.013 504.504 166.337 504.276 166.673 504.276C167.009 504.276 167.345 504.504 167.345 504.948ZM159.605 498H162.713C163.769 498 164.297 498.816 164.297 499.632C164.297 500.448 163.769 501.252 162.713 501.252H160.613C160.289 501.252 160.121 501.528 160.121 501.804C160.121 502.08 160.289 502.344 160.613 502.344H164.297C164.669 502.344 164.849 502.632 164.849 502.92C164.849 503.208 164.669 503.484 164.297 503.484H160.397C159.341 503.484 158.813 502.668 158.813 501.828C158.813 500.988 159.341 500.16 160.397 500.16H162.521C162.845 500.16 163.001 499.908 163.001 499.644C163.001 499.38 162.845 499.128 162.521 499.128H159.605C159.233 499.128 159.041 498.852 159.041 498.564C159.041 498.288 159.233 498 159.605 498ZM167.345 498.432V503.064C167.345 503.508 167.009 503.736 166.673 503.736C166.337 503.736 166.001 503.508 166.001 503.064V498.432C166.001 497.988 166.337 497.76 166.673 497.76C167.009 497.76 167.345 497.988 167.345 498.432ZM161.909 507.66H166.013V506.76H161.909V507.66ZM174.219 505.716H177.627C178.023 505.716 178.215 506.004 178.215 506.292C178.215 506.592 178.023 506.88 177.627 506.88H169.431C169.047 506.88 168.855 506.592 168.855 506.292C168.855 506.004 169.047 505.716 169.431 505.716H172.851V504.12H171.447C170.583 504.12 170.199 503.688 170.199 502.884V498.96C170.199 498.516 170.523 498.288 170.859 498.288C171.195 498.288 171.531 498.516 171.531 498.96V500.208H175.539V498.96C175.539 498.516 175.863 498.288 176.199 498.288C176.535 498.288 176.871 498.516 176.871 498.96V502.884C176.871 503.688 176.487 504.12 175.623 504.12H174.219V505.716ZM171.531 502.98H175.539V501.348H171.531V502.98ZM179.395 505.716H187.591C187.987 505.716 188.179 506.004 188.179 506.292C188.179 506.592 187.987 506.88 187.591 506.88H179.395C179.011 506.88 178.819 506.592 178.819 506.292C178.819 506.004 179.011 505.716 179.395 505.716ZM181.447 499.992V502.164C181.447 502.584 181.675 502.836 182.035 502.836H186.355C186.727 502.836 186.919 503.124 186.919 503.412C186.919 503.7 186.727 503.988 186.355 503.988H181.807C180.787 503.988 180.103 503.34 180.103 502.2V499.704C180.103 498.9 180.487 498.456 181.351 498.456H186.271C186.655 498.456 186.847 498.756 186.847 499.044C186.847 499.332 186.655 499.62 186.271 499.62H181.831C181.579 499.62 181.447 499.74 181.447 499.992ZM191.555 504.42C189.911 504.42 188.843 503.256 188.843 501.636C188.843 500.016 189.911 498.852 191.555 498.852C192.983 498.852 193.991 499.74 194.219 501.036H194.999V498.48C194.999 498.036 195.323 497.808 195.659 497.808C195.995 497.808 196.295 498.036 196.295 498.48V507.612C196.295 508.056 195.995 508.284 195.659 508.284C195.323 508.284 194.999 508.056 194.999 507.612V502.188H194.231C194.015 503.52 193.007 504.42 191.555 504.42ZM198.347 498.432V507.852C198.347 508.296 198.023 508.524 197.687 508.524C197.351 508.524 197.015 508.296 197.015 507.852V498.432C197.015 497.988 197.351 497.76 197.687 497.76C198.023 497.76 198.347 497.988 198.347 498.432ZM191.555 503.292C192.419 503.292 192.971 502.632 192.971 501.636C192.971 500.628 192.419 499.98 191.555 499.98C190.703 499.98 190.151 500.628 190.151 501.636C190.151 502.632 190.703 503.292 191.555 503.292ZM211.171 498.492V501.132C211.171 501.936 210.787 502.368 209.923 502.368H208.543V503.16H211.939C212.335 503.16 212.539 503.424 212.539 503.736C212.539 504.036 212.335 504.3 211.939 504.3H203.767C203.371 504.3 203.179 504.036 203.179 503.736C203.179 503.424 203.371 503.16 203.767 503.16H207.175V502.368H205.795C204.931 502.368 204.547 501.936 204.547 501.132V498.492C204.547 498.048 204.871 497.82 205.207 497.82C205.531 497.82 205.867 498.048 205.867 498.492V499.176H209.851V498.492C209.851 498.048 210.175 497.82 210.511 497.82C210.835 497.82 211.171 498.048 211.171 498.492ZM209.299 506.232H204.859C204.463 506.232 204.271 505.944 204.271 505.656C204.271 505.368 204.463 505.08 204.859 505.08H209.443C210.463 505.08 211.231 505.74 211.231 506.88V508.248C211.231 508.692 210.895 508.92 210.559 508.92C210.223 508.92 209.887 508.692 209.887 508.248V506.928C209.887 506.46 209.635 506.232 209.299 506.232ZM205.867 501.24H209.851V500.292H205.867V501.24ZM221.627 502.188V507.852C221.627 508.296 221.291 508.524 220.955 508.524C220.619 508.524 220.283 508.296 220.283 507.852V498.432C220.283 497.988 220.619 497.76 220.955 497.76C221.291 497.76 221.627 497.988 221.627 498.432V501.036H222.887C223.271 501.036 223.463 501.324 223.463 501.612C223.463 501.9 223.271 502.188 222.887 502.188H221.627ZM218.387 505.26C217.439 504.588 216.731 503.7 216.251 502.704C215.783 503.76 215.075 504.708 214.139 505.38C214.007 505.476 213.875 505.524 213.743 505.524C213.395 505.524 213.107 505.188 213.107 504.864C213.107 504.684 213.191 504.516 213.383 504.384C214.835 503.4 215.555 501.9 215.555 499.788V498.912C215.555 498.456 215.903 498.216 216.251 498.216C216.599 498.216 216.947 498.456 216.947 498.912V499.92C216.947 502.032 217.691 503.28 219.143 504.264C219.335 504.396 219.419 504.564 219.419 504.744C219.419 505.068 219.131 505.404 218.783 505.404C218.651 505.404 218.519 505.356 218.387 505.26ZM232.306 502.668V507.852C232.306 508.296 231.97 508.524 231.634 508.524C231.298 508.524 230.962 508.296 230.962 507.852V498.432C230.962 497.988 231.298 497.76 231.634 497.76C231.97 497.76 232.306 497.988 232.306 498.432V501.516H233.566C233.95 501.516 234.142 501.804 234.142 502.092C234.142 502.38 233.95 502.668 233.566 502.668H232.306ZM229.45 500.268V500.928C229.45 502.908 227.482 504.72 224.782 505.524C224.338 505.656 224.038 505.296 224.038 504.936C224.038 504.708 224.158 504.48 224.422 504.396C226.378 503.748 228.118 502.5 228.118 500.928V500.256C228.118 499.848 227.854 499.644 227.518 499.644H224.902C224.482 499.644 224.302 499.368 224.302 499.044C224.302 498.768 224.482 498.48 224.902 498.48H227.662C228.682 498.48 229.45 499.128 229.45 500.268ZM247.902 498.432V507.852C247.902 508.296 247.59 508.524 247.254 508.524C246.918 508.524 246.594 508.296 246.594 507.852V502.632H245.694V507.612C245.694 508.056 245.406 508.284 245.07 508.284C244.734 508.284 244.422 508.056 244.422 507.612V506.832H238.914C238.53 506.832 238.338 506.544 238.338 506.244C238.338 505.956 238.53 505.668 238.914 505.668H240.762V503.808H240.726C239.706 503.808 239.022 503.172 239.022 502.032V499.716C239.022 498.912 239.406 498.48 240.27 498.48H243.138C243.534 498.48 243.726 498.768 243.726 499.044C243.726 499.344 243.534 499.632 243.138 499.632H240.714C240.462 499.632 240.33 499.752 240.33 500.004V501.996C240.33 502.464 240.582 502.668 240.918 502.668H243.198C243.582 502.668 243.774 502.956 243.774 503.232C243.774 503.52 243.582 503.808 243.198 503.808H242.106V505.668H244.422V498.48C244.422 498.036 244.734 497.808 245.07 497.808C245.406 497.808 245.694 498.036 245.694 498.48V501.48H246.594V498.432C246.594 497.988 246.918 497.76 247.254 497.76C247.59 497.76 247.902 497.988 247.902 498.432ZM255.916 505.716H257.668C258.064 505.716 258.256 506.004 258.256 506.292C258.256 506.592 258.064 506.88 257.668 506.88H249.472C249.088 506.88 248.896 506.592 248.896 506.292C248.896 506.004 249.088 505.716 249.472 505.716H251.212V503.448C250.612 502.908 250.264 502.128 250.264 501.252C250.264 499.5 251.656 498.18 253.564 498.18C255.472 498.18 256.888 499.5 256.888 501.252C256.888 502.14 256.516 502.908 255.916 503.46V505.716ZM251.596 501.252C251.596 502.38 252.46 503.16 253.564 503.16C254.692 503.16 255.556 502.38 255.556 501.252C255.556 500.136 254.692 499.332 253.564 499.332C252.46 499.332 251.596 500.136 251.596 501.252ZM253.564 504.312C253.204 504.312 252.868 504.264 252.556 504.18V505.716H254.572V504.18C254.248 504.264 253.912 504.312 253.564 504.312ZM259.1 506.892C259.1 506.412 259.496 506.016 259.988 506.016C260.48 506.016 260.876 506.412 260.876 506.892C260.876 507.372 260.48 507.78 259.988 507.78C259.496 507.78 259.1 507.372 259.1 506.892ZM84.2167 523.716H92.4127C92.8087 523.716 93.0007 524.004 93.0007 524.292C93.0007 524.592 92.8087 524.88 92.4127 524.88H84.2167C83.8327 524.88 83.6407 524.592 83.6407 524.292C83.6407 524.004 83.8327 523.716 84.2167 523.716ZM90.3367 518.268C90.3367 517.8 90.0847 517.596 89.7487 517.596H85.3807C84.9607 517.596 84.7807 517.32 84.7807 516.996C84.7807 516.72 84.9607 516.432 85.3807 516.432H89.8927C90.9127 516.432 91.6807 517.104 91.6807 518.232C91.6807 519.756 91.4887 521.184 91.1647 522.444C91.0807 522.78 90.7927 522.936 90.5167 522.936C90.1327 522.936 89.7727 522.648 89.8807 522.144C90.1447 520.944 90.3367 519.624 90.3367 518.268ZM100.144 518.736H96.4965C96.2565 518.736 96.1485 518.916 96.1485 519.06C96.1485 519.192 96.2565 519.372 96.4965 519.372H101.236C101.62 519.372 101.824 519.66 101.824 519.936C101.824 520.212 101.62 520.488 101.236 520.488H96.3165C95.2965 520.488 94.8165 519.804 94.8165 519.084C94.8165 518.328 95.2965 517.68 96.3165 517.68H99.9645C100.204 517.68 100.312 517.5 100.312 517.356C100.312 517.212 100.204 517.032 99.9645 517.032H95.6085C95.2365 517.032 95.0445 516.768 95.0445 516.492C95.0445 516.216 95.2365 515.94 95.6085 515.94H100.144C101.164 515.94 101.644 516.588 101.644 517.344C101.644 518.064 101.164 518.736 100.144 518.736ZM101.68 523.488V525.564C101.68 526.368 101.296 526.8 100.432 526.8H96.1365C95.2725 526.8 94.8885 526.368 94.8885 525.564V523.488C94.8885 523.044 95.2125 522.816 95.5485 522.816C95.8845 522.816 96.2205 523.044 96.2205 523.488V523.824H100.348V523.488C100.348 523.044 100.672 522.816 101.008 522.816C101.344 522.816 101.68 523.044 101.68 523.488ZM98.9685 522.168V522.816C98.9685 523.284 98.6205 523.5 98.2845 523.5C97.9365 523.5 97.6005 523.284 97.6005 522.816V522.168H94.1925C93.7965 522.168 93.6045 521.904 93.6045 521.604C93.6045 521.292 93.7965 521.028 94.1925 521.028H102.364C102.76 521.028 102.964 521.292 102.964 521.604C102.964 521.904 102.76 522.168 102.364 522.168H98.9685ZM96.2205 525.66H100.348V524.94H96.2205V525.66ZM110.396 518.268C110.396 517.8 110.144 517.596 109.808 517.596H105.308C104.888 517.596 104.708 517.32 104.708 516.996C104.708 516.72 104.888 516.432 105.308 516.432H109.94C110.96 516.432 111.728 517.104 111.728 518.232C111.728 519.756 111.548 521.136 111.224 522.396C111.14 522.732 110.852 522.888 110.576 522.888C110.192 522.888 109.844 522.6 109.952 522.096C110.096 521.448 110.216 520.776 110.288 520.08H105.212C104.792 520.08 104.612 519.804 104.612 519.48C104.612 519.204 104.792 518.916 105.212 518.916H110.384C110.384 518.7 110.396 518.484 110.396 518.268ZM108.236 523.716H112.34C112.736 523.716 112.928 524.004 112.928 524.292C112.928 524.592 112.736 524.88 112.34 524.88H104.144C103.76 524.88 103.568 524.592 103.568 524.292C103.568 524.004 103.76 523.716 104.144 523.716H106.868V521.724C106.868 521.28 107.204 521.052 107.54 521.052C107.888 521.052 108.236 521.28 108.236 521.724V523.716ZM114.108 523.716H122.304C122.7 523.716 122.892 524.004 122.892 524.292C122.892 524.592 122.7 524.88 122.304 524.88H114.108C113.724 524.88 113.532 524.592 113.532 524.292C113.532 524.004 113.724 523.716 114.108 523.716ZM116.16 517.992V520.164C116.16 520.584 116.388 520.836 116.748 520.836H121.068C121.44 520.836 121.632 521.124 121.632 521.412C121.632 521.7 121.44 521.988 121.068 521.988H116.52C115.5 521.988 114.816 521.34 114.816 520.2V517.704C114.816 516.9 115.2 516.456 116.064 516.456H120.984C121.368 516.456 121.56 516.756 121.56 517.044C121.56 517.332 121.368 517.62 120.984 517.62H116.544C116.292 517.62 116.16 517.74 116.16 517.992ZM131.14 520.404H126.208C125.212 520.404 124.708 519.708 124.708 519.024C124.708 518.328 125.212 517.632 126.208 517.632H129.88C130.084 517.632 130.192 517.488 130.192 517.332C130.192 517.176 130.084 517.02 129.88 517.02H125.5C125.116 517.02 124.936 516.756 124.936 516.48C124.936 516.216 125.116 515.94 125.5 515.94H130.048C131.032 515.94 131.524 516.624 131.524 517.308C131.524 517.992 131.032 518.676 130.048 518.676H126.352C126.148 518.676 126.04 518.844 126.04 518.988C126.04 519.156 126.148 519.3 126.352 519.3H131.14C131.524 519.3 131.716 519.576 131.716 519.852C131.716 520.128 131.524 520.404 131.14 520.404ZM131.236 526.92H126.124C125.14 526.92 124.648 526.236 124.648 525.564C124.648 524.88 125.14 524.196 126.124 524.196H129.94C130.132 524.196 130.228 524.064 130.228 523.92C130.228 523.776 130.132 523.632 129.94 523.632H125.416C125.032 523.632 124.852 523.368 124.852 523.092C124.852 522.828 125.032 522.552 125.416 522.552H130.108C131.08 522.552 131.56 523.224 131.56 523.896C131.56 524.568 131.08 525.24 130.108 525.24H126.28C126.088 525.24 125.992 525.396 125.992 525.528C125.992 525.684 126.088 525.816 126.28 525.816H131.236C131.62 525.816 131.812 526.092 131.812 526.368C131.812 526.644 131.62 526.92 131.236 526.92ZM132.256 522.012H124.084C123.688 522.012 123.496 521.772 123.496 521.472C123.496 521.16 123.688 520.896 124.084 520.896H132.256C132.652 520.896 132.856 521.16 132.856 521.472C132.856 521.772 132.652 522.012 132.256 522.012ZM140.069 518.016H138.413C138.029 518.016 137.837 517.74 137.837 517.452C137.837 517.152 138.029 516.864 138.413 516.864H140.069V516.072C140.069 515.616 140.417 515.376 140.765 515.376C141.113 515.376 141.461 515.616 141.461 516.072V516.864H143.081C143.477 516.864 143.669 517.152 143.669 517.452C143.669 517.74 143.477 518.016 143.081 518.016H141.461C141.461 519.252 142.061 520.248 143.525 520.992C143.765 521.112 143.861 521.304 143.873 521.496C143.885 521.82 143.633 522.156 143.285 522.168C143.177 522.18 143.057 522.144 142.925 522.072C142.037 521.628 141.257 520.98 140.729 520.116C140.177 521.004 139.373 521.7 138.497 522.168C138.365 522.24 138.245 522.276 138.137 522.264C137.789 522.252 137.525 521.928 137.537 521.604C137.549 521.412 137.645 521.208 137.885 521.1C139.301 520.332 140.033 519.192 140.069 518.016ZM139.505 524.988V523.68C139.505 523.212 139.829 522.984 140.201 522.984C140.537 522.984 140.897 523.212 140.897 523.68V524.952C140.897 525.42 141.137 525.612 141.485 525.612H145.949C146.333 525.612 146.525 525.9 146.525 526.188C146.525 526.476 146.333 526.764 145.949 526.764H141.209C140.189 526.764 139.505 526.128 139.505 524.988ZM146.345 516.432V523.092C146.345 523.536 146.009 523.764 145.673 523.764C145.337 523.764 145.001 523.536 145.001 523.092V516.432C145.001 515.988 145.337 515.76 145.673 515.76C146.009 515.76 146.345 515.988 146.345 516.432ZM151.852 522.528H148.432C148.048 522.528 147.856 522.24 147.856 521.952C147.856 521.652 148.048 521.364 148.432 521.364H156.628C157.024 521.364 157.216 521.652 157.216 521.952C157.216 522.24 157.024 522.528 156.628 522.528H153.22V525.936C153.22 526.404 152.872 526.62 152.536 526.62C152.188 526.62 151.852 526.404 151.852 525.936V522.528ZM154.612 517.992C154.612 517.524 154.36 517.38 154.024 517.38H149.596C149.176 517.38 148.996 517.104 148.996 516.78C148.996 516.504 149.176 516.216 149.596 516.216H154.168C155.188 516.216 155.956 516.828 155.956 517.956C155.956 518.784 155.848 519.564 155.668 520.32C155.584 520.656 155.296 520.812 155.02 520.812C154.636 520.812 154.288 520.524 154.384 520.02C154.516 519.384 154.612 518.7 154.612 517.992ZM158.395 520.464H166.591C166.987 520.464 167.179 520.728 167.179 521.016C167.179 521.316 166.987 521.58 166.591 521.58H158.395C158.011 521.58 157.819 521.316 157.819 521.016C157.819 520.728 158.011 520.464 158.395 520.464ZM160.651 525.792H165.535C165.871 525.792 166.111 526.008 166.111 526.356C166.111 526.704 165.871 526.92 165.535 526.92H160.555C159.631 526.92 158.983 526.26 158.983 525.456C158.983 524.652 159.631 524.04 160.555 524.04H164.203C164.419 524.04 164.575 523.884 164.575 523.68C164.575 523.476 164.419 523.368 164.203 523.368H159.751C159.415 523.368 159.175 523.176 159.175 522.828C159.175 522.48 159.415 522.264 159.751 522.264H164.299C165.223 522.264 165.871 522.756 165.871 523.68C165.871 524.604 165.223 525.108 164.299 525.108H160.651C160.435 525.108 160.279 525.252 160.279 525.456C160.279 525.66 160.435 525.792 160.651 525.792ZM160.459 517.464V518.064C160.459 518.484 160.687 518.676 161.047 518.676H165.331C165.703 518.676 165.883 518.964 165.883 519.252C165.883 519.54 165.703 519.816 165.331 519.816H160.831C159.811 519.816 159.127 519.228 159.127 518.088V517.188C159.127 516.384 159.511 515.94 160.375 515.94H165.247C165.619 515.94 165.811 516.228 165.811 516.516C165.811 516.804 165.619 517.092 165.247 517.092H160.843C160.591 517.092 160.459 517.212 160.459 517.464ZM170.555 522.42C168.911 522.42 167.843 521.256 167.843 519.636C167.843 518.016 168.911 516.852 170.555 516.852C171.983 516.852 172.991 517.74 173.219 519.036H173.999V516.48C173.999 516.036 174.323 515.808 174.659 515.808C174.995 515.808 175.295 516.036 175.295 516.48V525.612C175.295 526.056 174.995 526.284 174.659 526.284C174.323 526.284 173.999 526.056 173.999 525.612V520.188H173.231C173.015 521.52 172.007 522.42 170.555 522.42ZM177.347 516.432V525.852C177.347 526.296 177.023 526.524 176.687 526.524C176.351 526.524 176.015 526.296 176.015 525.852V516.432C176.015 515.988 176.351 515.76 176.687 515.76C177.023 515.76 177.347 515.988 177.347 516.432ZM170.555 521.292C171.419 521.292 171.971 520.632 171.971 519.636C171.971 518.628 171.419 517.98 170.555 517.98C169.703 517.98 169.151 518.628 169.151 519.636C169.151 520.632 169.703 521.292 170.555 521.292ZM183.358 518.172V519.204C183.358 519.276 183.358 519.348 183.346 519.408H184.366V516.48C184.366 516.036 184.69 515.808 185.026 515.808C185.362 515.808 185.662 516.036 185.662 516.48V525.612C185.662 526.056 185.362 526.284 185.026 526.284C184.69 526.284 184.366 526.056 184.366 525.612V520.56H183.094C182.566 521.916 181.234 522.948 179.422 523.512C178.978 523.656 178.678 523.296 178.678 522.936C178.678 522.72 178.798 522.504 179.05 522.42C180.826 521.82 182.038 520.716 182.038 519.204V518.268C182.038 517.8 181.726 517.656 181.39 517.656H179.506C179.11 517.656 178.906 517.368 178.906 517.08C178.906 516.792 179.11 516.504 179.506 516.504H181.69C182.71 516.504 183.358 517.032 183.358 518.172ZM187.906 516.432V525.852C187.906 526.296 187.582 526.524 187.246 526.524C186.91 526.524 186.574 526.296 186.574 525.852V516.432C186.574 515.988 186.91 515.76 187.246 515.76C187.582 515.76 187.906 515.988 187.906 516.432ZM194.346 524.076C194.346 523.284 194.658 522.588 195.186 522.084H193.446C193.05 522.084 192.858 521.82 192.858 521.52C192.858 521.208 193.05 520.944 193.446 520.944H196.17V519.252C196.17 518.784 196.506 518.568 196.854 518.568C197.19 518.568 197.538 518.784 197.538 519.252V520.944H201.618C202.014 520.944 202.218 521.208 202.218 521.52C202.218 521.82 202.014 522.084 201.618 522.084H199.878C200.406 522.588 200.73 523.284 200.73 524.076C200.73 525.72 199.374 527.04 197.526 527.04C195.69 527.04 194.346 525.72 194.346 524.076ZM199.614 517.74C199.614 517.272 199.362 517.128 199.026 517.128H194.598C194.178 517.128 193.998 516.852 193.998 516.528C193.998 516.252 194.178 515.964 194.598 515.964H199.17C200.19 515.964 200.958 516.576 200.958 517.704C200.958 518.364 200.85 519.24 200.694 519.828C200.61 520.164 200.322 520.32 200.046 520.32C199.662 520.32 199.302 520.032 199.41 519.528C199.53 518.988 199.614 518.232 199.614 517.74ZM195.678 523.992C195.678 525.06 196.458 525.888 197.526 525.888C198.594 525.888 199.374 525.06 199.374 523.992C199.374 522.936 198.594 522.084 197.526 522.084C196.458 522.084 195.678 522.936 195.678 523.992ZM204.382 518.676C204.382 517.092 205.594 515.844 207.502 515.844C209.398 515.844 210.634 517.092 210.634 518.676C210.634 520.248 209.41 521.496 207.502 521.496C205.594 521.496 204.382 520.248 204.382 518.676ZM206.386 523.272V525.936C206.386 526.404 206.038 526.62 205.702 526.62C205.354 526.62 205.018 526.404 205.018 525.936V523.272H203.398C203.014 523.272 202.822 522.984 202.822 522.696C202.822 522.396 203.014 522.108 203.398 522.108H211.594C211.99 522.108 212.182 522.396 212.182 522.696C212.182 522.984 211.99 523.272 211.594 523.272H209.986V525.936C209.986 526.404 209.638 526.62 209.302 526.62C208.954 526.62 208.618 526.404 208.618 525.936V523.272H206.386ZM205.714 518.676C205.714 519.636 206.398 520.344 207.502 520.344C208.618 520.344 209.302 519.636 209.302 518.676C209.302 517.728 208.618 516.996 207.502 516.996C206.398 516.996 205.714 517.728 205.714 518.676ZM220.01 520.752V525.612C220.01 526.056 219.71 526.284 219.374 526.284C219.038 526.284 218.714 526.056 218.714 525.612V516.48C218.714 516.036 219.038 515.808 219.374 515.808C219.71 515.808 220.01 516.036 220.01 516.48V519.6H221.018V516.432C221.018 515.988 221.354 515.76 221.69 515.76C222.026 515.76 222.35 515.988 222.35 516.432V525.852C222.35 526.296 222.026 526.524 221.69 526.524C221.354 526.524 221.018 526.296 221.018 525.852V520.752H220.01ZM213.122 520.176C213.122 519.552 213.314 519.012 213.638 518.592H213.362C212.978 518.592 212.786 518.316 212.786 518.028C212.786 517.728 212.978 517.44 213.362 517.44H214.91V516.576C214.91 516.096 215.246 515.88 215.594 515.88C215.954 515.88 216.278 516.096 216.278 516.576V517.44H217.79C218.186 517.44 218.378 517.728 218.378 518.028C218.378 518.316 218.186 518.592 217.79 518.592H217.562C217.886 519.012 218.09 519.54 218.09 520.176C218.09 521.712 216.974 522.66 215.606 522.66C214.238 522.66 213.122 521.712 213.122 520.176ZM214.346 520.08C214.346 520.992 214.91 521.544 215.606 521.544C216.278 521.544 216.842 520.992 216.842 520.08C216.842 519.168 216.302 518.616 215.654 518.592H215.606C214.91 518.592 214.346 519.144 214.346 520.08ZM231.13 518.412H228.97C228.598 518.412 228.406 518.124 228.406 517.836C228.406 517.548 228.598 517.236 228.97 517.236H231.166V516.408C231.166 515.928 231.502 515.712 231.862 515.712C232.198 515.712 232.558 515.928 232.558 516.408V517.236H234.742C235.126 517.236 235.318 517.548 235.318 517.836C235.318 518.124 235.126 518.412 234.742 518.412H232.594C232.834 519.756 233.866 520.596 235.27 520.968C235.558 521.04 235.702 521.268 235.726 521.496C235.75 521.868 235.438 522.252 234.91 522.108C233.638 521.772 232.522 520.956 231.862 519.888C231.19 520.956 230.086 521.772 228.814 522.108C228.286 522.252 227.974 521.868 227.998 521.496C228.022 521.268 228.166 521.04 228.454 520.968C229.858 520.596 230.878 519.756 231.13 518.412ZM232.558 523.836H235.954C236.35 523.836 236.542 524.124 236.542 524.412C236.542 524.712 236.35 525 235.954 525H227.758C227.374 525 227.182 524.712 227.182 524.412C227.182 524.124 227.374 523.836 227.758 523.836H231.166V522.36C231.166 521.88 231.502 521.664 231.862 521.664C232.198 521.664 232.558 521.88 232.558 522.36V523.836ZM244.13 520.452V525.612C244.13 526.056 243.83 526.284 243.494 526.284C243.158 526.284 242.834 526.056 242.834 525.612V516.48C242.834 516.036 243.158 515.808 243.494 515.808C243.83 515.808 244.13 516.036 244.13 516.48V519.3H245.258V516.432C245.258 515.988 245.594 515.76 245.93 515.76C246.266 515.76 246.59 515.988 246.59 516.432V525.852C246.59 526.296 246.266 526.524 245.93 526.524C245.594 526.524 245.258 526.296 245.258 525.852V520.452H244.13ZM241.874 523.344H239.426C238.406 523.344 237.722 522.708 237.722 521.568V517.74C237.722 516.936 238.106 516.504 238.97 516.504H241.538C241.922 516.504 242.126 516.792 242.126 517.08C242.126 517.368 241.922 517.644 241.538 517.644H239.426C239.174 517.644 239.042 517.764 239.042 518.016V521.532C239.042 522 239.294 522.204 239.63 522.204H241.874C242.258 522.204 242.45 522.492 242.45 522.768C242.45 523.056 242.258 523.344 241.874 523.344ZM255.048 520.752V525.612C255.048 526.056 254.748 526.284 254.412 526.284C254.076 526.284 253.752 526.056 253.752 525.612V516.48C253.752 516.036 254.076 515.808 254.412 515.808C254.748 515.808 255.048 516.036 255.048 516.48V519.6H256.056V516.432C256.056 515.988 256.392 515.76 256.728 515.76C257.064 515.76 257.388 515.988 257.388 516.432V525.852C257.388 526.296 257.064 526.524 256.728 526.524C256.392 526.524 256.056 526.296 256.056 525.852V520.752H255.048ZM248.16 520.176C248.16 519.552 248.352 519.012 248.676 518.592H248.4C248.016 518.592 247.824 518.316 247.824 518.028C247.824 517.728 248.016 517.44 248.4 517.44H249.948V516.576C249.948 516.096 250.284 515.88 250.632 515.88C250.992 515.88 251.316 516.096 251.316 516.576V517.44H252.828C253.224 517.44 253.416 517.728 253.416 518.028C253.416 518.316 253.224 518.592 252.828 518.592H252.6C252.924 519.012 253.128 519.54 253.128 520.176C253.128 521.712 252.012 522.66 250.644 522.66C249.276 522.66 248.16 521.712 248.16 520.176ZM249.384 520.08C249.384 520.992 249.948 521.544 250.644 521.544C251.316 521.544 251.88 520.992 251.88 520.08C251.88 519.168 251.34 518.616 250.692 518.592H250.644C249.948 518.592 249.384 519.144 249.384 520.08ZM262.487 517.392H260.291C259.919 517.392 259.727 517.104 259.727 516.816C259.727 516.528 259.919 516.216 260.291 516.216H266.063C266.447 516.216 266.639 516.528 266.639 516.816C266.639 517.104 266.447 517.392 266.063 517.392H263.867C264.023 518.784 265.127 519.516 266.615 520.032C266.903 520.128 267.023 520.356 267.023 520.584C267.023 520.956 266.687 521.316 266.183 521.148C264.935 520.728 263.843 519.984 263.183 519.024C262.523 519.984 261.431 520.728 260.183 521.148C259.679 521.316 259.343 520.956 259.343 520.584C259.343 520.356 259.463 520.128 259.751 520.032C261.227 519.516 262.343 518.784 262.487 517.392ZM262.499 523.272H259.079C258.695 523.272 258.503 522.984 258.503 522.696C258.503 522.396 258.695 522.108 259.079 522.108H267.275C267.671 522.108 267.863 522.396 267.863 522.696C267.863 522.984 267.671 523.272 267.275 523.272H263.867V525.936C263.867 526.404 263.519 526.62 263.183 526.62C262.835 526.62 262.499 526.404 262.499 525.936V523.272ZM275.546 516.48V525.612C275.546 526.056 275.246 526.284 274.91 526.284C274.574 526.284 274.25 526.056 274.25 525.612V519.804H273.134C272.75 519.804 272.558 519.516 272.558 519.228C272.558 518.94 272.75 518.652 273.134 518.652H274.25V516.48C274.25 516.036 274.574 515.808 274.91 515.808C275.246 515.808 275.546 516.036 275.546 516.48ZM272.81 523.26C272.018 522.708 271.466 522 271.094 521.22C270.734 522.06 270.182 522.828 269.402 523.38C269.27 523.476 269.138 523.524 269.006 523.524C268.658 523.524 268.37 523.2 268.37 522.876C268.37 522.708 268.454 522.528 268.646 522.396C270.098 521.412 270.41 519.9 270.41 517.788V516.936C270.41 516.48 270.746 516.24 271.094 516.24C271.43 516.24 271.778 516.48 271.778 516.936V517.968C271.778 520.08 272.114 521.292 273.566 522.276C273.758 522.408 273.842 522.588 273.842 522.756C273.842 523.08 273.554 523.404 273.206 523.404C273.074 523.404 272.942 523.356 272.81 523.26ZM277.91 516.432V525.852C277.91 526.296 277.586 526.524 277.25 526.524C276.914 526.524 276.578 526.296 276.578 525.852V516.432C276.578 515.988 276.914 515.76 277.25 515.76C277.586 515.76 277.91 515.988 277.91 516.432ZM286.165 523.716H287.917C288.313 523.716 288.505 524.004 288.505 524.292C288.505 524.592 288.313 524.88 287.917 524.88H279.721C279.337 524.88 279.145 524.592 279.145 524.292C279.145 524.004 279.337 523.716 279.721 523.716H281.461V521.448C280.861 520.908 280.513 520.128 280.513 519.252C280.513 517.5 281.905 516.18 283.813 516.18C285.721 516.18 287.137 517.5 287.137 519.252C287.137 520.14 286.765 520.908 286.165 521.46V523.716ZM281.845 519.252C281.845 520.38 282.709 521.16 283.813 521.16C284.941 521.16 285.805 520.38 285.805 519.252C285.805 518.136 284.941 517.332 283.813 517.332C282.709 517.332 281.845 518.136 281.845 519.252ZM283.813 522.312C283.453 522.312 283.117 522.264 282.805 522.18V523.716H284.821V522.18C284.497 522.264 284.161 522.312 283.813 522.312ZM289.349 524.892C289.349 524.412 289.745 524.016 290.237 524.016C290.729 524.016 291.125 524.412 291.125 524.892C291.125 525.372 290.729 525.78 290.237 525.78C289.745 525.78 289.349 525.372 289.349 524.892Z" fill="#FFCC00"/>
    </g>
    <defs>
        <clipPath id="clip0_1839_38564">
            <rect width="375" height="667" fill="white"/>
        </clipPath>
        <clipPath id="clip1_1839_38564">
            <rect width="375.49" height="514.5" fill="white" transform="matrix(-1 0 0 -1 375.49 625)"/>
        </clipPath>
        <clipPath id="clip2_1839_38564">
            <rect width="144.2" height="70" fill="white" transform="translate(116 333)"/>
        </clipPath>
        <clipPath id="clip3_1839_38564">
            <rect width="25" height="24" fill="white" transform="translate(20.833 41)"/>
        </clipPath>
    </defs>
</svg>
