<svg width="375" height="667" viewBox="0 0 375 667" fill="none" xmlns="http://www.w3.org/2000/svg">
    <g clip-path="url(#clip0_1839_38524)">
        <rect width="375" height="667" fill="#FCF9D1"/>
        <g clip-path="url(#clip1_1839_38524)">
            <path d="M375 624.75V110.75H298.2V125.53C301.23 127.25 303.2 130.5 303.2 134.23C303.2 139.75 298.72 144.23 293.2 144.23C287.68 144.23 283.2 139.75 283.2 134.23C283.2 130.5 285.17 127.25 288.2 125.53V110.75H245.36V125.53H245.28C248.31 127.25 250.36 130.5 250.36 134.23C250.36 139.75 245.88 144.23 240.36 144.23C234.84 144.23 230.36 139.75 230.36 134.23C230.36 130.5 232.41 127.25 235.44 125.53H235.36V110.75H192.51V125.53C195.54 127.25 197.51 130.5 197.51 134.23C197.51 139.75 193.03 144.23 187.51 144.23C181.99 144.23 177.51 139.75 177.51 134.23C177.51 130.5 179.48 127.25 182.51 125.53V110.75H139.67V125.53C142.7 127.25 144.67 130.5 144.67 134.23C144.67 139.75 140.19 144.23 134.67 144.23C129.15 144.23 124.67 139.75 124.67 134.23C124.67 130.5 126.64 127.25 129.67 125.53V110.75H86.84V125.53C89.87 127.25 91.84 130.5 91.84 134.23C91.84 139.75 87.36 144.23 81.84 144.23C76.32 144.23 71.84 139.75 71.84 134.23C71.84 130.5 73.81 127.25 76.84 125.53V110.75H0.0100098V624.75H375Z" fill="white" stroke="#777677" stroke-width="0.5" stroke-miterlimit="10"/>
            <path d="M71.4986 214.96H88.2506C88.8266 214.96 89.1146 215.416 89.1146 215.8C89.1146 216.208 88.8266 216.616 88.2506 216.616H71.4986C70.9466 216.616 70.6586 216.208 70.6586 215.8C70.6586 215.416 70.9466 214.96 71.4986 214.96ZM84.5306 203.536C84.5306 202.288 83.7866 201.712 82.8506 201.712H73.7306C73.1546 201.712 72.9146 201.352 72.9146 200.872C72.9146 200.464 73.1546 200.056 73.7306 200.056H83.1386C85.0346 200.056 86.4506 201.328 86.4506 203.44C86.4506 206.392 86.0426 209.416 85.4186 211.84C85.2746 212.368 84.8906 212.584 84.4346 212.584C83.8586 212.584 83.4266 212.056 83.5706 211.336C84.0506 208.96 84.5306 206.392 84.5306 203.536ZM106.21 213.328V218.872C106.21 220.072 105.658 220.6 104.386 220.6H94.7621C93.5141 220.6 92.9381 220.072 92.9381 218.872V213.328C92.9381 212.656 93.4181 212.296 93.8981 212.296C94.3781 212.296 94.8821 212.656 94.8821 213.328V214.96H104.266V213.328C104.266 212.656 104.746 212.296 105.226 212.296C105.706 212.296 106.21 212.656 106.21 213.328ZM95.8661 206.104H105.73C106.258 206.104 106.546 206.512 106.546 206.896C106.546 207.304 106.258 207.712 105.73 207.712H95.6021C93.6821 207.712 92.7461 206.608 92.7461 205.192C92.7461 203.68 93.6821 202.624 95.6021 202.624H103.018C103.882 202.624 104.314 202.336 104.314 201.64C104.314 200.944 103.882 200.68 103.018 200.68H93.9701C93.4661 200.68 93.2261 200.272 93.2261 199.888C93.2261 199.504 93.4661 199.072 93.9701 199.072H103.306C105.226 199.072 106.162 200.104 106.162 201.616C106.162 203.032 105.226 204.112 103.306 204.112H95.8661C95.0261 204.112 94.5941 204.376 94.5941 205.096C94.5941 205.768 95.0261 206.104 95.8661 206.104ZM91.1861 209.152H107.938C108.514 209.152 108.802 209.584 108.802 209.968C108.802 210.376 108.514 210.76 107.938 210.76H100.546V212.536C100.546 213.208 100.042 213.568 99.5861 213.568C99.0821 213.568 98.6021 213.208 98.6021 212.536V210.76H91.1861C90.6341 210.76 90.3461 210.376 90.3461 209.968C90.3461 209.584 90.6341 209.152 91.1861 209.152ZM94.8821 219.016H104.266V216.496H94.8821V219.016ZM123.906 203.536C123.906 202.288 123.162 201.712 122.226 201.712H113.106C112.53 201.712 112.29 201.352 112.29 200.872C112.29 200.464 112.53 200.056 113.106 200.056H122.514C124.41 200.056 125.826 201.328 125.826 203.44C125.826 206.632 125.394 209.272 124.89 211.6C124.77 212.128 124.338 212.344 123.954 212.344C123.426 212.344 122.898 211.864 123.042 211.144C123.258 209.968 123.474 208.816 123.618 207.64H113.346C112.818 207.64 112.578 207.232 112.578 206.8C112.578 206.44 112.818 206.032 113.346 206.032H123.81C123.858 205.24 123.906 204.424 123.906 203.536ZM118.962 214.96H127.626C128.202 214.96 128.49 215.416 128.49 215.8C128.49 216.208 128.202 216.616 127.626 216.616H110.874C110.322 216.616 110.034 216.208 110.034 215.8C110.034 215.416 110.322 214.96 110.874 214.96H117.018V210.616C117.018 209.944 117.474 209.584 117.978 209.584C118.482 209.584 118.962 209.944 118.962 210.616V214.96ZM130.561 214.96H147.313C147.889 214.96 148.177 215.416 148.177 215.8C148.177 216.208 147.889 216.616 147.313 216.616H130.561C130.009 216.616 129.721 216.208 129.721 215.8C129.721 215.416 130.009 214.96 130.561 214.96ZM134.233 202.888V207.544C134.233 208.648 134.641 209.08 135.649 209.08H145.009C145.513 209.08 145.777 209.488 145.777 209.872C145.777 210.304 145.513 210.736 145.009 210.736H135.193C133.321 210.736 132.289 209.728 132.289 207.592V202.288C132.289 200.872 132.961 200.056 134.473 200.056H144.841C145.345 200.056 145.609 200.488 145.609 200.92C145.609 201.352 145.345 201.712 144.841 201.712H135.457C134.425 201.712 134.233 201.856 134.233 202.888ZM164.817 207.448H154.737C152.937 207.448 151.809 206.584 151.809 204.976C151.809 203.632 152.697 202.48 154.737 202.48H162.297C162.993 202.48 163.353 202.144 163.353 201.544C163.353 200.968 162.993 200.608 162.297 200.608H153.033C152.529 200.608 152.289 200.224 152.289 199.84C152.289 199.456 152.529 199.072 153.033 199.072H162.321C164.097 199.072 165.201 199.936 165.201 201.496C165.201 203.08 164.097 203.944 162.321 203.944H154.737C154.041 203.944 153.657 204.328 153.657 204.88C153.657 205.504 154.041 205.84 154.737 205.84H164.817C165.345 205.84 165.609 206.272 165.609 206.632C165.609 207.04 165.345 207.448 164.817 207.448ZM165.033 220.84H154.473C152.673 220.84 151.689 219.832 151.689 218.368C151.689 216.904 152.673 215.872 154.473 215.872H162.393C163.065 215.872 163.425 215.536 163.425 214.96C163.425 214.408 163.065 214.024 162.393 214.024H152.865C152.361 214.024 152.121 213.616 152.121 213.256C152.121 212.872 152.361 212.464 152.865 212.464H162.537C164.313 212.464 165.273 213.448 165.273 214.912C165.273 216.376 164.313 217.36 162.537 217.36H154.569C153.897 217.36 153.537 217.768 153.537 218.296C153.537 218.896 153.897 219.232 154.569 219.232H165.033C165.561 219.232 165.801 219.664 165.801 220.048C165.801 220.432 165.561 220.84 165.033 220.84ZM150.249 209.104H167.001C167.577 209.104 167.865 209.512 167.865 209.896C167.865 210.304 167.577 210.664 167.001 210.664H150.249C149.697 210.664 149.409 210.304 149.409 209.896C149.409 209.512 149.697 209.104 150.249 209.104ZM177.299 204.088C177.299 201.064 179.651 198.808 182.939 198.808C186.227 198.808 188.579 201.064 188.579 204.088C188.579 207.112 186.227 209.368 182.939 209.368C179.651 209.368 177.299 207.112 177.299 204.088ZM192.227 214.408V212.2C192.227 211.528 192.707 211.168 193.187 211.168C193.667 211.168 194.171 211.528 194.171 212.2V218.896C194.171 220.144 193.571 220.6 192.251 220.6H183.155C181.835 220.6 181.235 220.144 181.235 218.896V212.2C181.235 211.528 181.715 211.168 182.195 211.168C182.675 211.168 183.179 211.528 183.179 212.2V214.408H192.227ZM186.659 204.088C186.659 201.832 184.979 200.44 182.939 200.44C180.899 200.44 179.219 201.832 179.219 204.088C179.219 206.344 180.899 207.736 182.939 207.736C184.979 207.736 186.659 206.344 186.659 204.088ZM183.179 218.968H192.227V215.992H183.179V218.968ZM194.171 199.6V208.792C194.171 209.464 193.667 209.824 193.211 209.824C192.707 209.824 192.227 209.464 192.227 208.792V199.6C192.227 198.904 192.707 198.568 193.211 198.568C193.667 198.568 194.171 198.904 194.171 199.6ZM205.161 205.384H201.993C200.913 205.384 200.361 206.008 200.361 206.968C200.361 207.952 200.913 208.576 201.993 208.576H208.569C209.073 208.576 209.337 209.032 209.337 209.416C209.337 209.8 209.073 210.232 208.569 210.232H201.705C199.593 210.232 198.417 208.744 198.417 207.016C198.417 205.312 199.593 203.824 201.705 203.824H204.945C206.001 203.824 206.529 203.32 206.529 202.36C206.529 201.448 206.001 200.896 204.945 200.896H199.689C199.161 200.896 198.897 200.464 198.897 200.08C198.897 199.696 199.161 199.24 199.689 199.24H205.161C207.273 199.24 208.449 200.632 208.449 202.312C208.449 204.016 207.273 205.384 205.161 205.384ZM215.289 199.6V210.328C215.289 211 214.785 211.36 214.329 211.36C213.825 211.36 213.345 211 213.345 210.328V207.256H209.889C209.361 207.256 209.121 206.848 209.121 206.416C209.121 206.032 209.361 205.6 209.889 205.6H213.345V203.008H210.201C209.673 203.008 209.433 202.6 209.433 202.168C209.433 201.784 209.673 201.352 210.201 201.352H213.345V199.6C213.345 198.904 213.825 198.568 214.329 198.568C214.785 198.568 215.289 198.904 215.289 199.6ZM212.001 214.192H202.785C202.209 214.192 201.921 213.76 201.921 213.376C201.921 212.992 202.209 212.536 202.785 212.536H212.169C214.065 212.536 215.289 213.328 215.289 215.464V219.736C215.289 220.408 214.833 220.72 214.329 220.72C213.801 220.72 213.345 220.408 213.345 219.736V215.608C213.345 214.576 212.937 214.192 212.001 214.192ZM224.022 199C224.526 199 225.054 199.312 225.054 200.056V202.24H228.774C229.326 202.24 229.566 202.648 229.566 203.056C229.566 203.464 229.326 203.848 228.774 203.848H227.31C228.198 204.664 228.774 205.816 228.774 207.208C228.774 210.16 226.542 211.888 224.022 211.888C221.502 211.888 219.27 210.16 219.27 207.208C219.27 205.816 219.822 204.664 220.71 203.848H219.366C218.838 203.848 218.598 203.464 218.598 203.056C218.598 202.648 218.838 202.24 219.366 202.24H222.99V200.056C222.99 199.312 223.518 199 224.022 199ZM232.35 208.168V218.44C232.35 219.112 231.894 219.472 231.438 219.472C230.934 219.472 230.502 219.112 230.502 218.44V199.72C230.502 199.024 230.934 198.688 231.438 198.688C231.894 198.688 232.35 199.024 232.35 199.72V206.512H235.014V199.6C235.014 198.904 235.494 198.568 235.998 198.568C236.454 198.568 236.958 198.904 236.958 199.6V218.92C236.958 219.592 236.454 219.952 235.998 219.952C235.494 219.952 235.014 219.592 235.014 218.92V208.168H232.35ZM221.022 207.136C221.022 208.816 222.126 210.328 224.022 210.328C225.918 210.328 227.022 208.816 227.022 207.136C227.022 205.456 225.918 203.944 224.022 203.944C222.126 203.944 221.022 205.456 221.022 207.136ZM255.387 209.248C252.531 208.384 250.155 206.56 248.859 204.28C247.587 206.56 245.211 208.408 242.355 209.248C241.227 209.584 240.651 208 241.683 207.616C245.067 206.464 247.611 204.544 247.803 201.256H242.811C242.283 201.256 242.043 200.872 242.043 200.464C242.043 200.032 242.283 199.624 242.811 199.624H254.931C255.483 199.624 255.723 200.032 255.723 200.464C255.723 200.872 255.483 201.256 254.931 201.256H249.891C250.083 204.568 252.651 206.464 256.011 207.616C257.091 208.048 256.467 209.584 255.387 209.248ZM249.843 213.232V219.16C249.843 219.832 249.411 220.168 248.859 220.168C248.331 220.168 247.899 219.832 247.899 219.16V213.232H240.483C239.931 213.232 239.643 212.824 239.643 212.416C239.643 212.032 239.931 211.576 240.483 211.576H257.235C257.811 211.576 258.099 212.032 258.099 212.416C258.099 212.824 257.811 213.232 257.235 213.232H249.843ZM268.426 213.448C266.578 212.128 265.378 210.328 264.658 208.384C263.962 210.352 262.786 212.2 260.842 213.688C259.834 214.456 258.826 212.992 259.762 212.224C262.762 209.704 263.602 206.728 263.602 202.312V200.536C263.602 199.816 264.106 199.456 264.61 199.456C265.09 199.456 265.594 199.816 265.594 200.536V202.552C265.594 207.208 266.746 209.872 269.506 211.984C270.49 212.728 269.386 214.144 268.426 213.448ZM273.25 199.72V218.44C273.25 219.112 272.794 219.472 272.338 219.472C271.834 219.472 271.402 219.112 271.402 218.44V206.272H268.45C267.922 206.272 267.682 205.864 267.682 205.432C267.682 205.024 267.922 204.616 268.45 204.616H271.402V199.72C271.402 199.024 271.834 198.688 272.338 198.688C272.794 198.688 273.25 199.024 273.25 199.72ZM277.762 199.6V218.92C277.762 219.592 277.258 219.952 276.802 219.952C276.298 219.952 275.818 219.592 275.818 218.92V199.6C275.818 198.904 276.298 198.568 276.802 198.568C277.258 198.568 277.762 198.904 277.762 199.6ZM283.352 205.336C283.352 201.952 286.016 199.312 289.688 199.312C293.36 199.312 296.024 201.952 296.024 205.336C296.024 207.136 295.28 208.72 294.032 209.8V215.008H298.04C298.616 215.008 298.904 215.464 298.904 215.848C298.904 216.256 298.616 216.664 298.04 216.664H281.288C280.736 216.664 280.448 216.256 280.448 215.848C280.448 215.464 280.736 215.008 281.288 215.008H285.344V209.8C284.096 208.72 283.352 207.136 283.352 205.336ZM294.128 205.336C294.128 202.84 292.256 200.944 289.688 200.944C287.12 200.944 285.248 202.84 285.248 205.336C285.248 207.832 287.12 209.728 289.688 209.728C292.256 209.728 294.128 207.832 294.128 205.336ZM289.688 211.36C288.824 211.36 288.008 211.216 287.288 210.952V215.008H292.088V210.952C291.344 211.216 290.552 211.36 289.688 211.36ZM300.495 216.784C300.495 216.088 301.047 215.512 301.743 215.512C302.439 215.512 302.991 216.088 302.991 216.784C302.991 217.48 302.439 218.08 301.743 218.08C301.047 218.08 300.495 217.48 300.495 216.784Z" fill="black"/>
            <rect x="24.75" y="249.75" width="326.5" height="60.5" rx="20.25" stroke="#767676" stroke-width="0.5"/>
            <path d="M55.2 286.3H69.16C69.64 286.3 69.88 286.68 69.88 287C69.88 287.34 69.64 287.68 69.16 287.68H55.2C54.74 287.68 54.5 287.34 54.5 287C54.5 286.68 54.74 286.3 55.2 286.3ZM66.06 276.78C66.06 275.74 65.44 275.26 64.66 275.26H57.06C56.58 275.26 56.38 274.96 56.38 274.56C56.38 274.22 56.58 273.88 57.06 273.88H64.9C66.48 273.88 67.66 274.94 67.66 276.7C67.66 279.16 67.32 281.68 66.8 283.7C66.68 284.14 66.36 284.32 65.98 284.32C65.5 284.32 65.14 283.88 65.26 283.28C65.66 281.3 66.06 279.16 66.06 276.78ZM83.6263 284.94V289.56C83.6263 290.56 83.1663 291 82.1063 291H74.0863C73.0463 291 72.5663 290.56 72.5663 289.56V284.94C72.5663 284.38 72.9663 284.08 73.3663 284.08C73.7663 284.08 74.1863 284.38 74.1863 284.94V286.3H82.0063V284.94C82.0063 284.38 82.4062 284.08 82.8063 284.08C83.2063 284.08 83.6263 284.38 83.6263 284.94ZM75.0063 278.92H83.2263C83.6663 278.92 83.9063 279.26 83.9063 279.58C83.9063 279.92 83.6663 280.26 83.2263 280.26H74.7863C73.1863 280.26 72.4062 279.34 72.4062 278.16C72.4062 276.9 73.1863 276.02 74.7863 276.02H80.9663C81.6863 276.02 82.0463 275.78 82.0463 275.2C82.0463 274.62 81.6863 274.4 80.9663 274.4H73.4263C73.0063 274.4 72.8063 274.06 72.8063 273.74C72.8063 273.42 73.0063 273.06 73.4263 273.06H81.2062C82.8063 273.06 83.5863 273.92 83.5863 275.18C83.5863 276.36 82.8063 277.26 81.2062 277.26H75.0063C74.3063 277.26 73.9463 277.48 73.9463 278.08C73.9463 278.64 74.3063 278.92 75.0063 278.92ZM71.1063 281.46H85.0663C85.5463 281.46 85.7863 281.82 85.7863 282.14C85.7863 282.48 85.5463 282.8 85.0663 282.8H78.9063V284.28C78.9063 284.84 78.4863 285.14 78.1063 285.14C77.6863 285.14 77.2863 284.84 77.2863 284.28V282.8H71.1063C70.6463 282.8 70.4063 282.48 70.4063 282.14C70.4063 281.82 70.6463 281.46 71.1063 281.46ZM74.1863 289.68H82.0063V287.58H74.1863V289.68ZM97.8725 276.78C97.8725 275.74 97.2525 275.26 96.4725 275.26H88.8725C88.3925 275.26 88.1925 274.96 88.1925 274.56C88.1925 274.22 88.3925 273.88 88.8725 273.88H96.7125C98.2925 273.88 99.4725 274.94 99.4725 276.7C99.4725 279.36 99.1125 281.56 98.6925 283.5C98.5925 283.94 98.2325 284.12 97.9125 284.12C97.4725 284.12 97.0325 283.72 97.1525 283.12C97.3325 282.14 97.5125 281.18 97.6325 280.2H89.0725C88.6325 280.2 88.4325 279.86 88.4325 279.5C88.4325 279.2 88.6325 278.86 89.0725 278.86H97.7925C97.8325 278.2 97.8725 277.52 97.8725 276.78ZM93.7525 286.3H100.973C101.453 286.3 101.693 286.68 101.693 287C101.693 287.34 101.453 287.68 100.973 287.68H87.0125C86.5525 287.68 86.3125 287.34 86.3125 287C86.3125 286.68 86.5525 286.3 87.0125 286.3H92.1325V282.68C92.1325 282.12 92.5125 281.82 92.9325 281.82C93.3525 281.82 93.7525 282.12 93.7525 282.68V286.3ZM102.919 286.3H116.879C117.359 286.3 117.599 286.68 117.599 287C117.599 287.34 117.359 287.68 116.879 287.68H102.919C102.459 287.68 102.219 287.34 102.219 287C102.219 286.68 102.459 286.3 102.919 286.3ZM105.979 276.24V280.12C105.979 281.04 106.319 281.4 107.159 281.4H114.959C115.379 281.4 115.599 281.74 115.599 282.06C115.599 282.42 115.379 282.78 114.959 282.78H106.779C105.219 282.78 104.359 281.94 104.359 280.16V275.74C104.359 274.56 104.919 273.88 106.179 273.88H114.819C115.239 273.88 115.459 274.24 115.459 274.6C115.459 274.96 115.239 275.26 114.819 275.26H106.999C106.139 275.26 105.979 275.38 105.979 276.24Z" fill="#767676"/>
        </g>
        <rect x="113.25" y="545.25" width="149.5" height="49.5" rx="19.75" fill="white" stroke="black" stroke-width="0.5"/>
        <path d="M174.925 568.576C174.925 567.2 176.397 566.304 178.653 566.304C180.909 566.304 182.381 567.2 182.381 568.576C182.381 569.712 181.357 570.56 179.725 570.816V571.776C180.781 571.728 181.613 571.616 182.429 571.456C183.197 571.296 183.645 571.728 183.645 572.272C183.645 572.72 183.373 573.056 182.829 573.184C181.597 573.472 180.221 573.6 178.157 573.6H174.749C174.173 573.6 173.789 573.248 173.789 572.704C173.789 572.16 174.173 571.808 174.749 571.808H177.581V570.816C175.949 570.56 174.925 569.712 174.925 568.576ZM173.917 564.976C173.917 564.432 174.301 564.096 174.877 564.096H177.581V563.664C177.581 563.056 178.109 562.784 178.653 562.784C179.197 562.784 179.725 563.056 179.725 563.664V564.096H182.301C182.877 564.096 183.261 564.432 183.261 564.976C183.261 565.52 182.877 565.856 182.301 565.856H174.877C174.301 565.856 173.917 565.52 173.917 564.976ZM175.661 575.344C175.661 574.8 175.981 574.432 176.557 574.432H185.101C185.789 574.432 186.301 574.816 186.301 575.44V578.064C186.301 578.752 185.677 579.04 185.229 579.04C184.781 579.04 184.157 578.752 184.157 578.064V576.256H176.557C175.981 576.256 175.661 575.888 175.661 575.344ZM177.005 568.576C177.005 569.024 177.629 569.264 178.653 569.264C179.677 569.264 180.301 569.024 180.301 568.576C180.301 568.128 179.677 567.888 178.653 567.888C177.629 567.888 177.005 568.128 177.005 568.576ZM184.157 564.144C184.157 563.456 184.781 563.168 185.229 563.168C185.677 563.168 186.301 563.456 186.301 564.144V567.376H187.629C188.205 567.376 188.525 567.76 188.525 568.304C188.525 568.848 188.205 569.232 187.629 569.232H186.301V573.088C186.301 573.776 185.677 573.968 185.229 573.968C184.781 573.968 184.157 573.776 184.157 573.088V564.144ZM199.852 564.144C199.852 563.456 200.476 563.168 200.924 563.168C201.372 563.168 201.996 563.456 201.996 564.144V573.312C201.996 574 201.372 574.288 200.924 574.288C200.476 574.288 199.852 574 199.852 573.312V564.144ZM189.34 567.824C189.34 565.552 191.196 563.872 193.692 563.872C196.188 563.872 198.044 565.552 198.044 567.824C198.044 570.08 196.188 571.776 193.692 571.776C191.196 571.776 189.34 570.08 189.34 567.824ZM191.452 567.824C191.452 569.056 192.396 569.968 193.692 569.968C194.988 569.968 195.932 569.056 195.932 567.824C195.932 566.592 194.988 565.68 193.692 565.68C192.396 565.68 191.452 566.592 191.452 567.824ZM191.644 573.856C191.644 573.168 192.268 572.88 192.716 572.88C193.164 572.88 193.788 573.168 193.788 573.856V576.672C193.788 576.816 193.884 576.912 194.028 576.912H201.436C202.012 576.912 202.332 577.296 202.332 577.84C202.332 578.384 202.012 578.768 201.436 578.768H193.02C192.236 578.768 191.644 578.208 191.644 577.472V573.856Z" fill="black"/>
        <path d="M160.088 52.4398C161.86 57.1467 163.687 62.9316 168.681 65.1566C170.064 65.7713 171.492 66.1246 173.012 65.9594C174.386 65.8126 175.654 65.4502 176.881 64.8125C179.065 63.6794 180.818 61.7618 182.114 59.6974C184.467 55.931 185.946 50.6919 183.977 46.4714C182.837 44.0308 180.099 42.2141 177.384 43.1912C174.537 44.2189 173.379 47.2054 173.324 50.0359C173.232 54.7474 175.214 59.9222 179.298 62.5233C184.622 65.9181 191.197 63.3583 195.399 59.3854C197.542 57.3577 199.227 54.8621 200.302 52.1141C201.282 49.6047 201.726 46.4438 200.316 44.0078C199.515 42.627 198.128 41.4709 196.548 41.1314C194.561 40.7002 192.721 41.3654 191.174 42.6132C188.267 44.9483 187.378 49.1918 187.502 52.7426C187.621 56.1695 188.775 59.7983 191.819 61.6976C194.548 63.4041 197.968 63.2344 200.829 61.982C202.17 61.3948 203.37 60.4819 204.537 59.6102C205.503 58.89 206.451 58.1376 207.316 57.3027C208.822 55.8484 210.058 54.1418 211.363 52.5132C212.366 51.2608 213.391 50.0313 214.444 48.8248C215.113 48.0587 215.255 46.8154 214.444 46.0722C213.712 45.3979 212.412 45.2511 211.697 46.0722C209.99 48.0311 208.392 50.0726 206.762 52.1003C205.654 53.4766 204.464 54.7474 203.086 55.8576C202.985 55.9401 202.884 56.0181 202.779 56.1007C202.82 56.0686 203.127 55.8346 202.852 56.0457C202.624 56.22 202.39 56.3943 202.157 56.5641C201.571 56.9907 200.975 57.4082 200.371 57.8073C200.138 57.9587 199.904 58.1055 199.662 58.2385C199.52 58.3165 199.373 58.3945 199.227 58.4633C199.162 58.4954 198.668 58.6973 199.103 58.5275C198.467 58.7753 197.826 58.9496 197.153 59.0597C197.665 58.9771 197.166 59.0505 197.07 59.0597C196.919 59.0689 196.773 59.0781 196.622 59.0826C196.374 59.0872 196.132 59.0826 195.885 59.0643C195.743 59.0551 195.34 59.1102 195.825 59.0643C195.701 59.0735 195.523 59.0138 195.399 58.9863C195.074 58.9175 194.763 58.812 194.442 58.7065C193.994 58.5597 194.804 58.9037 194.388 58.6835C194.264 58.6193 194.136 58.5597 194.012 58.4908C193.806 58.3762 193.618 58.2431 193.422 58.1147C193.834 58.3899 193.458 58.1376 193.376 58.0688C193.27 57.977 193.165 57.8761 193.069 57.7752C192.973 57.6742 192.877 57.5641 192.781 57.4586C192.648 57.2935 192.657 57.3118 192.817 57.5137C192.758 57.4357 192.703 57.3531 192.648 57.2751C192.483 57.0228 192.341 56.7613 192.208 56.4907C192.222 56.5182 191.97 55.9814 192.08 56.2246C192.19 56.4677 191.966 55.9126 191.975 55.9401C191.847 55.5869 191.741 55.2245 191.654 54.8575C191.609 54.6694 191.572 54.4813 191.535 54.2932C191.512 54.1647 191.49 54.0363 191.471 53.9124C191.494 54.1097 191.49 54.0868 191.462 53.8482C191.389 53.1188 191.361 52.3939 191.384 51.6599C191.398 51.2562 191.435 50.8617 191.471 50.458C191.526 49.8157 191.398 50.8158 191.508 50.1827C191.549 49.9304 191.595 49.6735 191.65 49.4258C191.732 49.0542 191.833 48.6826 191.952 48.3202C192.011 48.1412 192.076 47.9623 192.144 47.788C192.35 47.2329 192.053 47.9669 192.204 47.655C192.355 47.343 192.501 47.0586 192.675 46.7741C192.767 46.6227 192.868 46.4759 192.968 46.3291C193.101 46.1456 193.106 46.1411 192.982 46.3062C193.055 46.219 193.133 46.1319 193.211 46.0493C193.339 45.9117 193.476 45.7924 193.609 45.6594C194.017 45.2511 193.399 45.7649 193.847 45.4575C194.003 45.352 194.159 45.2511 194.319 45.1639C194.378 45.1318 194.891 44.9299 194.479 45.0721C194.635 45.0171 195.381 44.8703 194.877 44.9208C195.024 44.907 195.175 44.8978 195.321 44.8978C195.418 44.8978 195.514 44.9024 195.61 44.9116C195.331 44.8703 195.299 44.8657 195.514 44.9116C195.647 44.9529 195.784 44.9896 195.921 45.0263C196.352 45.1455 195.592 44.8107 195.967 45.0492C196.081 45.1226 196.205 45.196 196.324 45.2648C196.713 45.4896 196.054 44.9804 196.374 45.3015C196.539 45.4713 196.704 45.6318 196.86 45.8107C196.539 45.4346 196.832 45.7924 196.887 45.8796C196.988 46.0401 197.07 46.2099 197.157 46.3842C196.933 45.9438 197.134 46.3475 197.166 46.453C197.208 46.5906 197.235 46.7328 197.276 46.8705C197.409 47.3246 197.276 46.453 197.29 46.9255C197.29 47.0632 197.304 47.2008 197.308 47.3384C197.313 47.5403 197.313 47.7421 197.308 47.9486C197.304 48.0724 197.295 48.1963 197.285 48.3202C197.281 48.4027 197.272 48.4853 197.263 48.5725C197.235 48.7881 197.244 48.7422 197.285 48.4348C197.208 48.4853 197.166 49.0955 197.144 49.2056C197.084 49.4671 197.015 49.7285 196.942 49.9855C196.878 50.2057 196.805 50.4259 196.732 50.6415C196.686 50.7745 196.635 50.9076 196.585 51.036C196.553 51.1232 196.516 51.2103 196.48 51.3021C196.585 51.0589 196.594 51.036 196.507 51.2333C196.004 52.3251 195.418 53.3665 194.717 54.3437C194.626 54.4675 194.534 54.5914 194.442 54.7153C194.722 54.3391 194.41 54.7565 194.365 54.8116C194.168 55.0547 193.966 55.2933 193.756 55.5273C193.335 55.9998 192.89 56.4494 192.424 56.876C192.19 57.0916 191.952 57.2981 191.705 57.4999C191.654 57.5412 191.233 57.8715 191.604 57.5871C191.48 57.6834 191.352 57.7752 191.224 57.8715C190.711 58.2385 190.18 58.5826 189.631 58.89C189.356 59.0414 189.077 59.1882 188.798 59.3212C188.656 59.39 188.514 59.4542 188.372 59.5185C188.807 59.3212 188.331 59.5322 188.262 59.5597C187.685 59.7845 187.09 59.968 186.486 60.1057C186.335 60.1378 186.184 60.1699 186.032 60.202C185.932 60.2204 185.446 60.2479 185.932 60.2249C185.62 60.2387 185.314 60.2617 185.002 60.2617C184.709 60.2617 184.412 60.2479 184.119 60.2204L183.977 60.2066C183.757 60.1791 183.789 60.1837 184.073 60.2204C183.986 60.2387 183.753 60.1653 183.666 60.147C183.4 60.0919 183.139 60.0277 182.883 59.9543C182.768 59.9176 182.191 59.8029 182.146 59.6974L182.375 59.7937C182.297 59.7616 182.219 59.7249 182.146 59.6882C182.031 59.6332 181.921 59.5781 181.807 59.5185C181.569 59.39 181.335 59.2524 181.111 59.101C181.024 59.0459 180.942 58.9817 180.859 58.9267C180.498 58.6835 181.193 59.2157 180.859 58.9313C180.672 58.7707 180.484 58.6147 180.31 58.445C180.136 58.2752 179.962 58.1009 179.802 57.9174C179.719 57.8256 179.641 57.7339 179.564 57.6376C179.216 57.2201 179.683 57.8256 179.49 57.5504C179.234 57.1788 178.982 56.8072 178.758 56.4173C178.639 56.2016 178.52 55.986 178.415 55.7612C178.36 55.6511 178.309 55.541 178.259 55.4263C178.03 54.9217 178.337 55.6465 178.213 55.3254C177.865 54.4125 177.581 53.4858 177.403 52.5224C177.366 52.3297 177.334 52.1324 177.307 51.9352C177.238 51.5085 177.357 52.4169 177.316 51.9856C177.307 51.871 177.288 51.7563 177.279 51.6416C177.233 51.1599 177.215 50.6736 177.22 50.1873C177.22 50.0084 177.229 49.8295 177.238 49.6506C177.247 49.5175 177.357 48.7927 177.261 49.279C177.32 48.9854 177.375 48.6963 177.462 48.4119C177.485 48.3293 177.531 48.0724 177.6 48.0174C177.485 48.2743 177.476 48.3064 177.563 48.1137C177.6 48.0357 177.636 47.9577 177.677 47.8843C177.737 47.7742 177.801 47.6687 177.865 47.5632C177.897 47.5127 178.14 47.2191 177.92 47.4669C177.7 47.7146 178.154 47.2329 178.227 47.1549C178.515 46.8521 178.176 47.1274 178.167 47.1824C178.167 47.1411 178.396 47.031 178.433 47.0081C178.451 46.9989 178.698 46.8521 178.708 46.8659C178.396 46.9898 178.337 47.0173 178.524 46.9485C178.588 46.9255 178.653 46.9072 178.717 46.8888C178.749 46.8797 179.001 46.843 179.01 46.8246C178.932 46.9898 178.483 46.8338 178.886 46.8567C178.95 46.8567 179.023 46.8567 179.083 46.8567C179.518 46.8475 178.978 46.9485 178.964 46.8338C178.964 46.8338 179.239 46.9026 179.261 46.9072C179.66 46.9943 179.248 46.8384 179.188 46.8567C179.234 46.843 179.435 46.9806 179.477 47.0035C179.541 47.0402 179.605 47.0769 179.664 47.1182C179.829 47.2329 179.793 47.2008 179.55 47.0173C179.651 47.187 179.93 47.3751 180.076 47.5219C180.369 47.8155 179.925 47.2512 180.058 47.4852C180.113 47.5816 180.191 47.6733 180.25 47.7696C180.411 48.0174 180.539 48.2835 180.667 48.5495C180.461 48.1229 180.685 48.6092 180.708 48.6826C180.745 48.7881 180.781 48.8982 180.813 49.0037C180.864 49.1734 180.905 49.3478 180.942 49.5221C180.96 49.6139 180.974 49.7056 180.992 49.7928C181.033 49.9992 180.896 49.8708 180.96 49.5542C180.928 49.7194 181.001 49.9671 181.01 50.1368C181.024 50.3754 181.024 50.6139 181.019 50.8525C181.01 51.1782 181.074 51.7471 180.932 52.0407C181.111 51.6645 180.978 51.7196 180.937 51.9719C180.919 52.0866 180.9 52.1967 180.878 52.3114C180.827 52.582 180.772 52.8481 180.708 53.1142C180.603 53.5684 180.475 54.0134 180.328 54.4584C180.26 54.674 180.182 54.8896 180.104 55.1052C180.058 55.2245 180.017 55.3392 179.971 55.4539C179.765 55.9677 180.067 55.2566 179.925 55.5685C179.504 56.4998 179.028 57.399 178.456 58.2431C178.373 58.3624 178.144 58.8257 178.012 58.8624L178.163 58.6698C178.112 58.734 178.057 58.8028 178.007 58.867C177.929 58.9634 177.847 59.0597 177.764 59.156C177.439 59.5368 177.091 59.8946 176.725 60.2341C176.542 60.3993 176.354 60.5598 176.162 60.7158C175.828 60.9957 176.524 60.4635 176.162 60.7112C176.061 60.78 175.965 60.8535 175.865 60.9223C175.462 61.1929 175.04 61.4361 174.606 61.6379L174.496 61.6884C174.303 61.771 174.349 61.7526 174.628 61.6333C174.555 61.6242 174.363 61.7343 174.29 61.7618C174.061 61.8398 173.827 61.9132 173.594 61.9728C173.379 62.0279 173.15 62.0508 172.935 62.1105C172.664 62.1839 173.447 62.0646 173.022 62.0967C172.857 62.1104 172.687 62.1288 172.523 62.1334C172.266 62.1426 172.01 62.1334 171.753 62.1334C171.314 62.1334 172.184 62.2573 171.712 62.1242C171.57 62.0829 171.419 62.0554 171.277 62.0187C170.998 61.9407 170.723 61.8398 170.449 61.7434C170.504 61.7618 170.833 61.9224 170.522 61.771C170.352 61.6884 170.183 61.6104 170.018 61.5187C169.776 61.3856 169.538 61.2388 169.309 61.0828C169.194 61.0048 169.084 60.9223 168.974 60.8397C169.387 61.1471 169.016 60.8626 168.938 60.7984C168.517 60.4406 168.132 60.0414 167.775 59.6194C167.683 59.5139 167.596 59.4038 167.509 59.2983C167.835 59.6928 167.532 59.3258 167.477 59.2478C167.313 59.0184 167.152 58.789 167.001 58.5505C166.695 58.0734 166.415 57.5825 166.154 57.0779C165.893 56.5732 165.651 56.064 165.422 55.541C165.367 55.4126 165.312 55.2841 165.252 55.1557C165.458 55.6374 165.271 55.197 165.234 55.1052C165.129 54.8483 165.028 54.5914 164.927 54.3345C164.552 53.3757 164.209 52.4031 163.842 51.4397C163.476 50.4763 162.515 49.7331 161.453 50.0818C160.528 50.38 159.713 51.4581 160.098 52.4765L160.088 52.4398Z" fill="#E84D59"/>
        <g clip-path="url(#clip2_1839_38524)">
            <path d="M42.4167 64L32 54L42.4167 44L44.2656 45.775L35.6979 54L44.2656 62.225L42.4167 64Z" fill="#767676"/>
        </g>
        <rect x="71" y="88" width="22" height="44" rx="11" fill="#5A402A"/>
        <rect x="124" y="87" width="22" height="44" rx="11" fill="#5A402A"/>
        <rect x="177.5" y="87.5" width="21" height="43" rx="10.5" fill="white" stroke="#5A402A"/>
        <rect x="230.5" y="87.5" width="21" height="43" rx="10.5" fill="white" stroke="#5A402A"/>
        <rect x="283.5" y="87.5" width="21" height="43" rx="10.5" fill="white" stroke="#5A402A"/>
        <path fill-rule="evenodd" clip-rule="evenodd" d="M375 0H0V667H375V0ZM42 244C29.2975 244 19 254.297 19 267V293C19 305.703 29.2975 316 42 316H334C346.703 316 357 305.703 357 293V267C357 254.297 346.703 244 334 244H42Z" fill="#050505" fill-opacity="0.5"/>
        <path d="M187 274.667C184.054 274.667 181.667 277.054 181.667 280C181.667 282.946 184.054 285.333 187 285.333C189.946 285.333 192.333 282.946 192.333 280C192.333 277.054 189.946 274.667 187 274.667ZM186 368C186 368.552 186.448 369 187 369C187.552 369 188 368.552 188 368L186 368ZM186 280L186 368L188 368L188 280L186 280Z" fill="#FFCC00"/>
        <path d="M101.836 381.016H100.18C99.7958 381.016 99.6038 380.74 99.6038 380.452C99.6038 380.152 99.7958 379.864 100.18 379.864H101.836V379.072C101.836 378.616 102.184 378.376 102.532 378.376C102.88 378.376 103.228 378.616 103.228 379.072V379.864H104.848C105.244 379.864 105.436 380.152 105.436 380.452C105.436 380.74 105.244 381.016 104.848 381.016H103.228C103.228 382.252 103.828 383.248 105.292 383.992C105.532 384.112 105.628 384.304 105.64 384.496C105.652 384.82 105.4 385.156 105.052 385.168C104.944 385.18 104.824 385.144 104.692 385.072C103.804 384.628 103.024 383.98 102.496 383.116C101.944 384.004 101.14 384.7 100.264 385.168C100.132 385.24 100.012 385.276 99.9038 385.264C99.5558 385.252 99.2918 384.928 99.3038 384.604C99.3158 384.412 99.4118 384.208 99.6518 384.1C101.068 383.332 101.8 382.192 101.836 381.016ZM101.272 387.988V386.68C101.272 386.212 101.596 385.984 101.968 385.984C102.304 385.984 102.664 386.212 102.664 386.68V387.952C102.664 388.42 102.904 388.612 103.252 388.612H107.716C108.1 388.612 108.292 388.9 108.292 389.188C108.292 389.476 108.1 389.764 107.716 389.764H102.976C101.956 389.764 101.272 389.128 101.272 387.988ZM108.112 379.432V386.092C108.112 386.536 107.776 386.764 107.44 386.764C107.104 386.764 106.768 386.536 106.768 386.092V379.432C106.768 378.988 107.104 378.76 107.44 378.76C107.776 378.76 108.112 378.988 108.112 379.432ZM113.618 385.528H110.198C109.814 385.528 109.622 385.24 109.622 384.952C109.622 384.652 109.814 384.364 110.198 384.364H118.394C118.79 384.364 118.982 384.652 118.982 384.952C118.982 385.24 118.79 385.528 118.394 385.528H114.986V388.936C114.986 389.404 114.638 389.62 114.302 389.62C113.954 389.62 113.618 389.404 113.618 388.936V385.528ZM116.378 380.992C116.378 380.524 116.126 380.38 115.79 380.38H111.362C110.942 380.38 110.762 380.104 110.762 379.78C110.762 379.504 110.942 379.216 111.362 379.216H115.934C116.954 379.216 117.722 379.828 117.722 380.956C117.722 381.784 117.614 382.564 117.434 383.32C117.35 383.656 117.062 383.812 116.786 383.812C116.402 383.812 116.054 383.524 116.15 383.02C116.282 382.384 116.378 381.7 116.378 380.992ZM128.07 383.668V388.852C128.07 389.296 127.734 389.524 127.398 389.524C127.062 389.524 126.726 389.296 126.726 388.852V379.432C126.726 378.988 127.062 378.76 127.398 378.76C127.734 378.76 128.07 378.988 128.07 379.432V382.516H129.33C129.714 382.516 129.906 382.804 129.906 383.092C129.906 383.38 129.714 383.668 129.33 383.668H128.07ZM125.214 381.268V381.928C125.214 383.908 123.246 385.72 120.546 386.524C120.102 386.656 119.802 386.296 119.802 385.936C119.802 385.708 119.922 385.48 120.186 385.396C122.142 384.748 123.882 383.5 123.882 381.928V381.256C123.882 380.848 123.618 380.644 123.282 380.644H120.666C120.246 380.644 120.066 380.368 120.066 380.044C120.066 379.768 120.246 379.48 120.666 379.48H123.426C124.446 379.48 125.214 380.128 125.214 381.268ZM135.47 387.076C135.47 386.284 135.782 385.588 136.31 385.084H134.57C134.174 385.084 133.982 384.82 133.982 384.52C133.982 384.208 134.174 383.944 134.57 383.944H137.294V382.252C137.294 381.784 137.63 381.568 137.978 381.568C138.314 381.568 138.662 381.784 138.662 382.252V383.944H142.742C143.138 383.944 143.342 384.208 143.342 384.52C143.342 384.82 143.138 385.084 142.742 385.084H141.002C141.53 385.588 141.854 386.284 141.854 387.076C141.854 388.72 140.498 390.04 138.65 390.04C136.814 390.04 135.47 388.72 135.47 387.076ZM140.738 380.74C140.738 380.272 140.486 380.128 140.15 380.128H135.722C135.302 380.128 135.122 379.852 135.122 379.528C135.122 379.252 135.302 378.964 135.722 378.964H140.294C141.314 378.964 142.082 379.576 142.082 380.704C142.082 381.364 141.974 382.24 141.818 382.828C141.734 383.164 141.446 383.32 141.17 383.32C140.786 383.32 140.426 383.032 140.534 382.528C140.654 381.988 140.738 381.232 140.738 380.74ZM136.802 386.992C136.802 388.06 137.582 388.888 138.65 388.888C139.718 388.888 140.498 388.06 140.498 386.992C140.498 385.936 139.718 385.084 138.65 385.084C137.582 385.084 136.802 385.936 136.802 386.992ZM145.506 381.676C145.506 380.092 146.718 378.844 148.626 378.844C150.522 378.844 151.758 380.092 151.758 381.676C151.758 383.248 150.534 384.496 148.626 384.496C146.718 384.496 145.506 383.248 145.506 381.676ZM147.51 386.272V388.936C147.51 389.404 147.162 389.62 146.826 389.62C146.478 389.62 146.142 389.404 146.142 388.936V386.272H144.522C144.138 386.272 143.946 385.984 143.946 385.696C143.946 385.396 144.138 385.108 144.522 385.108H152.718C153.114 385.108 153.306 385.396 153.306 385.696C153.306 385.984 153.114 386.272 152.718 386.272H151.11V388.936C151.11 389.404 150.762 389.62 150.426 389.62C150.078 389.62 149.742 389.404 149.742 388.936V386.272H147.51ZM146.838 381.676C146.838 382.636 147.522 383.344 148.626 383.344C149.742 383.344 150.426 382.636 150.426 381.676C150.426 380.728 149.742 379.996 148.626 379.996C147.522 379.996 146.838 380.728 146.838 381.676ZM154.51 382.732C154.51 382.084 154.738 381.532 155.122 381.112H154.546C154.162 381.112 153.97 380.836 153.97 380.548C153.97 380.248 154.162 379.96 154.546 379.96H156.502V379.156C156.502 378.676 156.862 378.46 157.198 378.46C157.558 378.46 157.894 378.676 157.894 379.156V379.96H159.814C160.21 379.96 160.402 380.248 160.402 380.548C160.402 380.836 160.21 381.112 159.814 381.112H159.286C159.682 381.532 159.91 382.084 159.91 382.732C159.91 384.208 158.698 385.192 157.21 385.192C155.722 385.192 154.51 384.208 154.51 382.732ZM162.394 383.044V386.092C162.394 386.536 162.058 386.764 161.722 386.764C161.386 386.764 161.05 386.536 161.05 386.092V379.432C161.05 378.988 161.386 378.76 161.722 378.76C162.058 378.76 162.394 378.988 162.394 379.432V381.892H163.654C164.038 381.892 164.23 382.18 164.23 382.468C164.23 382.756 164.038 383.044 163.654 383.044H162.394ZM155.71 387.988V386.68C155.71 386.212 156.034 385.984 156.406 385.984C156.742 385.984 157.102 386.212 157.102 386.68V387.952C157.102 388.42 157.342 388.612 157.69 388.612H162.082C162.466 388.612 162.658 388.9 162.658 389.188C162.658 389.476 162.466 389.764 162.082 389.764H157.414C156.394 389.764 155.71 389.128 155.71 387.988ZM155.77 382.624C155.77 383.548 156.442 384.124 157.21 384.124C157.966 384.124 158.626 383.548 158.626 382.624C158.626 381.676 157.99 381.136 157.258 381.112H157.15C156.406 381.136 155.77 381.676 155.77 382.624ZM168.882 386.716H177.078C177.474 386.716 177.666 387.004 177.666 387.292C177.666 387.592 177.474 387.88 177.078 387.88H168.882C168.498 387.88 168.306 387.592 168.306 387.292C168.306 387.004 168.498 386.716 168.882 386.716ZM175.002 381.268C175.002 380.8 174.75 380.596 174.414 380.596H170.046C169.626 380.596 169.446 380.32 169.446 379.996C169.446 379.72 169.626 379.432 170.046 379.432H174.558C175.578 379.432 176.346 380.104 176.346 381.232C176.346 382.756 176.154 384.184 175.83 385.444C175.746 385.78 175.458 385.936 175.182 385.936C174.798 385.936 174.438 385.648 174.546 385.144C174.81 383.944 175.002 382.624 175.002 381.268ZM184.81 381.736H181.162C180.922 381.736 180.814 381.916 180.814 382.06C180.814 382.192 180.922 382.372 181.162 382.372H185.902C186.286 382.372 186.49 382.66 186.49 382.936C186.49 383.212 186.286 383.488 185.902 383.488H180.982C179.962 383.488 179.482 382.804 179.482 382.084C179.482 381.328 179.962 380.68 180.982 380.68H184.63C184.87 380.68 184.978 380.5 184.978 380.356C184.978 380.212 184.87 380.032 184.63 380.032H180.274C179.902 380.032 179.71 379.768 179.71 379.492C179.71 379.216 179.902 378.94 180.274 378.94H184.81C185.83 378.94 186.31 379.588 186.31 380.344C186.31 381.064 185.83 381.736 184.81 381.736ZM186.346 386.488V388.564C186.346 389.368 185.962 389.8 185.098 389.8H180.802C179.938 389.8 179.554 389.368 179.554 388.564V386.488C179.554 386.044 179.878 385.816 180.214 385.816C180.55 385.816 180.886 386.044 180.886 386.488V386.824H185.014V386.488C185.014 386.044 185.338 385.816 185.674 385.816C186.01 385.816 186.346 386.044 186.346 386.488ZM183.634 385.168V385.816C183.634 386.284 183.286 386.5 182.95 386.5C182.602 386.5 182.266 386.284 182.266 385.816V385.168H178.858C178.462 385.168 178.27 384.904 178.27 384.604C178.27 384.292 178.462 384.028 178.858 384.028H187.03C187.426 384.028 187.63 384.292 187.63 384.604C187.63 384.904 187.426 385.168 187.03 385.168H183.634ZM180.886 388.66H185.014V387.94H180.886V388.66ZM195.062 381.268C195.062 380.8 194.81 380.596 194.474 380.596H189.974C189.554 380.596 189.374 380.32 189.374 379.996C189.374 379.72 189.554 379.432 189.974 379.432H194.606C195.626 379.432 196.394 380.104 196.394 381.232C196.394 382.756 196.214 384.136 195.89 385.396C195.806 385.732 195.518 385.888 195.242 385.888C194.858 385.888 194.51 385.6 194.618 385.096C194.762 384.448 194.882 383.776 194.954 383.08H189.878C189.458 383.08 189.278 382.804 189.278 382.48C189.278 382.204 189.458 381.916 189.878 381.916H195.05C195.05 381.7 195.062 381.484 195.062 381.268ZM192.902 386.716H197.006C197.402 386.716 197.594 387.004 197.594 387.292C197.594 387.592 197.402 387.88 197.006 387.88H188.81C188.426 387.88 188.234 387.592 188.234 387.292C188.234 387.004 188.426 386.716 188.81 386.716H191.534V384.724C191.534 384.28 191.87 384.052 192.206 384.052C192.554 384.052 192.902 384.28 192.902 384.724V386.716ZM198.773 386.716H206.969C207.365 386.716 207.557 387.004 207.557 387.292C207.557 387.592 207.365 387.88 206.969 387.88H198.773C198.389 387.88 198.197 387.592 198.197 387.292C198.197 387.004 198.389 386.716 198.773 386.716ZM200.825 380.992V383.164C200.825 383.584 201.053 383.836 201.413 383.836H205.733C206.105 383.836 206.297 384.124 206.297 384.412C206.297 384.7 206.105 384.988 205.733 384.988H201.185C200.165 384.988 199.481 384.34 199.481 383.2V380.704C199.481 379.9 199.865 379.456 200.729 379.456H205.649C206.033 379.456 206.225 379.756 206.225 380.044C206.225 380.332 206.033 380.62 205.649 380.62H201.209C200.957 380.62 200.825 380.74 200.825 380.992ZM215.805 383.404H210.873C209.877 383.404 209.373 382.708 209.373 382.024C209.373 381.328 209.877 380.632 210.873 380.632H214.545C214.749 380.632 214.857 380.488 214.857 380.332C214.857 380.176 214.749 380.02 214.545 380.02H210.165C209.781 380.02 209.601 379.756 209.601 379.48C209.601 379.216 209.781 378.94 210.165 378.94H214.713C215.697 378.94 216.189 379.624 216.189 380.308C216.189 380.992 215.697 381.676 214.713 381.676H211.017C210.813 381.676 210.705 381.844 210.705 381.988C210.705 382.156 210.813 382.3 211.017 382.3H215.805C216.189 382.3 216.381 382.576 216.381 382.852C216.381 383.128 216.189 383.404 215.805 383.404ZM215.901 389.92H210.789C209.805 389.92 209.313 389.236 209.313 388.564C209.313 387.88 209.805 387.196 210.789 387.196H214.605C214.797 387.196 214.893 387.064 214.893 386.92C214.893 386.776 214.797 386.632 214.605 386.632H210.081C209.697 386.632 209.517 386.368 209.517 386.092C209.517 385.828 209.697 385.552 210.081 385.552H214.773C215.745 385.552 216.225 386.224 216.225 386.896C216.225 387.568 215.745 388.24 214.773 388.24H210.945C210.753 388.24 210.657 388.396 210.657 388.528C210.657 388.684 210.753 388.816 210.945 388.816H215.901C216.285 388.816 216.477 389.092 216.477 389.368C216.477 389.644 216.285 389.92 215.901 389.92ZM216.921 385.012H208.749C208.353 385.012 208.161 384.772 208.161 384.472C208.161 384.16 208.353 383.896 208.749 383.896H216.921C217.317 383.896 217.521 384.16 217.521 384.472C217.521 384.772 217.317 385.012 216.921 385.012ZM228.539 385.048H230.555C230.939 385.048 231.131 385.288 231.131 385.576C231.131 385.876 230.939 386.128 230.555 386.128H229.919C230.267 386.524 230.483 387.028 230.483 387.616C230.483 389.068 229.343 390.028 227.855 390.028C226.355 390.028 225.239 389.068 225.239 387.616C225.239 387.028 225.443 386.524 225.803 386.128H225.047C224.663 386.128 224.471 385.876 224.471 385.576C224.471 385.288 224.663 385.048 225.047 385.048H227.171V384.604C227.171 384.136 227.519 383.92 227.855 383.92C228.203 383.92 228.539 384.136 228.539 384.604V385.048ZM222.755 381.784V379.576C222.755 379.108 223.067 378.88 223.439 378.88C223.775 378.88 224.123 379.108 224.123 379.576V381.76C224.123 382.228 224.339 382.42 224.711 382.42H227.939C228.323 382.42 228.515 382.696 228.515 382.984C228.515 383.272 228.323 383.56 227.939 383.56H224.459C223.319 383.56 222.755 382.924 222.755 381.784ZM231.011 379.432V383.524C231.011 383.968 230.675 384.196 230.339 384.196C230.003 384.196 229.667 383.968 229.667 383.524V381.352H227.123C226.739 381.352 226.547 381.064 226.547 380.776C226.547 380.488 226.739 380.2 227.123 380.2H229.667V379.432C229.667 378.988 230.003 378.76 230.339 378.76C230.675 378.76 231.011 378.988 231.011 379.432ZM226.511 387.52C226.511 388.36 227.135 388.876 227.855 388.876C228.575 388.876 229.211 388.36 229.211 387.52C229.211 386.68 228.575 386.176 227.855 386.176C227.135 386.176 226.511 386.68 226.511 387.52ZM232.857 382.636C232.857 380.788 234.225 379.6 235.905 379.6C237.405 379.6 238.641 380.536 238.905 382.036H240.345V379.432C240.345 378.988 240.681 378.76 241.017 378.76C241.353 378.76 241.689 378.988 241.689 379.432V388.852C241.689 389.296 241.353 389.524 241.017 389.524C240.681 389.524 240.345 389.296 240.345 388.852V383.188H238.917C238.677 384.724 237.417 385.66 235.905 385.66C234.225 385.66 232.857 384.484 232.857 382.636ZM234.189 382.636C234.189 383.812 234.981 384.508 235.905 384.508C236.829 384.508 237.621 383.812 237.621 382.636C237.621 381.448 236.829 380.752 235.905 380.752C234.981 380.752 234.189 381.448 234.189 382.636ZM247.184 380.392H244.988C244.616 380.392 244.424 380.104 244.424 379.816C244.424 379.528 244.616 379.216 244.988 379.216H250.76C251.144 379.216 251.336 379.528 251.336 379.816C251.336 380.104 251.144 380.392 250.76 380.392H248.564C248.72 381.784 249.824 382.516 251.312 383.032C251.6 383.128 251.72 383.356 251.72 383.584C251.72 383.956 251.384 384.316 250.88 384.148C249.632 383.728 248.54 382.984 247.88 382.024C247.22 382.984 246.128 383.728 244.88 384.148C244.376 384.316 244.04 383.956 244.04 383.584C244.04 383.356 244.16 383.128 244.448 383.032C245.924 382.516 247.04 381.784 247.184 380.392ZM247.196 386.272H243.776C243.392 386.272 243.2 385.984 243.2 385.696C243.2 385.396 243.392 385.108 243.776 385.108H251.972C252.368 385.108 252.56 385.396 252.56 385.696C252.56 385.984 252.368 386.272 251.972 386.272H248.564V388.936C248.564 389.404 248.216 389.62 247.88 389.62C247.532 389.62 247.196 389.404 247.196 388.936V386.272ZM260.243 379.48V388.612C260.243 389.056 259.943 389.284 259.607 389.284C259.271 389.284 258.947 389.056 258.947 388.612V382.804H257.831C257.447 382.804 257.255 382.516 257.255 382.228C257.255 381.94 257.447 381.652 257.831 381.652H258.947V379.48C258.947 379.036 259.271 378.808 259.607 378.808C259.943 378.808 260.243 379.036 260.243 379.48ZM257.507 386.26C256.715 385.708 256.163 385 255.791 384.22C255.431 385.06 254.879 385.828 254.099 386.38C253.967 386.476 253.835 386.524 253.703 386.524C253.355 386.524 253.067 386.2 253.067 385.876C253.067 385.708 253.151 385.528 253.343 385.396C254.795 384.412 255.107 382.9 255.107 380.788V379.936C255.107 379.48 255.443 379.24 255.791 379.24C256.127 379.24 256.475 379.48 256.475 379.936V380.968C256.475 383.08 256.811 384.292 258.263 385.276C258.455 385.408 258.539 385.588 258.539 385.756C258.539 386.08 258.251 386.404 257.903 386.404C257.771 386.404 257.639 386.356 257.507 386.26ZM262.607 379.432V388.852C262.607 389.296 262.283 389.524 261.947 389.524C261.611 389.524 261.275 389.296 261.275 388.852V379.432C261.275 378.988 261.611 378.76 261.947 378.76C262.283 378.76 262.607 378.988 262.607 379.432ZM270.862 386.716H272.614C273.01 386.716 273.202 387.004 273.202 387.292C273.202 387.592 273.01 387.88 272.614 387.88H264.418C264.034 387.88 263.842 387.592 263.842 387.292C263.842 387.004 264.034 386.716 264.418 386.716H266.158V384.448C265.558 383.908 265.21 383.128 265.21 382.252C265.21 380.5 266.602 379.18 268.51 379.18C270.418 379.18 271.834 380.5 271.834 382.252C271.834 383.14 271.462 383.908 270.862 384.46V386.716ZM266.542 382.252C266.542 383.38 267.406 384.16 268.51 384.16C269.638 384.16 270.502 383.38 270.502 382.252C270.502 381.136 269.638 380.332 268.51 380.332C267.406 380.332 266.542 381.136 266.542 382.252ZM268.51 385.312C268.15 385.312 267.814 385.264 267.502 385.18V386.716H269.518V385.18C269.194 385.264 268.858 385.312 268.51 385.312ZM274.046 387.892C274.046 387.412 274.442 387.016 274.934 387.016C275.426 387.016 275.822 387.412 275.822 387.892C275.822 388.372 275.426 388.78 274.934 388.78C274.442 388.78 274.046 388.372 274.046 387.892ZM55.1209 404.716H63.3169C63.7129 404.716 63.9049 405.004 63.9049 405.292C63.9049 405.592 63.7129 405.88 63.3169 405.88H55.1209C54.7369 405.88 54.5449 405.592 54.5449 405.292C54.5449 405.004 54.7369 404.716 55.1209 404.716ZM61.2409 399.268C61.2409 398.8 60.9889 398.596 60.6529 398.596H56.2849C55.8649 398.596 55.6849 398.32 55.6849 397.996C55.6849 397.72 55.8649 397.432 56.2849 397.432H60.7969C61.8169 397.432 62.5849 398.104 62.5849 399.232C62.5849 400.756 62.3929 402.184 62.0689 403.444C61.9849 403.78 61.6969 403.936 61.4209 403.936C61.0369 403.936 60.6769 403.648 60.7849 403.144C61.0489 401.944 61.2409 400.624 61.2409 399.268ZM71.0487 399.736H67.4007C67.1607 399.736 67.0527 399.916 67.0527 400.06C67.0527 400.192 67.1607 400.372 67.4007 400.372H72.1407C72.5247 400.372 72.7287 400.66 72.7287 400.936C72.7287 401.212 72.5247 401.488 72.1407 401.488H67.2207C66.2007 401.488 65.7207 400.804 65.7207 400.084C65.7207 399.328 66.2007 398.68 67.2207 398.68H70.8687C71.1087 398.68 71.2167 398.5 71.2167 398.356C71.2167 398.212 71.1087 398.032 70.8687 398.032H66.5127C66.1407 398.032 65.9487 397.768 65.9487 397.492C65.9487 397.216 66.1407 396.94 66.5127 396.94H71.0487C72.0687 396.94 72.5487 397.588 72.5487 398.344C72.5487 399.064 72.0687 399.736 71.0487 399.736ZM72.5847 404.488V406.564C72.5847 407.368 72.2007 407.8 71.3367 407.8H67.0407C66.1767 407.8 65.7927 407.368 65.7927 406.564V404.488C65.7927 404.044 66.1167 403.816 66.4527 403.816C66.7887 403.816 67.1247 404.044 67.1247 404.488V404.824H71.2527V404.488C71.2527 404.044 71.5767 403.816 71.9127 403.816C72.2487 403.816 72.5847 404.044 72.5847 404.488ZM69.8727 403.168V403.816C69.8727 404.284 69.5247 404.5 69.1887 404.5C68.8407 404.5 68.5047 404.284 68.5047 403.816V403.168H65.0967C64.7007 403.168 64.5087 402.904 64.5087 402.604C64.5087 402.292 64.7007 402.028 65.0967 402.028H73.2687C73.6647 402.028 73.8687 402.292 73.8687 402.604C73.8687 402.904 73.6647 403.168 73.2687 403.168H69.8727ZM67.1247 406.66H71.2527V405.94H67.1247V406.66ZM81.3004 399.268C81.3004 398.8 81.0484 398.596 80.7124 398.596H76.2124C75.7924 398.596 75.6124 398.32 75.6124 397.996C75.6124 397.72 75.7924 397.432 76.2124 397.432H80.8444C81.8644 397.432 82.6324 398.104 82.6324 399.232C82.6324 400.756 82.4524 402.136 82.1284 403.396C82.0444 403.732 81.7564 403.888 81.4804 403.888C81.0964 403.888 80.7484 403.6 80.8564 403.096C81.0004 402.448 81.1204 401.776 81.1924 401.08H76.1164C75.6964 401.08 75.5164 400.804 75.5164 400.48C75.5164 400.204 75.6964 399.916 76.1164 399.916H81.2884C81.2884 399.7 81.3004 399.484 81.3004 399.268ZM79.1404 404.716H83.2444C83.6404 404.716 83.8324 405.004 83.8324 405.292C83.8324 405.592 83.6404 405.88 83.2444 405.88H75.0484C74.6644 405.88 74.4724 405.592 74.4724 405.292C74.4724 405.004 74.6644 404.716 75.0484 404.716H77.7724V402.724C77.7724 402.28 78.1084 402.052 78.4444 402.052C78.7924 402.052 79.1404 402.28 79.1404 402.724V404.716ZM85.0122 404.716H93.2082C93.6042 404.716 93.7962 405.004 93.7962 405.292C93.7962 405.592 93.6042 405.88 93.2082 405.88H85.0122C84.6282 405.88 84.4362 405.592 84.4362 405.292C84.4362 405.004 84.6282 404.716 85.0122 404.716ZM87.0642 398.992V401.164C87.0642 401.584 87.2922 401.836 87.6522 401.836H91.9722C92.3442 401.836 92.5362 402.124 92.5362 402.412C92.5362 402.7 92.3442 402.988 91.9722 402.988H87.4242C86.4042 402.988 85.7202 402.34 85.7202 401.2V398.704C85.7202 397.9 86.1042 397.456 86.9682 397.456H91.8882C92.2722 397.456 92.4642 397.756 92.4642 398.044C92.4642 398.332 92.2722 398.62 91.8882 398.62H87.4482C87.1962 398.62 87.0642 398.74 87.0642 398.992ZM102.884 401.668V406.852C102.884 407.296 102.548 407.524 102.212 407.524C101.876 407.524 101.54 407.296 101.54 406.852V397.432C101.54 396.988 101.876 396.76 102.212 396.76C102.548 396.76 102.884 396.988 102.884 397.432V400.516H104.144C104.528 400.516 104.72 400.804 104.72 401.092C104.72 401.38 104.528 401.668 104.144 401.668H102.884ZM100.028 399.268V399.928C100.028 401.908 98.0599 403.72 95.3599 404.524C94.9159 404.656 94.6159 404.296 94.6159 403.936C94.6159 403.708 94.7359 403.48 94.9999 403.396C96.9559 402.748 98.6959 401.5 98.6959 399.928V399.256C98.6959 398.848 98.4319 398.644 98.0959 398.644H95.4799C95.0599 398.644 94.8799 398.368 94.8799 398.044C94.8799 397.768 95.0599 397.48 95.4799 397.48H98.2399C99.2599 397.48 100.028 398.128 100.028 399.268ZM109.24 399.556C109.24 397.924 110.5 396.88 112.036 396.88C113.38 396.88 114.508 397.672 114.772 398.956H116.62V397.432C116.62 396.988 116.956 396.76 117.292 396.76C117.628 396.76 117.964 396.988 117.964 397.432V401.764C117.964 402.208 117.628 402.436 117.292 402.436C116.956 402.436 116.62 402.208 116.62 401.764V400.108H114.784C114.532 401.416 113.392 402.208 112.036 402.208C110.5 402.208 109.24 401.176 109.24 399.556ZM114.52 403.636V406.684C114.52 407.488 114.256 407.8 113.392 407.8H111.352C110.488 407.8 110.224 407.488 110.224 406.684V403.636C110.224 403.192 110.548 402.976 110.872 402.976C111.196 402.976 111.52 403.192 111.52 403.636V404.512H113.224V403.636C113.224 403.192 113.548 402.976 113.872 402.976C114.196 402.976 114.52 403.192 114.52 403.636ZM117.436 403.648V404.236C117.436 405.412 117.736 406.012 118.684 406.792C118.84 406.924 118.9 407.08 118.9 407.236C118.9 407.548 118.648 407.848 118.324 407.848C118.192 407.848 118.036 407.8 117.892 407.68C117.436 407.32 117.052 406.876 116.764 406.396C116.464 406.876 116.08 407.32 115.636 407.68C115.492 407.8 115.336 407.848 115.204 407.848C114.88 407.848 114.628 407.548 114.628 407.236C114.628 407.08 114.688 406.924 114.844 406.792C115.792 406.012 116.092 405.412 116.092 404.236V403.648C116.092 403.204 116.428 402.976 116.764 402.976C117.1 402.976 117.436 403.204 117.436 403.648ZM110.536 399.556C110.536 400.504 111.232 401.08 112.036 401.08C112.84 401.08 113.536 400.504 113.536 399.556C113.536 398.584 112.84 398.008 112.036 398.008C111.232 398.008 110.536 398.584 110.536 399.556ZM111.52 406.696H113.224V405.544H111.52V406.696ZM125.043 404.344H121.671C120.651 404.344 119.967 403.708 119.967 402.568V398.716C119.967 397.912 120.351 397.48 121.215 397.48H124.707C125.103 397.48 125.295 397.768 125.295 398.044C125.295 398.344 125.103 398.632 124.707 398.632H121.683C121.431 398.632 121.299 398.752 121.299 399.004V402.532C121.299 403 121.551 403.204 121.887 403.204H125.043C125.427 403.204 125.619 403.492 125.619 403.768C125.619 404.056 125.427 404.344 125.043 404.344ZM127.959 401.368V406.852C127.959 407.296 127.623 407.524 127.287 407.524C126.951 407.524 126.615 407.296 126.615 406.852V397.432C126.615 396.988 126.951 396.76 127.287 396.76C127.623 396.76 127.959 396.988 127.959 397.432V400.216H129.219C129.603 400.216 129.795 400.504 129.795 400.792C129.795 401.08 129.603 401.368 129.219 401.368H127.959ZM139.321 397.432V403.852C139.321 404.296 138.985 404.524 138.649 404.524C138.313 404.524 137.977 404.296 137.977 403.852V401.548H136.105C136.081 402.316 135.697 402.724 134.857 402.724H132.073C131.209 402.724 130.825 402.292 130.825 401.488V398.236C130.825 397.432 131.209 397 132.073 397H134.857C135.649 397 136.033 397.372 136.093 398.044H137.977V397.432C137.977 396.988 138.313 396.76 138.649 396.76C138.985 396.76 139.321 396.988 139.321 397.432ZM132.481 405.988V404.32C132.481 403.852 132.805 403.624 133.177 403.624C133.513 403.624 133.873 403.852 133.873 404.32V405.952C133.873 406.42 134.113 406.612 134.461 406.612H138.925C139.309 406.612 139.501 406.9 139.501 407.188C139.501 407.476 139.309 407.764 138.925 407.764H134.185C133.165 407.764 132.481 407.128 132.481 405.988ZM132.157 398.152V401.584H134.785V398.152H132.157ZM136.105 399.196V400.396H137.977V399.196H136.105ZM141.084 407.008L141.66 405.532C141.84 405.064 142.32 404.944 142.716 405.172C143.1 405.4 143.256 405.82 142.98 406.216L142.116 407.608C141.912 407.932 141.576 408.076 141.24 407.896C140.916 407.74 140.952 407.356 141.084 407.008ZM153.343 404.344H149.971C148.951 404.344 148.267 403.708 148.267 402.568V398.716C148.267 397.912 148.651 397.48 149.515 397.48H153.007C153.403 397.48 153.595 397.768 153.595 398.044C153.595 398.344 153.403 398.632 153.007 398.632H149.983C149.731 398.632 149.599 398.752 149.599 399.004V402.532C149.599 403 149.851 403.204 150.187 403.204H153.343C153.727 403.204 153.919 403.492 153.919 403.768C153.919 404.056 153.727 404.344 153.343 404.344ZM156.259 401.368V406.852C156.259 407.296 155.923 407.524 155.587 407.524C155.251 407.524 154.915 407.296 154.915 406.852V397.432C154.915 396.988 155.251 396.76 155.587 396.76C155.923 396.76 156.259 396.988 156.259 397.432V400.216H157.519C157.903 400.216 158.095 400.504 158.095 400.792C158.095 401.08 157.903 401.368 157.519 401.368H156.259ZM164.166 404.32C163.182 403.624 162.426 402.688 161.922 401.656C161.442 402.724 160.71 403.696 159.75 404.38C159.618 404.476 159.486 404.524 159.354 404.524C159.006 404.524 158.718 404.188 158.718 403.864C158.718 403.684 158.802 403.516 158.994 403.384C160.446 402.4 161.238 400.9 161.238 398.788V397.912C161.238 397.456 161.586 397.216 161.934 397.216C162.282 397.216 162.63 397.456 162.63 397.912V398.98C162.63 401.092 163.47 402.34 164.922 403.324C165.114 403.456 165.198 403.624 165.198 403.804C165.198 404.128 164.91 404.464 164.562 404.464C164.43 404.464 164.298 404.416 164.166 404.32ZM167.622 397.432V406.84C167.622 407.284 167.286 407.512 166.95 407.512C166.614 407.512 166.278 407.284 166.278 406.84V397.432C166.278 396.988 166.614 396.76 166.95 396.76C167.286 396.76 167.622 396.988 167.622 397.432ZM175.49 398.464V399.064C175.49 399.484 175.718 399.676 176.078 399.676H180.362C180.734 399.676 180.914 399.964 180.914 400.252C180.914 400.54 180.734 400.816 180.362 400.816H178.202V401.572H181.622C182.018 401.572 182.21 401.836 182.21 402.124C182.21 402.424 182.018 402.688 181.622 402.688H173.426C173.042 402.688 172.85 402.424 172.85 402.124C172.85 401.836 173.042 401.572 173.426 401.572H176.882V400.816H175.862C174.842 400.816 174.158 400.228 174.158 399.088V398.188C174.158 397.384 174.542 396.94 175.406 396.94H180.278C180.65 396.94 180.842 397.228 180.842 397.516C180.842 397.804 180.65 398.092 180.278 398.092H175.874C175.622 398.092 175.49 398.212 175.49 398.464ZM175.682 406.792H180.566C180.902 406.792 181.142 407.008 181.142 407.356C181.142 407.704 180.902 407.92 180.566 407.92H175.586C174.662 407.92 174.014 407.26 174.014 406.456C174.014 405.652 174.662 405.04 175.586 405.04H179.234C179.45 405.04 179.606 404.884 179.606 404.68C179.606 404.476 179.45 404.368 179.234 404.368H174.782C174.446 404.368 174.206 404.176 174.206 403.828C174.206 403.48 174.446 403.264 174.782 403.264H179.33C180.254 403.264 180.902 403.756 180.902 404.68C180.902 405.604 180.254 406.108 179.33 406.108H175.682C175.466 406.108 175.31 406.252 175.31 406.456C175.31 406.66 175.466 406.792 175.682 406.792ZM182.91 400.636C182.91 398.788 184.278 397.6 185.958 397.6C187.65 397.6 189.018 398.788 189.018 400.636C189.018 402.484 187.65 403.66 185.958 403.66C184.278 403.66 182.91 402.484 182.91 400.636ZM191.298 401.248V406.852C191.298 407.296 190.962 407.524 190.626 407.524C190.29 407.524 189.954 407.296 189.954 406.852V397.432C189.954 396.988 190.29 396.76 190.626 396.76C190.962 396.76 191.298 396.988 191.298 397.432V400.096H192.558C192.942 400.096 193.134 400.384 193.134 400.672C193.134 400.96 192.942 401.248 192.558 401.248H191.298ZM184.242 400.636C184.242 401.812 185.034 402.508 185.958 402.508C186.882 402.508 187.674 401.812 187.674 400.636C187.674 399.448 186.882 398.752 185.958 398.752C185.034 398.752 184.242 399.448 184.242 400.636ZM201.976 401.668V406.852C201.976 407.296 201.64 407.524 201.304 407.524C200.968 407.524 200.632 407.296 200.632 406.852V397.432C200.632 396.988 200.968 396.76 201.304 396.76C201.64 396.76 201.976 396.988 201.976 397.432V400.516H203.236C203.62 400.516 203.812 400.804 203.812 401.092C203.812 401.38 203.62 401.668 203.236 401.668H201.976ZM199.12 399.268V399.928C199.12 401.908 197.152 403.72 194.452 404.524C194.008 404.656 193.708 404.296 193.708 403.936C193.708 403.708 193.828 403.48 194.092 403.396C196.048 402.748 197.788 401.5 197.788 399.928V399.256C197.788 398.848 197.524 398.644 197.188 398.644H194.572C194.152 398.644 193.972 398.368 193.972 398.044C193.972 397.768 194.152 397.48 194.572 397.48H197.332C198.352 397.48 199.12 398.128 199.12 399.268ZM213.339 397.432V406.84C213.339 407.284 213.003 407.512 212.667 407.512C212.331 407.512 211.995 407.284 211.995 406.84V400.804H210.111C209.727 400.804 209.535 400.516 209.535 400.228C209.535 399.94 209.727 399.652 210.111 399.652H211.995V397.432C211.995 396.988 212.331 396.76 212.667 396.76C213.003 396.76 213.339 396.988 213.339 397.432ZM209.775 404.32C208.803 403.636 208.059 402.712 207.567 401.692C207.087 402.76 206.355 403.732 205.407 404.404C205.275 404.5 205.143 404.548 205.011 404.548C204.663 404.548 204.375 404.212 204.375 403.888C204.375 403.708 204.459 403.54 204.651 403.408C206.103 402.424 206.883 400.924 206.883 398.812V397.936C206.883 397.48 207.231 397.24 207.579 397.24C207.927 397.24 208.275 397.48 208.275 397.936V398.98C208.275 401.092 209.079 402.34 210.531 403.324C210.723 403.456 210.807 403.624 210.807 403.804C210.807 404.128 210.519 404.464 210.171 404.464C210.039 404.464 209.907 404.416 209.775 404.32ZM219.143 404.716H227.339C227.735 404.716 227.927 405.004 227.927 405.292C227.927 405.592 227.735 405.88 227.339 405.88H219.143C218.759 405.88 218.567 405.592 218.567 405.292C218.567 405.004 218.759 404.716 219.143 404.716ZM225.263 399.268C225.263 398.8 225.011 398.596 224.675 398.596H220.307C219.887 398.596 219.707 398.32 219.707 397.996C219.707 397.72 219.887 397.432 220.307 397.432H224.819C225.839 397.432 226.607 398.104 226.607 399.232C226.607 400.756 226.415 402.184 226.091 403.444C226.007 403.78 225.719 403.936 225.443 403.936C225.059 403.936 224.699 403.648 224.807 403.144C225.071 401.944 225.263 400.624 225.263 399.268ZM235.071 399.736H231.423C231.183 399.736 231.075 399.916 231.075 400.06C231.075 400.192 231.183 400.372 231.423 400.372H236.163C236.547 400.372 236.751 400.66 236.751 400.936C236.751 401.212 236.547 401.488 236.163 401.488H231.243C230.223 401.488 229.743 400.804 229.743 400.084C229.743 399.328 230.223 398.68 231.243 398.68H234.891C235.131 398.68 235.239 398.5 235.239 398.356C235.239 398.212 235.131 398.032 234.891 398.032H230.535C230.163 398.032 229.971 397.768 229.971 397.492C229.971 397.216 230.163 396.94 230.535 396.94H235.071C236.091 396.94 236.571 397.588 236.571 398.344C236.571 399.064 236.091 399.736 235.071 399.736ZM236.607 404.488V406.564C236.607 407.368 236.223 407.8 235.359 407.8H231.063C230.199 407.8 229.815 407.368 229.815 406.564V404.488C229.815 404.044 230.139 403.816 230.475 403.816C230.811 403.816 231.147 404.044 231.147 404.488V404.824H235.275V404.488C235.275 404.044 235.599 403.816 235.935 403.816C236.271 403.816 236.607 404.044 236.607 404.488ZM233.895 403.168V403.816C233.895 404.284 233.547 404.5 233.211 404.5C232.863 404.5 232.527 404.284 232.527 403.816V403.168H229.119C228.723 403.168 228.531 402.904 228.531 402.604C228.531 402.292 228.723 402.028 229.119 402.028H237.291C237.687 402.028 237.891 402.292 237.891 402.604C237.891 402.904 237.687 403.168 237.291 403.168H233.895ZM231.147 406.66H235.275V405.94H231.147V406.66ZM247.255 402.352H239.083C238.687 402.352 238.495 402.1 238.495 401.8C238.495 401.488 238.687 401.224 239.083 401.224H240.883C240.427 400.768 240.163 400.156 240.163 399.448C240.163 397.924 241.423 396.7 243.163 396.7C244.915 396.7 246.187 397.924 246.187 399.448C246.187 400.156 245.911 400.768 245.455 401.224H247.255C247.651 401.224 247.855 401.488 247.855 401.8C247.855 402.1 247.651 402.352 247.255 402.352ZM245.059 405.988H241.303C241.075 405.988 240.967 406.18 240.967 406.384C240.967 406.588 241.087 406.792 241.303 406.792H246.235C246.619 406.792 246.811 407.08 246.811 407.356C246.811 407.644 246.619 407.92 246.235 407.92H241.147C240.151 407.92 239.659 407.176 239.659 406.42C239.659 405.676 240.151 404.92 241.147 404.92H244.915C245.131 404.92 245.251 404.728 245.251 404.524C245.251 404.332 245.131 404.128 244.915 404.128H240.415C240.043 404.128 239.851 403.852 239.851 403.576C239.851 403.3 240.043 403.024 240.415 403.024H245.059C246.043 403.024 246.547 403.768 246.547 404.512C246.547 405.256 246.043 405.988 245.059 405.988ZM241.459 399.52C241.459 400.444 242.155 401.188 243.091 401.224H243.163C244.135 401.224 244.867 400.468 244.867 399.52C244.867 398.56 244.135 397.828 243.163 397.828C242.191 397.828 241.459 398.56 241.459 399.52ZM255.188 405.196C255.188 403.516 256.46 402.34 258.188 402.34C259.928 402.34 261.212 403.516 261.212 405.196C261.212 406.864 259.928 408.04 258.188 408.04C256.46 408.04 255.188 406.864 255.188 405.196ZM259.28 400.156V401.392C259.28 401.836 258.98 402.064 258.644 402.064C258.308 402.064 257.984 401.836 257.984 401.392V397.48C257.984 397.036 258.308 396.808 258.644 396.808C258.98 396.808 259.28 397.036 259.28 397.48V399.004H260.288V397.432C260.288 396.988 260.624 396.76 260.96 396.76C261.296 396.76 261.62 396.988 261.62 397.432V401.944C261.62 402.388 261.296 402.616 260.96 402.616C260.624 402.616 260.288 402.388 260.288 401.944V400.156H259.28ZM256.616 401.848C255.872 401.392 255.296 400.876 254.9 400.264C254.456 400.972 253.832 401.56 253.052 402.064C252.932 402.148 252.8 402.172 252.692 402.172C252.344 402.172 252.08 401.848 252.08 401.524C252.08 401.332 252.176 401.14 252.404 401.02C253.94 400.156 254.204 399.052 254.204 398.14V397.516C254.204 397.06 254.54 396.82 254.888 396.82C255.224 396.82 255.572 397.06 255.572 397.516V398.092C255.572 399.028 255.704 399.952 257.252 400.792C257.48 400.912 257.576 401.116 257.576 401.308C257.576 401.632 257.312 401.956 256.964 401.956C256.856 401.956 256.736 401.92 256.616 401.848ZM256.508 405.196C256.508 406.204 257.192 406.888 258.188 406.888C259.184 406.888 259.868 406.204 259.868 405.196C259.868 404.2 259.184 403.492 258.188 403.492C257.192 403.492 256.508 404.2 256.508 405.196ZM265.807 405.184C265.807 403.588 267.091 402.316 268.879 402.316C270.655 402.316 271.951 403.588 271.951 405.184C271.951 406.78 270.655 408.04 268.879 408.04C267.091 408.04 265.807 406.78 265.807 405.184ZM268.351 401.848C267.511 401.332 266.779 400.732 266.275 400.012C265.735 400.828 264.931 401.5 264.067 402.064C263.947 402.148 263.827 402.172 263.719 402.172C263.371 402.172 263.095 401.848 263.095 401.524C263.095 401.332 263.191 401.128 263.419 401.008C264.955 400.144 265.567 399.052 265.567 398.14V397.516C265.567 397.06 265.915 396.82 266.263 396.82C266.611 396.82 266.959 397.06 266.959 397.516V398.092C266.959 399.028 267.439 399.94 268.987 400.78C269.215 400.9 269.311 401.104 269.311 401.296C269.311 401.62 269.047 401.956 268.699 401.956C268.591 401.956 268.471 401.92 268.351 401.848ZM272.023 397.432V401.704C272.023 402.148 271.687 402.376 271.351 402.376C271.015 402.376 270.679 402.148 270.679 401.704V399.58H268.963C268.579 399.58 268.387 399.292 268.387 399.004C268.387 398.716 268.579 398.428 268.963 398.428H270.679V397.432C270.679 396.988 271.015 396.76 271.351 396.76C271.687 396.76 272.023 396.988 272.023 397.432ZM267.139 405.184C267.139 406.156 267.883 406.9 268.879 406.9C269.875 406.9 270.619 406.156 270.619 405.184C270.619 404.212 269.875 403.456 268.879 403.456C267.883 403.456 267.139 404.212 267.139 405.184ZM280.757 401.752V406.612C280.757 407.056 280.457 407.284 280.121 407.284C279.785 407.284 279.461 407.056 279.461 406.612V397.48C279.461 397.036 279.785 396.808 280.121 396.808C280.457 396.808 280.757 397.036 280.757 397.48V400.6H281.765V397.432C281.765 396.988 282.101 396.76 282.437 396.76C282.773 396.76 283.097 396.988 283.097 397.432V406.852C283.097 407.296 282.773 407.524 282.437 407.524C282.101 407.524 281.765 407.296 281.765 406.852V401.752H280.757ZM273.869 401.176C273.869 400.552 274.061 400.012 274.385 399.592H274.109C273.725 399.592 273.533 399.316 273.533 399.028C273.533 398.728 273.725 398.44 274.109 398.44H275.657V397.576C275.657 397.096 275.993 396.88 276.341 396.88C276.701 396.88 277.025 397.096 277.025 397.576V398.44H278.537C278.933 398.44 279.125 398.728 279.125 399.028C279.125 399.316 278.933 399.592 278.537 399.592H278.309C278.633 400.012 278.837 400.54 278.837 401.176C278.837 402.712 277.721 403.66 276.353 403.66C274.985 403.66 273.869 402.712 273.869 401.176ZM275.093 401.08C275.093 401.992 275.657 402.544 276.353 402.544C277.025 402.544 277.589 401.992 277.589 401.08C277.589 400.168 277.049 399.616 276.401 399.592H276.353C275.657 399.592 275.093 400.144 275.093 401.08ZM292.204 397.492V399.712C292.204 400.516 291.82 400.948 290.956 400.948H289.564V401.572H292.984C293.38 401.572 293.572 401.836 293.572 402.124C293.572 402.424 293.38 402.688 292.984 402.688H284.788C284.404 402.688 284.212 402.424 284.212 402.124C284.212 401.836 284.404 401.572 284.788 401.572H288.244V400.948H286.828C285.964 400.948 285.58 400.516 285.58 399.712V397.492C285.58 397.048 285.904 396.82 286.24 396.82C286.564 396.82 286.9 397.048 286.9 397.492V398.008H290.884V397.492C290.884 397.048 291.208 396.82 291.544 396.82C291.868 396.82 292.204 397.048 292.204 397.492ZM287.044 406.792H291.928C292.264 406.792 292.504 407.008 292.504 407.356C292.504 407.704 292.264 407.92 291.928 407.92H286.948C286.024 407.92 285.376 407.26 285.376 406.456C285.376 405.652 286.024 405.04 286.948 405.04H290.596C290.812 405.04 290.968 404.884 290.968 404.68C290.968 404.476 290.812 404.368 290.596 404.368H286.144C285.808 404.368 285.568 404.176 285.568 403.828C285.568 403.48 285.808 403.264 286.144 403.264H290.692C291.616 403.264 292.264 403.756 292.264 404.68C292.264 405.604 291.616 406.108 290.692 406.108H287.044C286.828 406.108 286.672 406.252 286.672 406.456C286.672 406.66 286.828 406.792 287.044 406.792ZM286.9 399.844H290.884V399.1H286.9V399.844ZM300.488 398.932V399.724C300.488 401.584 299.684 403.192 298.388 404.488C298.268 404.608 298.124 404.668 297.992 404.668C297.68 404.668 297.404 404.368 297.404 404.056C297.404 403.924 297.452 403.78 297.572 403.66C298.58 402.64 299.168 401.212 299.168 399.724V399.076C299.168 398.788 299.048 398.62 298.748 398.62H297.956C297.836 398.62 297.728 398.596 297.644 398.56C297.668 398.668 297.68 398.8 297.68 398.932V399.484C297.68 401.284 296.684 402.748 295.256 403.84C295.136 403.936 295.004 403.972 294.884 403.972C294.572 403.972 294.32 403.684 294.32 403.372C294.32 403.216 294.38 403.06 294.536 402.94C295.592 402.088 296.36 400.912 296.36 399.484V399.076C296.36 398.788 296.24 398.62 295.94 398.62H295.184C294.788 398.62 294.584 398.344 294.584 398.056C294.584 397.78 294.788 397.492 295.184 397.492H296.228C296.732 397.492 297.116 397.624 297.368 397.912C297.428 397.696 297.62 397.492 297.956 397.492H299.06C299.96 397.492 300.488 397.912 300.488 398.932ZM302.84 401.488V406.852C302.84 407.296 302.504 407.524 302.168 407.524C301.832 407.524 301.496 407.296 301.496 406.852V397.432C301.496 396.988 301.832 396.76 302.168 396.76C302.504 396.76 302.84 396.988 302.84 397.432V400.336H303.92C304.304 400.336 304.496 400.624 304.496 400.912C304.496 401.2 304.304 401.488 303.92 401.488H302.84ZM311.874 404.716H313.626C314.022 404.716 314.214 405.004 314.214 405.292C314.214 405.592 314.022 405.88 313.626 405.88H305.43C305.046 405.88 304.854 405.592 304.854 405.292C304.854 405.004 305.046 404.716 305.43 404.716H307.17V402.448C306.57 401.908 306.222 401.128 306.222 400.252C306.222 398.5 307.614 397.18 309.522 397.18C311.43 397.18 312.846 398.5 312.846 400.252C312.846 401.14 312.474 401.908 311.874 402.46V404.716ZM307.554 400.252C307.554 401.38 308.418 402.16 309.522 402.16C310.65 402.16 311.514 401.38 311.514 400.252C311.514 399.136 310.65 398.332 309.522 398.332C308.418 398.332 307.554 399.136 307.554 400.252ZM309.522 403.312C309.162 403.312 308.826 403.264 308.514 403.18V404.716H310.53V403.18C310.206 403.264 309.87 403.312 309.522 403.312ZM319.99 399.724C319.99 400.588 319.63 401.26 318.718 401.932C317.986 402.472 317.842 402.688 317.842 403.132V403.564C317.842 403.936 317.554 404.224 317.158 404.224C316.738 404.224 316.474 403.936 316.474 403.552V403.132C316.474 402.244 316.81 401.74 317.77 401.032C318.382 400.588 318.634 400.216 318.634 399.7C318.634 399.064 318.082 398.56 317.362 398.56C316.75 398.56 316.366 398.74 315.982 399.04C315.262 399.604 314.53 398.716 315.226 398.116C315.706 397.696 316.438 397.36 317.362 397.36C318.79 397.36 319.99 398.248 319.99 399.724ZM316.27 405.652C316.27 405.172 316.666 404.776 317.158 404.776C317.65 404.776 318.046 405.172 318.046 405.652C318.046 406.132 317.65 406.54 317.158 406.54C316.666 406.54 316.27 406.132 316.27 405.652Z" fill="#FFCC00"/>
    </g>
    <defs>
        <clipPath id="clip0_1839_38524">
            <rect width="375" height="667" fill="white"/>
        </clipPath>
        <clipPath id="clip1_1839_38524">
            <rect width="375.49" height="514.5" fill="white" transform="matrix(-1 0 0 -1 375.49 625)"/>
        </clipPath>
        <clipPath id="clip2_1839_38524">
            <rect width="25" height="24" fill="white" transform="translate(32 42)"/>
        </clipPath>
    </defs>
</svg>
