<svg width="375" height="667" viewBox="0 0 375 667" fill="none" xmlns="http://www.w3.org/2000/svg">
    <g clip-path="url(#clip0_1839_38550)">
        <rect width="375" height="667" fill="#FCF9D1"/>
        <g clip-path="url(#clip1_1839_38550)">
            <path d="M375 624.75V110.75H298.2V125.53C301.23 127.25 303.2 130.5 303.2 134.23C303.2 139.75 298.72 144.23 293.2 144.23C287.68 144.23 283.2 139.75 283.2 134.23C283.2 130.5 285.17 127.25 288.2 125.53V110.75H245.36V125.53H245.28C248.31 127.25 250.36 130.5 250.36 134.23C250.36 139.75 245.88 144.23 240.36 144.23C234.84 144.23 230.36 139.75 230.36 134.23C230.36 130.5 232.41 127.25 235.44 125.53H235.36V110.75H192.51V125.53C195.54 127.25 197.51 130.5 197.51 134.23C197.51 139.75 193.03 144.23 187.51 144.23C181.99 144.23 177.51 139.75 177.51 134.23C177.51 130.5 179.48 127.25 182.51 125.53V110.75H139.67V125.53C142.7 127.25 144.67 130.5 144.67 134.23C144.67 139.75 140.19 144.23 134.67 144.23C129.15 144.23 124.67 139.75 124.67 134.23C124.67 130.5 126.64 127.25 129.67 125.53V110.75H86.84V125.53C89.87 127.25 91.84 130.5 91.84 134.23C91.84 139.75 87.36 144.23 81.84 144.23C76.32 144.23 71.84 139.75 71.84 134.23C71.84 130.5 73.81 127.25 76.84 125.53V110.75H0.0100098V624.75H375Z" fill="white" stroke="#777677" stroke-width="0.5" stroke-miterlimit="10"/>
            <path d="M106.769 205.14V208.3C106.769 209.64 106.129 210.36 104.689 210.36H100.049C98.6092 210.36 97.9692 209.64 97.9692 208.3V199.72C97.9692 198.98 98.5092 198.6 99.0692 198.6C99.6292 198.6 100.189 198.98 100.189 199.72V202.84H104.569V199.7C104.569 198.96 105.109 198.6 105.669 198.6C106.209 198.6 106.769 198.96 106.769 199.7V203.22H109.889V198.72C109.889 197.98 110.449 197.6 111.009 197.6C111.569 197.6 112.129 197.98 112.129 198.72V214.4C112.129 215.14 111.569 215.52 111.009 215.52C110.449 215.52 109.889 215.14 109.889 214.4V205.14H106.769ZM100.189 208.46H104.569V204.74H100.189V208.46ZM129.727 198.72V214.4C129.727 215.14 129.167 215.52 128.607 215.52C128.047 215.52 127.487 215.14 127.487 214.4V198.72C127.487 197.98 128.047 197.6 128.607 197.6C129.167 197.6 129.727 197.98 129.727 198.72ZM124.427 210.24H118.607C116.907 210.24 115.767 209.18 115.767 207.28V200.86C115.767 199.52 116.407 198.8 117.847 198.8H123.867C124.527 198.8 124.847 199.28 124.847 199.74C124.847 200.24 124.527 200.72 123.867 200.72H118.627C118.207 200.72 117.987 200.92 117.987 201.34V207.22C117.987 208 118.407 208.34 118.967 208.34H124.427C125.067 208.34 125.387 208.82 125.387 209.28C125.387 209.76 125.067 210.24 124.427 210.24ZM138.725 200.68H135.025C134.405 200.68 134.085 200.2 134.085 199.72C134.085 199.24 134.405 198.72 135.025 198.72H144.645C145.285 198.72 145.605 199.24 145.605 199.72C145.605 200.2 145.285 200.68 144.645 200.68H140.965C141.005 203.5 142.965 205.44 145.605 206.34C146.085 206.5 146.285 206.88 146.285 207.26C146.285 207.88 145.725 208.48 144.885 208.2C142.785 207.5 140.945 206.02 139.845 204.18C138.725 206.02 136.885 207.5 134.805 208.2C133.965 208.48 133.405 207.88 133.405 207.26C133.405 206.88 133.605 206.5 134.085 206.34C136.705 205.44 138.685 203.5 138.725 200.68ZM133.005 210.86H146.665C147.325 210.86 147.645 211.34 147.645 211.82C147.645 212.32 147.325 212.8 146.665 212.8H133.005C132.365 212.8 132.045 212.32 132.045 211.82C132.045 211.34 132.365 210.86 133.005 210.86ZM148.631 204.04C148.631 201.4 150.451 199.54 153.071 199.54C155.451 199.54 157.171 201.08 157.471 203.32H159.211V198.6C159.211 198.02 159.571 197.74 159.991 197.74C160.371 197.74 160.751 198.02 160.751 198.6V214.2C160.751 214.76 160.371 215.06 159.991 215.06C159.571 215.06 159.211 214.76 159.211 214.2V204.7H157.471C157.191 206.98 155.471 208.54 153.071 208.54C150.451 208.54 148.631 206.68 148.631 204.04ZM155.931 204.04C155.931 202.08 154.751 200.88 153.071 200.88C151.391 200.88 150.211 202.08 150.211 204.04C150.211 206 151.391 207.2 153.071 207.2C154.751 207.2 155.931 206 155.931 204.04ZM163.911 198.5V214.6C163.911 215.16 163.491 215.46 163.111 215.46C162.691 215.46 162.291 215.16 162.291 214.6V198.5C162.291 197.92 162.691 197.64 163.111 197.64C163.491 197.64 163.911 197.92 163.911 198.5ZM176.865 208.74H184.305C185.405 208.74 185.905 209.12 185.905 210.16V214.58C185.905 215.62 185.405 216 184.305 216H176.865C175.765 216 175.265 215.62 175.265 214.58V210.16C175.265 209.12 175.765 208.74 176.865 208.74ZM181.445 206.96C179.865 206.36 178.105 204.7 177.425 203.02C176.645 204.88 174.805 206.46 173.345 207.12C172.425 207.54 171.825 206.34 172.685 205.9C174.705 204.86 176.405 202.88 176.625 200.92H173.485C173.045 200.92 172.845 200.6 172.845 200.26C172.845 199.9 173.045 199.58 173.485 199.58H176.605V197.84C176.605 197.22 177.005 196.96 177.405 196.96C177.825 196.96 178.225 197.22 178.225 197.84V199.58H181.305C181.765 199.58 181.965 199.9 181.965 200.26C181.965 200.6 181.765 200.92 181.305 200.92H178.205C178.425 202.76 179.925 204.78 182.005 205.7C182.805 206.06 182.305 207.28 181.445 206.96ZM184.285 214.62V210.12H176.885V214.62H184.285ZM185.905 203.3V206.76C185.905 207.32 185.485 207.62 185.105 207.62C184.685 207.62 184.285 207.32 184.285 206.76V198.5C184.285 197.92 184.685 197.64 185.105 197.64C185.485 197.64 185.905 197.92 185.905 198.5V201.92H188.225C188.665 201.92 188.865 202.28 188.865 202.6C188.865 202.96 188.665 203.3 188.225 203.3H185.905ZM190.422 204.04C190.422 200.94 192.662 199.14 195.342 199.14C197.002 199.14 198.502 199.84 199.382 201.1H203.022V198.5C203.022 197.92 203.422 197.64 203.842 197.64C204.222 197.64 204.642 197.92 204.642 198.5V214.6C204.642 215.16 204.222 215.46 203.842 215.46C203.422 215.46 203.022 215.16 203.022 214.6V206.86H199.462C198.582 208.2 197.062 208.94 195.342 208.94C192.662 208.94 190.422 207.14 190.422 204.04ZM198.642 204.04C198.642 201.88 197.162 200.52 195.342 200.52C193.522 200.52 192.042 201.88 192.042 204.04C192.042 206.2 193.522 207.56 195.342 207.56C197.162 207.56 198.642 206.2 198.642 204.04ZM200.262 204.04C200.262 204.56 200.182 205.06 200.062 205.5H203.022V202.46H200.042C200.182 202.94 200.262 203.48 200.262 204.04ZM222.36 198.5V214.6C222.36 215.16 221.94 215.46 221.56 215.46C221.14 215.46 220.74 215.16 220.74 214.6V212.06H208.24C207.78 212.06 207.54 211.72 207.54 211.38C207.54 211.06 207.78 210.68 208.24 210.68H212.78V207.34H211.54C209.94 207.34 209.08 206.5 209.08 204.72V200.82C209.08 199.64 209.64 199 210.94 199H217.38C217.86 199 218.1 199.34 218.1 199.66C218.1 200 217.86 200.38 217.38 200.38H211.48C210.84 200.38 210.7 200.48 210.7 201.18V204.62C210.7 205.7 211.06 205.96 211.84 205.96H217.58C218.04 205.96 218.26 206.34 218.26 206.64C218.26 206.98 218.04 207.34 217.58 207.34H214.4V210.68H220.74V198.5C220.74 197.92 221.14 197.64 221.56 197.64C221.94 197.64 222.36 197.92 222.36 198.5ZM225.778 202.34C225.778 199.76 227.698 197.84 230.438 197.84C232.938 197.84 234.738 199.44 235.038 201.68H238.218V198.5C238.218 197.92 238.618 197.64 239.038 197.64C239.418 197.64 239.838 197.92 239.838 198.5V206.94C239.838 207.5 239.418 207.8 239.038 207.8C238.618 207.8 238.218 207.5 238.218 206.94V203.04H235.038C234.717 205.26 232.918 206.84 230.438 206.84C227.698 206.84 225.778 204.92 225.778 202.34ZM234.258 214.44C235.658 213.44 236.338 211.98 236.338 210.24V209.44C236.338 208.88 236.738 208.6 237.158 208.6C237.558 208.6 237.978 208.88 237.978 209.44V210.22C237.998 212.2 238.898 213.48 240.978 214.74C241.818 215.24 241.098 216.34 240.218 215.94C238.998 215.22 237.918 214.26 237.218 213.06C236.618 214.22 235.718 215.24 234.678 215.84C234.438 215.98 234.238 216.04 234.038 216.04C233.858 216.04 233.678 215.98 233.458 215.84C232.398 215.2 231.498 214.14 230.918 212.98C230.158 214.22 228.978 215.2 227.738 215.94C226.798 216.4 226.218 215.16 226.998 214.74C229.118 213.56 230.158 212.2 230.198 210.22V209.44C230.198 208.88 230.598 208.6 230.998 208.6C231.398 208.6 231.818 208.88 231.818 209.44V210.24C231.818 211.98 232.418 213.46 233.838 214.44C233.958 214.54 234.098 214.56 234.258 214.44ZM233.498 202.34C233.498 200.4 232.138 199.2 230.438 199.2C228.738 199.2 227.377 200.4 227.377 202.34C227.377 204.28 228.738 205.48 230.438 205.48C232.138 205.48 233.498 204.28 233.498 202.34ZM243.215 204.04C243.215 200.94 245.455 199.14 248.135 199.14C250.595 199.14 252.675 200.66 252.995 203.32H255.815V198.5C255.815 197.92 256.215 197.64 256.635 197.64C257.015 197.64 257.435 197.92 257.435 198.5V214.6C257.435 215.16 257.015 215.46 256.635 215.46C256.215 215.46 255.815 215.16 255.815 214.6V204.7H253.015C252.715 207.4 250.615 208.94 248.135 208.94C245.455 208.94 243.215 207.14 243.215 204.04ZM251.435 204.04C251.435 201.88 249.955 200.52 248.135 200.52C246.315 200.52 244.835 201.88 244.835 204.04C244.835 206.2 246.315 207.56 248.135 207.56C249.955 207.56 251.435 206.2 251.435 204.04ZM262.553 203.28C262.553 200.46 264.773 198.26 267.833 198.26C270.893 198.26 273.113 200.46 273.113 203.28C273.113 204.78 272.493 206.1 271.453 207V211.34H274.793C275.273 211.34 275.513 211.72 275.513 212.04C275.513 212.38 275.273 212.72 274.793 212.72H260.833C260.373 212.72 260.133 212.38 260.133 212.04C260.133 211.72 260.373 211.34 260.833 211.34H264.213V207C263.173 206.1 262.553 204.78 262.553 203.28ZM271.533 203.28C271.533 201.2 269.973 199.62 267.833 199.62C265.693 199.62 264.133 201.2 264.133 203.28C264.133 205.36 265.693 206.94 267.833 206.94C269.973 206.94 271.533 205.36 271.533 203.28ZM267.833 208.3C267.113 208.3 266.433 208.18 265.833 207.96V211.34H269.833V207.96C269.213 208.18 268.553 208.3 267.833 208.3ZM277.259 212.82C277.259 212.24 277.719 211.76 278.299 211.76C278.879 211.76 279.339 212.24 279.339 212.82C279.339 213.4 278.879 213.9 278.299 213.9C277.719 213.9 277.259 213.4 277.259 212.82ZM277.539 209.36V199.3C277.539 198.84 277.799 198.5 278.299 198.5C278.799 198.5 279.059 198.84 279.059 199.3V209.36C279.059 209.82 278.799 210.16 278.299 210.16C277.799 210.16 277.539 209.82 277.539 209.36ZM64.2786 228.48C64.2786 225.92 66.1586 223.86 69.2586 223.86C72.3586 223.86 74.2386 225.92 74.2386 228.48C74.2386 231.04 72.3586 233.1 69.2586 233.1C66.1586 233.1 64.2786 231.04 64.2786 228.48ZM72.6586 228.48C72.6586 226.6 71.3186 225.22 69.2586 225.22C67.1986 225.22 65.8586 226.6 65.8586 228.48C65.8586 230.36 67.1986 231.74 69.2586 231.74C71.3186 231.74 72.6586 230.36 72.6586 228.48ZM70.0586 235.76V240.8C70.0586 241.36 69.6986 241.64 69.2386 241.64C68.7986 241.64 68.4386 241.36 68.4386 240.8V235.76H62.2586C61.7986 235.76 61.5586 235.42 61.5586 235.08C61.5586 234.76 61.7986 234.38 62.2586 234.38H76.2186C76.6986 234.38 76.9386 234.76 76.9386 235.08C76.9386 235.42 76.6986 235.76 76.2186 235.76H70.0586ZM92.8648 224.5V240.6C92.8648 241.16 92.4448 241.46 92.0448 241.46C91.6248 241.46 91.2248 241.16 91.2248 240.6V224.5C91.2248 223.92 91.6248 223.64 92.0448 223.64C92.4448 223.64 92.8648 223.92 92.8648 224.5ZM88.3648 236.3H81.9848C80.0048 236.3 78.9048 234.68 78.9048 233.08C78.9048 231.5 80.0048 229.82 81.9848 229.82H84.9848C86.0848 229.82 86.6448 229.08 86.6448 228.1C86.6448 227.08 86.0848 226.38 84.9848 226.38H80.0848C79.6448 226.38 79.4248 226 79.4248 225.7C79.4248 225.38 79.6448 225 80.0848 225H85.2048C87.1848 225 88.2648 226.42 88.2648 228.02C88.2648 229.62 87.1848 231.16 85.2048 231.16H82.1848C81.1048 231.16 80.5248 232.04 80.5248 233.04C80.5248 234.04 81.1048 234.92 82.1848 234.92H88.3648C88.7848 234.92 89.0048 235.3 89.0048 235.62C89.0048 235.94 88.7848 236.3 88.3648 236.3ZM96.4025 231.82V225.74C96.4025 224.54 96.9825 224.2 98.0225 224.2H102.943C103.983 224.2 104.563 224.54 104.563 225.74V231.82C104.563 233.02 103.983 233.36 102.943 233.36H98.0225C96.9825 233.36 96.4025 233.02 96.4025 231.82ZM98.0025 231.98H102.963V225.58H98.0025V231.98ZM109.323 230.04V235.54C109.323 236.1 108.903 236.4 108.523 236.4C108.103 236.4 107.703 236.1 107.703 235.54V224.5C107.703 223.92 108.103 223.64 108.523 223.64C108.903 223.64 109.323 223.92 109.323 224.5V228.66H111.643C112.083 228.66 112.283 229.02 112.283 229.34C112.283 229.7 112.083 230.04 111.643 230.04H109.323ZM101.443 240.46H109.123C109.603 240.46 109.843 240.82 109.843 241.14C109.843 241.46 109.603 241.84 109.123 241.84H101.303C99.7225 241.84 98.7025 241.18 98.7025 239.4V236C98.7025 235.44 99.0825 235.18 99.5025 235.18C99.9425 235.18 100.323 235.44 100.323 236V239.28C100.323 240.14 100.663 240.46 101.443 240.46ZM114.68 229.02C114.68 226.44 116.68 224.48 119.42 224.48C122.16 224.48 124.16 226.44 124.16 229.02C124.16 231.6 122.16 233.56 119.42 233.56C116.68 233.56 114.68 231.6 114.68 229.02ZM128.18 224.5V240.6C128.18 241.16 127.76 241.46 127.38 241.46C126.96 241.46 126.56 241.16 126.56 240.6V238.08H114.06C113.6 238.08 113.36 237.74 113.36 237.4C113.36 237.08 113.6 236.7 114.06 236.7H126.56V224.5C126.56 223.92 126.96 223.64 127.38 223.64C127.76 223.64 128.18 223.92 128.18 224.5ZM122.54 229.02C122.54 227.08 121.12 225.86 119.42 225.86C117.72 225.86 116.3 227.08 116.3 229.02C116.3 230.96 117.72 232.18 119.42 232.18C121.12 232.18 122.54 230.96 122.54 229.02ZM145.314 225.12V226C145.314 229.14 147.534 231.26 150.454 232.28C151.294 232.58 150.874 233.92 149.934 233.64C147.574 232.92 145.554 231.22 144.454 229.12C143.374 231.22 141.374 232.92 138.974 233.64C138.034 233.92 137.614 232.58 138.454 232.28C141.374 231.26 143.594 229.14 143.594 226V225.12C143.594 224.56 144.014 224.26 144.454 224.26C144.874 224.26 145.314 224.56 145.314 225.12ZM137.454 237.3H151.414C151.894 237.3 152.134 237.68 152.134 238C152.134 238.34 151.894 238.68 151.414 238.68H137.454C136.994 238.68 136.754 238.34 136.754 238C136.754 237.68 136.994 237.3 137.454 237.3ZM166.1 233.7H155.6C155.14 233.7 154.92 233.36 154.92 233C154.92 232.64 155.14 232.32 155.6 232.32H157.34V226.26H155.7C155.24 226.26 155.02 225.92 155.02 225.56C155.02 225.2 155.24 224.88 155.7 224.88H166C166.46 224.88 166.68 225.2 166.68 225.56C166.68 225.92 166.46 226.26 166 226.26H164.36V232.32H166.1C166.56 232.32 166.78 232.64 166.78 233C166.78 233.36 166.56 233.7 166.1 233.7ZM158.96 226.26V232.32H162.74V226.26H158.96ZM153.86 237.3H167.82C168.3 237.3 168.54 237.68 168.54 238C168.54 238.34 168.3 238.68 167.82 238.68H153.86C153.4 238.68 153.16 238.34 153.16 238C153.16 237.68 153.4 237.3 153.86 237.3ZM184.466 224.5V232.52C184.466 233.08 184.046 233.38 183.666 233.38C183.246 233.38 182.846 233.08 182.846 232.52V224.5C182.846 223.92 183.246 223.64 183.666 223.64C184.046 223.64 184.466 223.92 184.466 224.5ZM177.126 228.92H173.486C172.586 228.92 172.126 229.32 172.126 230.04C172.126 230.78 172.586 231.18 173.486 231.18H179.966C180.386 231.18 180.606 231.56 180.606 231.88C180.606 232.2 180.386 232.56 179.966 232.56H173.246C171.486 232.56 170.506 231.44 170.506 230.08C170.506 228.74 171.486 227.62 173.246 227.62H176.946C177.826 227.62 178.266 227.32 178.266 226.6C178.266 225.92 177.826 225.58 176.946 225.58H171.566C171.126 225.58 170.906 225.22 170.906 224.9C170.906 224.58 171.126 224.2 171.566 224.2H177.126C178.886 224.2 179.866 225.24 179.866 226.56C179.866 227.9 178.886 228.92 177.126 228.92ZM174.926 237.88C174.926 235.54 176.846 233.5 179.606 233.5C182.366 233.5 184.286 235.54 184.286 237.88C184.286 240.22 182.366 242.26 179.606 242.26C176.846 242.26 174.926 240.22 174.926 237.88ZM182.726 237.88C182.726 236.14 181.446 234.92 179.606 234.92C177.766 234.92 176.486 236.14 176.486 237.88C176.486 239.62 177.766 240.84 179.606 240.84C181.446 240.84 182.726 239.62 182.726 237.88ZM190.144 228C190.144 225.58 192.044 223.64 194.844 223.64C197.644 223.64 199.544 225.58 199.544 228C199.544 229.3 198.984 230.48 198.044 231.28H201.844C202.324 231.28 202.564 231.62 202.564 231.94C202.564 232.28 202.324 232.58 201.844 232.58H187.864C187.404 232.58 187.164 232.28 187.164 231.94C187.164 231.62 187.404 231.28 187.864 231.28H191.644C190.684 230.48 190.144 229.3 190.144 228ZM197.704 238.82H191.804C191.084 238.82 190.544 239.1 190.544 239.82C190.544 240.5 191.084 240.86 191.804 240.86H200.144C200.604 240.86 200.824 241.22 200.824 241.54C200.824 241.86 200.604 242.2 200.144 242.2H191.684C189.884 242.2 189.004 241.24 189.004 239.9C189.004 238.52 189.884 237.52 191.684 237.52H197.584C198.284 237.52 198.824 237.24 198.824 236.54C198.824 235.84 198.284 235.58 197.584 235.58H190.064C189.624 235.58 189.384 235.24 189.384 234.92C189.384 234.6 189.624 234.24 190.064 234.24H197.704C199.504 234.24 200.364 235.14 200.364 236.52C200.364 237.84 199.504 238.82 197.704 238.82ZM191.704 228.1C191.704 229.84 192.984 231.22 194.844 231.22C196.704 231.22 197.984 229.84 197.984 228.1C197.984 226.36 196.704 224.98 194.844 224.98C192.984 224.98 191.704 226.36 191.704 228.1ZM219.306 236.14C217.426 234.8 216.066 232.96 215.266 230.92C214.486 233.06 213.146 234.96 211.306 236.3C210.446 236.92 209.626 235.66 210.386 235.06C212.826 233.14 214.446 230.54 214.446 226.8V225.28C214.446 224.68 214.826 224.38 215.266 224.38C215.686 224.38 216.106 224.68 216.106 225.28V227.08C216.106 230.82 217.806 232.9 220.206 234.9C221.026 235.58 220.106 236.72 219.306 236.14ZM224.466 224.5V240.6C224.466 241.16 224.046 241.46 223.666 241.46C223.246 241.46 222.846 241.16 222.846 240.6V224.5C222.846 223.92 223.246 223.64 223.666 223.64C224.046 223.64 224.466 223.92 224.466 224.5ZM236.164 232.76C234.604 231.94 233.264 230.66 232.444 229.1C231.584 230.76 230.144 232.14 228.524 233.04C227.684 233.52 226.944 232.2 227.764 231.74C230.584 230.14 231.624 228.02 231.624 226.34V225.58H228.444C228.004 225.58 227.804 225.24 227.804 224.92C227.804 224.56 228.004 224.2 228.444 224.2H236.444C236.904 224.2 237.104 224.56 237.104 224.92C237.104 225.24 236.904 225.58 236.444 225.58H233.284V226.26C233.284 228.1 234.164 230 236.924 231.44C237.784 231.88 236.984 233.2 236.164 232.76ZM238.184 236.26H230.504C230.024 236.26 229.784 235.9 229.784 235.58C229.784 235.26 230.024 234.88 230.504 234.88H238.324C239.904 234.88 240.924 235.54 240.924 237.32V241.28C240.924 241.84 240.544 242.1 240.124 242.1C239.684 242.1 239.304 241.84 239.304 241.28V237.44C239.304 236.58 238.964 236.26 238.184 236.26ZM240.924 229.26V233.04C240.924 233.6 240.504 233.9 240.124 233.9C239.704 233.9 239.304 233.6 239.304 233.04V224.5C239.304 223.92 239.704 223.64 240.124 223.64C240.504 223.64 240.924 223.92 240.924 224.5V227.88H243.244C243.684 227.88 243.884 228.24 243.884 228.56C243.884 228.92 243.684 229.26 243.244 229.26H240.924ZM249.342 224C249.762 224 250.202 224.26 250.202 224.88V226.7H253.302C253.762 226.7 253.962 227.04 253.962 227.38C253.962 227.72 253.762 228.04 253.302 228.04H252.082C252.822 228.72 253.302 229.68 253.302 230.84C253.302 233.3 251.442 234.74 249.342 234.74C247.242 234.74 245.382 233.3 245.382 230.84C245.382 229.68 245.842 228.72 246.582 228.04H245.462C245.022 228.04 244.822 227.72 244.822 227.38C244.822 227.04 245.022 226.7 245.462 226.7H248.482V224.88C248.482 224.26 248.922 224 249.342 224ZM256.282 231.64V240.2C256.282 240.76 255.902 241.06 255.522 241.06C255.102 241.06 254.742 240.76 254.742 240.2V224.6C254.742 224.02 255.102 223.74 255.522 223.74C255.902 223.74 256.282 224.02 256.282 224.6V230.26H258.502V224.5C258.502 223.92 258.902 223.64 259.322 223.64C259.702 223.64 260.122 223.92 260.122 224.5V240.6C260.122 241.16 259.702 241.46 259.322 241.46C258.902 241.46 258.502 241.16 258.502 240.6V231.64H256.282ZM246.842 230.78C246.842 232.18 247.762 233.44 249.342 233.44C250.922 233.44 251.842 232.18 251.842 230.78C251.842 229.38 250.922 228.12 249.342 228.12C247.762 228.12 246.842 229.38 246.842 230.78ZM266.339 225.42V227.88H273.759V225.42C273.759 224.84 274.159 224.56 274.559 224.56C274.959 224.56 275.379 224.84 275.379 225.42V232.52C275.379 233.6 274.799 234.02 273.699 234.02H270.859V237.3H277.019C277.499 237.3 277.739 237.68 277.739 238C277.739 238.34 277.499 238.68 277.019 238.68H263.059C262.599 238.68 262.359 238.34 262.359 238C262.359 237.68 262.599 237.3 263.059 237.3H269.239V234.02H266.399C265.299 234.02 264.719 233.6 264.719 232.52V225.42C264.719 224.84 265.119 224.56 265.519 224.56C265.919 224.56 266.339 224.84 266.339 225.42ZM266.339 232.64H273.759V229.24H266.339V232.64ZM279.006 230.04C279.006 226.94 281.266 225.14 283.946 225.14C286.626 225.14 288.886 226.94 288.886 230.04C288.886 233.14 286.626 234.94 283.946 234.94C281.266 234.94 279.006 233.14 279.006 230.04ZM287.266 230.04C287.266 227.88 285.766 226.52 283.946 226.52C282.126 226.52 280.626 227.88 280.626 230.04C280.626 232.2 282.126 233.56 283.946 233.56C285.766 233.56 287.266 232.2 287.266 230.04ZM292.526 230.78V240.6C292.526 241.16 292.106 241.46 291.726 241.46C291.306 241.46 290.906 241.16 290.906 240.6V224.5C290.906 223.92 291.306 223.64 291.726 223.64C292.106 223.64 292.526 223.92 292.526 224.5V229.4H294.846C295.286 229.4 295.486 229.76 295.486 230.08C295.486 230.44 295.286 230.78 294.846 230.78H292.526ZM298.783 229.28C298.783 226.46 301.003 224.26 304.063 224.26C307.123 224.26 309.343 226.46 309.343 229.28C309.343 230.78 308.723 232.1 307.683 233V237.34H311.023C311.503 237.34 311.743 237.72 311.743 238.04C311.743 238.38 311.503 238.72 311.023 238.72H297.063C296.603 238.72 296.363 238.38 296.363 238.04C296.363 237.72 296.603 237.34 297.063 237.34H300.443V233C299.403 232.1 298.783 230.78 298.783 229.28ZM307.763 229.28C307.763 227.2 306.203 225.62 304.063 225.62C301.923 225.62 300.363 227.2 300.363 229.28C300.363 231.36 301.923 232.94 304.063 232.94C306.203 232.94 307.763 231.36 307.763 229.28ZM304.063 234.3C303.343 234.3 302.663 234.18 302.063 233.96V237.34H306.063V233.96C305.443 234.18 304.783 234.3 304.063 234.3ZM313.07 238.82C313.07 238.24 313.53 237.76 314.11 237.76C314.69 237.76 315.15 238.24 315.15 238.82C315.15 239.4 314.69 239.9 314.11 239.9C313.53 239.9 313.07 239.4 313.07 238.82Z" fill="black"/>
            <rect x="113.25" y="545.25" width="149.5" height="49.5" rx="19.75" fill="white" stroke="black" stroke-width="0.5"/>
            <path d="M174.925 568.576C174.925 567.2 176.397 566.304 178.653 566.304C180.909 566.304 182.381 567.2 182.381 568.576C182.381 569.712 181.357 570.56 179.725 570.816V571.776C180.781 571.728 181.613 571.616 182.429 571.456C183.197 571.296 183.645 571.728 183.645 572.272C183.645 572.72 183.373 573.056 182.829 573.184C181.597 573.472 180.221 573.6 178.157 573.6H174.749C174.173 573.6 173.789 573.248 173.789 572.704C173.789 572.16 174.173 571.808 174.749 571.808H177.581V570.816C175.949 570.56 174.925 569.712 174.925 568.576ZM173.917 564.976C173.917 564.432 174.301 564.096 174.877 564.096H177.581V563.664C177.581 563.056 178.109 562.784 178.653 562.784C179.197 562.784 179.725 563.056 179.725 563.664V564.096H182.301C182.877 564.096 183.261 564.432 183.261 564.976C183.261 565.52 182.877 565.856 182.301 565.856H174.877C174.301 565.856 173.917 565.52 173.917 564.976ZM175.661 575.344C175.661 574.8 175.981 574.432 176.557 574.432H185.101C185.789 574.432 186.301 574.816 186.301 575.44V578.064C186.301 578.752 185.677 579.04 185.229 579.04C184.781 579.04 184.157 578.752 184.157 578.064V576.256H176.557C175.981 576.256 175.661 575.888 175.661 575.344ZM177.005 568.576C177.005 569.024 177.629 569.264 178.653 569.264C179.677 569.264 180.301 569.024 180.301 568.576C180.301 568.128 179.677 567.888 178.653 567.888C177.629 567.888 177.005 568.128 177.005 568.576ZM184.157 564.144C184.157 563.456 184.781 563.168 185.229 563.168C185.677 563.168 186.301 563.456 186.301 564.144V567.376H187.629C188.205 567.376 188.525 567.76 188.525 568.304C188.525 568.848 188.205 569.232 187.629 569.232H186.301V573.088C186.301 573.776 185.677 573.968 185.229 573.968C184.781 573.968 184.157 573.776 184.157 573.088V564.144ZM199.852 564.144C199.852 563.456 200.476 563.168 200.924 563.168C201.372 563.168 201.996 563.456 201.996 564.144V573.312C201.996 574 201.372 574.288 200.924 574.288C200.476 574.288 199.852 574 199.852 573.312V564.144ZM189.34 567.824C189.34 565.552 191.196 563.872 193.692 563.872C196.188 563.872 198.044 565.552 198.044 567.824C198.044 570.08 196.188 571.776 193.692 571.776C191.196 571.776 189.34 570.08 189.34 567.824ZM191.452 567.824C191.452 569.056 192.396 569.968 193.692 569.968C194.988 569.968 195.932 569.056 195.932 567.824C195.932 566.592 194.988 565.68 193.692 565.68C192.396 565.68 191.452 566.592 191.452 567.824ZM191.644 573.856C191.644 573.168 192.268 572.88 192.716 572.88C193.164 572.88 193.788 573.168 193.788 573.856V576.672C193.788 576.816 193.884 576.912 194.028 576.912H201.436C202.012 576.912 202.332 577.296 202.332 577.84C202.332 578.384 202.012 578.768 201.436 578.768H193.02C192.236 578.768 191.644 578.208 191.644 577.472V573.856Z" fill="black"/>
        </g>
        <g clip-path="url(#clip2_1839_38550)">
            <path d="M121.328 401.962C125.174 402.168 129.121 401.539 132.844 400.599C137.144 399.508 141.292 397.833 145.306 395.969C153.602 392.113 161.272 386.91 168.226 381C171.424 378.278 174.46 375.351 177.205 372.179C179.95 369.007 182.555 365.607 184.539 361.901C185.546 360.026 186.412 358.056 187.111 356.041C187.81 354.027 188.089 352.191 188.324 350.176C188.755 346.514 187.927 342.764 186.228 339.508C185.903 338.891 185.523 338.306 185.104 337.75C184.383 336.793 183.645 335.769 182.745 334.956C181.409 333.749 179.793 332.68 177.999 332.291C176.204 331.901 174.51 331.901 172.66 332.335C169.876 332.986 167.578 334.706 165.392 336.431C163.793 337.689 162.334 339.102 160.825 340.465C160.171 341.055 159.511 341.64 158.812 342.179L160.092 341.194C159.511 341.64 158.902 342.063 158.225 342.357L159.735 341.723C159.483 341.823 159.226 341.907 158.952 341.946L160.635 341.723C160.288 341.762 159.941 341.751 159.6 341.706L161.283 341.929C160.897 341.868 160.534 341.762 160.176 341.612L161.686 342.246C161.071 341.979 160.512 341.617 159.975 341.211L161.255 342.196C158.678 340.198 156.593 337.488 153.557 336.114C152.445 335.613 151.366 335.129 150.164 334.945C148.19 334.645 146.793 334.65 144.808 335.012C143.433 335.262 142.097 335.874 140.861 336.481C139.905 336.954 139.083 337.611 138.25 338.284C136.087 340.043 134.55 342.92 134.063 345.635C133.448 349.046 133.661 352.313 134.432 355.696C135.204 359.08 136.551 362.252 138.049 365.312C139.547 368.373 141.292 371.2 143.265 373.916C148.084 380.566 153.82 386.448 160.707 390.994C163.972 393.148 167.55 394.884 171.262 396.125C175.198 397.438 179.351 397.844 183.483 397.883C192.5 397.967 201.68 396.492 210.155 393.409C214.219 391.929 218.211 390.159 221.973 388.028C225.467 386.047 228.737 383.732 231.851 381.206C234.272 379.241 236.542 377.082 238.565 374.711C240.589 372.341 242.591 369.703 244.072 366.882C245.324 364.489 246.442 361.884 246.873 359.202C247.331 356.37 247.493 353.415 246.509 350.655C246.051 349.38 245.52 348.1 244.709 347.004C243.463 345.329 242.339 344.227 240.623 343.003C237.034 340.443 232.153 339.931 228.352 342.335C226.96 343.214 225.747 344.355 224.45 345.363L225.73 344.378C224.953 344.973 224.131 345.502 223.231 345.891L224.74 345.257C223.997 345.568 223.225 345.78 222.426 345.897L224.109 345.674C223.058 345.813 222.007 345.791 220.95 345.657L222.633 345.88C222.426 345.852 222.241 345.824 222.051 345.752L223.561 346.386C223.393 346.314 223.242 346.225 223.097 346.114L224.377 347.099C224.181 346.943 224.014 346.759 223.857 346.565L224.846 347.839C224.433 347.294 224.142 346.67 223.874 346.047L224.511 347.549C223.896 346.08 223.427 344.556 222.828 343.075C221.794 340.504 220.726 338.345 218.921 336.219C214.957 331.556 207.617 330.849 202.468 333.888C197.867 336.603 195.497 341.812 194.658 346.887C193.909 351.445 193.847 355.952 194.11 360.549C194.395 365.574 194.815 370.638 196.156 375.507C196.749 377.644 197.369 379.814 198.141 381.896C199.091 384.461 200.321 386.459 202.054 388.568C203.485 390.304 205.263 391.695 207.069 393.025C208.629 394.172 210.311 395.145 212.05 395.991C216.327 398.073 220.866 399.62 225.529 400.566C230.191 401.512 235.099 402.068 239.902 401.918C242.417 401.84 244.939 401.551 247.415 401.105C249.159 400.788 250.892 400.337 252.536 399.67C253.738 399.186 254.951 398.696 256.086 398.061C257.456 397.299 258.579 395.797 258.993 394.3C259.407 392.803 259.222 390.788 258.356 389.447C256.472 386.537 252.793 385.463 249.702 387.188C249.137 387.505 248.55 387.783 247.957 388.039L249.467 387.405C247.236 388.34 244.866 388.879 242.473 389.208L244.156 388.985C239.846 389.553 235.463 389.425 231.158 388.863L232.841 389.085C228.117 388.451 223.454 387.282 219.055 385.446L220.564 386.08C217.914 384.962 215.359 383.604 213.067 381.857L214.348 382.842C212.989 381.795 211.742 380.621 210.686 379.269L211.675 380.543C210.96 379.614 210.356 378.612 209.892 377.533L210.529 379.035C209.652 376.926 209.053 374.645 208.433 372.447C207.868 370.449 207.438 368.429 207.164 366.37L207.388 368.045C206.935 364.628 206.733 361.161 206.616 357.722C206.521 354.973 206.577 352.213 206.935 349.48L206.711 351.155C206.979 349.202 207.399 347.266 208.165 345.44L207.527 346.943C207.907 346.053 208.371 345.212 208.958 344.439L207.969 345.713C208.399 345.162 208.88 344.667 209.434 344.233L208.153 345.218C208.645 344.851 209.165 344.55 209.73 344.311L208.22 344.945C208.83 344.7 209.456 344.544 210.104 344.455L208.422 344.678C209.098 344.6 209.775 344.589 210.451 344.678L208.768 344.455C209.322 344.539 209.847 344.678 210.362 344.895L208.852 344.261C209.294 344.455 209.702 344.7 210.088 344.984L208.807 343.999C209.35 344.416 209.819 344.901 210.233 345.44L209.244 344.166C210.004 345.168 210.574 346.292 211.066 347.444L210.429 345.941C211.815 349.236 212.587 352.825 215.002 355.58C216.925 357.772 219.821 358.351 222.621 358.356C225.422 358.362 228.016 357.666 230.415 356.364C232.187 355.401 233.663 353.988 235.245 352.758L233.965 353.743C234.451 353.37 234.954 353.025 235.519 352.775L234.009 353.409C234.322 353.276 234.647 353.181 234.982 353.125L233.299 353.348C233.663 353.298 234.02 353.304 234.384 353.348L232.701 353.125C233.132 353.192 233.54 353.315 233.942 353.476L232.433 352.842C233.159 353.148 233.842 353.554 234.473 354.027L233.193 353.042C233.763 353.482 234.283 353.982 234.73 354.55L233.741 353.276C234.166 353.821 234.512 354.416 234.786 355.056L234.149 353.554C234.451 354.277 234.647 355.034 234.753 355.808L234.529 354.133C234.663 355.168 234.635 356.208 234.496 357.243L234.719 355.568C234.496 357.138 234.026 358.651 233.417 360.109L234.054 358.607C232.992 361.105 231.527 363.415 229.867 365.557L230.856 364.283C228.229 367.655 225.104 370.621 221.716 373.231L222.996 372.246C218.535 375.669 213.621 378.468 208.439 380.655L209.948 380.02C204.212 382.424 198.169 384.049 192.003 384.884L193.685 384.661C191.024 385.012 188.346 385.218 185.663 385.273C183.175 385.324 180.643 385.312 178.172 384.984L179.855 385.207C177.216 384.839 174.661 384.083 172.207 383.059L173.716 383.693C170.306 382.246 167.142 380.299 164.207 378.056L165.487 379.041C161.339 375.847 157.655 372.074 154.452 367.95L155.441 369.224C152.445 365.351 149.839 361.15 147.922 356.642L148.559 358.145C147.491 355.613 146.631 352.975 146.25 350.254L146.474 351.929C146.29 350.549 146.234 349.147 146.418 347.767L146.194 349.442C146.312 348.623 146.508 347.822 146.832 347.06L146.194 348.562C146.435 348.006 146.737 347.488 147.106 347.004L146.116 348.278C146.452 347.85 146.837 347.472 147.273 347.138L145.993 348.123C146.586 347.677 147.24 347.344 147.922 347.054L146.413 347.689C147.106 347.41 147.81 347.199 148.548 347.099L146.865 347.321C147.413 347.255 147.95 347.249 148.498 347.316L146.815 347.093C147.408 347.171 147.972 347.327 148.526 347.549L147.016 346.915C147.832 347.26 148.576 347.733 149.28 348.273L148 347.288C151.069 349.675 153.49 352.886 157.426 353.96C160.126 354.695 162.904 354.283 165.308 352.886C167.019 351.89 168.54 350.51 170.004 349.18C171.469 347.85 172.978 346.409 174.588 345.162L173.308 346.147C174.275 345.407 175.293 344.717 176.422 344.227L174.913 344.862C175.46 344.634 176.02 344.461 176.607 344.383L174.924 344.606C175.293 344.567 175.651 344.561 176.02 344.606L174.337 344.383C174.667 344.433 174.985 344.517 175.293 344.639L173.783 344.005C174.152 344.161 174.488 344.361 174.806 344.606L173.526 343.621C174.136 344.105 174.655 344.706 175.131 345.312L174.141 344.038C174.79 344.873 175.326 345.78 175.74 346.754L175.103 345.251C175.511 346.231 175.779 347.255 175.919 348.301L175.695 346.626C175.863 347.917 175.835 349.213 175.662 350.499L175.885 348.824C175.611 350.76 175.03 352.636 174.27 354.433L174.907 352.931C173.509 356.197 171.564 359.202 169.389 362.007L170.379 360.733C167.125 364.912 163.34 368.679 159.304 372.107C158.08 373.148 156.833 374.155 155.564 375.129L156.844 374.144C151.88 377.956 146.563 381.345 140.951 384.138C139.43 384.895 137.887 385.607 136.322 386.264L137.831 385.63C133.7 387.355 129.39 388.751 124.94 389.364L126.622 389.141C124.878 389.375 123.112 389.48 121.351 389.386C119.785 389.302 117.968 390.148 116.878 391.228C115.788 392.307 114.933 394.099 115 395.669C115.162 399.23 117.778 401.773 121.323 401.962H121.328Z" fill="#E84D59"/>
        </g>
        <rect x="71" y="88" width="22" height="44" rx="11" fill="#5A402A"/>
        <rect x="124" y="87" width="22" height="44" rx="11" fill="#5A402A"/>
        <rect x="177" y="87" width="22" height="44" rx="11" fill="#5A402A"/>
        <rect x="230" y="87" width="22" height="44" rx="11" fill="#5A402A"/>
        <rect x="283" y="87" width="22" height="44" rx="11" fill="#5A402A"/>
        <path d="M160.088 51.4398C161.86 56.1467 163.687 61.9316 168.681 64.1566C170.064 64.7713 171.492 65.1246 173.012 64.9594C174.386 64.8126 175.654 64.4502 176.881 63.8125C179.065 62.6794 180.818 60.7618 182.114 58.6974C184.467 54.931 185.946 49.6919 183.977 45.4714C182.837 43.0308 180.099 41.2141 177.384 42.1912C174.537 43.2189 173.379 46.2054 173.324 49.0359C173.232 53.7474 175.214 58.9222 179.298 61.5233C184.622 64.9181 191.197 62.3583 195.399 58.3854C197.542 56.3577 199.227 53.8621 200.302 51.1141C201.282 48.6047 201.726 45.4438 200.316 43.0078C199.515 41.627 198.128 40.4709 196.548 40.1314C194.561 39.7002 192.721 40.3654 191.174 41.6132C188.267 43.9483 187.378 48.1918 187.502 51.7426C187.621 55.1695 188.775 58.7983 191.819 60.6976C194.548 62.4041 197.968 62.2344 200.829 60.982C202.17 60.3948 203.37 59.4819 204.537 58.6102C205.503 57.89 206.451 57.1376 207.316 56.3027C208.822 54.8484 210.058 53.1418 211.363 51.5132C212.366 50.2608 213.391 49.0313 214.444 47.8248C215.113 47.0587 215.255 45.8154 214.444 45.0722C213.712 44.3979 212.412 44.2511 211.697 45.0722C209.99 47.0311 208.392 49.0726 206.762 51.1003C205.654 52.4766 204.464 53.7474 203.086 54.8576C202.985 54.9401 202.884 55.0181 202.779 55.1007C202.82 55.0686 203.127 54.8346 202.852 55.0457C202.624 55.22 202.39 55.3943 202.157 55.5641C201.571 55.9907 200.975 56.4082 200.371 56.8073C200.138 56.9587 199.904 57.1055 199.662 57.2385C199.52 57.3165 199.373 57.3945 199.227 57.4633C199.162 57.4954 198.668 57.6973 199.103 57.5275C198.467 57.7753 197.826 57.9496 197.153 58.0597C197.665 57.9771 197.166 58.0505 197.07 58.0597C196.919 58.0689 196.773 58.0781 196.622 58.0826C196.374 58.0872 196.132 58.0826 195.885 58.0643C195.743 58.0551 195.34 58.1102 195.825 58.0643C195.701 58.0735 195.523 58.0138 195.399 57.9863C195.074 57.9175 194.763 57.812 194.442 57.7065C193.994 57.5597 194.804 57.9037 194.388 57.6835C194.264 57.6193 194.136 57.5597 194.012 57.4908C193.806 57.3762 193.618 57.2431 193.422 57.1147C193.834 57.3899 193.458 57.1376 193.376 57.0688C193.27 56.977 193.165 56.8761 193.069 56.7752C192.973 56.6742 192.877 56.5641 192.781 56.4586C192.648 56.2935 192.657 56.3118 192.817 56.5137C192.758 56.4357 192.703 56.3531 192.648 56.2751C192.483 56.0228 192.341 55.7613 192.208 55.4907C192.222 55.5182 191.97 54.9814 192.08 55.2246C192.19 55.4677 191.966 54.9126 191.975 54.9401C191.847 54.5869 191.741 54.2245 191.654 53.8575C191.609 53.6694 191.572 53.4813 191.535 53.2932C191.512 53.1647 191.49 53.0363 191.471 52.9124C191.494 53.1097 191.49 53.0868 191.462 52.8482C191.389 52.1188 191.361 51.3939 191.384 50.6599C191.398 50.2562 191.435 49.8617 191.471 49.458C191.526 48.8157 191.398 49.8158 191.508 49.1827C191.549 48.9304 191.595 48.6735 191.65 48.4258C191.732 48.0542 191.833 47.6826 191.952 47.3202C192.011 47.1412 192.076 46.9623 192.144 46.788C192.35 46.2329 192.053 46.9669 192.204 46.655C192.355 46.343 192.501 46.0586 192.675 45.7741C192.767 45.6227 192.868 45.4759 192.968 45.3291C193.101 45.1456 193.106 45.1411 192.982 45.3062C193.055 45.219 193.133 45.1319 193.211 45.0493C193.339 44.9117 193.476 44.7924 193.609 44.6594C194.017 44.2511 193.399 44.7649 193.847 44.4575C194.003 44.352 194.159 44.2511 194.319 44.1639C194.378 44.1318 194.891 43.9299 194.479 44.0721C194.635 44.0171 195.381 43.8703 194.877 43.9208C195.024 43.907 195.175 43.8978 195.321 43.8978C195.418 43.8978 195.514 43.9024 195.61 43.9116C195.331 43.8703 195.299 43.8657 195.514 43.9116C195.647 43.9529 195.784 43.9896 195.921 44.0263C196.352 44.1455 195.592 43.8107 195.967 44.0492C196.081 44.1226 196.205 44.196 196.324 44.2648C196.713 44.4896 196.054 43.9804 196.374 44.3015C196.539 44.4713 196.704 44.6318 196.86 44.8107C196.539 44.4346 196.832 44.7924 196.887 44.8796C196.988 45.0401 197.07 45.2099 197.157 45.3842C196.933 44.9438 197.134 45.3475 197.166 45.453C197.208 45.5906 197.235 45.7328 197.276 45.8705C197.409 46.3246 197.276 45.453 197.29 45.9255C197.29 46.0632 197.304 46.2008 197.308 46.3384C197.313 46.5403 197.313 46.7421 197.308 46.9486C197.304 47.0724 197.295 47.1963 197.285 47.3202C197.281 47.4027 197.272 47.4853 197.263 47.5725C197.235 47.7881 197.244 47.7422 197.285 47.4348C197.208 47.4853 197.166 48.0955 197.144 48.2056C197.084 48.4671 197.015 48.7285 196.942 48.9855C196.878 49.2057 196.805 49.4259 196.732 49.6415C196.686 49.7745 196.635 49.9076 196.585 50.036C196.553 50.1232 196.516 50.2103 196.48 50.3021C196.585 50.0589 196.594 50.036 196.507 50.2333C196.004 51.3251 195.418 52.3665 194.717 53.3437C194.626 53.4675 194.534 53.5914 194.442 53.7153C194.722 53.3391 194.41 53.7565 194.365 53.8116C194.168 54.0547 193.966 54.2933 193.756 54.5273C193.335 54.9998 192.89 55.4494 192.424 55.876C192.19 56.0916 191.952 56.2981 191.705 56.4999C191.654 56.5412 191.233 56.8715 191.604 56.5871C191.48 56.6834 191.352 56.7752 191.224 56.8715C190.711 57.2385 190.18 57.5826 189.631 57.89C189.356 58.0414 189.077 58.1882 188.798 58.3212C188.656 58.39 188.514 58.4542 188.372 58.5185C188.807 58.3212 188.331 58.5322 188.262 58.5597C187.685 58.7845 187.09 58.968 186.486 59.1057C186.335 59.1378 186.184 59.1699 186.032 59.202C185.932 59.2204 185.446 59.2479 185.932 59.2249C185.62 59.2387 185.314 59.2617 185.002 59.2617C184.709 59.2617 184.412 59.2479 184.119 59.2204L183.977 59.2066C183.757 59.1791 183.789 59.1837 184.073 59.2204C183.986 59.2387 183.753 59.1653 183.666 59.147C183.4 59.0919 183.139 59.0277 182.883 58.9543C182.768 58.9176 182.191 58.8029 182.146 58.6974L182.375 58.7937C182.297 58.7616 182.219 58.7249 182.146 58.6882C182.031 58.6332 181.921 58.5781 181.807 58.5185C181.569 58.39 181.335 58.2524 181.111 58.101C181.024 58.0459 180.942 57.9817 180.859 57.9267C180.498 57.6835 181.193 58.2157 180.859 57.9313C180.672 57.7707 180.484 57.6147 180.31 57.445C180.136 57.2752 179.962 57.1009 179.802 56.9174C179.719 56.8256 179.641 56.7339 179.564 56.6376C179.216 56.2201 179.683 56.8256 179.49 56.5504C179.234 56.1788 178.982 55.8072 178.758 55.4173C178.639 55.2016 178.52 54.986 178.415 54.7612C178.36 54.6511 178.309 54.541 178.259 54.4263C178.03 53.9217 178.337 54.6465 178.213 54.3254C177.865 53.4125 177.581 52.4858 177.403 51.5224C177.366 51.3297 177.334 51.1324 177.307 50.9352C177.238 50.5085 177.357 51.4169 177.316 50.9856C177.307 50.871 177.288 50.7563 177.279 50.6416C177.233 50.1599 177.215 49.6736 177.22 49.1873C177.22 49.0084 177.229 48.8295 177.238 48.6506C177.247 48.5175 177.357 47.7927 177.261 48.279C177.32 47.9854 177.375 47.6963 177.462 47.4119C177.485 47.3293 177.531 47.0724 177.6 47.0174C177.485 47.2743 177.476 47.3064 177.563 47.1137C177.6 47.0357 177.636 46.9577 177.677 46.8843C177.737 46.7742 177.801 46.6687 177.865 46.5632C177.897 46.5127 178.14 46.2191 177.92 46.4669C177.7 46.7146 178.154 46.2329 178.227 46.1549C178.515 45.8521 178.176 46.1274 178.167 46.1824C178.167 46.1411 178.396 46.031 178.433 46.0081C178.451 45.9989 178.698 45.8521 178.708 45.8659C178.396 45.9898 178.337 46.0173 178.524 45.9485C178.588 45.9255 178.653 45.9072 178.717 45.8888C178.749 45.8797 179.001 45.843 179.01 45.8246C178.932 45.9898 178.483 45.8338 178.886 45.8567C178.95 45.8567 179.023 45.8567 179.083 45.8567C179.518 45.8475 178.978 45.9485 178.964 45.8338C178.964 45.8338 179.239 45.9026 179.261 45.9072C179.66 45.9943 179.248 45.8384 179.188 45.8567C179.234 45.843 179.435 45.9806 179.477 46.0035C179.541 46.0402 179.605 46.0769 179.664 46.1182C179.829 46.2329 179.793 46.2008 179.55 46.0173C179.651 46.187 179.93 46.3751 180.076 46.5219C180.369 46.8155 179.925 46.2512 180.058 46.4852C180.113 46.5816 180.191 46.6733 180.25 46.7696C180.411 47.0174 180.539 47.2835 180.667 47.5495C180.461 47.1229 180.685 47.6092 180.708 47.6826C180.745 47.7881 180.781 47.8982 180.813 48.0037C180.864 48.1734 180.905 48.3478 180.942 48.5221C180.96 48.6139 180.974 48.7056 180.992 48.7928C181.033 48.9992 180.896 48.8708 180.96 48.5542C180.928 48.7194 181.001 48.9671 181.01 49.1368C181.024 49.3754 181.024 49.6139 181.019 49.8525C181.01 50.1782 181.074 50.7471 180.932 51.0407C181.111 50.6645 180.978 50.7196 180.937 50.9719C180.919 51.0866 180.9 51.1967 180.878 51.3114C180.827 51.582 180.772 51.8481 180.708 52.1142C180.603 52.5684 180.475 53.0134 180.328 53.4584C180.26 53.674 180.182 53.8896 180.104 54.1052C180.058 54.2245 180.017 54.3392 179.971 54.4539C179.765 54.9677 180.067 54.2566 179.925 54.5685C179.504 55.4998 179.028 56.399 178.456 57.2431C178.373 57.3624 178.144 57.8257 178.012 57.8624L178.163 57.6698C178.112 57.734 178.057 57.8028 178.007 57.867C177.929 57.9634 177.847 58.0597 177.764 58.156C177.439 58.5368 177.091 58.8946 176.725 59.2341C176.542 59.3993 176.354 59.5598 176.162 59.7158C175.828 59.9957 176.524 59.4635 176.162 59.7112C176.061 59.78 175.965 59.8535 175.865 59.9223C175.462 60.1929 175.04 60.4361 174.606 60.6379L174.496 60.6884C174.303 60.771 174.349 60.7526 174.628 60.6333C174.555 60.6242 174.363 60.7343 174.29 60.7618C174.061 60.8398 173.827 60.9132 173.594 60.9728C173.379 61.0279 173.15 61.0508 172.935 61.1105C172.664 61.1839 173.447 61.0646 173.022 61.0967C172.857 61.1104 172.687 61.1288 172.523 61.1334C172.266 61.1426 172.01 61.1334 171.753 61.1334C171.314 61.1334 172.184 61.2573 171.712 61.1242C171.57 61.0829 171.419 61.0554 171.277 61.0187C170.998 60.9407 170.723 60.8398 170.449 60.7434C170.504 60.7618 170.833 60.9224 170.522 60.771C170.352 60.6884 170.183 60.6104 170.018 60.5187C169.776 60.3856 169.538 60.2388 169.309 60.0828C169.194 60.0048 169.084 59.9223 168.974 59.8397C169.387 60.1471 169.016 59.8626 168.938 59.7984C168.517 59.4406 168.132 59.0414 167.775 58.6194C167.683 58.5139 167.596 58.4038 167.509 58.2983C167.835 58.6928 167.532 58.3258 167.477 58.2478C167.313 58.0184 167.152 57.789 167.001 57.5505C166.695 57.0734 166.415 56.5825 166.154 56.0779C165.893 55.5732 165.651 55.064 165.422 54.541C165.367 54.4126 165.312 54.2841 165.252 54.1557C165.458 54.6374 165.271 54.197 165.234 54.1052C165.129 53.8483 165.028 53.5914 164.927 53.3345C164.552 52.3757 164.209 51.4031 163.842 50.4397C163.476 49.4763 162.515 48.7331 161.453 49.0818C160.528 49.38 159.713 50.4581 160.098 51.4765L160.088 51.4398Z" fill="#E84D59"/>
        <g clip-path="url(#clip3_1839_38550)">
            <path d="M42.4167 63L32 53L42.4167 43L44.2656 44.775L35.6979 53L44.2656 61.225L42.4167 63Z" fill="#767676"/>
        </g>
        <path fill-rule="evenodd" clip-rule="evenodd" d="M375 0H0V667H375V0ZM130 539C117.297 539 107 549.297 107 562V578C107 590.703 117.297 601 130 601H246C258.703 601 269 590.703 269 578V562C269 549.297 258.703 539 246 539H130Z" fill="#050505" fill-opacity="0.5"/>
        <path d="M188 550.333C190.946 550.333 193.333 547.946 193.333 545C193.333 542.054 190.946 539.667 188 539.667C185.054 539.667 182.667 542.054 182.667 545C182.667 547.946 185.054 550.333 188 550.333ZM189 476C189 475.448 188.552 475 188 475C187.448 475 187 475.448 187 476L189 476ZM189 545L189 476L187 476L187 545L189 545Z" fill="#FFCC00"/>
        <path d="M74.6922 421.852V422.332C74.6922 424.048 75.9162 425.224 77.5122 425.776C77.8002 425.872 77.9202 426.1 77.9202 426.328C77.9202 426.7 77.5842 427.06 77.0802 426.892C75.8202 426.472 74.6802 425.584 73.9962 424.48C73.3002 425.584 72.1602 426.472 70.9122 426.892C70.4082 427.06 70.0722 426.7 70.0722 426.328C70.0722 426.1 70.1922 425.872 70.4802 425.776C72.0762 425.224 73.3002 424.048 73.3002 422.332V421.852C73.3002 421.408 73.6482 421.18 73.9962 421.18C74.3442 421.18 74.6922 421.408 74.6922 421.852ZM69.8922 428.716H78.0882C78.4842 428.716 78.6762 429.004 78.6762 429.292C78.6762 429.592 78.4842 429.88 78.0882 429.88H69.8922C69.5082 429.88 69.3162 429.592 69.3162 429.292C69.3162 429.004 69.5082 428.716 69.8922 428.716ZM87.1519 426.904H80.7559C80.3719 426.904 80.1799 426.616 80.1799 426.328C80.1799 426.028 80.3719 425.752 80.7559 425.752H81.5479V422.56H80.8159C80.4319 422.56 80.2399 422.284 80.2399 421.996C80.2399 421.696 80.4319 421.42 80.8159 421.42H87.0919C87.4879 421.42 87.6799 421.696 87.6799 421.996C87.6799 422.284 87.4879 422.56 87.0919 422.56H86.3719V425.752H87.1519C87.5479 425.752 87.7399 426.028 87.7399 426.328C87.7399 426.616 87.5479 426.904 87.1519 426.904ZM79.8559 428.716H88.0519C88.4479 428.716 88.6399 429.004 88.6399 429.292C88.6399 429.592 88.4479 429.88 88.0519 429.88H79.8559C79.4719 429.88 79.2799 429.592 79.2799 429.292C79.2799 429.004 79.4719 428.716 79.8559 428.716ZM82.8799 422.56V425.752H85.0399V422.56H82.8799ZM98.4117 421.432V426.22C98.4117 426.664 98.0757 426.892 97.7397 426.892C97.4037 426.892 97.0677 426.664 97.0677 426.22V421.432C97.0677 420.988 97.4037 420.76 97.7397 420.76C98.0757 420.76 98.4117 420.988 98.4117 421.432ZM90.6717 421H93.7797C94.8357 421 95.3637 421.792 95.3637 422.608C95.3637 423.424 94.8357 424.204 93.7797 424.204H91.6797C91.3557 424.204 91.1877 424.456 91.1877 424.732C91.1877 425.008 91.3557 425.248 91.6797 425.248H95.3637C95.7357 425.248 95.9157 425.536 95.9157 425.824C95.9157 426.112 95.7357 426.388 95.3637 426.388H91.4637C90.4077 426.388 89.8797 425.596 89.8797 424.756C89.8797 423.916 90.4077 423.112 91.4637 423.112H93.5877C93.9117 423.112 94.0677 422.884 94.0677 422.62C94.0677 422.356 93.9117 422.128 93.5877 422.128H90.6717C90.2997 422.128 90.1077 421.852 90.1077 421.564C90.1077 421.288 90.2997 421 90.6717 421ZM92.3157 429.412C92.3157 427.816 93.6117 426.772 95.3157 426.772C97.0317 426.772 98.3397 427.816 98.3397 429.412C98.3397 430.996 97.0317 432.04 95.3157 432.04C93.6117 432.04 92.3157 430.996 92.3157 429.412ZM93.6357 429.412C93.6357 430.348 94.3437 430.888 95.3157 430.888C96.2877 430.888 96.9957 430.348 96.9957 429.412C96.9957 428.488 96.2877 427.924 95.3157 427.924C94.3437 427.924 93.6357 428.488 93.6357 429.412ZM109.09 421.432V430.84C109.09 431.284 108.754 431.512 108.418 431.512C108.082 431.512 107.746 431.284 107.746 430.84V421.432C107.746 420.988 108.082 420.76 108.418 420.76C108.754 420.76 109.09 420.988 109.09 421.432ZM100.306 424.636C100.306 422.788 101.674 421.6 103.354 421.6C105.046 421.6 106.414 422.788 106.414 424.636C106.414 426.484 105.046 427.66 103.354 427.66C101.674 427.66 100.306 426.484 100.306 424.636ZM101.638 424.636C101.638 425.812 102.43 426.508 103.354 426.508C104.278 426.508 105.07 425.812 105.07 424.636C105.07 423.448 104.278 422.752 103.354 422.752C102.43 422.752 101.638 423.448 101.638 424.636ZM114.655 424.636C114.655 422.788 116.023 421.6 117.703 421.6C118.699 421.6 119.587 422.02 120.151 422.74H122.143V421.432C122.143 420.988 122.479 420.76 122.815 420.76C123.151 420.76 123.487 420.988 123.487 421.432V430.84C123.487 431.284 123.151 431.512 122.815 431.512C122.479 431.512 122.143 431.284 122.143 430.84V426.484H120.175C119.623 427.228 118.723 427.66 117.703 427.66C116.023 427.66 114.655 426.484 114.655 424.636ZM115.987 424.636C115.987 425.812 116.779 426.508 117.703 426.508C118.627 426.508 119.419 425.812 119.419 424.636C119.419 423.448 118.627 422.752 117.703 422.752C116.779 422.752 115.987 423.448 115.987 424.636ZM120.763 424.636C120.763 424.9 120.727 425.14 120.679 425.368H122.143V423.856H120.667C120.727 424.108 120.763 424.36 120.763 424.636ZM130.757 428.5H127.445C126.197 428.5 125.573 427.492 125.573 426.472C125.573 425.452 126.197 424.432 127.445 424.432H128.741C129.245 424.432 129.509 423.988 129.509 423.532C129.509 423.064 129.245 422.62 128.741 422.62H126.425C126.053 422.62 125.861 422.344 125.861 422.056C125.861 421.768 126.053 421.48 126.425 421.48H128.945C130.193 421.48 130.817 422.5 130.817 423.508C130.817 424.528 130.193 425.536 128.945 425.536H127.649C127.145 425.536 126.881 425.98 126.881 426.448C126.881 426.904 127.145 427.348 127.649 427.348H130.757C131.117 427.348 131.309 427.636 131.309 427.924C131.309 428.212 131.117 428.5 130.757 428.5ZM134.165 421.432V430.84C134.165 431.284 133.829 431.512 133.493 431.512C133.157 431.512 132.821 431.284 132.821 430.84V425.416H131.393C131.009 425.416 130.817 425.128 130.817 424.84C130.817 424.552 131.009 424.264 131.393 424.264H132.821V421.432C132.821 420.988 133.157 420.76 133.493 420.76C133.829 420.76 134.165 420.988 134.165 421.432ZM143.668 421.492V424.396C143.668 425.2 143.284 425.632 142.42 425.632H138.292C137.428 425.632 137.044 425.2 137.044 424.396V421.492C137.044 421.048 137.368 420.82 137.704 420.82C138.028 420.82 138.364 421.048 138.364 421.492V422.332H142.348V421.492C142.348 421.048 142.672 420.82 143.008 420.82C143.332 420.82 143.668 421.048 143.668 421.492ZM139.924 427.456H136.264C135.868 427.456 135.676 427.192 135.676 426.892C135.676 426.58 135.868 426.316 136.264 426.316H144.436C144.832 426.316 145.036 426.58 145.036 426.892C145.036 427.192 144.832 427.456 144.436 427.456H141.292V428.992C141.292 429.448 140.944 429.676 140.608 429.676C140.26 429.676 139.924 429.448 139.924 428.992V427.456ZM136.96 429.976V428.896C136.96 428.428 137.284 428.2 137.656 428.2C137.992 428.2 138.352 428.428 138.352 428.896V429.94C138.352 430.408 138.592 430.6 138.94 430.6H143.44C143.824 430.6 144.016 430.888 144.016 431.176C144.016 431.464 143.824 431.752 143.44 431.752H138.664C137.644 431.752 136.96 431.116 136.96 429.976ZM138.364 424.504H142.348V423.448H138.364V424.504ZM146.527 424.012C146.527 422.428 147.631 421.18 149.467 421.18C151.291 421.18 152.407 422.428 152.407 424.012C152.407 425.584 151.303 426.832 149.467 426.832C147.631 426.832 146.527 425.584 146.527 424.012ZM153.535 429.64H146.455C146.071 429.64 145.879 429.352 145.879 429.052C145.879 428.764 146.071 428.476 146.455 428.476H153.535V421.432C153.535 420.988 153.871 420.76 154.207 420.76C154.543 420.76 154.879 420.988 154.879 421.432V430.852C154.879 431.296 154.543 431.524 154.207 431.524C153.871 431.524 153.535 431.296 153.535 430.852V429.64ZM147.859 424.012C147.859 424.936 148.435 425.68 149.467 425.68C150.511 425.68 151.075 424.936 151.075 424.012C151.075 423.1 150.511 422.332 149.467 422.332C148.435 422.332 147.859 423.1 147.859 424.012ZM160.48 423.748C160.48 422.008 161.8 420.88 163.42 420.88C164.416 420.88 165.292 421.3 165.82 422.02H167.86V421.432C167.86 420.988 168.196 420.76 168.532 420.76C168.868 420.76 169.204 420.988 169.204 421.432V427.852C169.204 428.296 168.868 428.524 168.532 428.524C168.196 428.524 167.86 428.296 167.86 427.852V425.464H165.832C165.292 426.184 164.416 426.604 163.42 426.604C161.8 426.604 160.48 425.488 160.48 423.748ZM162.364 429.988V428.2C162.364 427.732 162.688 427.504 163.06 427.504C163.396 427.504 163.756 427.732 163.756 428.2V429.952C163.756 430.42 163.996 430.612 164.344 430.612H168.808C169.192 430.612 169.384 430.9 169.384 431.188C169.384 431.476 169.192 431.764 168.808 431.764H164.068C163.048 431.764 162.364 431.128 162.364 429.988ZM161.788 423.748C161.788 424.828 162.544 425.464 163.42 425.464C164.296 425.464 165.052 424.828 165.052 423.748C165.052 422.656 164.296 422.02 163.42 422.02C162.544 422.02 161.788 422.656 161.788 423.748ZM166.372 423.748C166.372 423.964 166.348 424.156 166.312 424.348H167.86V423.136H166.312C166.348 423.328 166.372 423.532 166.372 423.748ZM179.882 421.432V425.536C179.882 425.98 179.546 426.208 179.21 426.208C178.874 426.208 178.538 425.98 178.538 425.536V425.116H176.966C176.606 425.116 176.426 424.84 176.426 424.576C176.426 424.3 176.606 424.024 176.966 424.024H178.538V423.016H176.714C176.606 424.456 174.782 425.704 171.902 426.328C171.434 426.424 171.17 426.1 171.17 425.764C171.17 425.512 171.314 425.26 171.626 425.2C173.57 424.792 175.394 423.892 175.394 422.944V422.716C175.394 422.344 175.25 422.164 174.914 422.164H172.034C171.614 422.164 171.434 421.888 171.434 421.564C171.434 421.288 171.614 421 172.034 421H175.178C175.958 421 176.426 421.336 176.618 421.924H178.538V421.432C178.538 420.988 178.874 420.76 179.21 420.76C179.546 420.76 179.882 420.988 179.882 421.432ZM178.19 429.832H174.674C174.386 429.832 174.254 430.072 174.254 430.312C174.254 430.528 174.386 430.768 174.674 430.768H179.498C179.882 430.768 180.074 431.056 180.074 431.344C180.074 431.632 179.882 431.92 179.498 431.92H174.65C173.498 431.92 172.934 431.176 172.934 430.336C172.934 429.46 173.498 428.728 174.65 428.728H178.154C178.43 428.728 178.562 428.5 178.562 428.284C178.562 428.056 178.43 427.828 178.154 427.828H173.738C173.366 427.828 173.174 427.54 173.174 427.264C173.174 426.976 173.366 426.688 173.738 426.688H178.19C179.33 426.688 179.882 427.408 179.882 428.272C179.882 429.1 179.33 429.832 178.19 429.832ZM185.881 428.716H190.165C190.561 428.716 190.753 429.004 190.753 429.292C190.753 429.592 190.561 429.88 190.165 429.88H181.969C181.585 429.88 181.393 429.592 181.393 429.292C181.393 429.004 181.585 428.716 181.969 428.716H184.513V425.62C184.513 425.176 184.849 424.948 185.185 424.948C185.533 424.948 185.881 425.176 185.881 425.62V428.716ZM188.149 423.268C188.149 422.8 187.897 422.596 187.561 422.596H183.133C182.713 422.596 182.533 422.32 182.533 421.996C182.533 421.72 182.713 421.432 183.133 421.432H187.705C188.725 421.432 189.493 422.104 189.493 423.232C189.493 424.756 189.313 426.136 188.989 427.396C188.905 427.732 188.617 427.888 188.341 427.888C187.957 427.888 187.597 427.6 187.705 427.096C187.969 425.896 188.149 424.624 188.149 423.268ZM200.525 421.432V430.84C200.525 431.284 200.189 431.512 199.853 431.512C199.517 431.512 199.181 431.284 199.181 430.84V421.432C199.181 420.988 199.517 420.76 199.853 420.76C200.189 420.76 200.525 420.988 200.525 421.432ZM197.549 428.5H193.853C192.605 428.5 191.981 427.492 191.981 426.472C191.981 425.452 192.605 424.432 193.853 424.432H195.593C196.097 424.432 196.361 423.988 196.361 423.532C196.361 423.064 196.097 422.62 195.593 422.62H192.833C192.461 422.62 192.269 422.344 192.269 422.056C192.269 421.768 192.461 421.48 192.833 421.48H195.797C197.045 421.48 197.669 422.5 197.669 423.508C197.669 424.528 197.045 425.536 195.797 425.536H194.057C193.553 425.536 193.289 425.98 193.289 426.448C193.289 426.904 193.553 427.348 194.057 427.348H197.549C197.909 427.348 198.101 427.636 198.101 427.924C198.101 428.212 197.909 428.5 197.549 428.5ZM210.519 425.668V430.852C210.519 431.296 210.183 431.524 209.847 431.524C209.511 431.524 209.175 431.296 209.175 430.852V421.432C209.175 420.988 209.511 420.76 209.847 420.76C210.183 420.76 210.519 420.988 210.519 421.432V424.516H211.779C212.163 424.516 212.355 424.804 212.355 425.092C212.355 425.38 212.163 425.668 211.779 425.668H210.519ZM207.663 423.268V423.928C207.663 425.908 205.695 427.72 202.995 428.524C202.551 428.656 202.251 428.296 202.251 427.936C202.251 427.708 202.371 427.48 202.635 427.396C204.591 426.748 206.331 425.5 206.331 423.928V423.256C206.331 422.848 206.067 422.644 205.731 422.644H203.115C202.695 422.644 202.515 422.368 202.515 422.044C202.515 421.768 202.695 421.48 203.115 421.48H205.875C206.895 421.48 207.663 422.128 207.663 423.268ZM224.327 429.64H217.247C216.863 429.64 216.671 429.352 216.671 429.052C216.671 428.764 216.863 428.476 217.247 428.476H219.575V426.652H219.203C218.183 426.652 217.499 426.016 217.499 424.876V422.68C217.499 421.876 217.883 421.444 218.747 421.444H222.383C222.779 421.444 222.971 421.732 222.971 422.008C222.971 422.308 222.779 422.596 222.383 422.596H219.215C218.963 422.596 218.831 422.716 218.831 422.968V424.84C218.831 425.308 219.083 425.512 219.419 425.512H222.443C222.827 425.512 223.019 425.8 223.019 426.076C223.019 426.364 222.827 426.652 222.443 426.652H220.943V428.476H224.327V421.432C224.327 420.988 224.663 420.76 224.999 420.76C225.335 420.76 225.671 420.988 225.671 421.432V430.852C225.671 431.296 225.335 431.524 224.999 431.524C224.663 431.524 224.327 431.296 224.327 430.852V429.64ZM227.554 423.616C227.554 421.948 228.838 420.88 230.41 420.88C231.79 420.88 232.942 421.696 233.218 423.016H234.934V421.432C234.934 420.988 235.27 420.76 235.606 420.76C235.942 420.76 236.278 420.988 236.278 421.432V426.064C236.278 426.508 235.942 426.736 235.606 426.736C235.27 426.736 234.934 426.508 234.934 426.064V424.168H233.218C232.966 425.512 231.802 426.328 230.41 426.328C228.838 426.328 227.554 425.272 227.554 423.616ZM232.666 430.708C233.422 430.18 233.842 429.184 233.842 428.236V427.768C233.842 427.324 234.178 427.096 234.514 427.096C234.85 427.096 235.186 427.324 235.186 427.768V428.224C235.21 429.304 235.774 430.132 236.914 430.78C237.13 430.9 237.226 431.092 237.226 431.284C237.226 431.584 236.986 431.872 236.65 431.872C236.542 431.872 236.422 431.848 236.29 431.776C235.606 431.392 234.982 430.864 234.538 430.216C234.13 430.924 233.602 431.536 233.134 431.812C232.966 431.908 232.81 431.956 232.666 431.956C232.522 431.956 232.366 431.908 232.198 431.812C231.73 431.536 231.19 430.924 230.794 430.216C230.35 430.864 229.726 431.392 229.042 431.776C228.91 431.848 228.79 431.872 228.682 431.872C228.346 431.872 228.106 431.584 228.106 431.284C228.106 431.092 228.202 430.9 228.418 430.78C229.558 430.132 230.122 429.304 230.146 428.224V427.768C230.146 427.324 230.482 427.096 230.818 427.096C231.154 427.096 231.49 427.324 231.49 427.768V428.236C231.49 429.184 231.91 430.18 232.666 430.708ZM228.85 423.616C228.85 424.612 229.582 425.212 230.41 425.212C231.238 425.212 231.97 424.612 231.97 423.616C231.97 422.608 231.238 422.008 230.41 422.008C229.582 422.008 228.85 422.608 228.85 423.616ZM239.157 424.288C239.157 422.524 240.549 421.18 242.457 421.18C244.365 421.18 245.781 422.524 245.781 424.288C245.781 426.04 244.377 427.384 242.457 427.384C240.549 427.384 239.157 426.04 239.157 424.288ZM240.489 424.288C240.489 425.428 241.353 426.232 242.457 426.232C243.585 426.232 244.449 425.428 244.449 424.288C244.449 423.16 243.585 422.332 242.457 422.332C241.353 422.332 240.489 423.16 240.489 424.288ZM238.365 428.716H246.561C246.957 428.716 247.149 429.004 247.149 429.292C247.149 429.592 246.957 429.88 246.561 429.88H238.365C237.981 429.88 237.789 429.592 237.789 429.292C237.789 429.004 237.981 428.716 238.365 428.716ZM256.92 421.432V427.852C256.92 428.296 256.584 428.524 256.248 428.524C255.912 428.524 255.576 428.296 255.576 427.852V425.548H253.704C253.68 426.316 253.296 426.724 252.456 426.724H249.672C248.808 426.724 248.424 426.292 248.424 425.488V422.236C248.424 421.432 248.808 421 249.672 421H252.456C253.248 421 253.632 421.372 253.692 422.044H255.576V421.432C255.576 420.988 255.912 420.76 256.248 420.76C256.584 420.76 256.92 420.988 256.92 421.432ZM250.08 429.988V428.32C250.08 427.852 250.404 427.624 250.776 427.624C251.112 427.624 251.472 427.852 251.472 428.32V429.952C251.472 430.42 251.712 430.612 252.06 430.612H256.524C256.908 430.612 257.1 430.9 257.1 431.188C257.1 431.476 256.908 431.764 256.524 431.764H251.784C250.764 431.764 250.08 431.128 250.08 429.988ZM249.756 422.152V425.584H252.384V422.152H249.756ZM253.704 423.196V424.396H255.576V423.196H253.704ZM267.561 427.384H269.637C270.021 427.384 270.213 427.624 270.213 427.912C270.213 428.212 270.021 428.464 269.637 428.464H268.989C269.277 428.8 269.445 429.22 269.445 429.712C269.445 431.128 268.365 432.028 266.877 432.028C265.401 432.028 264.321 431.128 264.321 429.712C264.321 429.22 264.489 428.8 264.765 428.464H264.009C263.625 428.464 263.433 428.212 263.433 427.912C263.433 427.624 263.625 427.384 264.009 427.384H266.193V427.024C266.193 426.556 266.541 426.34 266.877 426.34C267.225 426.34 267.561 426.556 267.561 427.024V427.384ZM266.037 422.104H263.925C263.565 422.104 263.373 421.828 263.373 421.54C263.373 421.264 263.565 420.952 263.925 420.952H269.721C270.093 420.952 270.285 421.264 270.285 421.54C270.285 421.828 270.093 422.104 269.721 422.104H267.621C267.957 422.668 268.965 423.052 270.153 423.376C270.477 423.472 270.633 423.664 270.633 423.904C270.633 424.228 270.345 424.564 269.853 424.42C268.653 424.084 267.525 423.58 266.841 422.932C266.157 423.592 265.029 424.084 263.805 424.42C263.313 424.552 263.025 424.228 263.025 423.904C263.025 423.664 263.181 423.46 263.505 423.376C264.681 423.052 265.701 422.668 266.037 422.104ZM267.525 425.044H270.921C271.317 425.044 271.509 425.308 271.509 425.596C271.509 425.896 271.317 426.16 270.921 426.16H262.725C262.341 426.16 262.149 425.896 262.149 425.596C262.149 425.308 262.341 425.044 262.725 425.044H266.133V424.42C266.133 423.94 266.469 423.724 266.829 423.724C267.165 423.724 267.525 423.94 267.525 424.42V425.044ZM265.593 429.652C265.593 430.42 266.181 430.876 266.877 430.876C267.573 430.876 268.173 430.42 268.173 429.652C268.173 428.872 267.573 428.416 266.877 428.416C266.181 428.416 265.593 428.872 265.593 429.652ZM279.36 421.48V425.992C279.36 426.436 279.06 426.664 278.724 426.664C278.388 426.664 278.064 426.436 278.064 425.992V424.168H276.672C276.108 425.188 274.776 426.016 273.18 426.556C272.712 426.712 272.448 426.34 272.448 426.004C272.448 425.752 272.592 425.56 272.904 425.44C274.104 424.996 275.676 424.084 275.676 423.124V422.74C275.676 422.368 275.532 422.188 275.196 422.188H273.252C272.832 422.188 272.652 421.912 272.652 421.588C272.652 421.312 272.832 421.024 273.252 421.024H275.436C276.504 421.024 276.984 421.648 276.984 422.692V423.016H278.064V421.48C278.064 421.036 278.388 420.808 278.724 420.808C279.06 420.808 279.36 421.036 279.36 421.48ZM277.668 430.708C278.424 430.18 278.844 429.184 278.844 428.236V427.768C278.844 427.324 279.18 427.096 279.516 427.096C279.852 427.096 280.188 427.324 280.188 427.768V428.236C280.212 429.316 280.776 430.132 281.916 430.78C282.132 430.9 282.228 431.092 282.228 431.284C282.228 431.584 281.988 431.872 281.652 431.872C281.544 431.872 281.424 431.848 281.292 431.776C280.608 431.392 279.984 430.864 279.54 430.216C279.132 430.924 278.604 431.536 278.136 431.812C277.968 431.908 277.812 431.956 277.668 431.956C277.524 431.956 277.368 431.908 277.2 431.812C276.732 431.536 276.192 430.924 275.796 430.216C275.352 430.864 274.728 431.392 274.044 431.776C273.912 431.848 273.792 431.872 273.684 431.872C273.348 431.872 273.108 431.584 273.108 431.284C273.108 431.092 273.204 430.9 273.42 430.78C274.548 430.132 275.112 429.316 275.148 428.236V427.768C275.148 427.324 275.484 427.096 275.82 427.096C276.156 427.096 276.492 427.324 276.492 427.768V428.236C276.492 429.184 276.912 430.18 277.668 430.708ZM281.556 421.432V426.064C281.556 426.508 281.232 426.736 280.896 426.736C280.56 426.736 280.224 426.508 280.224 426.064V421.432C280.224 420.988 280.56 420.76 280.896 420.76C281.232 420.76 281.556 420.988 281.556 421.432ZM283.127 424.636C283.127 422.788 284.495 421.6 286.175 421.6C287.675 421.6 288.911 422.536 289.175 424.036H290.615V421.432C290.615 420.988 290.951 420.76 291.287 420.76C291.623 420.76 291.959 420.988 291.959 421.432V430.852C291.959 431.296 291.623 431.524 291.287 431.524C290.951 431.524 290.615 431.296 290.615 430.852V425.188H289.187C288.947 426.724 287.687 427.66 286.175 427.66C284.495 427.66 283.127 426.484 283.127 424.636ZM284.459 424.636C284.459 425.812 285.251 426.508 286.175 426.508C287.099 426.508 287.891 425.812 287.891 424.636C287.891 423.448 287.099 422.752 286.175 422.752C285.251 422.752 284.459 423.448 284.459 424.636ZM300.49 428.716H302.242C302.638 428.716 302.83 429.004 302.83 429.292C302.83 429.592 302.638 429.88 302.242 429.88H294.046C293.662 429.88 293.47 429.592 293.47 429.292C293.47 429.004 293.662 428.716 294.046 428.716H295.786V426.448C295.186 425.908 294.838 425.128 294.838 424.252C294.838 422.5 296.23 421.18 298.138 421.18C300.046 421.18 301.462 422.5 301.462 424.252C301.462 425.14 301.09 425.908 300.49 426.46V428.716ZM296.17 424.252C296.17 425.38 297.034 426.16 298.138 426.16C299.266 426.16 300.13 425.38 300.13 424.252C300.13 423.136 299.266 422.332 298.138 422.332C297.034 422.332 296.17 423.136 296.17 424.252ZM298.138 427.312C297.778 427.312 297.442 427.264 297.13 427.18V428.716H299.146V427.18C298.822 427.264 298.486 427.312 298.138 427.312ZM303.673 429.892C303.673 429.412 304.069 429.016 304.561 429.016C305.053 429.016 305.449 429.412 305.449 429.892C305.449 430.372 305.053 430.78 304.561 430.78C304.069 430.78 303.673 430.372 303.673 429.892ZM86.2625 443.188V448.852C86.2625 449.296 85.9265 449.524 85.5905 449.524C85.2545 449.524 84.9185 449.296 84.9185 448.852V439.432C84.9185 438.988 85.2545 438.76 85.5905 438.76C85.9265 438.76 86.2625 438.988 86.2625 439.432V442.036H87.5225C87.9065 442.036 88.0985 442.324 88.0985 442.612C88.0985 442.9 87.9065 443.188 87.5225 443.188H86.2625ZM83.0225 446.26C82.0745 445.588 81.3665 444.7 80.8865 443.704C80.4185 444.76 79.7105 445.708 78.7745 446.38C78.6425 446.476 78.5105 446.524 78.3785 446.524C78.0305 446.524 77.7425 446.188 77.7425 445.864C77.7425 445.684 77.8265 445.516 78.0185 445.384C79.4705 444.4 80.1905 442.9 80.1905 440.788V439.912C80.1905 439.456 80.5385 439.216 80.8865 439.216C81.2345 439.216 81.5825 439.456 81.5825 439.912V440.92C81.5825 443.032 82.3265 444.28 83.7785 445.264C83.9705 445.396 84.0545 445.564 84.0545 445.744C84.0545 446.068 83.7665 446.404 83.4185 446.404C83.2865 446.404 83.1545 446.356 83.0225 446.26ZM90.7131 445.432H89.0451C88.6491 445.432 88.4571 445.168 88.4571 444.868C88.4571 444.556 88.6491 444.292 89.0451 444.292H90.7731V442.516C90.5091 442.132 90.3651 441.676 90.3651 441.184C90.3651 439.804 91.5291 438.7 93.1251 438.7C94.7331 438.7 95.9091 439.804 95.9091 441.184C95.9091 441.688 95.7531 442.156 95.4771 442.552V444.292H97.2171C97.6131 444.292 97.8171 444.556 97.8171 444.868C97.8171 445.168 97.6131 445.432 97.2171 445.432H95.5491C95.9931 445.924 96.2451 446.548 96.2451 447.232C96.2451 448.792 94.9371 450.04 93.1251 450.04C91.3251 450.04 90.0291 448.792 90.0291 447.232C90.0291 446.548 90.2811 445.924 90.7131 445.432ZM91.3731 447.16C91.3731 448.096 92.1411 448.864 93.1251 448.864C94.1091 448.864 94.8771 448.096 94.8771 447.16C94.8771 446.224 94.1091 445.432 93.1251 445.432H93.0531C92.1051 445.468 91.3731 446.248 91.3731 447.16ZM91.6371 441.184C91.6371 441.94 92.2851 442.576 93.1251 442.576C93.9651 442.576 94.6131 441.94 94.6131 441.184C94.6131 440.428 93.9651 439.804 93.1251 439.804C92.2851 439.804 91.6371 440.428 91.6371 441.184ZM93.1251 443.68C92.7651 443.68 92.4171 443.62 92.1171 443.524V444.292H94.1331V443.524C93.8211 443.62 93.4851 443.68 93.1251 443.68ZM98.9129 443.404C98.9129 442.672 99.1529 442.048 99.5729 441.592H98.9969C98.6129 441.592 98.4209 441.316 98.4209 441.028C98.4209 440.728 98.6129 440.44 98.9969 440.44H101.013V439.276C101.013 438.796 101.373 438.58 101.709 438.58C102.069 438.58 102.405 438.796 102.405 439.276V440.44H104.385C104.781 440.44 104.973 440.728 104.973 441.028C104.973 441.316 104.781 441.592 104.385 441.592H103.869C104.277 442.048 104.529 442.672 104.529 443.404C104.529 445.072 103.269 446.116 101.721 446.116C100.173 446.116 98.9129 445.072 98.9129 443.404ZM106.905 443.596V448.852C106.905 449.296 106.569 449.524 106.233 449.524C105.897 449.524 105.561 449.296 105.561 448.852V439.432C105.561 438.988 105.897 438.76 106.233 438.76C106.569 438.76 106.905 438.988 106.905 439.432V442.444H108.165C108.549 442.444 108.741 442.732 108.741 443.02C108.741 443.308 108.549 443.596 108.165 443.596H106.905ZM100.173 443.308C100.173 444.364 100.881 445 101.721 445C102.549 445 103.245 444.364 103.245 443.308C103.245 442.264 102.573 441.628 101.781 441.592H101.721C100.881 441.592 100.173 442.228 100.173 443.308ZM111.775 439.516V441.46C111.775 441.88 112.003 442.072 112.363 442.072H116.611C116.983 442.072 117.163 442.36 117.163 442.648C117.163 442.936 116.983 443.212 116.611 443.212H112.111C111.091 443.212 110.407 442.624 110.407 441.484V439.516C110.407 439.048 110.719 438.82 111.091 438.82C111.427 438.82 111.775 439.048 111.775 439.516ZM117.859 445.456H109.687C109.291 445.456 109.099 445.192 109.099 444.892C109.099 444.58 109.291 444.316 109.687 444.316H117.859C118.255 444.316 118.459 444.58 118.459 444.892C118.459 445.192 118.255 445.456 117.859 445.456ZM110.383 447.976V446.86C110.383 446.392 110.707 446.164 111.079 446.164C111.415 446.164 111.775 446.392 111.775 446.86V447.94C111.775 448.408 112.015 448.6 112.363 448.6H116.863C117.247 448.6 117.439 448.888 117.439 449.176C117.439 449.464 117.247 449.752 116.863 449.752H112.087C111.067 449.752 110.383 449.116 110.383 447.976ZM125.421 440.464V441.292C125.421 441.712 125.649 441.904 126.009 441.904H130.293C130.665 441.904 130.845 442.192 130.845 442.48C130.845 442.768 130.665 443.044 130.293 443.044H128.145V444.148H131.553C131.949 444.148 132.141 444.412 132.141 444.712C132.141 445 131.949 445.264 131.553 445.264H129.825C130.353 445.768 130.653 446.452 130.653 447.208C130.653 448.744 129.297 450.04 127.449 450.04C125.613 450.04 124.269 448.744 124.269 447.208C124.269 446.452 124.569 445.768 125.085 445.264H123.357C122.973 445.264 122.781 445 122.781 444.712C122.781 444.412 122.973 444.148 123.357 444.148H126.777V443.044H125.793C124.773 443.044 124.089 442.456 124.089 441.316V440.188C124.089 439.384 124.473 438.94 125.337 438.94H130.209C130.581 438.94 130.773 439.228 130.773 439.516C130.773 439.804 130.581 440.092 130.209 440.092H125.805C125.553 440.092 125.421 440.212 125.421 440.464ZM125.601 447.076C125.601 448.084 126.381 448.888 127.449 448.888C128.517 448.888 129.297 448.084 129.297 447.076C129.297 446.08 128.517 445.264 127.449 445.264C126.381 445.264 125.601 446.08 125.601 447.076ZM132.949 441.748C132.949 440.008 134.269 438.88 135.889 438.88C137.521 438.88 138.841 440.008 138.841 441.748C138.841 443.488 137.521 444.604 135.889 444.604C134.269 444.604 132.949 443.488 132.949 441.748ZM141.229 442.684V445.852C141.229 446.296 140.893 446.524 140.557 446.524C140.221 446.524 139.885 446.296 139.885 445.852V439.432C139.885 438.988 140.221 438.76 140.557 438.76C140.893 438.76 141.229 438.988 141.229 439.432V441.532H142.489C142.873 441.532 143.065 441.82 143.065 442.108C143.065 442.396 142.873 442.684 142.489 442.684H141.229ZM134.545 447.976V446.2C134.545 445.732 134.869 445.504 135.241 445.504C135.577 445.504 135.937 445.732 135.937 446.2V447.952C135.937 448.42 136.177 448.612 136.525 448.612H140.917C141.301 448.612 141.493 448.9 141.493 449.188C141.493 449.476 141.301 449.764 140.917 449.764H136.333C135.313 449.764 134.545 449.116 134.545 447.976ZM134.257 441.748C134.257 442.828 135.013 443.464 135.889 443.464C136.765 443.464 137.521 442.828 137.521 441.748C137.521 440.656 136.765 440.02 135.889 440.02C135.013 440.02 134.257 440.656 134.257 441.748ZM149.973 448.792H154.857C155.193 448.792 155.433 449.008 155.433 449.356C155.433 449.704 155.193 449.92 154.857 449.92H149.877C148.953 449.92 148.305 449.26 148.305 448.456C148.305 447.652 148.953 447.04 149.877 447.04H153.525C153.741 447.04 153.897 446.884 153.897 446.68C153.897 446.476 153.741 446.368 153.525 446.368H149.073C148.737 446.368 148.497 446.176 148.497 445.828C148.497 445.48 148.737 445.264 149.073 445.264H153.621C154.545 445.264 155.193 445.756 155.193 446.68C155.193 447.604 154.545 448.108 153.621 448.108H149.973C149.757 448.108 149.601 448.252 149.601 448.456C149.601 448.66 149.757 448.792 149.973 448.792ZM151.089 440.104H148.917C148.557 440.104 148.365 439.828 148.365 439.54C148.365 439.264 148.557 438.952 148.917 438.952H154.713C155.085 438.952 155.277 439.264 155.277 439.54C155.277 439.828 155.085 440.104 154.713 440.104H152.541C152.781 440.92 153.825 441.388 155.145 441.772C155.469 441.868 155.625 442.072 155.625 442.312C155.625 442.636 155.337 442.984 154.845 442.84C153.621 442.48 152.505 441.928 151.833 441.196C151.161 441.928 150.057 442.48 148.797 442.84C148.305 442.984 148.017 442.636 148.017 442.312C148.017 442.072 148.173 441.868 148.497 441.772C149.805 441.4 150.849 440.908 151.089 440.104ZM147.717 443.428H155.913C156.309 443.428 156.501 443.692 156.501 443.98C156.501 444.28 156.309 444.544 155.913 444.544H147.717C147.333 444.544 147.141 444.28 147.141 443.98C147.141 443.692 147.333 443.428 147.717 443.428ZM166.273 439.432V448.84C166.273 449.284 165.937 449.512 165.601 449.512C165.265 449.512 164.929 449.284 164.929 448.84V443.524H162.637C161.881 444.844 160.249 445.948 158.305 446.524C157.861 446.656 157.561 446.296 157.561 445.936C157.561 445.708 157.681 445.48 157.945 445.396C159.901 444.748 161.761 443.5 161.761 441.928V441.256C161.761 440.848 161.497 440.644 161.161 440.644H158.425C158.005 440.644 157.825 440.368 157.825 440.044C157.825 439.768 158.005 439.48 158.425 439.48H161.305C162.325 439.48 163.093 440.128 163.093 441.268V441.928C163.093 442.084 163.081 442.228 163.057 442.372H164.929V439.432C164.929 438.988 165.265 438.76 165.601 438.76C165.937 438.76 166.273 438.988 166.273 439.432ZM173.399 444.736V446.872C173.399 447.328 173.051 447.556 172.715 447.556C172.367 447.556 172.031 447.328 172.031 446.872V444.736H168.371C167.975 444.736 167.783 444.472 167.783 444.172C167.783 443.86 167.975 443.596 168.371 443.596H170.063C169.547 443.104 169.235 442.42 169.235 441.64C169.235 440.008 170.591 438.7 172.451 438.7C174.323 438.7 175.691 440.008 175.691 441.64C175.691 442.42 175.379 443.104 174.851 443.596H176.543C176.939 443.596 177.143 443.86 177.143 444.172C177.143 444.472 176.939 444.736 176.543 444.736H173.399ZM169.067 447.976V446.536C169.067 446.068 169.391 445.84 169.763 445.84C170.099 445.84 170.459 446.068 170.459 446.536V447.94C170.459 448.408 170.699 448.6 171.047 448.6H175.547C175.931 448.6 176.123 448.888 176.123 449.176C176.123 449.464 175.931 449.752 175.547 449.752H170.771C169.751 449.752 169.067 449.116 169.067 447.976ZM170.567 441.724C170.567 442.756 171.359 443.596 172.451 443.596C173.543 443.596 174.335 442.756 174.335 441.724C174.335 440.68 173.543 439.876 172.451 439.876C171.359 439.876 170.567 440.68 170.567 441.724ZM187.177 446.32C186.193 445.624 185.437 444.688 184.933 443.656C184.453 444.724 183.721 445.696 182.761 446.38C182.629 446.476 182.497 446.524 182.365 446.524C182.017 446.524 181.729 446.188 181.729 445.864C181.729 445.684 181.813 445.516 182.005 445.384C183.457 444.4 184.249 442.9 184.249 440.788V439.912C184.249 439.456 184.597 439.216 184.945 439.216C185.293 439.216 185.641 439.456 185.641 439.912V440.98C185.641 443.092 186.481 444.34 187.933 445.324C188.125 445.456 188.209 445.624 188.209 445.804C188.209 446.128 187.921 446.464 187.573 446.464C187.441 446.464 187.309 446.416 187.177 446.32ZM190.633 439.432V448.84C190.633 449.284 190.297 449.512 189.961 449.512C189.625 449.512 189.289 449.284 189.289 448.84V439.432C189.289 438.988 189.625 438.76 189.961 438.76C190.297 438.76 190.633 438.988 190.633 439.432ZM197.795 440.668V441.412C197.795 443.056 196.079 444.4 193.091 445.108C192.623 445.216 192.359 444.88 192.359 444.544C192.359 444.292 192.503 444.052 192.815 443.98C194.795 443.56 196.463 442.576 196.463 441.484V440.716C196.463 440.344 196.319 440.164 195.983 440.164H193.223C192.803 440.164 192.623 439.888 192.623 439.564C192.623 439.288 192.803 439 193.223 439H196.247C197.315 439 197.795 439.624 197.795 440.668ZM200.627 442.924V445.852C200.627 446.296 200.291 446.524 199.955 446.524C199.619 446.524 199.283 446.296 199.283 445.852V439.432C199.283 438.988 199.619 438.76 199.955 438.76C200.291 438.76 200.627 438.988 200.627 439.432V441.772H201.887C202.271 441.772 202.463 442.06 202.463 442.348C202.463 442.636 202.271 442.924 201.887 442.924H200.627ZM193.943 447.976V446.2C193.943 445.732 194.267 445.504 194.639 445.504C194.975 445.504 195.335 445.732 195.335 446.2V447.952C195.335 448.42 195.575 448.612 195.923 448.612H200.315C200.699 448.612 200.891 448.9 200.891 449.188C200.891 449.476 200.699 449.764 200.315 449.764H195.731C194.711 449.764 193.943 449.116 193.943 447.976ZM211.99 439.432V448.84C211.99 449.284 211.654 449.512 211.318 449.512C210.982 449.512 210.646 449.284 210.646 448.84V439.432C210.646 438.988 210.982 438.76 211.318 438.76C211.654 438.76 211.99 438.988 211.99 439.432ZM203.206 442.636C203.206 440.788 204.574 439.6 206.254 439.6C207.946 439.6 209.314 440.788 209.314 442.636C209.314 444.484 207.946 445.66 206.254 445.66C204.574 445.66 203.206 444.484 203.206 442.636ZM204.538 442.636C204.538 443.812 205.33 444.508 206.254 444.508C207.178 444.508 207.97 443.812 207.97 442.636C207.97 441.448 207.178 440.752 206.254 440.752C205.33 440.752 204.538 441.448 204.538 442.636ZM225.114 447.64H218.034C217.65 447.64 217.458 447.352 217.458 447.052C217.458 446.764 217.65 446.476 218.034 446.476H220.362V444.652H219.99C218.97 444.652 218.286 444.016 218.286 442.876V440.68C218.286 439.876 218.67 439.444 219.534 439.444H223.17C223.566 439.444 223.758 439.732 223.758 440.008C223.758 440.308 223.566 440.596 223.17 440.596H220.002C219.75 440.596 219.618 440.716 219.618 440.968V442.84C219.618 443.308 219.87 443.512 220.206 443.512H223.23C223.614 443.512 223.806 443.8 223.806 444.076C223.806 444.364 223.614 444.652 223.23 444.652H221.73V446.476H225.114V439.432C225.114 438.988 225.45 438.76 225.786 438.76C226.122 438.76 226.458 438.988 226.458 439.432V448.852C226.458 449.296 226.122 449.524 225.786 449.524C225.45 449.524 225.114 449.296 225.114 448.852V447.64ZM234.005 441.268V441.928C234.005 443.908 231.893 445.72 229.157 446.524C228.713 446.656 228.413 446.296 228.413 445.936C228.413 445.708 228.533 445.48 228.797 445.396C230.789 444.748 232.673 443.5 232.673 441.928V441.256C232.673 440.848 232.409 440.644 232.073 440.644H229.277C228.857 440.644 228.677 440.368 228.677 440.044C228.677 439.768 228.857 439.48 229.277 439.48H232.217C233.237 439.48 234.005 440.128 234.005 441.268ZM237.065 439.432V448.84C237.065 449.284 236.729 449.512 236.393 449.512C236.057 449.512 235.721 449.284 235.721 448.84V439.432C235.721 438.988 236.057 438.76 236.393 438.76C236.729 438.76 237.065 438.988 237.065 439.432ZM246.219 443.404H241.287C240.291 443.404 239.787 442.708 239.787 442.024C239.787 441.328 240.291 440.632 241.287 440.632H244.959C245.163 440.632 245.271 440.488 245.271 440.332C245.271 440.176 245.163 440.02 244.959 440.02H240.579C240.195 440.02 240.015 439.756 240.015 439.48C240.015 439.216 240.195 438.94 240.579 438.94H245.127C246.111 438.94 246.603 439.624 246.603 440.308C246.603 440.992 246.111 441.676 245.127 441.676H241.431C241.227 441.676 241.119 441.844 241.119 441.988C241.119 442.156 241.227 442.3 241.431 442.3H246.219C246.603 442.3 246.795 442.576 246.795 442.852C246.795 443.128 246.603 443.404 246.219 443.404ZM246.315 449.92H241.203C240.219 449.92 239.727 449.236 239.727 448.564C239.727 447.88 240.219 447.196 241.203 447.196H245.019C245.211 447.196 245.307 447.064 245.307 446.92C245.307 446.776 245.211 446.632 245.019 446.632H240.495C240.111 446.632 239.931 446.368 239.931 446.092C239.931 445.828 240.111 445.552 240.495 445.552H245.187C246.159 445.552 246.639 446.224 246.639 446.896C246.639 447.568 246.159 448.24 245.187 448.24H241.359C241.167 448.24 241.071 448.396 241.071 448.528C241.071 448.684 241.167 448.816 241.359 448.816H246.315C246.699 448.816 246.891 449.092 246.891 449.368C246.891 449.644 246.699 449.92 246.315 449.92ZM247.335 445.012H239.163C238.767 445.012 238.575 444.772 238.575 444.472C238.575 444.16 238.767 443.896 239.163 443.896H247.335C247.731 443.896 247.935 444.16 247.935 444.472C247.935 444.772 247.731 445.012 247.335 445.012ZM257.849 440.02V445.18C257.849 445.984 257.465 446.416 256.601 446.416H253.937C253.073 446.416 252.689 445.984 252.689 445.18V440.032C252.689 439.588 253.013 439.36 253.349 439.36C253.685 439.36 254.021 439.588 254.021 440.032V441.904H256.529V440.02C256.529 439.576 256.853 439.36 257.189 439.36C257.513 439.36 257.849 439.576 257.849 440.02ZM260.741 443.368V448.852C260.741 449.296 260.405 449.524 260.069 449.524C259.733 449.524 259.397 449.296 259.397 448.852V439.432C259.397 438.988 259.733 438.76 260.069 438.76C260.405 438.76 260.741 438.988 260.741 439.432V442.216H262.001C262.385 442.216 262.577 442.504 262.577 442.792C262.577 443.08 262.385 443.368 262.001 443.368H260.741ZM254.021 445.276H256.529V443.044H254.021V445.276ZM271.419 445.948V448.564C271.419 449.368 271.035 449.8 270.171 449.8H265.971C265.107 449.8 264.723 449.368 264.723 448.564V445.948C264.723 445.504 265.047 445.276 265.383 445.276C265.719 445.276 266.055 445.504 266.055 445.948V446.644H270.087V445.948C270.087 445.504 270.411 445.276 270.747 445.276C271.083 445.276 271.419 445.504 271.419 445.948ZM264.123 439H267.231C268.287 439 268.815 439.816 268.815 440.632C268.815 441.448 268.287 442.252 267.231 442.252H265.131C264.807 442.252 264.639 442.528 264.639 442.804C264.639 443.08 264.807 443.344 265.131 443.344H268.455C268.827 443.344 269.007 443.632 269.007 443.92C269.007 444.208 268.827 444.484 268.455 444.484H264.915C263.859 444.484 263.331 443.668 263.331 442.828C263.331 441.988 263.859 441.16 264.915 441.16H267.039C267.363 441.16 267.519 440.908 267.519 440.644C267.519 440.38 267.363 440.128 267.039 440.128H264.123C263.751 440.128 263.559 439.852 263.559 439.564C263.559 439.288 263.751 439 264.123 439ZM271.419 442.132V444.064C271.419 444.508 271.083 444.736 270.747 444.736C270.411 444.736 270.075 444.508 270.075 444.064V439.432C270.075 438.988 270.411 438.76 270.747 438.76C271.083 438.76 271.419 438.988 271.419 439.432V440.98H272.679C273.063 440.98 273.255 441.268 273.255 441.556C273.255 441.844 273.063 442.132 272.679 442.132H271.419ZM266.055 448.672H270.087V447.76H266.055V448.672ZM282.782 439.432V448.84C282.782 449.284 282.446 449.512 282.11 449.512C281.774 449.512 281.438 449.284 281.438 448.84V439.432C281.438 438.988 281.774 438.76 282.11 438.76C282.446 438.76 282.782 438.988 282.782 439.432ZM274.502 444.328V440.056C274.502 439.588 274.814 439.36 275.186 439.36C275.522 439.36 275.87 439.588 275.87 440.056V444.304C275.87 444.772 276.086 444.964 276.458 444.964H279.758C280.142 444.964 280.334 445.24 280.334 445.528C280.334 445.816 280.142 446.104 279.758 446.104H276.206C275.066 446.104 274.502 445.468 274.502 444.328ZM289.86 446.344H286.488C285.468 446.344 284.784 445.708 284.784 444.568V440.716C284.784 439.912 285.168 439.48 286.032 439.48H289.524C289.92 439.48 290.112 439.768 290.112 440.044C290.112 440.344 289.92 440.632 289.524 440.632H286.5C286.248 440.632 286.116 440.752 286.116 441.004V444.532C286.116 445 286.368 445.204 286.704 445.204H289.86C290.244 445.204 290.436 445.492 290.436 445.768C290.436 446.056 290.244 446.344 289.86 446.344ZM292.776 443.368V448.852C292.776 449.296 292.44 449.524 292.104 449.524C291.768 449.524 291.432 449.296 291.432 448.852V439.432C291.432 438.988 291.768 438.76 292.104 438.76C292.44 438.76 292.776 438.988 292.776 439.432V442.216H294.036C294.42 442.216 294.612 442.504 294.612 442.792C294.612 443.08 294.42 443.368 294.036 443.368H292.776ZM295.211 447.892C295.211 447.412 295.607 447.016 296.099 447.016C296.591 447.016 296.987 447.412 296.987 447.892C296.987 448.372 296.591 448.78 296.099 448.78C295.607 448.78 295.211 448.372 295.211 447.892ZM110.802 464.716H118.998C119.394 464.716 119.586 465.004 119.586 465.292C119.586 465.592 119.394 465.88 118.998 465.88H110.802C110.418 465.88 110.226 465.592 110.226 465.292C110.226 465.004 110.418 464.716 110.802 464.716ZM116.922 459.268C116.922 458.8 116.67 458.596 116.334 458.596H111.966C111.546 458.596 111.366 458.32 111.366 457.996C111.366 457.72 111.546 457.432 111.966 457.432H116.478C117.498 457.432 118.266 458.104 118.266 459.232C118.266 460.756 118.074 462.184 117.75 463.444C117.666 463.78 117.378 463.936 117.102 463.936C116.718 463.936 116.358 463.648 116.466 463.144C116.73 461.944 116.922 460.624 116.922 459.268ZM128.11 467.8H123.838C122.974 467.8 122.59 467.368 122.59 466.564V464.836C122.59 464.032 122.974 463.6 123.838 463.6H128.11C128.974 463.6 129.358 464.032 129.358 464.836V466.564C129.358 467.368 128.974 467.8 128.11 467.8ZM121.558 457H124.246C125.302 457 125.83 457.852 125.83 458.692C125.83 459.532 125.302 460.372 124.246 460.372H122.566C122.242 460.372 122.074 460.684 122.074 460.984C122.074 461.284 122.242 461.584 122.566 461.584H125.89C126.262 461.584 126.442 461.872 126.442 462.16C126.442 462.448 126.262 462.724 125.89 462.724H122.35C121.294 462.724 120.766 461.872 120.766 461.008C120.766 460.144 121.294 459.28 122.35 459.28H124.054C124.378 459.28 124.534 458.992 124.534 458.704C124.534 458.416 124.378 458.128 124.054 458.128H121.558C121.186 458.128 120.994 457.852 120.994 457.564C120.994 457.288 121.186 457 121.558 457ZM129.358 457.432V462.328C129.358 462.772 129.022 463 128.686 463C128.35 463 128.014 462.772 128.014 462.328V460.36H126.61C126.226 460.36 126.034 460.072 126.034 459.784C126.034 459.496 126.226 459.208 126.61 459.208H128.014V457.432C128.014 456.988 128.35 456.76 128.686 456.76C129.022 456.76 129.358 456.988 129.358 457.432ZM123.922 464.74V466.672H128.026V464.74H123.922ZM131.12 467.008L131.696 465.532C131.876 465.064 132.356 464.944 132.752 465.172C133.136 465.4 133.292 465.82 133.016 466.216L132.152 467.608C131.948 467.932 131.612 468.076 131.276 467.896C130.952 467.74 130.988 467.356 131.12 467.008ZM140.703 459.016H139.047C138.663 459.016 138.471 458.74 138.471 458.452C138.471 458.152 138.663 457.864 139.047 457.864H140.703V457.072C140.703 456.616 141.051 456.376 141.399 456.376C141.747 456.376 142.095 456.616 142.095 457.072V457.864H143.715C144.111 457.864 144.303 458.152 144.303 458.452C144.303 458.74 144.111 459.016 143.715 459.016H142.095C142.095 460.252 142.695 461.248 144.159 461.992C144.399 462.112 144.495 462.304 144.507 462.496C144.519 462.82 144.267 463.156 143.919 463.168C143.811 463.18 143.691 463.144 143.559 463.072C142.671 462.628 141.891 461.98 141.363 461.116C140.811 462.004 140.007 462.7 139.131 463.168C138.999 463.24 138.879 463.276 138.771 463.264C138.423 463.252 138.159 462.928 138.171 462.604C138.183 462.412 138.279 462.208 138.519 462.1C139.935 461.332 140.667 460.192 140.703 459.016ZM140.139 465.988V464.68C140.139 464.212 140.463 463.984 140.835 463.984C141.171 463.984 141.531 464.212 141.531 464.68V465.952C141.531 466.42 141.771 466.612 142.119 466.612H146.583C146.967 466.612 147.159 466.9 147.159 467.188C147.159 467.476 146.967 467.764 146.583 467.764H141.843C140.823 467.764 140.139 467.128 140.139 465.988ZM146.979 457.432V464.092C146.979 464.536 146.643 464.764 146.307 464.764C145.971 464.764 145.635 464.536 145.635 464.092V457.432C145.635 456.988 145.971 456.76 146.307 456.76C146.643 456.76 146.979 456.988 146.979 457.432ZM152.486 463.528H149.066C148.682 463.528 148.49 463.24 148.49 462.952C148.49 462.652 148.682 462.364 149.066 462.364H157.262C157.658 462.364 157.85 462.652 157.85 462.952C157.85 463.24 157.658 463.528 157.262 463.528H153.854V466.936C153.854 467.404 153.506 467.62 153.17 467.62C152.822 467.62 152.486 467.404 152.486 466.936V463.528ZM155.246 458.992C155.246 458.524 154.994 458.38 154.658 458.38H150.23C149.81 458.38 149.63 458.104 149.63 457.78C149.63 457.504 149.81 457.216 150.23 457.216H154.802C155.822 457.216 156.59 457.828 156.59 458.956C156.59 459.784 156.482 460.564 156.302 461.32C156.218 461.656 155.93 461.812 155.654 461.812C155.27 461.812 154.922 461.524 155.018 461.02C155.15 460.384 155.246 459.7 155.246 458.992ZM159.03 461.464H167.226C167.622 461.464 167.814 461.728 167.814 462.016C167.814 462.316 167.622 462.58 167.226 462.58H159.03C158.646 462.58 158.454 462.316 158.454 462.016C158.454 461.728 158.646 461.464 159.03 461.464ZM161.286 466.792H166.17C166.506 466.792 166.746 467.008 166.746 467.356C166.746 467.704 166.506 467.92 166.17 467.92H161.19C160.266 467.92 159.618 467.26 159.618 466.456C159.618 465.652 160.266 465.04 161.19 465.04H164.838C165.054 465.04 165.21 464.884 165.21 464.68C165.21 464.476 165.054 464.368 164.838 464.368H160.386C160.05 464.368 159.81 464.176 159.81 463.828C159.81 463.48 160.05 463.264 160.386 463.264H164.934C165.858 463.264 166.506 463.756 166.506 464.68C166.506 465.604 165.858 466.108 164.934 466.108H161.286C161.07 466.108 160.914 466.252 160.914 466.456C160.914 466.66 161.07 466.792 161.286 466.792ZM161.094 458.464V459.064C161.094 459.484 161.322 459.676 161.682 459.676H165.966C166.338 459.676 166.518 459.964 166.518 460.252C166.518 460.54 166.338 460.816 165.966 460.816H161.466C160.446 460.816 159.762 460.228 159.762 459.088V458.188C159.762 457.384 160.146 456.94 161.01 456.94H165.882C166.254 456.94 166.446 457.228 166.446 457.516C166.446 457.804 166.254 458.092 165.882 458.092H161.478C161.226 458.092 161.094 458.212 161.094 458.464ZM177.177 462.352H169.005C168.609 462.352 168.417 462.1 168.417 461.8C168.417 461.488 168.609 461.224 169.005 461.224H170.805C170.349 460.768 170.085 460.156 170.085 459.448C170.085 457.924 171.345 456.7 173.085 456.7C174.837 456.7 176.109 457.924 176.109 459.448C176.109 460.156 175.833 460.768 175.377 461.224H177.177C177.573 461.224 177.777 461.488 177.777 461.8C177.777 462.1 177.573 462.352 177.177 462.352ZM174.981 465.988H171.225C170.997 465.988 170.889 466.18 170.889 466.384C170.889 466.588 171.009 466.792 171.225 466.792H176.157C176.541 466.792 176.733 467.08 176.733 467.356C176.733 467.644 176.541 467.92 176.157 467.92H171.069C170.073 467.92 169.581 467.176 169.581 466.42C169.581 465.676 170.073 464.92 171.069 464.92H174.837C175.053 464.92 175.173 464.728 175.173 464.524C175.173 464.332 175.053 464.128 174.837 464.128H170.337C169.965 464.128 169.773 463.852 169.773 463.576C169.773 463.3 169.965 463.024 170.337 463.024H174.981C175.965 463.024 176.469 463.768 176.469 464.512C176.469 465.256 175.965 465.988 174.981 465.988ZM171.381 459.52C171.381 460.444 172.077 461.188 173.013 461.224H173.085C174.057 461.224 174.789 460.468 174.789 459.52C174.789 458.56 174.057 457.828 173.085 457.828C172.113 457.828 171.381 458.56 171.381 459.52ZM186.467 462.724H183.827C182.963 462.724 182.579 462.292 182.579 461.488V458.236C182.579 457.432 182.963 457 183.827 457H186.467C187.331 457 187.715 457.432 187.715 458.236V461.488C187.715 462.292 187.331 462.724 186.467 462.724ZM190.583 460.804V463.852C190.583 464.296 190.247 464.524 189.911 464.524C189.575 464.524 189.239 464.296 189.239 463.852V457.432C189.239 456.988 189.575 456.76 189.911 456.76C190.247 456.76 190.583 456.988 190.583 457.432V459.652H191.843C192.227 459.652 192.419 459.94 192.419 460.228C192.419 460.516 192.227 460.804 191.843 460.804H190.583ZM183.899 465.988V464.32C183.899 463.852 184.223 463.624 184.595 463.624C184.931 463.624 185.291 463.852 185.291 464.32V465.952C185.291 466.42 185.531 466.612 185.879 466.612H190.271C190.655 466.612 190.847 466.9 190.847 467.188C190.847 467.476 190.655 467.764 190.271 467.764H185.603C184.583 467.764 183.899 467.128 183.899 465.988ZM183.911 458.152V461.584H186.395V458.152H183.911ZM201.141 461.248V466.852C201.141 467.296 200.805 467.524 200.469 467.524C200.133 467.524 199.797 467.296 199.797 466.852V457.432C199.797 456.988 200.133 456.76 200.469 456.76C200.805 456.76 201.141 456.988 201.141 457.432V460.096H202.521C202.905 460.096 203.097 460.384 203.097 460.672C203.097 460.96 202.905 461.248 202.521 461.248H201.141ZM193.389 462.448V458.056C193.389 457.588 193.701 457.36 194.073 457.36C194.409 457.36 194.757 457.588 194.757 458.056V462.424C194.757 462.892 194.973 463.084 195.345 463.084H198.453C198.837 463.084 199.029 463.36 199.029 463.648C199.029 463.936 198.837 464.224 198.453 464.224H195.093C193.953 464.224 193.389 463.588 193.389 462.448ZM209.216 464.5H205.904C204.656 464.5 204.032 463.492 204.032 462.472C204.032 461.452 204.656 460.432 205.904 460.432H207.2C207.704 460.432 207.968 459.988 207.968 459.532C207.968 459.064 207.704 458.62 207.2 458.62H204.884C204.512 458.62 204.32 458.344 204.32 458.056C204.32 457.768 204.512 457.48 204.884 457.48H207.404C208.652 457.48 209.276 458.5 209.276 459.508C209.276 460.528 208.652 461.536 207.404 461.536H206.108C205.604 461.536 205.34 461.98 205.34 462.448C205.34 462.904 205.604 463.348 206.108 463.348H209.216C209.576 463.348 209.768 463.636 209.768 463.924C209.768 464.212 209.576 464.5 209.216 464.5ZM212.624 457.432V466.84C212.624 467.284 212.288 467.512 211.952 467.512C211.616 467.512 211.28 467.284 211.28 466.84V461.416H209.852C209.468 461.416 209.276 461.128 209.276 460.84C209.276 460.552 209.468 460.264 209.852 460.264H211.28V457.432C211.28 456.988 211.616 456.76 211.952 456.76C212.288 456.76 212.624 456.988 212.624 457.432ZM226.336 461.668V466.852C226.336 467.296 226 467.524 225.664 467.524C225.328 467.524 224.992 467.296 224.992 466.852V457.432C224.992 456.988 225.328 456.76 225.664 456.76C226 456.76 226.336 456.988 226.336 457.432V460.516H227.596C227.98 460.516 228.172 460.804 228.172 461.092C228.172 461.38 227.98 461.668 227.596 461.668H226.336ZM223.48 459.268V459.928C223.48 461.908 221.512 463.72 218.812 464.524C218.368 464.656 218.068 464.296 218.068 463.936C218.068 463.708 218.188 463.48 218.452 463.396C220.408 462.748 222.148 461.5 222.148 459.928V459.256C222.148 458.848 221.884 458.644 221.548 458.644H218.932C218.512 458.644 218.332 458.368 218.332 458.044C218.332 457.768 218.512 457.48 218.932 457.48H221.692C222.712 457.48 223.48 458.128 223.48 459.268ZM236.523 457.492V459.712C236.523 460.516 236.139 460.948 235.275 460.948H233.883V461.572H237.303C237.699 461.572 237.891 461.836 237.891 462.124C237.891 462.424 237.699 462.688 237.303 462.688H229.107C228.723 462.688 228.531 462.424 228.531 462.124C228.531 461.836 228.723 461.572 229.107 461.572H232.563V460.948H231.147C230.283 460.948 229.899 460.516 229.899 459.712V457.492C229.899 457.048 230.223 456.82 230.559 456.82C230.883 456.82 231.219 457.048 231.219 457.492V458.008H235.203V457.492C235.203 457.048 235.527 456.82 235.863 456.82C236.187 456.82 236.523 457.048 236.523 457.492ZM231.363 466.792H236.247C236.583 466.792 236.823 467.008 236.823 467.356C236.823 467.704 236.583 467.92 236.247 467.92H231.267C230.343 467.92 229.695 467.26 229.695 466.456C229.695 465.652 230.343 465.04 231.267 465.04H234.915C235.131 465.04 235.287 464.884 235.287 464.68C235.287 464.476 235.131 464.368 234.915 464.368H230.463C230.127 464.368 229.887 464.176 229.887 463.828C229.887 463.48 230.127 463.264 230.463 463.264H235.011C235.935 463.264 236.583 463.756 236.583 464.68C236.583 465.604 235.935 466.108 235.011 466.108H231.363C231.147 466.108 230.991 466.252 230.991 466.456C230.991 466.66 231.147 466.792 231.363 466.792ZM231.219 459.844H235.203V459.1H231.219V459.844ZM244.807 458.932V459.724C244.807 461.584 244.003 463.192 242.707 464.488C242.587 464.608 242.443 464.668 242.311 464.668C241.999 464.668 241.723 464.368 241.723 464.056C241.723 463.924 241.771 463.78 241.891 463.66C242.899 462.64 243.487 461.212 243.487 459.724V459.076C243.487 458.788 243.367 458.62 243.067 458.62H242.275C242.155 458.62 242.047 458.596 241.963 458.56C241.987 458.668 241.999 458.8 241.999 458.932V459.484C241.999 461.284 241.003 462.748 239.575 463.84C239.455 463.936 239.323 463.972 239.203 463.972C238.891 463.972 238.639 463.684 238.639 463.372C238.639 463.216 238.699 463.06 238.855 462.94C239.911 462.088 240.679 460.912 240.679 459.484V459.076C240.679 458.788 240.559 458.62 240.259 458.62H239.503C239.107 458.62 238.903 458.344 238.903 458.056C238.903 457.78 239.107 457.492 239.503 457.492H240.547C241.051 457.492 241.435 457.624 241.687 457.912C241.747 457.696 241.939 457.492 242.275 457.492H243.379C244.279 457.492 244.807 457.912 244.807 458.932ZM247.159 461.488V466.852C247.159 467.296 246.823 467.524 246.487 467.524C246.151 467.524 245.815 467.296 245.815 466.852V457.432C245.815 456.988 246.151 456.76 246.487 456.76C246.823 456.76 247.159 456.988 247.159 457.432V460.336H248.239C248.623 460.336 248.815 460.624 248.815 460.912C248.815 461.2 248.623 461.488 248.239 461.488H247.159ZM256.193 464.716H257.945C258.341 464.716 258.533 465.004 258.533 465.292C258.533 465.592 258.341 465.88 257.945 465.88H249.749C249.365 465.88 249.173 465.592 249.173 465.292C249.173 465.004 249.365 464.716 249.749 464.716H251.489V462.448C250.889 461.908 250.541 461.128 250.541 460.252C250.541 458.5 251.933 457.18 253.841 457.18C255.749 457.18 257.165 458.5 257.165 460.252C257.165 461.14 256.793 461.908 256.193 462.46V464.716ZM251.873 460.252C251.873 461.38 252.737 462.16 253.841 462.16C254.969 462.16 255.833 461.38 255.833 460.252C255.833 459.136 254.969 458.332 253.841 458.332C252.737 458.332 251.873 459.136 251.873 460.252ZM253.841 463.312C253.481 463.312 253.145 463.264 252.833 463.18V464.716H254.849V463.18C254.525 463.264 254.189 463.312 253.841 463.312ZM264.309 459.724C264.309 460.588 263.949 461.26 263.037 461.932C262.305 462.472 262.161 462.688 262.161 463.132V463.564C262.161 463.936 261.873 464.224 261.477 464.224C261.057 464.224 260.793 463.936 260.793 463.552V463.132C260.793 462.244 261.129 461.74 262.089 461.032C262.701 460.588 262.953 460.216 262.953 459.7C262.953 459.064 262.401 458.56 261.681 458.56C261.069 458.56 260.685 458.74 260.301 459.04C259.581 459.604 258.849 458.716 259.545 458.116C260.025 457.696 260.757 457.36 261.681 457.36C263.109 457.36 264.309 458.248 264.309 459.724ZM260.589 465.652C260.589 465.172 260.985 464.776 261.477 464.776C261.969 464.776 262.365 465.172 262.365 465.652C262.365 466.132 261.969 466.54 261.477 466.54C260.985 466.54 260.589 466.132 260.589 465.652Z" fill="#FFCC00"/>
    </g>
    <defs>
        <clipPath id="clip0_1839_38550">
            <rect width="375" height="667" fill="white"/>
        </clipPath>
        <clipPath id="clip1_1839_38550">
            <rect width="375.49" height="514.5" fill="white" transform="matrix(-1 0 0 -1 375.49 625)"/>
        </clipPath>
        <clipPath id="clip2_1839_38550">
            <rect width="144.2" height="70" fill="white" transform="translate(115 332)"/>
        </clipPath>
        <clipPath id="clip3_1839_38550">
            <rect width="25" height="24" fill="white" transform="translate(32 41)"/>
        </clipPath>
    </defs>
</svg>
