<svg width="375" height="667" viewBox="0 0 375 667" fill="none" xmlns="http://www.w3.org/2000/svg">
    <g clip-path="url(#clip0_1839_38398)">
        <rect width="375" height="667" fill="#FCF9D1"/>
        <g clip-path="url(#clip1_1839_38398)">
            <path d="M374.75 624.25V110.25H297.95V125.03C300.98 126.75 302.95 130 302.95 133.73C302.95 139.25 298.47 143.73 292.95 143.73C287.43 143.73 282.95 139.25 282.95 133.73C282.95 130 284.92 126.75 287.95 125.03V110.25H245.11V125.03H245.03C248.06 126.75 250.11 130 250.11 133.73C250.11 139.25 245.63 143.73 240.11 143.73C234.59 143.73 230.11 139.25 230.11 133.73C230.11 130 232.16 126.75 235.19 125.03H235.11V110.25H192.26V125.03C195.29 126.75 197.26 130 197.26 133.73C197.26 139.25 192.78 143.73 187.26 143.73C181.74 143.73 177.26 139.25 177.26 133.73C177.26 130 179.23 126.75 182.26 125.03V110.25H139.42V125.03C142.45 126.75 144.42 130 144.42 133.73C144.42 139.25 139.94 143.73 134.42 143.73C128.9 143.73 124.42 139.25 124.42 133.73C124.42 130 126.39 126.75 129.42 125.03V110.25H86.59V125.03C89.62 126.75 91.59 130 91.59 133.73C91.59 139.25 87.11 143.73 81.59 143.73C76.07 143.73 71.59 139.25 71.59 133.73C71.59 130 73.56 126.75 76.59 125.03V110.25H-0.23999V624.25H374.75Z" fill="white" stroke="#777677" stroke-width="0.5" stroke-miterlimit="10"/>
        </g>
        <path d="M109.243 200.344V201.4C109.243 205.168 111.907 207.712 115.411 208.936C116.419 209.296 115.915 210.904 114.787 210.568C111.955 209.704 109.531 207.664 108.211 205.144C106.915 207.664 104.515 209.704 101.635 210.568C100.507 210.904 100.003 209.296 101.011 208.936C104.515 207.712 107.179 205.168 107.179 201.4V200.344C107.179 199.672 107.683 199.312 108.211 199.312C108.715 199.312 109.243 199.672 109.243 200.344ZM99.8111 214.96H116.563C117.139 214.96 117.427 215.416 117.427 215.8C117.427 216.208 117.139 216.616 116.563 216.616H99.8111C99.2591 216.616 98.9711 216.208 98.9711 215.8C98.9711 215.416 99.2591 214.96 99.8111 214.96ZM134.187 210.64H121.587C121.035 210.64 120.771 210.232 120.771 209.8C120.771 209.368 121.035 208.984 121.587 208.984H123.675V201.712H121.707C121.155 201.712 120.891 201.304 120.891 200.872C120.891 200.44 121.155 200.056 121.707 200.056H134.067C134.619 200.056 134.883 200.44 134.883 200.872C134.883 201.304 134.619 201.712 134.067 201.712H132.099V208.984H134.187C134.739 208.984 135.003 209.368 135.003 209.8C135.003 210.232 134.739 210.64 134.187 210.64ZM125.619 201.712V208.984H130.155V201.712H125.619ZM119.499 214.96H136.251C136.827 214.96 137.115 215.416 137.115 215.8C137.115 216.208 136.827 216.616 136.251 216.616H119.499C118.947 216.616 118.659 216.208 118.659 215.8C118.659 215.416 118.947 214.96 119.499 214.96ZM156.226 199.6V209.224C156.226 209.896 155.722 210.256 155.266 210.256C154.762 210.256 154.282 209.896 154.282 209.224V199.6C154.282 198.904 154.762 198.568 155.266 198.568C155.722 198.568 156.226 198.904 156.226 199.6ZM147.418 204.904H143.05C141.97 204.904 141.418 205.384 141.418 206.248C141.418 207.136 141.97 207.616 143.05 207.616H150.826C151.33 207.616 151.594 208.072 151.594 208.456C151.594 208.84 151.33 209.272 150.826 209.272H142.762C140.65 209.272 139.474 207.928 139.474 206.296C139.474 204.688 140.65 203.344 142.762 203.344H147.202C148.258 203.344 148.786 202.984 148.786 202.12C148.786 201.304 148.258 200.896 147.202 200.896H140.746C140.218 200.896 139.954 200.464 139.954 200.08C139.954 199.696 140.218 199.24 140.746 199.24H147.418C149.53 199.24 150.706 200.488 150.706 202.072C150.706 203.68 149.53 204.904 147.418 204.904ZM144.778 215.656C144.778 212.848 147.082 210.4 150.394 210.4C153.706 210.4 156.01 212.848 156.01 215.656C156.01 218.464 153.706 220.912 150.394 220.912C147.082 220.912 144.778 218.464 144.778 215.656ZM154.138 215.656C154.138 213.568 152.602 212.104 150.394 212.104C148.186 212.104 146.65 213.568 146.65 215.656C146.65 217.744 148.186 219.208 150.394 219.208C152.602 219.208 154.138 217.744 154.138 215.656ZM159.559 206.248C159.559 203.08 161.743 200.848 164.887 200.848C167.743 200.848 169.807 202.696 170.167 205.384H172.255V199.72C172.255 199.024 172.687 198.688 173.191 198.688C173.647 198.688 174.103 199.024 174.103 199.72V218.44C174.103 219.112 173.647 219.472 173.191 219.472C172.687 219.472 172.255 219.112 172.255 218.44V207.04H170.167C169.831 209.776 167.767 211.648 164.887 211.648C161.743 211.648 159.559 209.416 159.559 206.248ZM168.319 206.248C168.319 203.896 166.903 202.456 164.887 202.456C162.871 202.456 161.455 203.896 161.455 206.248C161.455 208.6 162.871 210.04 164.887 210.04C166.903 210.04 168.319 208.6 168.319 206.248ZM177.895 199.6V218.92C177.895 219.592 177.391 219.952 176.935 219.952C176.431 219.952 175.951 219.592 175.951 218.92V199.6C175.951 198.904 176.431 198.568 176.935 198.568C177.391 198.568 177.895 198.904 177.895 199.6ZM193.44 211.888H202.368C203.688 211.888 204.288 212.344 204.288 213.592V218.896C204.288 220.144 203.688 220.6 202.368 220.6H193.44C192.12 220.6 191.52 220.144 191.52 218.896V213.592C191.52 212.344 192.12 211.888 193.44 211.888ZM198.936 209.752C197.04 209.032 194.928 207.04 194.112 205.024C193.176 207.256 190.968 209.152 189.216 209.944C188.112 210.448 187.392 209.008 188.424 208.48C190.848 207.232 192.888 204.856 193.152 202.504H189.384C188.856 202.504 188.616 202.12 188.616 201.712C188.616 201.28 188.856 200.896 189.384 200.896H193.128V198.808C193.128 198.064 193.608 197.752 194.088 197.752C194.592 197.752 195.072 198.064 195.072 198.808V200.896H198.768C199.32 200.896 199.56 201.28 199.56 201.712C199.56 202.12 199.32 202.504 198.768 202.504H195.048C195.312 204.712 197.112 207.136 199.608 208.24C200.568 208.672 199.968 210.136 198.936 209.752ZM202.344 218.944V213.544H193.464V218.944H202.344ZM204.288 205.36V209.512C204.288 210.184 203.784 210.544 203.328 210.544C202.824 210.544 202.344 210.184 202.344 209.512V199.6C202.344 198.904 202.824 198.568 203.328 198.568C203.784 198.568 204.288 198.904 204.288 199.6V203.704H207.072C207.6 203.704 207.84 204.136 207.84 204.52C207.84 204.952 207.6 205.36 207.072 205.36H204.288ZM209.709 206.248C209.709 202.528 212.397 200.368 215.613 200.368C217.605 200.368 219.405 201.208 220.461 202.72H224.829V199.6C224.829 198.904 225.309 198.568 225.813 198.568C226.269 198.568 226.773 198.904 226.773 199.6V218.92C226.773 219.592 226.269 219.952 225.813 219.952C225.309 219.952 224.829 219.592 224.829 218.92V209.632H220.557C219.501 211.24 217.677 212.128 215.613 212.128C212.397 212.128 209.709 209.968 209.709 206.248ZM219.573 206.248C219.573 203.656 217.797 202.024 215.613 202.024C213.429 202.024 211.653 203.656 211.653 206.248C211.653 208.84 213.429 210.472 215.613 210.472C217.797 210.472 219.573 208.84 219.573 206.248ZM221.517 206.248C221.517 206.872 221.421 207.472 221.277 208H224.829V204.352H221.253C221.421 204.928 221.517 205.576 221.517 206.248ZM235.506 199C236.01 199 236.538 199.312 236.538 200.056V202.24H240.258C240.81 202.24 241.05 202.648 241.05 203.056C241.05 203.464 240.81 203.848 240.258 203.848H238.794C239.682 204.664 240.258 205.816 240.258 207.208C240.258 210.16 238.026 211.888 235.506 211.888C232.986 211.888 230.754 210.16 230.754 207.208C230.754 205.816 231.306 204.664 232.194 203.848H230.85C230.322 203.848 230.082 203.464 230.082 203.056C230.082 202.648 230.322 202.24 230.85 202.24H234.474V200.056C234.474 199.312 235.002 199 235.506 199ZM243.834 208.168V218.44C243.834 219.112 243.378 219.472 242.922 219.472C242.418 219.472 241.986 219.112 241.986 218.44V199.72C241.986 199.024 242.418 198.688 242.922 198.688C243.378 198.688 243.834 199.024 243.834 199.72V206.512H246.498V199.6C246.498 198.904 246.978 198.568 247.482 198.568C247.938 198.568 248.442 198.904 248.442 199.6V218.92C248.442 219.592 247.938 219.952 247.482 219.952C246.978 219.952 246.498 219.592 246.498 218.92V208.168H243.834ZM232.506 207.136C232.506 208.816 233.61 210.328 235.506 210.328C237.402 210.328 238.506 208.816 238.506 207.136C238.506 205.456 237.402 203.944 235.506 203.944C233.61 203.944 232.506 205.456 232.506 207.136ZM254.031 205.336C254.031 201.952 256.695 199.312 260.367 199.312C264.039 199.312 266.703 201.952 266.703 205.336C266.703 207.136 265.959 208.72 264.711 209.8V215.008H268.719C269.295 215.008 269.583 215.464 269.583 215.848C269.583 216.256 269.295 216.664 268.719 216.664H251.967C251.415 216.664 251.127 216.256 251.127 215.848C251.127 215.464 251.415 215.008 251.967 215.008H256.023V209.8C254.775 208.72 254.031 207.136 254.031 205.336ZM264.807 205.336C264.807 202.84 262.935 200.944 260.367 200.944C257.799 200.944 255.927 202.84 255.927 205.336C255.927 207.832 257.799 209.728 260.367 209.728C262.935 209.728 264.807 207.832 264.807 205.336ZM260.367 211.36C259.503 211.36 258.687 211.216 257.967 210.952V215.008H262.767V210.952C262.023 211.216 261.231 211.36 260.367 211.36ZM271.679 216.784C271.679 216.088 272.231 215.512 272.927 215.512C273.623 215.512 274.175 216.088 274.175 216.784C274.175 217.48 273.623 218.08 272.927 218.08C272.231 218.08 271.679 217.48 271.679 216.784ZM272.015 212.632V200.56C272.015 200.008 272.327 199.6 272.927 199.6C273.527 199.6 273.839 200.008 273.839 200.56V212.632C273.839 213.184 273.527 213.592 272.927 213.592C272.327 213.592 272.015 213.184 272.015 212.632Z" fill="black"/>
        <rect x="113.25" y="545.25" width="149.5" height="49.5" rx="19.75" fill="white" stroke="black" stroke-width="0.5"/>
        <path d="M174.925 568.576C174.925 567.2 176.397 566.304 178.653 566.304C180.909 566.304 182.381 567.2 182.381 568.576C182.381 569.712 181.357 570.56 179.725 570.816V571.776C180.781 571.728 181.613 571.616 182.429 571.456C183.197 571.296 183.645 571.728 183.645 572.272C183.645 572.72 183.373 573.056 182.829 573.184C181.597 573.472 180.221 573.6 178.157 573.6H174.749C174.173 573.6 173.789 573.248 173.789 572.704C173.789 572.16 174.173 571.808 174.749 571.808H177.581V570.816C175.949 570.56 174.925 569.712 174.925 568.576ZM173.917 564.976C173.917 564.432 174.301 564.096 174.877 564.096H177.581V563.664C177.581 563.056 178.109 562.784 178.653 562.784C179.197 562.784 179.725 563.056 179.725 563.664V564.096H182.301C182.877 564.096 183.261 564.432 183.261 564.976C183.261 565.52 182.877 565.856 182.301 565.856H174.877C174.301 565.856 173.917 565.52 173.917 564.976ZM175.661 575.344C175.661 574.8 175.981 574.432 176.557 574.432H185.101C185.789 574.432 186.301 574.816 186.301 575.44V578.064C186.301 578.752 185.677 579.04 185.229 579.04C184.781 579.04 184.157 578.752 184.157 578.064V576.256H176.557C175.981 576.256 175.661 575.888 175.661 575.344ZM177.005 568.576C177.005 569.024 177.629 569.264 178.653 569.264C179.677 569.264 180.301 569.024 180.301 568.576C180.301 568.128 179.677 567.888 178.653 567.888C177.629 567.888 177.005 568.128 177.005 568.576ZM184.157 564.144C184.157 563.456 184.781 563.168 185.229 563.168C185.677 563.168 186.301 563.456 186.301 564.144V567.376H187.629C188.205 567.376 188.525 567.76 188.525 568.304C188.525 568.848 188.205 569.232 187.629 569.232H186.301V573.088C186.301 573.776 185.677 573.968 185.229 573.968C184.781 573.968 184.157 573.776 184.157 573.088V564.144ZM199.852 564.144C199.852 563.456 200.476 563.168 200.924 563.168C201.372 563.168 201.996 563.456 201.996 564.144V573.312C201.996 574 201.372 574.288 200.924 574.288C200.476 574.288 199.852 574 199.852 573.312V564.144ZM189.34 567.824C189.34 565.552 191.196 563.872 193.692 563.872C196.188 563.872 198.044 565.552 198.044 567.824C198.044 570.08 196.188 571.776 193.692 571.776C191.196 571.776 189.34 570.08 189.34 567.824ZM191.452 567.824C191.452 569.056 192.396 569.968 193.692 569.968C194.988 569.968 195.932 569.056 195.932 567.824C195.932 566.592 194.988 565.68 193.692 565.68C192.396 565.68 191.452 566.592 191.452 567.824ZM191.644 573.856C191.644 573.168 192.268 572.88 192.716 572.88C193.164 572.88 193.788 573.168 193.788 573.856V576.672C193.788 576.816 193.884 576.912 194.028 576.912H201.436C202.012 576.912 202.332 577.296 202.332 577.84C202.332 578.384 202.012 578.768 201.436 578.768H193.02C192.236 578.768 191.644 578.208 191.644 577.472V573.856Z" fill="black"/>
        <rect x="71" y="88" width="22" height="44" rx="11" fill="#5A402A"/>
        <rect x="124.5" y="87.5" width="21" height="43" rx="10.5" fill="white" stroke="#5A402A"/>
        <rect x="177.5" y="87.5" width="21" height="43" rx="10.5" fill="white" stroke="#5A402A"/>
        <rect x="230.5" y="87.5" width="21" height="43" rx="10.5" fill="white" stroke="#5A402A"/>
        <rect x="283.5" y="87.5" width="21" height="43" rx="10.5" fill="white" stroke="#5A402A"/>
        <circle cx="99" cy="365" r="74.75" stroke="#767676" stroke-width="0.5"/>
        <path d="M71.1584 393.64H82.3264C82.7104 393.64 82.9024 393.944 82.9024 394.2C82.9024 394.472 82.7104 394.744 82.3264 394.744H71.1584C70.7904 394.744 70.5984 394.472 70.5984 394.2C70.5984 393.944 70.7904 393.64 71.1584 393.64ZM79.8464 386.024C79.8464 385.192 79.3504 384.808 78.7264 384.808H72.6464C72.2624 384.808 72.1024 384.568 72.1024 384.248C72.1024 383.976 72.2624 383.704 72.6464 383.704H78.9184C80.1824 383.704 81.1264 384.552 81.1264 385.96C81.1264 387.928 80.8544 389.944 80.4384 391.56C80.3424 391.912 80.0864 392.056 79.7824 392.056C79.3984 392.056 79.1104 391.704 79.2064 391.224C79.5264 389.64 79.8464 387.928 79.8464 386.024ZM93.8994 392.552V396.248C93.8994 397.048 93.5314 397.4 92.6834 397.4H86.2674C85.4354 397.4 85.0514 397.048 85.0514 396.248V392.552C85.0514 392.104 85.3714 391.864 85.6914 391.864C86.0114 391.864 86.3474 392.104 86.3474 392.552V393.64H92.6034V392.552C92.6034 392.104 92.9234 391.864 93.2434 391.864C93.5634 391.864 93.8994 392.104 93.8994 392.552ZM87.0034 387.736H93.5794C93.9314 387.736 94.1234 388.008 94.1234 388.264C94.1234 388.536 93.9314 388.808 93.5794 388.808H86.8274C85.5474 388.808 84.9234 388.072 84.9234 387.128C84.9234 386.12 85.5474 385.416 86.8274 385.416H91.7714C92.3474 385.416 92.6354 385.224 92.6354 384.76C92.6354 384.296 92.3474 384.12 91.7714 384.12H85.7394C85.4034 384.12 85.2434 383.848 85.2434 383.592C85.2434 383.336 85.4034 383.048 85.7394 383.048H91.9634C93.2434 383.048 93.8674 383.736 93.8674 384.744C93.8674 385.688 93.2434 386.408 91.9634 386.408H87.0034C86.4434 386.408 86.1554 386.584 86.1554 387.064C86.1554 387.512 86.4434 387.736 87.0034 387.736ZM83.8834 389.768H95.0514C95.4354 389.768 95.6274 390.056 95.6274 390.312C95.6274 390.584 95.4354 390.84 95.0514 390.84H90.1234V392.024C90.1234 392.472 89.7874 392.712 89.4834 392.712C89.1474 392.712 88.8274 392.472 88.8274 392.024V390.84H83.8834C83.5154 390.84 83.3234 390.584 83.3234 390.312C83.3234 390.056 83.5154 389.768 83.8834 389.768ZM86.3474 396.344H92.6034V394.664H86.3474V396.344ZM111.453 389V396.28C111.453 396.728 111.117 396.968 110.813 396.968C110.477 396.968 110.157 396.728 110.157 396.28V383.4C110.157 382.936 110.477 382.712 110.813 382.712C111.117 382.712 111.453 382.936 111.453 383.4V387.896H113.309C113.661 387.896 113.821 388.184 113.821 388.44C113.821 388.728 113.661 389 113.309 389H111.453ZM107.645 386.04V386.792C107.645 389.384 104.893 391.928 101.357 392.936C100.717 393.128 100.413 391.992 101.021 391.832C103.853 390.888 106.349 389.096 106.349 386.792V386.024C106.349 385.288 105.869 384.904 105.229 384.904H101.565C101.181 384.904 101.005 384.632 101.005 384.312C101.005 384.04 101.181 383.8 101.565 383.8H105.437C106.685 383.8 107.645 384.616 107.645 386.04ZM114.795 386.392C114.795 384.376 116.363 382.872 118.555 382.872C120.747 382.872 122.315 384.376 122.315 386.392C122.315 388.408 120.747 389.912 118.555 389.912C116.363 389.912 114.795 388.408 114.795 386.392ZM124.747 393.272V391.8C124.747 391.352 125.067 391.112 125.387 391.112C125.707 391.112 126.043 391.352 126.043 391.8V396.264C126.043 397.096 125.643 397.4 124.763 397.4H118.699C117.819 397.4 117.419 397.096 117.419 396.264V391.8C117.419 391.352 117.739 391.112 118.059 391.112C118.379 391.112 118.715 391.352 118.715 391.8V393.272H124.747ZM121.035 386.392C121.035 384.888 119.915 383.96 118.555 383.96C117.195 383.96 116.075 384.888 116.075 386.392C116.075 387.896 117.195 388.824 118.555 388.824C119.915 388.824 121.035 387.896 121.035 386.392ZM118.715 396.312H124.747V394.328H118.715V396.312ZM126.043 383.4V389.528C126.043 389.976 125.707 390.216 125.403 390.216C125.067 390.216 124.747 389.976 124.747 389.528V383.4C124.747 382.936 125.067 382.712 125.403 382.712C125.707 382.712 126.043 382.936 126.043 383.4Z" fill="#767676"/>
        <g clip-path="url(#clip2_1839_38398)">
            <path d="M75 353V350.35C75 349.064 75.6917 348.018 77.075 347.211C78.4583 346.404 80.273 346 82.519 346C82.9243 346 83.3142 346.008 83.6885 346.025C84.0628 346.042 84.4333 346.077 84.8 346.132C84.5333 346.711 84.3333 347.297 84.2 347.891C84.0667 348.485 84 349.104 84 349.75V353H75ZM87 353V349.75C87 348.683 87.2917 347.708 87.875 346.825C88.4583 345.942 89.2833 345.167 90.35 344.5C91.4167 343.833 92.6917 343.333 94.175 343C95.6583 342.667 97.2667 342.5 99 342.5C100.767 342.5 102.392 342.667 103.875 343C105.358 343.333 106.633 343.833 107.7 344.5C108.767 345.167 109.583 345.942 110.15 346.825C110.717 347.708 111 348.683 111 349.75V353H87ZM114 353V349.75C114 349.088 113.942 348.464 113.825 347.878C113.708 347.293 113.517 346.712 113.25 346.137C113.617 346.079 113.986 346.042 114.359 346.025C114.731 346.008 115.111 346 115.5 346C117.75 346 119.562 346.396 120.938 347.188C122.312 347.981 123 349.035 123 350.35V353H114ZM90 350H108V349.7C108 348.467 107.158 347.458 105.475 346.675C103.792 345.892 101.633 345.5 99 345.5C96.3667 345.5 94.2083 345.892 92.525 346.675C90.8417 347.458 90 348.483 90 349.75V350ZM82.4785 344.5C81.5262 344.5 80.7083 344.157 80.025 343.472C79.3417 342.786 79 341.962 79 341C79 340.033 79.3427 339.208 80.028 338.525C80.7137 337.842 81.5377 337.5 82.5 337.5C83.4667 337.5 84.2917 337.842 84.975 338.525C85.6583 339.208 86 340.04 86 341.021C86 341.974 85.6583 342.792 84.975 343.475C84.2917 344.158 83.4595 344.5 82.4785 344.5ZM115.479 344.5C114.526 344.5 113.708 344.157 113.025 343.472C112.342 342.786 112 341.962 112 341C112 340.033 112.343 339.208 113.028 338.525C113.714 337.842 114.538 337.5 115.5 337.5C116.467 337.5 117.292 337.842 117.975 338.525C118.658 339.208 119 340.04 119 341.021C119 341.974 118.658 342.792 117.975 343.475C117.292 344.158 116.459 344.5 115.479 344.5ZM99 341C97.3333 341 95.9167 340.417 94.75 339.25C93.5833 338.083 93 336.667 93 335C93 333.3 93.5833 331.875 94.75 330.725C95.9167 329.575 97.3333 329 99 329C100.7 329 102.125 329.575 103.275 330.725C104.425 331.875 105 333.3 105 335C105 336.667 104.425 338.083 103.275 339.25C102.125 340.417 100.7 341 99 341ZM99.0175 338C99.8725 338 100.583 337.711 101.15 337.133C101.717 336.554 102 335.838 102 334.983C102 334.128 101.714 333.417 101.142 332.85C100.571 332.283 99.8625 332 99.0175 332C98.1725 332 97.4583 332.286 96.875 332.858C96.2917 333.429 96 334.138 96 334.983C96 335.828 96.2892 336.542 96.8675 337.125C97.4458 337.708 98.1625 338 99.0175 338Z" fill="#767676"/>
        </g>
        <circle cx="276" cy="365" r="74.75" stroke="#767676" stroke-width="0.5"/>
        <path d="M248.158 393.64H259.326C259.71 393.64 259.902 393.944 259.902 394.2C259.902 394.472 259.71 394.744 259.326 394.744H248.158C247.79 394.744 247.598 394.472 247.598 394.2C247.598 393.944 247.79 393.64 248.158 393.64ZM256.846 386.024C256.846 385.192 256.35 384.808 255.726 384.808H249.646C249.262 384.808 249.102 384.568 249.102 384.248C249.102 383.976 249.262 383.704 249.646 383.704H255.918C257.182 383.704 258.126 384.552 258.126 385.96C258.126 387.928 257.854 389.944 257.438 391.56C257.342 391.912 257.086 392.056 256.782 392.056C256.398 392.056 256.11 391.704 256.206 391.224C256.526 389.64 256.846 387.928 256.846 386.024ZM270.899 392.552V396.248C270.899 397.048 270.531 397.4 269.683 397.4H263.267C262.435 397.4 262.051 397.048 262.051 396.248V392.552C262.051 392.104 262.371 391.864 262.691 391.864C263.011 391.864 263.347 392.104 263.347 392.552V393.64H269.603V392.552C269.603 392.104 269.923 391.864 270.243 391.864C270.563 391.864 270.899 392.104 270.899 392.552ZM264.003 387.736H270.579C270.931 387.736 271.123 388.008 271.123 388.264C271.123 388.536 270.931 388.808 270.579 388.808H263.827C262.547 388.808 261.923 388.072 261.923 387.128C261.923 386.12 262.547 385.416 263.827 385.416H268.771C269.347 385.416 269.635 385.224 269.635 384.76C269.635 384.296 269.347 384.12 268.771 384.12H262.739C262.403 384.12 262.243 383.848 262.243 383.592C262.243 383.336 262.403 383.048 262.739 383.048H268.963C270.243 383.048 270.867 383.736 270.867 384.744C270.867 385.688 270.243 386.408 268.963 386.408H264.003C263.443 386.408 263.155 386.584 263.155 387.064C263.155 387.512 263.443 387.736 264.003 387.736ZM260.883 389.768H272.051C272.435 389.768 272.627 390.056 272.627 390.312C272.627 390.584 272.435 390.84 272.051 390.84H267.123V392.024C267.123 392.472 266.787 392.712 266.483 392.712C266.147 392.712 265.827 392.472 265.827 392.024V390.84H260.883C260.515 390.84 260.323 390.584 260.323 390.312C260.323 390.056 260.515 389.768 260.883 389.768ZM263.347 396.344H269.603V394.664H263.347V396.344ZM281.413 393.944C281.413 391.96 282.965 390.28 285.237 390.28C287.509 390.28 289.061 391.96 289.061 393.944C289.061 395.928 287.509 397.608 285.237 397.608C282.965 397.608 281.413 395.928 281.413 393.944ZM287.813 393.944C287.813 392.44 286.773 391.416 285.237 391.416C283.701 391.416 282.661 392.44 282.661 393.944C282.661 395.448 283.701 396.472 285.237 396.472C286.773 396.472 287.813 395.448 287.813 393.944ZM286.661 386.744V389.144C286.661 389.592 286.357 389.832 286.053 389.832C285.717 389.832 285.429 389.592 285.429 389.144V383.48C285.429 383.016 285.717 382.792 286.053 382.792C286.357 382.792 286.661 383.016 286.661 383.48V385.64H288.437V383.4C288.437 382.936 288.757 382.712 289.093 382.712C289.397 382.712 289.733 382.936 289.733 383.4V389.736C289.733 390.184 289.397 390.424 289.093 390.424C288.757 390.424 288.437 390.184 288.437 389.736V386.744H286.661ZM283.685 389.384C282.517 388.744 281.653 387.88 281.109 386.808C280.549 387.944 279.637 388.904 278.389 389.656C277.669 390.088 277.109 388.984 277.781 388.616C279.941 387.432 280.453 385.672 280.453 384.2V383.544C280.453 383.08 280.773 382.824 281.109 382.824C281.445 382.824 281.765 383.08 281.765 383.544V384.136C281.765 385.512 281.989 387.08 284.277 388.344C284.949 388.712 284.357 389.752 283.685 389.384ZM295.267 393.944C295.267 391.96 296.819 390.28 299.091 390.28C301.363 390.28 302.915 391.96 302.915 393.944C302.915 395.928 301.363 397.608 299.091 397.608C296.819 397.608 295.267 395.928 295.267 393.944ZM301.667 393.944C301.667 392.44 300.627 391.416 299.091 391.416C297.555 391.416 296.515 392.44 296.515 393.944C296.515 395.448 297.555 396.472 299.091 396.472C300.627 396.472 301.667 395.448 301.667 393.944ZM298.691 389.352C297.379 388.696 296.275 387.688 295.619 386.504C294.915 387.8 293.715 388.888 292.371 389.656C291.699 390.04 291.091 388.968 291.763 388.616C293.859 387.496 294.931 385.864 294.931 384.52V383.544C294.931 383.08 295.235 382.824 295.587 382.824C295.923 382.824 296.259 383.08 296.259 383.544V384.456C296.259 385.848 297.155 387.16 299.267 388.296C299.939 388.664 299.395 389.704 298.691 389.352ZM303.043 383.4V389.496C303.043 389.944 302.707 390.184 302.403 390.184C302.067 390.184 301.747 389.944 301.747 389.496V386.248H299.091C298.739 386.248 298.563 385.976 298.563 385.704C298.563 385.432 298.739 385.144 299.091 385.144H301.747V383.4C301.747 382.936 302.067 382.712 302.403 382.712C302.707 382.712 303.043 382.936 303.043 383.4Z" fill="#767676"/>
        <path d="M274.812 350.739H277.187V345.633H282.333V343.258H277.187V338.112H274.812V343.258H269.666V345.633H274.812V350.739ZM265.708 356.835C265.075 356.835 264.521 356.597 264.046 356.122C263.571 355.647 263.333 355.093 263.333 354.46V327.543C263.333 326.91 263.571 326.355 264.046 325.88C264.521 325.405 265.075 325.168 265.708 325.168H279.998L288.666 333.837V354.46C288.666 355.093 288.429 355.647 287.954 356.122C287.479 356.597 286.925 356.835 286.291 356.835H265.708ZM278.81 334.905V327.543H265.708V354.46H286.291V334.905H278.81Z" fill="#767676"/>
        <path d="M160.088 51.4398C161.86 56.1467 163.687 61.9316 168.681 64.1566C170.064 64.7713 171.492 65.1246 173.012 64.9594C174.386 64.8126 175.654 64.4502 176.881 63.8125C179.065 62.6794 180.818 60.7618 182.114 58.6974C184.467 54.931 185.946 49.6919 183.977 45.4714C182.837 43.0308 180.099 41.2141 177.384 42.1912C174.537 43.2189 173.379 46.2054 173.324 49.0359C173.232 53.7474 175.214 58.9222 179.298 61.5233C184.622 64.9181 191.197 62.3583 195.399 58.3854C197.542 56.3577 199.227 53.8621 200.302 51.1141C201.282 48.6047 201.726 45.4438 200.316 43.0078C199.515 41.627 198.128 40.4709 196.548 40.1314C194.561 39.7002 192.721 40.3654 191.174 41.6132C188.267 43.9483 187.378 48.1918 187.502 51.7426C187.621 55.1695 188.775 58.7983 191.819 60.6976C194.548 62.4041 197.968 62.2344 200.829 60.982C202.17 60.3948 203.37 59.4819 204.537 58.6102C205.503 57.89 206.451 57.1376 207.316 56.3027C208.822 54.8484 210.058 53.1418 211.363 51.5132C212.366 50.2608 213.391 49.0313 214.444 47.8248C215.113 47.0587 215.255 45.8154 214.444 45.0722C213.712 44.3979 212.412 44.2511 211.697 45.0722C209.99 47.0311 208.392 49.0726 206.762 51.1003C205.654 52.4766 204.464 53.7474 203.086 54.8576C202.985 54.9401 202.884 55.0181 202.779 55.1007C202.82 55.0686 203.127 54.8346 202.852 55.0457C202.624 55.22 202.39 55.3943 202.157 55.5641C201.571 55.9907 200.975 56.4082 200.371 56.8073C200.138 56.9587 199.904 57.1055 199.662 57.2385C199.52 57.3165 199.373 57.3945 199.227 57.4633C199.162 57.4954 198.668 57.6973 199.103 57.5275C198.467 57.7753 197.826 57.9496 197.153 58.0597C197.665 57.9771 197.166 58.0505 197.07 58.0597C196.919 58.0689 196.773 58.0781 196.622 58.0826C196.374 58.0872 196.132 58.0826 195.885 58.0643C195.743 58.0551 195.34 58.1102 195.825 58.0643C195.701 58.0735 195.523 58.0138 195.399 57.9863C195.074 57.9175 194.763 57.812 194.442 57.7065C193.994 57.5597 194.804 57.9037 194.388 57.6835C194.264 57.6193 194.136 57.5597 194.012 57.4908C193.806 57.3762 193.618 57.2431 193.422 57.1147C193.834 57.3899 193.458 57.1376 193.376 57.0688C193.27 56.977 193.165 56.8761 193.069 56.7752C192.973 56.6742 192.877 56.5641 192.781 56.4586C192.648 56.2935 192.657 56.3118 192.817 56.5137C192.758 56.4357 192.703 56.3531 192.648 56.2751C192.483 56.0228 192.341 55.7613 192.208 55.4907C192.222 55.5182 191.97 54.9814 192.08 55.2246C192.19 55.4677 191.966 54.9126 191.975 54.9401C191.847 54.5869 191.741 54.2245 191.654 53.8575C191.609 53.6694 191.572 53.4813 191.535 53.2932C191.512 53.1647 191.49 53.0363 191.471 52.9124C191.494 53.1097 191.49 53.0868 191.462 52.8482C191.389 52.1188 191.361 51.3939 191.384 50.6599C191.398 50.2562 191.435 49.8617 191.471 49.458C191.526 48.8157 191.398 49.8158 191.508 49.1827C191.549 48.9304 191.595 48.6735 191.65 48.4258C191.732 48.0542 191.833 47.6826 191.952 47.3202C192.011 47.1412 192.076 46.9623 192.144 46.788C192.35 46.2329 192.053 46.9669 192.204 46.655C192.355 46.343 192.501 46.0586 192.675 45.7741C192.767 45.6227 192.868 45.4759 192.968 45.3291C193.101 45.1456 193.106 45.1411 192.982 45.3062C193.055 45.219 193.133 45.1319 193.211 45.0493C193.339 44.9117 193.476 44.7924 193.609 44.6594C194.017 44.2511 193.399 44.7649 193.847 44.4575C194.003 44.352 194.159 44.2511 194.319 44.1639C194.378 44.1318 194.891 43.9299 194.479 44.0721C194.635 44.0171 195.381 43.8703 194.877 43.9208C195.024 43.907 195.175 43.8978 195.321 43.8978C195.418 43.8978 195.514 43.9024 195.61 43.9116C195.331 43.8703 195.299 43.8657 195.514 43.9116C195.647 43.9529 195.784 43.9896 195.921 44.0263C196.352 44.1455 195.592 43.8107 195.967 44.0492C196.081 44.1226 196.205 44.196 196.324 44.2648C196.713 44.4896 196.054 43.9804 196.374 44.3015C196.539 44.4713 196.704 44.6318 196.86 44.8107C196.539 44.4346 196.832 44.7924 196.887 44.8796C196.988 45.0401 197.07 45.2099 197.157 45.3842C196.933 44.9438 197.134 45.3475 197.166 45.453C197.208 45.5906 197.235 45.7328 197.276 45.8705C197.409 46.3246 197.276 45.453 197.29 45.9255C197.29 46.0632 197.304 46.2008 197.308 46.3384C197.313 46.5403 197.313 46.7421 197.308 46.9486C197.304 47.0724 197.295 47.1963 197.285 47.3202C197.281 47.4027 197.272 47.4853 197.263 47.5725C197.235 47.7881 197.244 47.7422 197.285 47.4348C197.208 47.4853 197.166 48.0955 197.144 48.2056C197.084 48.4671 197.015 48.7285 196.942 48.9855C196.878 49.2057 196.805 49.4259 196.732 49.6415C196.686 49.7745 196.635 49.9076 196.585 50.036C196.553 50.1232 196.516 50.2103 196.48 50.3021C196.585 50.0589 196.594 50.036 196.507 50.2333C196.004 51.3251 195.418 52.3665 194.717 53.3437C194.626 53.4675 194.534 53.5914 194.442 53.7153C194.722 53.3391 194.41 53.7565 194.365 53.8116C194.168 54.0547 193.966 54.2933 193.756 54.5273C193.335 54.9998 192.89 55.4494 192.424 55.876C192.19 56.0916 191.952 56.2981 191.705 56.4999C191.654 56.5412 191.233 56.8715 191.604 56.5871C191.48 56.6834 191.352 56.7752 191.224 56.8715C190.711 57.2385 190.18 57.5826 189.631 57.89C189.356 58.0414 189.077 58.1882 188.798 58.3212C188.656 58.39 188.514 58.4542 188.372 58.5185C188.807 58.3212 188.331 58.5322 188.262 58.5597C187.685 58.7845 187.09 58.968 186.486 59.1057C186.335 59.1378 186.184 59.1699 186.032 59.202C185.932 59.2204 185.446 59.2479 185.932 59.2249C185.62 59.2387 185.314 59.2617 185.002 59.2617C184.709 59.2617 184.412 59.2479 184.119 59.2204L183.977 59.2066C183.757 59.1791 183.789 59.1837 184.073 59.2204C183.986 59.2387 183.753 59.1653 183.666 59.147C183.4 59.0919 183.139 59.0277 182.883 58.9543C182.768 58.9176 182.191 58.8029 182.146 58.6974L182.375 58.7937C182.297 58.7616 182.219 58.7249 182.146 58.6882C182.031 58.6332 181.921 58.5781 181.807 58.5185C181.569 58.39 181.335 58.2524 181.111 58.101C181.024 58.0459 180.942 57.9817 180.859 57.9267C180.498 57.6835 181.193 58.2157 180.859 57.9313C180.672 57.7707 180.484 57.6147 180.31 57.445C180.136 57.2752 179.962 57.1009 179.802 56.9174C179.719 56.8256 179.641 56.7339 179.564 56.6376C179.216 56.2201 179.683 56.8256 179.49 56.5504C179.234 56.1788 178.982 55.8072 178.758 55.4173C178.639 55.2016 178.52 54.986 178.415 54.7612C178.36 54.6511 178.309 54.541 178.259 54.4263C178.03 53.9217 178.337 54.6465 178.213 54.3254C177.865 53.4125 177.581 52.4858 177.403 51.5224C177.366 51.3297 177.334 51.1324 177.307 50.9352C177.238 50.5085 177.357 51.4169 177.316 50.9856C177.307 50.871 177.288 50.7563 177.279 50.6416C177.233 50.1599 177.215 49.6736 177.22 49.1873C177.22 49.0084 177.229 48.8295 177.238 48.6506C177.247 48.5175 177.357 47.7927 177.261 48.279C177.32 47.9854 177.375 47.6963 177.462 47.4119C177.485 47.3293 177.531 47.0724 177.6 47.0174C177.485 47.2743 177.476 47.3064 177.563 47.1137C177.6 47.0357 177.636 46.9577 177.677 46.8843C177.737 46.7742 177.801 46.6687 177.865 46.5632C177.897 46.5127 178.14 46.2191 177.92 46.4669C177.7 46.7146 178.154 46.2329 178.227 46.1549C178.515 45.8521 178.176 46.1274 178.167 46.1824C178.167 46.1411 178.396 46.031 178.433 46.0081C178.451 45.9989 178.698 45.8521 178.708 45.8659C178.396 45.9898 178.337 46.0173 178.524 45.9485C178.588 45.9255 178.653 45.9072 178.717 45.8888C178.749 45.8797 179.001 45.843 179.01 45.8246C178.932 45.9898 178.483 45.8338 178.886 45.8567C178.95 45.8567 179.023 45.8567 179.083 45.8567C179.518 45.8475 178.978 45.9485 178.964 45.8338C178.964 45.8338 179.239 45.9026 179.261 45.9072C179.66 45.9943 179.248 45.8384 179.188 45.8567C179.234 45.843 179.435 45.9806 179.477 46.0035C179.541 46.0402 179.605 46.0769 179.664 46.1182C179.829 46.2329 179.793 46.2008 179.55 46.0173C179.651 46.187 179.93 46.3751 180.076 46.5219C180.369 46.8155 179.925 46.2512 180.058 46.4852C180.113 46.5816 180.191 46.6733 180.25 46.7696C180.411 47.0174 180.539 47.2835 180.667 47.5495C180.461 47.1229 180.685 47.6092 180.708 47.6826C180.745 47.7881 180.781 47.8982 180.813 48.0037C180.864 48.1734 180.905 48.3478 180.942 48.5221C180.96 48.6139 180.974 48.7056 180.992 48.7928C181.033 48.9992 180.896 48.8708 180.96 48.5542C180.928 48.7194 181.001 48.9671 181.01 49.1368C181.024 49.3754 181.024 49.6139 181.019 49.8525C181.01 50.1782 181.074 50.7471 180.932 51.0407C181.111 50.6645 180.978 50.7196 180.937 50.9719C180.919 51.0866 180.9 51.1967 180.878 51.3114C180.827 51.582 180.772 51.8481 180.708 52.1142C180.603 52.5684 180.475 53.0134 180.328 53.4584C180.26 53.674 180.182 53.8896 180.104 54.1052C180.058 54.2245 180.017 54.3392 179.971 54.4539C179.765 54.9677 180.067 54.2566 179.925 54.5685C179.504 55.4998 179.028 56.399 178.456 57.2431C178.373 57.3624 178.144 57.8257 178.012 57.8624L178.163 57.6698C178.112 57.734 178.057 57.8028 178.007 57.867C177.929 57.9634 177.847 58.0597 177.764 58.156C177.439 58.5368 177.091 58.8946 176.725 59.2341C176.542 59.3993 176.354 59.5598 176.162 59.7158C175.828 59.9957 176.524 59.4635 176.162 59.7112C176.061 59.78 175.965 59.8535 175.865 59.9223C175.462 60.1929 175.04 60.4361 174.606 60.6379L174.496 60.6884C174.303 60.771 174.349 60.7526 174.628 60.6333C174.555 60.6242 174.363 60.7343 174.29 60.7618C174.061 60.8398 173.827 60.9132 173.594 60.9728C173.379 61.0279 173.15 61.0508 172.935 61.1105C172.664 61.1839 173.447 61.0646 173.022 61.0967C172.857 61.1104 172.687 61.1288 172.523 61.1334C172.266 61.1426 172.01 61.1334 171.753 61.1334C171.314 61.1334 172.184 61.2573 171.712 61.1242C171.57 61.0829 171.419 61.0554 171.277 61.0187C170.998 60.9407 170.723 60.8398 170.449 60.7434C170.504 60.7618 170.833 60.9224 170.522 60.771C170.352 60.6884 170.183 60.6104 170.018 60.5187C169.776 60.3856 169.538 60.2388 169.309 60.0828C169.194 60.0048 169.084 59.9223 168.974 59.8397C169.387 60.1471 169.016 59.8626 168.938 59.7984C168.517 59.4406 168.132 59.0414 167.775 58.6194C167.683 58.5139 167.596 58.4038 167.509 58.2983C167.835 58.6928 167.532 58.3258 167.477 58.2478C167.313 58.0184 167.152 57.789 167.001 57.5505C166.695 57.0734 166.415 56.5825 166.154 56.0779C165.893 55.5732 165.651 55.064 165.422 54.541C165.367 54.4126 165.312 54.2841 165.252 54.1557C165.458 54.6374 165.271 54.197 165.234 54.1052C165.129 53.8483 165.028 53.5914 164.927 53.3345C164.552 52.3757 164.209 51.4031 163.842 50.4397C163.476 49.4763 162.515 48.7331 161.453 49.0818C160.528 49.38 159.713 50.4581 160.098 51.4765L160.088 51.4398Z" fill="#E84D59"/>
        <g clip-path="url(#clip3_1839_38398)">
            <path d="M42.4167 63L32 53L42.4167 43L44.2656 44.775L35.6979 53L44.2656 61.225L42.4167 63Z" fill="#767676"/>
        </g>
        <path fill-rule="evenodd" clip-rule="evenodd" d="M375 0H0V667H375V0ZM130 539C117.297 539 107 549.297 107 562V578C107 590.703 117.297 601 130 601H246C258.703 601 269 590.703 269 578V562C269 549.297 258.703 539 246 539H130ZM356 365C356 409.183 320.183 445 276 445C231.817 445 196 409.183 196 365C196 320.817 231.817 285 276 285C320.183 285 356 320.817 356 365ZM99 445C143.183 445 179 409.183 179 365C179 320.817 143.183 285 99 285C54.8172 285 19 320.817 19 365C19 409.183 54.8172 445 99 445Z" fill="#050505" fill-opacity="0.5"/>
        <path d="M99 290.333C101.946 290.333 104.333 287.946 104.333 285C104.333 282.054 101.946 279.667 99 279.667C96.0545 279.667 93.6667 282.054 93.6667 285C93.6667 287.946 96.0545 290.333 99 290.333ZM100 253C100 252.448 99.5523 252 99 252C98.4477 252 98 252.448 98 253H100ZM100 285V253H98V285H100Z" fill="#FFCC00"/>
        <path d="M276 440.667C273.054 440.667 270.667 443.054 270.667 446C270.667 448.946 273.054 451.333 276 451.333C278.946 451.333 281.333 448.946 281.333 446C281.333 443.054 278.946 440.667 276 440.667ZM275 478C275 478.552 275.448 479 276 479C276.552 479 277 478.552 277 478H275ZM275 446V478H277V446H275Z" fill="#FFCC00"/>
        <path d="M96.132 237.016H94.476C94.092 237.016 93.9 236.74 93.9 236.452C93.9 236.152 94.092 235.864 94.476 235.864H96.132V235.072C96.132 234.616 96.48 234.376 96.828 234.376C97.176 234.376 97.524 234.616 97.524 235.072V235.864H99.144C99.54 235.864 99.732 236.152 99.732 236.452C99.732 236.74 99.54 237.016 99.144 237.016H97.524C97.524 238.252 98.124 239.248 99.588 239.992C99.828 240.112 99.924 240.304 99.936 240.496C99.948 240.82 99.696 241.156 99.348 241.168C99.24 241.18 99.12 241.144 98.988 241.072C98.1 240.628 97.32 239.98 96.792 239.116C96.24 240.004 95.436 240.7 94.56 241.168C94.428 241.24 94.308 241.276 94.2 241.264C93.852 241.252 93.588 240.928 93.6 240.604C93.612 240.412 93.708 240.208 93.948 240.1C95.364 239.332 96.096 238.192 96.132 237.016ZM95.568 243.988V242.68C95.568 242.212 95.892 241.984 96.264 241.984C96.6 241.984 96.96 242.212 96.96 242.68V243.952C96.96 244.42 97.2 244.612 97.548 244.612H102.012C102.396 244.612 102.588 244.9 102.588 245.188C102.588 245.476 102.396 245.764 102.012 245.764H97.272C96.252 245.764 95.568 245.128 95.568 243.988ZM102.408 235.432V242.092C102.408 242.536 102.072 242.764 101.736 242.764C101.4 242.764 101.064 242.536 101.064 242.092V235.432C101.064 234.988 101.4 234.76 101.736 234.76C102.072 234.76 102.408 234.988 102.408 235.432ZM107.915 241.528H104.495C104.111 241.528 103.919 241.24 103.919 240.952C103.919 240.652 104.111 240.364 104.495 240.364H112.691C113.087 240.364 113.279 240.652 113.279 240.952C113.279 241.24 113.087 241.528 112.691 241.528H109.283V244.936C109.283 245.404 108.935 245.62 108.599 245.62C108.251 245.62 107.915 245.404 107.915 244.936V241.528ZM110.675 236.992C110.675 236.524 110.423 236.38 110.087 236.38H105.659C105.239 236.38 105.059 236.104 105.059 235.78C105.059 235.504 105.239 235.216 105.659 235.216H110.231C111.251 235.216 112.019 235.828 112.019 236.956C112.019 237.784 111.911 238.564 111.731 239.32C111.647 239.656 111.359 239.812 111.083 239.812C110.699 239.812 110.351 239.524 110.447 239.02C110.579 238.384 110.675 237.7 110.675 236.992ZM122.366 239.668V244.852C122.366 245.296 122.03 245.524 121.694 245.524C121.358 245.524 121.022 245.296 121.022 244.852V235.432C121.022 234.988 121.358 234.76 121.694 234.76C122.03 234.76 122.366 234.988 122.366 235.432V238.516H123.626C124.01 238.516 124.202 238.804 124.202 239.092C124.202 239.38 124.01 239.668 123.626 239.668H122.366ZM119.51 237.268V237.928C119.51 239.908 117.542 241.72 114.842 242.524C114.398 242.656 114.098 242.296 114.098 241.936C114.098 241.708 114.218 241.48 114.482 241.396C116.438 240.748 118.178 239.5 118.178 237.928V237.256C118.178 236.848 117.914 236.644 117.578 236.644H114.962C114.542 236.644 114.362 236.368 114.362 236.044C114.362 235.768 114.542 235.48 114.962 235.48H117.722C118.742 235.48 119.51 236.128 119.51 237.268ZM132.647 240.724H130.007C129.143 240.724 128.759 240.292 128.759 239.488V236.236C128.759 235.432 129.143 235 130.007 235H132.647C133.511 235 133.895 235.432 133.895 236.236V239.488C133.895 240.292 133.511 240.724 132.647 240.724ZM136.763 238.804V241.852C136.763 242.296 136.427 242.524 136.091 242.524C135.755 242.524 135.419 242.296 135.419 241.852V235.432C135.419 234.988 135.755 234.76 136.091 234.76C136.427 234.76 136.763 234.988 136.763 235.432V237.652H138.023C138.407 237.652 138.599 237.94 138.599 238.228C138.599 238.516 138.407 238.804 138.023 238.804H136.763ZM130.079 243.988V242.32C130.079 241.852 130.403 241.624 130.775 241.624C131.111 241.624 131.471 241.852 131.471 242.32V243.952C131.471 244.42 131.711 244.612 132.059 244.612H136.451C136.835 244.612 137.027 244.9 137.027 245.188C137.027 245.476 136.835 245.764 136.451 245.764H131.783C130.763 245.764 130.079 245.128 130.079 243.988ZM130.091 236.152V239.584H132.575V236.152H130.091ZM147.717 241.456H139.545C139.149 241.456 138.957 241.192 138.957 240.892C138.957 240.58 139.149 240.316 139.545 240.316H147.717C148.113 240.316 148.317 240.58 148.317 240.892C148.317 241.192 148.113 241.456 147.717 241.456ZM140.241 243.976V242.86C140.241 242.392 140.565 242.164 140.937 242.164C141.273 242.164 141.633 242.392 141.633 242.86V243.94C141.633 244.408 141.873 244.6 142.221 244.6H146.721C147.105 244.6 147.297 244.888 147.297 245.176C147.297 245.464 147.105 245.752 146.721 245.752H141.945C140.925 245.752 140.241 245.116 140.241 243.976ZM141.597 236.464V237.568C141.597 237.988 141.825 238.18 142.185 238.18H146.469C146.841 238.18 147.021 238.468 147.021 238.756C147.021 239.044 146.841 239.32 146.469 239.32H141.969C140.949 239.32 140.265 238.732 140.265 237.592V236.188C140.265 235.384 140.649 234.94 141.513 234.94H146.385C146.757 234.94 146.949 235.228 146.949 235.516C146.949 235.804 146.757 236.092 146.385 236.092H141.981C141.729 236.092 141.597 236.212 141.597 236.464ZM153.215 242.716H161.411C161.807 242.716 161.999 243.004 161.999 243.292C161.999 243.592 161.807 243.88 161.411 243.88H153.215C152.831 243.88 152.639 243.592 152.639 243.292C152.639 243.004 152.831 242.716 153.215 242.716ZM159.335 237.268C159.335 236.8 159.083 236.596 158.747 236.596H154.379C153.959 236.596 153.779 236.32 153.779 235.996C153.779 235.72 153.959 235.432 154.379 235.432H158.891C159.911 235.432 160.679 236.104 160.679 237.232C160.679 238.756 160.487 240.184 160.163 241.444C160.079 241.78 159.791 241.936 159.515 241.936C159.131 241.936 158.771 241.648 158.879 241.144C159.143 239.944 159.335 238.624 159.335 237.268ZM169.142 237.736H165.494C165.254 237.736 165.146 237.916 165.146 238.06C165.146 238.192 165.254 238.372 165.494 238.372H170.234C170.618 238.372 170.822 238.66 170.822 238.936C170.822 239.212 170.618 239.488 170.234 239.488H165.314C164.294 239.488 163.814 238.804 163.814 238.084C163.814 237.328 164.294 236.68 165.314 236.68H168.962C169.202 236.68 169.31 236.5 169.31 236.356C169.31 236.212 169.202 236.032 168.962 236.032H164.606C164.234 236.032 164.042 235.768 164.042 235.492C164.042 235.216 164.234 234.94 164.606 234.94H169.142C170.162 234.94 170.642 235.588 170.642 236.344C170.642 237.064 170.162 237.736 169.142 237.736ZM170.678 242.488V244.564C170.678 245.368 170.294 245.8 169.43 245.8H165.134C164.27 245.8 163.886 245.368 163.886 244.564V242.488C163.886 242.044 164.21 241.816 164.546 241.816C164.882 241.816 165.218 242.044 165.218 242.488V242.824H169.346V242.488C169.346 242.044 169.67 241.816 170.006 241.816C170.342 241.816 170.678 242.044 170.678 242.488ZM167.966 241.168V241.816C167.966 242.284 167.618 242.5 167.282 242.5C166.934 242.5 166.598 242.284 166.598 241.816V241.168H163.19C162.794 241.168 162.602 240.904 162.602 240.604C162.602 240.292 162.794 240.028 163.19 240.028H171.362C171.758 240.028 171.962 240.292 171.962 240.604C171.962 240.904 171.758 241.168 171.362 241.168H167.966ZM165.218 244.66H169.346V243.94H165.218V244.66ZM175.338 241.42C173.694 241.42 172.626 240.256 172.626 238.636C172.626 237.016 173.694 235.852 175.338 235.852C176.766 235.852 177.774 236.74 178.002 238.036H178.782V235.48C178.782 235.036 179.106 234.808 179.442 234.808C179.778 234.808 180.078 235.036 180.078 235.48V244.612C180.078 245.056 179.778 245.284 179.442 245.284C179.106 245.284 178.782 245.056 178.782 244.612V239.188H178.014C177.798 240.52 176.79 241.42 175.338 241.42ZM182.13 235.432V244.852C182.13 245.296 181.806 245.524 181.47 245.524C181.134 245.524 180.798 245.296 180.798 244.852V235.432C180.798 234.988 181.134 234.76 181.47 234.76C181.806 234.76 182.13 234.988 182.13 235.432ZM175.338 240.292C176.202 240.292 176.754 239.632 176.754 238.636C176.754 237.628 176.202 236.98 175.338 236.98C174.486 236.98 173.934 237.628 173.934 238.636C173.934 239.632 174.486 240.292 175.338 240.292ZM195.446 239.668V244.852C195.446 245.296 195.11 245.524 194.774 245.524C194.438 245.524 194.102 245.296 194.102 244.852V235.432C194.102 234.988 194.438 234.76 194.774 234.76C195.11 234.76 195.446 234.988 195.446 235.432V238.516H196.706C197.09 238.516 197.282 238.804 197.282 239.092C197.282 239.38 197.09 239.668 196.706 239.668H195.446ZM192.59 237.268V237.928C192.59 239.908 190.622 241.72 187.922 242.524C187.478 242.656 187.178 242.296 187.178 241.936C187.178 241.708 187.298 241.48 187.562 241.396C189.518 240.748 191.258 239.5 191.258 237.928V237.256C191.258 236.848 190.994 236.644 190.658 236.644H188.042C187.622 236.644 187.442 236.368 187.442 236.044C187.442 235.768 187.622 235.48 188.042 235.48H190.802C191.822 235.48 192.59 236.128 192.59 237.268ZM206.809 241.648V244.564C206.809 245.368 206.425 245.8 205.561 245.8H201.289C200.425 245.8 200.041 245.368 200.041 244.564V241.648C200.041 241.204 200.365 240.976 200.701 240.976C201.037 240.976 201.373 241.204 201.373 241.648V242.5H205.477V241.648C205.477 241.204 205.801 240.976 206.137 240.976C206.473 240.976 206.809 241.204 206.809 241.648ZM198.145 237.556C198.145 235.924 199.441 234.88 200.977 234.88C202.525 234.88 203.821 235.924 203.821 237.556C203.821 239.176 202.525 240.208 200.977 240.208C199.441 240.208 198.145 239.176 198.145 237.556ZM199.441 237.556C199.441 238.504 200.173 239.08 200.977 239.08C201.781 239.08 202.513 238.504 202.513 237.556C202.513 236.584 201.781 236.008 200.977 236.008C200.173 236.008 199.441 236.584 199.441 237.556ZM206.809 235.432V239.764C206.809 240.208 206.473 240.436 206.137 240.436C205.801 240.436 205.465 240.208 205.465 239.764V235.432C205.465 234.988 205.801 234.76 206.137 234.76C206.473 234.76 206.809 234.988 206.809 235.432ZM201.373 244.66H205.477V243.616H201.373V244.66ZM208.92 238.732C208.92 238.084 209.148 237.532 209.532 237.112H208.956C208.572 237.112 208.38 236.836 208.38 236.548C208.38 236.248 208.572 235.96 208.956 235.96H210.912V235.156C210.912 234.676 211.272 234.46 211.608 234.46C211.968 234.46 212.304 234.676 212.304 235.156V235.96H214.224C214.62 235.96 214.812 236.248 214.812 236.548C214.812 236.836 214.62 237.112 214.224 237.112H213.696C214.092 237.532 214.32 238.084 214.32 238.732C214.32 240.208 213.108 241.192 211.62 241.192C210.132 241.192 208.92 240.208 208.92 238.732ZM216.804 239.044V242.092C216.804 242.536 216.468 242.764 216.132 242.764C215.796 242.764 215.46 242.536 215.46 242.092V235.432C215.46 234.988 215.796 234.76 216.132 234.76C216.468 234.76 216.804 234.988 216.804 235.432V237.892H218.064C218.448 237.892 218.64 238.18 218.64 238.468C218.64 238.756 218.448 239.044 218.064 239.044H216.804ZM210.12 243.988V242.68C210.12 242.212 210.444 241.984 210.816 241.984C211.152 241.984 211.512 242.212 211.512 242.68V243.952C211.512 244.42 211.752 244.612 212.1 244.612H216.492C216.876 244.612 217.068 244.9 217.068 245.188C217.068 245.476 216.876 245.764 216.492 245.764H211.824C210.804 245.764 210.12 245.128 210.12 243.988ZM210.18 238.624C210.18 239.548 210.852 240.124 211.62 240.124C212.376 240.124 213.036 239.548 213.036 238.624C213.036 237.676 212.4 237.136 211.668 237.112H211.56C210.816 237.136 210.18 237.676 210.18 238.624ZM224.566 242.344H221.194C220.174 242.344 219.49 241.708 219.49 240.568V236.716C219.49 235.912 219.874 235.48 220.738 235.48H224.23C224.626 235.48 224.818 235.768 224.818 236.044C224.818 236.344 224.626 236.632 224.23 236.632H221.206C220.954 236.632 220.822 236.752 220.822 237.004V240.532C220.822 241 221.074 241.204 221.41 241.204H224.566C224.95 241.204 225.142 241.492 225.142 241.768C225.142 242.056 224.95 242.344 224.566 242.344ZM227.482 239.368V244.852C227.482 245.296 227.146 245.524 226.81 245.524C226.474 245.524 226.138 245.296 226.138 244.852V235.432C226.138 234.988 226.474 234.76 226.81 234.76C227.146 234.76 227.482 234.988 227.482 235.432V238.216H228.742C229.126 238.216 229.318 238.504 229.318 238.792C229.318 239.08 229.126 239.368 228.742 239.368H227.482ZM238.845 235.432V241.852C238.845 242.296 238.509 242.524 238.173 242.524C237.837 242.524 237.501 242.296 237.501 241.852V239.548H235.629C235.605 240.316 235.221 240.724 234.381 240.724H231.597C230.733 240.724 230.349 240.292 230.349 239.488V236.236C230.349 235.432 230.733 235 231.597 235H234.381C235.173 235 235.557 235.372 235.617 236.044H237.501V235.432C237.501 234.988 237.837 234.76 238.173 234.76C238.509 234.76 238.845 234.988 238.845 235.432ZM232.005 243.988V242.32C232.005 241.852 232.329 241.624 232.701 241.624C233.037 241.624 233.397 241.852 233.397 242.32V243.952C233.397 244.42 233.637 244.612 233.985 244.612H238.449C238.833 244.612 239.025 244.9 239.025 245.188C239.025 245.476 238.833 245.764 238.449 245.764H233.709C232.689 245.764 232.005 245.128 232.005 243.988ZM231.681 236.152V239.584H234.309V236.152H231.681ZM235.629 237.196V238.396H237.501V237.196H235.629Z" fill="#FFCC00"/>
        <path d="M85.684 483.432V492.852C85.684 493.296 85.36 493.524 85.024 493.524C84.688 493.524 84.352 493.296 84.352 492.852V487.152H83.224V492.612C83.224 493.056 82.924 493.284 82.588 493.284C82.252 493.284 81.928 493.056 81.928 492.612V483.48C81.928 483.036 82.252 482.808 82.588 482.808C82.924 482.808 83.224 483.036 83.224 483.48V486H84.352V483.432C84.352 482.988 84.688 482.76 85.024 482.76C85.36 482.76 85.684 482.988 85.684 483.432ZM80.584 490.236C79.804 489.684 79.252 488.988 78.88 488.208C78.508 489.06 77.968 489.816 77.176 490.38C77.044 490.476 76.912 490.524 76.78 490.524C76.432 490.524 76.144 490.2 76.144 489.876C76.144 489.708 76.228 489.528 76.42 489.396C77.872 488.412 78.184 486.9 78.184 484.788V483.936C78.184 483.48 78.52 483.24 78.868 483.24C79.204 483.24 79.552 483.48 79.552 483.936V484.944C79.552 487.056 79.888 488.268 81.34 489.252C81.532 489.384 81.616 489.564 81.616 489.732C81.616 490.056 81.328 490.38 80.98 490.38C80.848 490.38 80.716 490.332 80.584 490.236ZM88.8986 483.42H93.1946C94.3826 483.42 94.9706 484.284 94.9706 485.148C94.9706 486.012 94.3826 486.864 93.1946 486.864H90.0506C89.6546 486.864 89.4506 487.188 89.4506 487.5C89.4506 487.824 89.6546 488.136 90.0506 488.136H94.5746C94.9586 488.136 95.1506 488.424 95.1506 488.7C95.1506 488.988 94.9586 489.264 94.5746 489.264H92.2826V490.836H95.6906C96.0866 490.836 96.2786 491.124 96.2786 491.412C96.2786 491.712 96.0866 492 95.6906 492H87.4946C87.1106 492 86.9186 491.712 86.9186 491.412C86.9186 491.124 87.1106 490.836 87.4946 490.836H90.9146V489.264H89.9066C88.6946 489.264 88.0946 488.4 88.0946 487.536C88.0946 486.672 88.6946 485.796 89.9066 485.796H93.0386C93.4346 485.796 93.6266 485.484 93.6266 485.16C93.6266 484.848 93.4346 484.524 93.0386 484.524H88.8986C88.5266 484.524 88.3346 484.248 88.3346 483.972C88.3346 483.696 88.5266 483.42 88.8986 483.42ZM102.498 488.736V490.872C102.498 491.328 102.15 491.556 101.814 491.556C101.466 491.556 101.13 491.328 101.13 490.872V488.736H97.4703C97.0743 488.736 96.8823 488.472 96.8823 488.172C96.8823 487.86 97.0743 487.596 97.4703 487.596H99.1623C98.6463 487.104 98.3343 486.42 98.3343 485.64C98.3343 484.008 99.6903 482.7 101.55 482.7C103.422 482.7 104.79 484.008 104.79 485.64C104.79 486.42 104.478 487.104 103.95 487.596H105.642C106.038 487.596 106.242 487.86 106.242 488.172C106.242 488.472 106.038 488.736 105.642 488.736H102.498ZM98.1663 491.976V490.536C98.1663 490.068 98.4903 489.84 98.8623 489.84C99.1983 489.84 99.5583 490.068 99.5583 490.536V491.94C99.5583 492.408 99.7983 492.6 100.146 492.6H104.646C105.03 492.6 105.222 492.888 105.222 493.176C105.222 493.464 105.03 493.752 104.646 493.752H99.8703C98.8503 493.752 98.1663 493.116 98.1663 491.976ZM99.6663 485.724C99.6663 486.756 100.458 487.596 101.55 487.596C102.642 487.596 103.434 486.756 103.434 485.724C103.434 484.68 102.642 483.876 101.55 483.876C100.458 483.876 99.6663 484.68 99.6663 485.724ZM111.14 490.716H119.336C119.732 490.716 119.924 491.004 119.924 491.292C119.924 491.592 119.732 491.88 119.336 491.88H111.14C110.756 491.88 110.564 491.592 110.564 491.292C110.564 491.004 110.756 490.716 111.14 490.716ZM117.26 485.268C117.26 484.8 117.008 484.596 116.672 484.596H112.304C111.884 484.596 111.704 484.32 111.704 483.996C111.704 483.72 111.884 483.432 112.304 483.432H116.816C117.836 483.432 118.604 484.104 118.604 485.232C118.604 486.756 118.412 488.184 118.088 489.444C118.004 489.78 117.716 489.936 117.44 489.936C117.056 489.936 116.696 489.648 116.804 489.144C117.068 487.944 117.26 486.624 117.26 485.268ZM127.067 485.736H123.419C123.179 485.736 123.071 485.916 123.071 486.06C123.071 486.192 123.179 486.372 123.419 486.372H128.159C128.543 486.372 128.747 486.66 128.747 486.936C128.747 487.212 128.543 487.488 128.159 487.488H123.239C122.219 487.488 121.739 486.804 121.739 486.084C121.739 485.328 122.219 484.68 123.239 484.68H126.887C127.127 484.68 127.235 484.5 127.235 484.356C127.235 484.212 127.127 484.032 126.887 484.032H122.531C122.159 484.032 121.967 483.768 121.967 483.492C121.967 483.216 122.159 482.94 122.531 482.94H127.067C128.087 482.94 128.567 483.588 128.567 484.344C128.567 485.064 128.087 485.736 127.067 485.736ZM128.603 490.488V492.564C128.603 493.368 128.219 493.8 127.355 493.8H123.059C122.195 493.8 121.811 493.368 121.811 492.564V490.488C121.811 490.044 122.135 489.816 122.471 489.816C122.807 489.816 123.143 490.044 123.143 490.488V490.824H127.271V490.488C127.271 490.044 127.595 489.816 127.931 489.816C128.267 489.816 128.603 490.044 128.603 490.488ZM125.891 489.168V489.816C125.891 490.284 125.543 490.5 125.207 490.5C124.859 490.5 124.523 490.284 124.523 489.816V489.168H121.115C120.719 489.168 120.527 488.904 120.527 488.604C120.527 488.292 120.719 488.028 121.115 488.028H129.287C129.683 488.028 129.887 488.292 129.887 488.604C129.887 488.904 129.683 489.168 129.287 489.168H125.891ZM123.143 492.66H127.271V491.94H123.143V492.66ZM139.251 488.352H131.079C130.683 488.352 130.491 488.1 130.491 487.8C130.491 487.488 130.683 487.224 131.079 487.224H132.879C132.423 486.768 132.159 486.156 132.159 485.448C132.159 483.924 133.419 482.7 135.159 482.7C136.911 482.7 138.183 483.924 138.183 485.448C138.183 486.156 137.907 486.768 137.451 487.224H139.251C139.647 487.224 139.851 487.488 139.851 487.8C139.851 488.1 139.647 488.352 139.251 488.352ZM137.055 491.988H133.299C133.071 491.988 132.963 492.18 132.963 492.384C132.963 492.588 133.083 492.792 133.299 492.792H138.231C138.615 492.792 138.807 493.08 138.807 493.356C138.807 493.644 138.615 493.92 138.231 493.92H133.143C132.147 493.92 131.655 493.176 131.655 492.42C131.655 491.676 132.147 490.92 133.143 490.92H136.911C137.127 490.92 137.247 490.728 137.247 490.524C137.247 490.332 137.127 490.128 136.911 490.128H132.411C132.039 490.128 131.847 489.852 131.847 489.576C131.847 489.3 132.039 489.024 132.411 489.024H137.055C138.039 489.024 138.543 489.768 138.543 490.512C138.543 491.256 138.039 491.988 137.055 491.988ZM133.455 485.52C133.455 486.444 134.151 487.188 135.087 487.224H135.159C136.131 487.224 136.863 486.468 136.863 485.52C136.863 484.56 136.131 483.828 135.159 483.828C134.187 483.828 133.455 484.56 133.455 485.52ZM148.541 488.724H145.901C145.037 488.724 144.653 488.292 144.653 487.488V484.236C144.653 483.432 145.037 483 145.901 483H148.541C149.405 483 149.789 483.432 149.789 484.236V487.488C149.789 488.292 149.405 488.724 148.541 488.724ZM152.657 486.804V489.852C152.657 490.296 152.321 490.524 151.985 490.524C151.649 490.524 151.313 490.296 151.313 489.852V483.432C151.313 482.988 151.649 482.76 151.985 482.76C152.321 482.76 152.657 482.988 152.657 483.432V485.652H153.917C154.301 485.652 154.493 485.94 154.493 486.228C154.493 486.516 154.301 486.804 153.917 486.804H152.657ZM145.973 491.988V490.32C145.973 489.852 146.297 489.624 146.669 489.624C147.005 489.624 147.365 489.852 147.365 490.32V491.952C147.365 492.42 147.605 492.612 147.953 492.612H152.345C152.729 492.612 152.921 492.9 152.921 493.188C152.921 493.476 152.729 493.764 152.345 493.764H147.677C146.657 493.764 145.973 493.128 145.973 491.988ZM145.985 484.152V487.584H148.469V484.152H145.985ZM155.427 487.464H163.623C164.019 487.464 164.211 487.728 164.211 488.016C164.211 488.316 164.019 488.58 163.623 488.58H155.427C155.043 488.58 154.851 488.316 154.851 488.016C154.851 487.728 155.043 487.464 155.427 487.464ZM157.683 492.792H162.567C162.903 492.792 163.143 493.008 163.143 493.356C163.143 493.704 162.903 493.92 162.567 493.92H157.587C156.663 493.92 156.015 493.26 156.015 492.456C156.015 491.652 156.663 491.04 157.587 491.04H161.235C161.451 491.04 161.607 490.884 161.607 490.68C161.607 490.476 161.451 490.368 161.235 490.368H156.783C156.447 490.368 156.207 490.176 156.207 489.828C156.207 489.48 156.447 489.264 156.783 489.264H161.331C162.255 489.264 162.903 489.756 162.903 490.68C162.903 491.604 162.255 492.108 161.331 492.108H157.683C157.467 492.108 157.311 492.252 157.311 492.456C157.311 492.66 157.467 492.792 157.683 492.792ZM157.491 484.464V485.064C157.491 485.484 157.719 485.676 158.079 485.676H162.363C162.735 485.676 162.915 485.964 162.915 486.252C162.915 486.54 162.735 486.816 162.363 486.816H157.863C156.843 486.816 156.159 486.228 156.159 485.088V484.188C156.159 483.384 156.543 482.94 157.407 482.94H162.279C162.651 482.94 162.843 483.228 162.843 483.516C162.843 483.804 162.651 484.092 162.279 484.092H157.875C157.623 484.092 157.491 484.212 157.491 484.464ZM165.151 486.636C165.151 484.788 166.519 483.6 168.199 483.6C169.699 483.6 170.935 484.536 171.199 486.036H172.639V483.432C172.639 482.988 172.975 482.76 173.311 482.76C173.647 482.76 173.983 482.988 173.983 483.432V492.852C173.983 493.296 173.647 493.524 173.311 493.524C172.975 493.524 172.639 493.296 172.639 492.852V487.188H171.211C170.971 488.724 169.711 489.66 168.199 489.66C166.519 489.66 165.151 488.484 165.151 486.636ZM166.483 486.636C166.483 487.812 167.275 488.508 168.199 488.508C169.123 488.508 169.915 487.812 169.915 486.636C169.915 485.448 169.123 484.752 168.199 484.752C167.275 484.752 166.483 485.448 166.483 486.636ZM182.103 485.016H180.447C180.063 485.016 179.871 484.74 179.871 484.452C179.871 484.152 180.063 483.864 180.447 483.864H182.103V483.072C182.103 482.616 182.451 482.376 182.799 482.376C183.147 482.376 183.495 482.616 183.495 483.072V483.864H185.115C185.511 483.864 185.703 484.152 185.703 484.452C185.703 484.74 185.511 485.016 185.115 485.016H183.495C183.495 486.252 184.095 487.248 185.559 487.992C185.799 488.112 185.895 488.304 185.907 488.496C185.919 488.82 185.667 489.156 185.319 489.168C185.211 489.18 185.091 489.144 184.959 489.072C184.071 488.628 183.291 487.98 182.763 487.116C182.211 488.004 181.407 488.7 180.531 489.168C180.399 489.24 180.279 489.276 180.171 489.264C179.823 489.252 179.559 488.928 179.571 488.604C179.583 488.412 179.679 488.208 179.919 488.1C181.335 487.332 182.067 486.192 182.103 485.016ZM181.539 491.988V490.68C181.539 490.212 181.863 489.984 182.235 489.984C182.571 489.984 182.931 490.212 182.931 490.68V491.952C182.931 492.42 183.171 492.612 183.519 492.612H187.983C188.367 492.612 188.559 492.9 188.559 493.188C188.559 493.476 188.367 493.764 187.983 493.764H183.243C182.223 493.764 181.539 493.128 181.539 491.988ZM188.379 483.432V490.092C188.379 490.536 188.043 490.764 187.707 490.764C187.371 490.764 187.035 490.536 187.035 490.092V483.432C187.035 482.988 187.371 482.76 187.707 482.76C188.043 482.76 188.379 482.988 188.379 483.432ZM193.886 489.528H190.466C190.082 489.528 189.89 489.24 189.89 488.952C189.89 488.652 190.082 488.364 190.466 488.364H198.662C199.058 488.364 199.25 488.652 199.25 488.952C199.25 489.24 199.058 489.528 198.662 489.528H195.254V492.936C195.254 493.404 194.906 493.62 194.57 493.62C194.222 493.62 193.886 493.404 193.886 492.936V489.528ZM196.646 484.992C196.646 484.524 196.394 484.38 196.058 484.38H191.63C191.21 484.38 191.03 484.104 191.03 483.78C191.03 483.504 191.21 483.216 191.63 483.216H196.202C197.222 483.216 197.99 483.828 197.99 484.956C197.99 485.784 197.882 486.564 197.702 487.32C197.618 487.656 197.33 487.812 197.054 487.812C196.67 487.812 196.322 487.524 196.418 487.02C196.55 486.384 196.646 485.7 196.646 484.992ZM200.43 487.464H208.626C209.022 487.464 209.214 487.728 209.214 488.016C209.214 488.316 209.022 488.58 208.626 488.58H200.43C200.046 488.58 199.854 488.316 199.854 488.016C199.854 487.728 200.046 487.464 200.43 487.464ZM202.686 492.792H207.57C207.906 492.792 208.146 493.008 208.146 493.356C208.146 493.704 207.906 493.92 207.57 493.92H202.59C201.666 493.92 201.018 493.26 201.018 492.456C201.018 491.652 201.666 491.04 202.59 491.04H206.238C206.454 491.04 206.61 490.884 206.61 490.68C206.61 490.476 206.454 490.368 206.238 490.368H201.786C201.45 490.368 201.21 490.176 201.21 489.828C201.21 489.48 201.45 489.264 201.786 489.264H206.334C207.258 489.264 207.906 489.756 207.906 490.68C207.906 491.604 207.258 492.108 206.334 492.108H202.686C202.47 492.108 202.314 492.252 202.314 492.456C202.314 492.66 202.47 492.792 202.686 492.792ZM202.494 484.464V485.064C202.494 485.484 202.722 485.676 203.082 485.676H207.366C207.738 485.676 207.918 485.964 207.918 486.252C207.918 486.54 207.738 486.816 207.366 486.816H202.866C201.846 486.816 201.162 486.228 201.162 485.088V484.188C201.162 483.384 201.546 482.94 202.41 482.94H207.282C207.654 482.94 207.846 483.228 207.846 483.516C207.846 483.804 207.654 484.092 207.282 484.092H202.878C202.626 484.092 202.494 484.212 202.494 484.464ZM218.577 488.352H210.405C210.009 488.352 209.817 488.1 209.817 487.8C209.817 487.488 210.009 487.224 210.405 487.224H212.205C211.749 486.768 211.485 486.156 211.485 485.448C211.485 483.924 212.745 482.7 214.485 482.7C216.237 482.7 217.509 483.924 217.509 485.448C217.509 486.156 217.233 486.768 216.777 487.224H218.577C218.973 487.224 219.177 487.488 219.177 487.8C219.177 488.1 218.973 488.352 218.577 488.352ZM216.381 491.988H212.625C212.397 491.988 212.289 492.18 212.289 492.384C212.289 492.588 212.409 492.792 212.625 492.792H217.557C217.941 492.792 218.133 493.08 218.133 493.356C218.133 493.644 217.941 493.92 217.557 493.92H212.469C211.473 493.92 210.981 493.176 210.981 492.42C210.981 491.676 211.473 490.92 212.469 490.92H216.237C216.453 490.92 216.573 490.728 216.573 490.524C216.573 490.332 216.453 490.128 216.237 490.128H211.737C211.365 490.128 211.173 489.852 211.173 489.576C211.173 489.3 211.365 489.024 211.737 489.024H216.381C217.365 489.024 217.869 489.768 217.869 490.512C217.869 491.256 217.365 491.988 216.381 491.988ZM212.781 485.52C212.781 486.444 213.477 487.188 214.413 487.224H214.485C215.457 487.224 216.189 486.468 216.189 485.52C216.189 484.56 215.457 483.828 214.485 483.828C213.513 483.828 212.781 484.56 212.781 485.52ZM227.447 485.412H225.287C224.915 485.412 224.723 485.124 224.723 484.836C224.723 484.548 224.915 484.236 225.287 484.236H227.483V483.408C227.483 482.928 227.819 482.712 228.179 482.712C228.515 482.712 228.875 482.928 228.875 483.408V484.236H231.059C231.443 484.236 231.635 484.548 231.635 484.836C231.635 485.124 231.443 485.412 231.059 485.412H228.911C229.151 486.756 230.183 487.596 231.587 487.968C231.875 488.04 232.019 488.268 232.043 488.496C232.067 488.868 231.755 489.252 231.227 489.108C229.955 488.772 228.839 487.956 228.179 486.888C227.507 487.956 226.403 488.772 225.131 489.108C224.603 489.252 224.291 488.868 224.315 488.496C224.339 488.268 224.483 488.04 224.771 487.968C226.175 487.596 227.195 486.756 227.447 485.412ZM228.875 490.836H232.271C232.667 490.836 232.859 491.124 232.859 491.412C232.859 491.712 232.667 492 232.271 492H224.075C223.691 492 223.499 491.712 223.499 491.412C223.499 491.124 223.691 490.836 224.075 490.836H227.483V489.36C227.483 488.88 227.819 488.664 228.179 488.664C228.515 488.664 228.875 488.88 228.875 489.36V490.836ZM240.447 487.452V492.612C240.447 493.056 240.147 493.284 239.811 493.284C239.475 493.284 239.151 493.056 239.151 492.612V483.48C239.151 483.036 239.475 482.808 239.811 482.808C240.147 482.808 240.447 483.036 240.447 483.48V486.3H241.575V483.432C241.575 482.988 241.911 482.76 242.247 482.76C242.583 482.76 242.907 482.988 242.907 483.432V492.852C242.907 493.296 242.583 493.524 242.247 493.524C241.911 493.524 241.575 493.296 241.575 492.852V487.452H240.447ZM238.191 490.344H235.743C234.723 490.344 234.039 489.708 234.039 488.568V484.74C234.039 483.936 234.423 483.504 235.287 483.504H237.855C238.239 483.504 238.443 483.792 238.443 484.08C238.443 484.368 238.239 484.644 237.855 484.644H235.743C235.491 484.644 235.359 484.764 235.359 485.016V488.532C235.359 489 235.611 489.204 235.947 489.204H238.191C238.575 489.204 238.767 489.492 238.767 489.768C238.767 490.056 238.575 490.344 238.191 490.344ZM244.633 487.404C244.633 486.672 244.873 486.048 245.293 485.592H244.717C244.333 485.592 244.141 485.316 244.141 485.028C244.141 484.728 244.333 484.44 244.717 484.44H246.733V483.276C246.733 482.796 247.093 482.58 247.429 482.58C247.789 482.58 248.125 482.796 248.125 483.276V484.44H250.105C250.501 484.44 250.693 484.728 250.693 485.028C250.693 485.316 250.501 485.592 250.105 485.592H249.589C249.997 486.048 250.249 486.672 250.249 487.404C250.249 489.072 248.989 490.116 247.441 490.116C245.893 490.116 244.633 489.072 244.633 487.404ZM252.625 487.596V492.852C252.625 493.296 252.289 493.524 251.953 493.524C251.617 493.524 251.281 493.296 251.281 492.852V483.432C251.281 482.988 251.617 482.76 251.953 482.76C252.289 482.76 252.625 482.988 252.625 483.432V486.444H253.885C254.269 486.444 254.461 486.732 254.461 487.02C254.461 487.308 254.269 487.596 253.885 487.596H252.625ZM245.893 487.308C245.893 488.364 246.601 489 247.441 489C248.269 489 248.965 488.364 248.965 487.308C248.965 486.264 248.293 485.628 247.501 485.592H247.441C246.601 485.592 245.893 486.228 245.893 487.308ZM260.58 490.5H257.268C256.02 490.5 255.396 489.492 255.396 488.472C255.396 487.452 256.02 486.432 257.268 486.432H258.324C258.828 486.432 259.092 485.988 259.092 485.532C259.092 485.064 258.828 484.62 258.324 484.62H256.248C255.876 484.62 255.684 484.344 255.684 484.056C255.684 483.768 255.876 483.48 256.248 483.48H258.528C259.776 483.48 260.4 484.5 260.4 485.508C260.4 486.528 259.776 487.536 258.528 487.536H257.472C256.968 487.536 256.704 487.98 256.704 488.448C256.704 488.904 256.968 489.348 257.472 489.348H260.58C260.94 489.348 261.132 489.636 261.132 489.924C261.132 490.212 260.94 490.5 260.58 490.5ZM263.988 483.432V492.84C263.988 493.284 263.652 493.512 263.316 493.512C262.98 493.512 262.644 493.284 262.644 492.84V488.736H261.084C260.712 488.736 260.52 488.448 260.52 488.172C260.52 487.884 260.712 487.596 261.084 487.596H262.644V486.084H261.252C260.868 486.084 260.676 485.796 260.676 485.52C260.676 485.232 260.868 484.944 261.252 484.944H262.644V483.432C262.644 482.988 262.98 482.76 263.316 482.76C263.652 482.76 263.988 482.988 263.988 483.432ZM274.666 483.432V489.852C274.666 490.296 274.33 490.524 273.994 490.524C273.658 490.524 273.322 490.296 273.322 489.852V487.548H271.45C271.426 488.316 271.042 488.724 270.202 488.724H267.418C266.554 488.724 266.17 488.292 266.17 487.488V484.236C266.17 483.432 266.554 483 267.418 483H270.202C270.994 483 271.378 483.372 271.438 484.044H273.322V483.432C273.322 482.988 273.658 482.76 273.994 482.76C274.33 482.76 274.666 482.988 274.666 483.432ZM267.826 491.988V490.32C267.826 489.852 268.15 489.624 268.522 489.624C268.858 489.624 269.218 489.852 269.218 490.32V491.952C269.218 492.42 269.458 492.612 269.806 492.612H274.27C274.654 492.612 274.846 492.9 274.846 493.188C274.846 493.476 274.654 493.764 274.27 493.764H269.53C268.51 493.764 267.826 493.128 267.826 491.988ZM267.502 484.152V487.584H270.13V484.152H267.502ZM271.45 485.196V486.396H273.322V485.196H271.45Z" fill="#FFCC00"/>
        <path d="M91.476 644.8H87.276C86.412 644.8 86.028 644.368 86.028 643.564V641.836C86.028 641.032 86.412 640.6 87.276 640.6H91.476C92.34 640.6 92.724 641.032 92.724 641.836V643.564C92.724 644.368 92.34 644.8 91.476 644.8ZM89.508 639.52C88.644 639.064 87.924 638.452 87.432 637.684C86.916 638.488 86.16 639.136 85.32 639.616C85.188 639.688 85.068 639.724 84.96 639.712C84.612 639.7 84.348 639.376 84.36 639.052C84.372 638.86 84.468 638.656 84.708 638.548C85.992 637.852 86.604 636.88 86.736 635.956H85.236C84.852 635.956 84.66 635.68 84.66 635.392C84.66 635.092 84.852 634.804 85.236 634.804H86.772V634.072C86.772 633.616 87.12 633.376 87.468 633.376C87.816 633.376 88.164 633.616 88.164 634.072V634.804H89.664C90.06 634.804 90.252 635.092 90.252 635.392C90.252 635.68 90.06 635.956 89.664 635.956H88.176C88.26 636.868 88.716 637.732 90.108 638.44C90.348 638.548 90.444 638.752 90.456 638.944C90.468 639.268 90.216 639.604 89.868 639.616C89.76 639.628 89.64 639.592 89.508 639.52ZM92.724 637.42V639.328C92.724 639.772 92.388 640 92.052 640C91.716 640 91.38 639.772 91.38 639.328V634.432C91.38 633.988 91.716 633.76 92.052 633.76C92.388 633.76 92.724 633.988 92.724 634.432V636.268H93.984C94.368 636.268 94.56 636.556 94.56 636.844C94.56 637.132 94.368 637.42 93.984 637.42H92.724ZM87.36 641.74V643.672H91.392V641.74H87.36ZM95.2546 637.636C95.2546 635.788 96.6226 634.6 98.3026 634.6C99.2986 634.6 100.187 635.02 100.751 635.74H102.743V634.432C102.743 633.988 103.079 633.76 103.415 633.76C103.751 633.76 104.087 633.988 104.087 634.432V643.84C104.087 644.284 103.751 644.512 103.415 644.512C103.079 644.512 102.743 644.284 102.743 643.84V639.484H100.775C100.223 640.228 99.3226 640.66 98.3026 640.66C96.6226 640.66 95.2546 639.484 95.2546 637.636ZM96.5866 637.636C96.5866 638.812 97.3786 639.508 98.3026 639.508C99.2266 639.508 100.019 638.812 100.019 637.636C100.019 636.448 99.2266 635.752 98.3026 635.752C97.3786 635.752 96.5866 636.448 96.5866 637.636ZM101.363 637.636C101.363 637.9 101.327 638.14 101.279 638.368H102.743V636.856H101.267C101.327 637.108 101.363 637.36 101.363 637.636ZM108.069 642.184C108.069 640.588 109.353 639.316 111.141 639.316C112.917 639.316 114.213 640.588 114.213 642.184C114.213 643.78 112.917 645.04 111.141 645.04C109.353 645.04 108.069 643.78 108.069 642.184ZM111.213 634.612V637.696C111.213 638.5 110.829 638.932 109.965 638.932H107.325C106.461 638.932 106.077 638.5 106.077 637.696V634.624C106.077 634.18 106.401 633.952 106.737 633.952C107.073 633.952 107.409 634.18 107.409 634.624V635.488H109.893V634.612C109.893 634.168 110.217 633.952 110.553 633.952C110.877 633.952 111.213 634.168 111.213 634.612ZM109.401 642.184C109.401 643.156 110.145 643.9 111.141 643.9C112.137 643.9 112.881 643.156 112.881 642.184C112.881 641.212 112.137 640.456 111.141 640.456C110.145 640.456 109.401 641.212 109.401 642.184ZM114.081 634.432V637.612C114.081 637.876 114.213 638.008 114.489 638.008H115.341C115.725 638.008 115.917 638.296 115.917 638.584C115.917 638.872 115.725 639.16 115.341 639.16H114.273C113.205 639.16 112.737 638.644 112.737 637.636V634.432C112.737 633.988 113.073 633.76 113.409 633.76C113.745 633.76 114.081 633.988 114.081 634.432ZM107.409 637.804H109.893V636.616H107.409V637.804ZM117.548 639.376C117.416 639.448 117.308 639.484 117.2 639.484C116.852 639.484 116.576 639.16 116.576 638.836C116.576 638.644 116.672 638.452 116.9 638.32C118.532 637.42 119.108 636.304 119.108 635.32V634.516C119.108 634.06 119.456 633.82 119.804 633.82C120.152 633.82 120.5 634.06 120.5 634.516V635.272C120.5 636.316 120.944 637.276 122.588 638.14C122.816 638.26 122.912 638.464 122.912 638.656C122.912 638.98 122.648 639.316 122.3 639.316C122.192 639.316 122.072 639.268 121.952 639.208C121.124 638.776 120.344 638.14 119.816 637.336C119.276 638.152 118.484 638.836 117.548 639.376ZM123.512 641.728H119C118.604 641.728 118.412 641.44 118.412 641.152C118.412 640.864 118.604 640.576 119 640.576H123.656C124.676 640.576 125.444 641.236 125.444 642.376V644.248C125.444 644.692 125.108 644.92 124.772 644.92C124.436 644.92 124.1 644.692 124.1 644.248V642.424C124.1 641.956 123.848 641.728 123.512 641.728ZM125.444 634.432V639.304C125.444 639.748 125.108 639.976 124.772 639.976C124.436 639.976 124.1 639.748 124.1 639.304V634.432C124.1 633.988 124.436 633.76 124.772 633.76C125.108 633.76 125.444 633.988 125.444 634.432ZM135.714 639.352H127.542C127.146 639.352 126.954 639.1 126.954 638.8C126.954 638.488 127.146 638.224 127.542 638.224H129.342C128.886 637.768 128.622 637.156 128.622 636.448C128.622 634.924 129.882 633.7 131.622 633.7C133.374 633.7 134.646 634.924 134.646 636.448C134.646 637.156 134.37 637.768 133.914 638.224H135.714C136.11 638.224 136.314 638.488 136.314 638.8C136.314 639.1 136.11 639.352 135.714 639.352ZM133.518 642.988H129.762C129.534 642.988 129.426 643.18 129.426 643.384C129.426 643.588 129.546 643.792 129.762 643.792H134.694C135.078 643.792 135.27 644.08 135.27 644.356C135.27 644.644 135.078 644.92 134.694 644.92H129.606C128.61 644.92 128.118 644.176 128.118 643.42C128.118 642.676 128.61 641.92 129.606 641.92H133.374C133.59 641.92 133.71 641.728 133.71 641.524C133.71 641.332 133.59 641.128 133.374 641.128H128.874C128.502 641.128 128.31 640.852 128.31 640.576C128.31 640.3 128.502 640.024 128.874 640.024H133.518C134.502 640.024 135.006 640.768 135.006 641.512C135.006 642.256 134.502 642.988 133.518 642.988ZM129.918 636.52C129.918 637.444 130.614 638.188 131.55 638.224H131.622C132.594 638.224 133.326 637.468 133.326 636.52C133.326 635.56 132.594 634.828 131.622 634.828C130.65 634.828 129.918 635.56 129.918 636.52ZM146.132 639.784C145.172 639.268 144.476 638.476 144.032 637.6C143.552 638.488 142.832 639.316 141.86 639.88C141.728 639.964 141.608 640 141.488 640C141.14 640 140.876 639.676 140.876 639.352C140.876 639.16 140.96 638.98 141.176 638.848C142.676 637.936 143.348 636.892 143.348 635.26V634.516C143.348 634.06 143.696 633.82 144.044 633.82C144.392 633.82 144.74 634.06 144.74 634.516V635.152C144.74 636.784 145.256 637.864 146.78 638.728C147.008 638.86 147.104 639.052 147.104 639.244C147.104 639.568 146.828 639.892 146.48 639.892C146.372 639.892 146.252 639.856 146.132 639.784ZM149.804 634.432V640.852C149.804 641.296 149.468 641.524 149.132 641.524C148.796 641.524 148.46 641.296 148.46 640.852V637H146.744C146.36 637 146.168 636.712 146.168 636.424C146.168 636.136 146.36 635.848 146.744 635.848H148.46V634.432C148.46 633.988 148.796 633.76 149.132 633.76C149.468 633.76 149.804 633.988 149.804 634.432ZM142.964 642.988V641.32C142.964 640.852 143.288 640.624 143.66 640.624C143.996 640.624 144.356 640.852 144.356 641.32V642.952C144.356 643.42 144.596 643.612 144.944 643.612H149.408C149.792 643.612 149.984 643.9 149.984 644.188C149.984 644.476 149.792 644.764 149.408 644.764H144.668C143.648 644.764 142.964 644.128 142.964 642.988ZM158.298 637.396V639.484C158.298 639.928 157.998 640.156 157.662 640.156C157.326 640.156 157.002 639.928 157.002 639.484V634.48C157.002 634.036 157.326 633.808 157.662 633.808C157.998 633.808 158.298 634.036 158.298 634.48V636.244H159.426V634.432C159.426 633.988 159.762 633.76 160.098 633.76C160.434 633.76 160.758 633.988 160.758 634.432V639.556C160.758 640 160.434 640.228 160.098 640.228C159.762 640.228 159.426 640 159.426 639.556V637.396H158.298ZM155.862 639.724H153.558C152.538 639.724 151.854 639.088 151.854 637.948V635.236C151.854 634.432 152.238 634.024 153.102 634.024H155.526C155.922 634.024 156.114 634.3 156.114 634.576C156.114 634.876 155.922 635.152 155.526 635.152H153.558C153.306 635.152 153.174 635.272 153.174 635.524V636.292H155.394C155.718 636.292 155.958 636.496 155.958 636.844C155.958 637.18 155.718 637.384 155.394 637.384H153.174V637.924C153.174 638.392 153.426 638.596 153.762 638.596H155.862C156.246 638.596 156.438 638.884 156.438 639.16C156.438 639.448 156.246 639.724 155.862 639.724ZM158.826 641.968H154.146C153.75 641.968 153.558 641.68 153.558 641.38C153.558 641.104 153.75 640.828 154.146 640.828H158.97C159.99 640.828 160.758 641.488 160.758 642.628V644.248C160.758 644.692 160.422 644.92 160.086 644.92C159.75 644.92 159.414 644.692 159.414 644.248V642.664C159.414 642.196 159.162 641.968 158.826 641.968ZM162.485 638.404C162.485 637.672 162.725 637.048 163.145 636.592H162.569C162.185 636.592 161.993 636.316 161.993 636.028C161.993 635.728 162.185 635.44 162.569 635.44H164.585V634.276C164.585 633.796 164.945 633.58 165.281 633.58C165.641 633.58 165.977 633.796 165.977 634.276V635.44H167.957C168.353 635.44 168.545 635.728 168.545 636.028C168.545 636.316 168.353 636.592 167.957 636.592H167.441C167.849 637.048 168.101 637.672 168.101 638.404C168.101 640.072 166.841 641.116 165.293 641.116C163.745 641.116 162.485 640.072 162.485 638.404ZM170.477 638.596V643.852C170.477 644.296 170.141 644.524 169.805 644.524C169.469 644.524 169.133 644.296 169.133 643.852V634.432C169.133 633.988 169.469 633.76 169.805 633.76C170.141 633.76 170.477 633.988 170.477 634.432V637.444H171.737C172.121 637.444 172.313 637.732 172.313 638.02C172.313 638.308 172.121 638.596 171.737 638.596H170.477ZM163.745 638.308C163.745 639.364 164.453 640 165.293 640C166.121 640 166.817 639.364 166.817 638.308C166.817 637.264 166.145 636.628 165.353 636.592H165.293C164.453 636.592 163.745 637.228 163.745 638.308ZM175.576 635.632H173.98C173.596 635.632 173.404 635.356 173.404 635.068C173.404 634.768 173.596 634.48 173.98 634.48H178.528C178.924 634.48 179.116 634.768 179.116 635.068C179.116 635.356 178.924 635.632 178.528 635.632H176.968V636.04C176.968 638.152 177.82 639.424 179.272 640.408C179.464 640.54 179.548 640.708 179.548 640.888C179.548 641.212 179.26 641.548 178.912 641.548C178.78 641.548 178.648 641.5 178.516 641.404C177.52 640.708 176.764 639.748 176.26 638.704C175.768 639.772 175.036 640.756 174.076 641.44C173.944 641.536 173.812 641.584 173.68 641.584C173.332 641.584 173.044 641.248 173.044 640.924C173.044 640.744 173.128 640.576 173.32 640.444C174.772 639.46 175.576 637.96 175.576 635.848V635.632ZM181.84 634.432V643.84C181.84 644.284 181.504 644.512 181.168 644.512C180.832 644.512 180.496 644.284 180.496 643.84V634.432C180.496 633.988 180.832 633.76 181.168 633.76C181.504 633.76 181.84 633.988 181.84 634.432ZM187.272 636.616C187.272 634.948 188.556 633.88 190.128 633.88C191.712 633.88 192.996 634.948 192.996 636.616C192.996 638.272 191.712 639.328 190.128 639.328C188.556 639.328 187.272 638.272 187.272 636.616ZM191.736 643.072C191.736 642.64 191.88 642.232 192.132 641.896H191.82C191.424 641.896 191.232 641.644 191.232 641.344C191.232 641.02 191.424 640.756 191.82 640.756H193.224V640.18C193.224 639.724 193.56 639.496 193.896 639.496C194.232 639.496 194.568 639.724 194.568 640.18V640.756H195.96C196.368 640.756 196.56 641.02 196.56 641.344C196.56 641.644 196.368 641.896 195.96 641.896H195.672C195.924 642.232 196.08 642.64 196.08 643.072C196.08 644.152 195.168 645.04 193.896 645.04C192.636 645.04 191.736 644.152 191.736 643.072ZM195.552 637.204V638.812C195.552 639.256 195.216 639.484 194.88 639.484C194.544 639.484 194.208 639.256 194.208 638.812V634.432C194.208 633.988 194.544 633.76 194.88 633.76C195.216 633.76 195.552 633.988 195.552 634.432V636.052H196.812C197.196 636.052 197.388 636.34 197.388 636.628C197.388 636.916 197.196 637.204 196.812 637.204H195.552ZM188.568 636.616C188.568 637.612 189.3 638.212 190.128 638.212C190.956 638.212 191.688 637.612 191.688 636.616C191.688 635.608 190.956 635.008 190.128 635.008C189.3 635.008 188.568 635.608 188.568 636.616ZM188.136 643.096V640.96C188.136 640.492 188.46 640.264 188.832 640.264C189.168 640.264 189.528 640.492 189.528 640.96V643.072C189.528 643.54 189.648 643.612 189.996 643.612H191.028C191.412 643.612 191.604 643.9 191.604 644.188C191.604 644.476 191.412 644.764 191.028 644.764H189.804C188.784 644.764 188.136 644.236 188.136 643.096ZM192.924 642.928C192.924 643.492 193.332 643.948 193.896 643.948C194.46 643.948 194.868 643.492 194.868 642.928C194.868 642.376 194.46 641.896 193.896 641.896C193.332 641.896 192.924 642.376 192.924 642.928ZM199.114 637.288C199.114 635.524 200.506 634.18 202.414 634.18C204.322 634.18 205.738 635.524 205.738 637.288C205.738 639.04 204.334 640.384 202.414 640.384C200.506 640.384 199.114 639.04 199.114 637.288ZM200.446 637.288C200.446 638.428 201.31 639.232 202.414 639.232C203.542 639.232 204.406 638.428 204.406 637.288C204.406 636.16 203.542 635.332 202.414 635.332C201.31 635.332 200.446 636.16 200.446 637.288ZM198.322 641.716H206.518C206.914 641.716 207.106 642.004 207.106 642.292C207.106 642.592 206.914 642.88 206.518 642.88H198.322C197.938 642.88 197.746 642.592 197.746 642.292C197.746 642.004 197.938 641.716 198.322 641.716ZM216.878 634.432V640.852C216.878 641.296 216.542 641.524 216.206 641.524C215.87 641.524 215.534 641.296 215.534 640.852V638.548H213.662C213.638 639.316 213.254 639.724 212.414 639.724H209.63C208.766 639.724 208.382 639.292 208.382 638.488V635.236C208.382 634.432 208.766 634 209.63 634H212.414C213.206 634 213.59 634.372 213.65 635.044H215.534V634.432C215.534 633.988 215.87 633.76 216.206 633.76C216.542 633.76 216.878 633.988 216.878 634.432ZM210.038 642.988V641.32C210.038 640.852 210.362 640.624 210.734 640.624C211.07 640.624 211.43 640.852 211.43 641.32V642.952C211.43 643.42 211.67 643.612 212.018 643.612H216.482C216.866 643.612 217.058 643.9 217.058 644.188C217.058 644.476 216.866 644.764 216.482 644.764H211.742C210.722 644.764 210.038 644.128 210.038 642.988ZM209.714 635.152V638.584H212.342V635.152H209.714ZM213.662 636.196V637.396H215.534V636.196H213.662ZM224.938 643.792H229.822C230.158 643.792 230.398 644.008 230.398 644.356C230.398 644.704 230.158 644.92 229.822 644.92H224.842C223.918 644.92 223.27 644.26 223.27 643.456C223.27 642.652 223.918 642.04 224.842 642.04H228.49C228.706 642.04 228.862 641.884 228.862 641.68C228.862 641.476 228.706 641.368 228.49 641.368H224.038C223.702 641.368 223.462 641.176 223.462 640.828C223.462 640.48 223.702 640.264 224.038 640.264H226.102V639.508H222.694C222.298 639.508 222.106 639.256 222.106 638.956C222.106 638.644 222.298 638.38 222.694 638.38H230.866C231.262 638.38 231.466 638.644 231.466 638.956C231.466 639.256 231.262 639.508 230.866 639.508H227.47V640.264H228.586C229.51 640.264 230.158 640.756 230.158 641.68C230.158 642.604 229.51 643.108 228.586 643.108H224.938C224.722 643.108 224.566 643.252 224.566 643.456C224.566 643.66 224.722 643.792 224.938 643.792ZM224.782 634.516V635.908C224.782 636.328 225.01 636.52 225.37 636.52H229.618C229.99 636.52 230.17 636.808 230.17 637.096C230.17 637.384 229.99 637.66 229.618 637.66H225.118C224.098 637.66 223.414 637.072 223.414 635.932V634.516C223.414 634.048 223.726 633.82 224.098 633.82C224.434 633.82 224.782 634.048 224.782 634.516ZM241.238 634.432V643.84C241.238 644.284 240.902 644.512 240.566 644.512C240.23 644.512 239.894 644.284 239.894 643.84V634.432C239.894 633.988 240.23 633.76 240.566 633.76C240.902 633.76 241.238 633.988 241.238 634.432ZM238.262 641.5H234.566C233.318 641.5 232.694 640.492 232.694 639.472C232.694 638.452 233.318 637.432 234.566 637.432H236.306C236.81 637.432 237.074 636.988 237.074 636.532C237.074 636.064 236.81 635.62 236.306 635.62H233.546C233.174 635.62 232.982 635.344 232.982 635.056C232.982 634.768 233.174 634.48 233.546 634.48H236.51C237.758 634.48 238.382 635.5 238.382 636.508C238.382 637.528 237.758 638.536 236.51 638.536H234.77C234.266 638.536 234.002 638.98 234.002 639.448C234.002 639.904 234.266 640.348 234.77 640.348H238.262C238.622 640.348 238.814 640.636 238.814 640.924C238.814 641.212 238.622 641.5 238.262 641.5ZM245.653 635.632H244.057C243.673 635.632 243.481 635.356 243.481 635.068C243.481 634.768 243.673 634.48 244.057 634.48H248.605C249.001 634.48 249.193 634.768 249.193 635.068C249.193 635.356 249.001 635.632 248.605 635.632H247.045V636.04C247.045 638.152 247.897 639.424 249.349 640.408C249.541 640.54 249.625 640.708 249.625 640.888C249.625 641.212 249.337 641.548 248.989 641.548C248.857 641.548 248.725 641.5 248.593 641.404C247.597 640.708 246.841 639.748 246.337 638.704C245.845 639.772 245.113 640.756 244.153 641.44C244.021 641.536 243.889 641.584 243.757 641.584C243.409 641.584 243.121 641.248 243.121 640.924C243.121 640.744 243.205 640.576 243.397 640.444C244.849 639.46 245.653 637.96 245.653 635.848V635.632ZM251.917 634.432V643.84C251.917 644.284 251.581 644.512 251.245 644.512C250.909 644.512 250.573 644.284 250.573 643.84V634.432C250.573 633.988 250.909 633.76 251.245 633.76C251.581 633.76 251.917 633.988 251.917 634.432ZM257.349 636.616C257.349 634.948 258.633 633.88 260.205 633.88C261.789 633.88 263.073 634.948 263.073 636.616C263.073 638.272 261.789 639.328 260.205 639.328C258.633 639.328 257.349 638.272 257.349 636.616ZM261.813 643.072C261.813 642.64 261.957 642.232 262.209 641.896H261.897C261.501 641.896 261.309 641.644 261.309 641.344C261.309 641.02 261.501 640.756 261.897 640.756H263.301V640.18C263.301 639.724 263.637 639.496 263.973 639.496C264.309 639.496 264.645 639.724 264.645 640.18V640.756H266.037C266.445 640.756 266.637 641.02 266.637 641.344C266.637 641.644 266.445 641.896 266.037 641.896H265.749C266.001 642.232 266.157 642.64 266.157 643.072C266.157 644.152 265.245 645.04 263.973 645.04C262.713 645.04 261.813 644.152 261.813 643.072ZM265.629 637.204V638.812C265.629 639.256 265.293 639.484 264.957 639.484C264.621 639.484 264.285 639.256 264.285 638.812V634.432C264.285 633.988 264.621 633.76 264.957 633.76C265.293 633.76 265.629 633.988 265.629 634.432V636.052H266.889C267.273 636.052 267.465 636.34 267.465 636.628C267.465 636.916 267.273 637.204 266.889 637.204H265.629ZM258.645 636.616C258.645 637.612 259.377 638.212 260.205 638.212C261.033 638.212 261.765 637.612 261.765 636.616C261.765 635.608 261.033 635.008 260.205 635.008C259.377 635.008 258.645 635.608 258.645 636.616ZM258.213 643.096V640.96C258.213 640.492 258.537 640.264 258.909 640.264C259.245 640.264 259.605 640.492 259.605 640.96V643.072C259.605 643.54 259.725 643.612 260.073 643.612H261.105C261.489 643.612 261.681 643.9 261.681 644.188C261.681 644.476 261.489 644.764 261.105 644.764H259.881C258.861 644.764 258.213 644.236 258.213 643.096ZM263.001 642.928C263.001 643.492 263.409 643.948 263.973 643.948C264.537 643.948 264.945 643.492 264.945 642.928C264.945 642.376 264.537 641.896 263.973 641.896C263.409 641.896 263.001 642.376 263.001 642.928ZM267.92 637.636C267.92 635.788 269.288 634.6 270.968 634.6C272.66 634.6 274.028 635.788 274.028 637.636C274.028 639.484 272.66 640.66 270.968 640.66C269.288 640.66 267.92 639.484 267.92 637.636ZM276.308 638.248V643.852C276.308 644.296 275.972 644.524 275.636 644.524C275.3 644.524 274.964 644.296 274.964 643.852V634.432C274.964 633.988 275.3 633.76 275.636 633.76C275.972 633.76 276.308 633.988 276.308 634.432V637.096H277.568C277.952 637.096 278.144 637.384 278.144 637.672C278.144 637.96 277.952 638.248 277.568 638.248H276.308ZM269.252 637.636C269.252 638.812 270.044 639.508 270.968 639.508C271.892 639.508 272.684 638.812 272.684 637.636C272.684 636.448 271.892 635.752 270.968 635.752C270.044 635.752 269.252 636.448 269.252 637.636ZM285.522 641.716H287.274C287.67 641.716 287.862 642.004 287.862 642.292C287.862 642.592 287.67 642.88 287.274 642.88H279.078C278.694 642.88 278.502 642.592 278.502 642.292C278.502 642.004 278.694 641.716 279.078 641.716H280.818V639.448C280.218 638.908 279.87 638.128 279.87 637.252C279.87 635.5 281.262 634.18 283.17 634.18C285.078 634.18 286.494 635.5 286.494 637.252C286.494 638.14 286.122 638.908 285.522 639.46V641.716ZM281.202 637.252C281.202 638.38 282.066 639.16 283.17 639.16C284.298 639.16 285.162 638.38 285.162 637.252C285.162 636.136 284.298 635.332 283.17 635.332C282.066 635.332 281.202 636.136 281.202 637.252ZM283.17 640.312C282.81 640.312 282.474 640.264 282.162 640.18V641.716H284.178V640.18C283.854 640.264 283.518 640.312 283.17 640.312ZM288.706 642.892C288.706 642.412 289.102 642.016 289.594 642.016C290.086 642.016 290.482 642.412 290.482 642.892C290.482 643.372 290.086 643.78 289.594 643.78C289.102 643.78 288.706 643.372 288.706 642.892Z" fill="#FFCC00"/>
        <path d="M188 593.667C185.054 593.667 182.667 596.054 182.667 599C182.667 601.946 185.054 604.333 188 604.333C190.946 604.333 193.333 601.946 193.333 599C193.333 596.054 190.946 593.667 188 593.667ZM187 628C187 628.552 187.448 629 188 629C188.552 629 189 628.552 189 628H187ZM187 599V628H189V599H187Z" fill="#FFCC00"/>
    </g>
    <defs>
        <clipPath id="clip0_1839_38398">
            <rect width="375" height="667" fill="white"/>
        </clipPath>
        <clipPath id="clip1_1839_38398">
            <rect width="375.49" height="514.5" fill="white" transform="matrix(-1 0 0 -1 375 624.5)"/>
        </clipPath>
        <clipPath id="clip2_1839_38398">
            <rect width="48" height="48" fill="white" transform="translate(75 317)"/>
        </clipPath>
        <clipPath id="clip3_1839_38398">
            <rect width="25" height="24" fill="white" transform="translate(32 41)"/>
        </clipPath>
    </defs>
</svg>
