<svg width="375" height="667" viewBox="0 0 375 667" fill="none" xmlns="http://www.w3.org/2000/svg">
    <g clip-path="url(#clip0_1839_38510)">
        <rect width="375" height="667" fill="#FCF9D1"/>
        <g clip-path="url(#clip1_1839_38510)">
            <path d="M375 624.75V110.75H298.2V125.53C301.23 127.25 303.2 130.5 303.2 134.23C303.2 139.75 298.72 144.23 293.2 144.23C287.68 144.23 283.2 139.75 283.2 134.23C283.2 130.5 285.17 127.25 288.2 125.53V110.75H245.36V125.53H245.28C248.31 127.25 250.36 130.5 250.36 134.23C250.36 139.75 245.88 144.23 240.36 144.23C234.84 144.23 230.36 139.75 230.36 134.23C230.36 130.5 232.41 127.25 235.44 125.53H235.36V110.75H192.51V125.53C195.54 127.25 197.51 130.5 197.51 134.23C197.51 139.75 193.03 144.23 187.51 144.23C181.99 144.23 177.51 139.75 177.51 134.23C177.51 130.5 179.48 127.25 182.51 125.53V110.75H139.67V125.53C142.7 127.25 144.67 130.5 144.67 134.23C144.67 139.75 140.19 144.23 134.67 144.23C129.15 144.23 124.67 139.75 124.67 134.23C124.67 130.5 126.64 127.25 129.67 125.53V110.75H86.84V125.53C89.87 127.25 91.84 130.5 91.84 134.23C91.84 139.75 87.36 144.23 81.84 144.23C76.32 144.23 71.84 139.75 71.84 134.23C71.84 130.5 73.81 127.25 76.84 125.53V110.75H0.0100098V624.75H375Z" fill="white" stroke="#777677" stroke-width="0.5" stroke-miterlimit="10"/>
            <rect x="113.25" y="545.25" width="149.5" height="49.5" rx="19.75" fill="white" stroke="black" stroke-width="0.5"/>
            <path d="M174.925 568.576C174.925 567.2 176.397 566.304 178.653 566.304C180.909 566.304 182.381 567.2 182.381 568.576C182.381 569.712 181.357 570.56 179.725 570.816V571.776C180.781 571.728 181.613 571.616 182.429 571.456C183.197 571.296 183.645 571.728 183.645 572.272C183.645 572.72 183.373 573.056 182.829 573.184C181.597 573.472 180.221 573.6 178.157 573.6H174.749C174.173 573.6 173.789 573.248 173.789 572.704C173.789 572.16 174.173 571.808 174.749 571.808H177.581V570.816C175.949 570.56 174.925 569.712 174.925 568.576ZM173.917 564.976C173.917 564.432 174.301 564.096 174.877 564.096H177.581V563.664C177.581 563.056 178.109 562.784 178.653 562.784C179.197 562.784 179.725 563.056 179.725 563.664V564.096H182.301C182.877 564.096 183.261 564.432 183.261 564.976C183.261 565.52 182.877 565.856 182.301 565.856H174.877C174.301 565.856 173.917 565.52 173.917 564.976ZM175.661 575.344C175.661 574.8 175.981 574.432 176.557 574.432H185.101C185.789 574.432 186.301 574.816 186.301 575.44V578.064C186.301 578.752 185.677 579.04 185.229 579.04C184.781 579.04 184.157 578.752 184.157 578.064V576.256H176.557C175.981 576.256 175.661 575.888 175.661 575.344ZM177.005 568.576C177.005 569.024 177.629 569.264 178.653 569.264C179.677 569.264 180.301 569.024 180.301 568.576C180.301 568.128 179.677 567.888 178.653 567.888C177.629 567.888 177.005 568.128 177.005 568.576ZM184.157 564.144C184.157 563.456 184.781 563.168 185.229 563.168C185.677 563.168 186.301 563.456 186.301 564.144V567.376H187.629C188.205 567.376 188.525 567.76 188.525 568.304C188.525 568.848 188.205 569.232 187.629 569.232H186.301V573.088C186.301 573.776 185.677 573.968 185.229 573.968C184.781 573.968 184.157 573.776 184.157 573.088V564.144ZM199.852 564.144C199.852 563.456 200.476 563.168 200.924 563.168C201.372 563.168 201.996 563.456 201.996 564.144V573.312C201.996 574 201.372 574.288 200.924 574.288C200.476 574.288 199.852 574 199.852 573.312V564.144ZM189.34 567.824C189.34 565.552 191.196 563.872 193.692 563.872C196.188 563.872 198.044 565.552 198.044 567.824C198.044 570.08 196.188 571.776 193.692 571.776C191.196 571.776 189.34 570.08 189.34 567.824ZM191.452 567.824C191.452 569.056 192.396 569.968 193.692 569.968C194.988 569.968 195.932 569.056 195.932 567.824C195.932 566.592 194.988 565.68 193.692 565.68C192.396 565.68 191.452 566.592 191.452 567.824ZM191.644 573.856C191.644 573.168 192.268 572.88 192.716 572.88C193.164 572.88 193.788 573.168 193.788 573.856V576.672C193.788 576.816 193.884 576.912 194.028 576.912H201.436C202.012 576.912 202.332 577.296 202.332 577.84C202.332 578.384 202.012 578.768 201.436 578.768H193.02C192.236 578.768 191.644 578.208 191.644 577.472V573.856Z" fill="black"/>
            <path d="M77.7404 324.096V334.44C77.7404 335.112 77.2844 335.472 76.8284 335.472C76.3244 335.472 75.8924 335.112 75.8924 334.44V315.72C75.8924 315.024 76.3244 314.688 76.8284 314.688C77.2844 314.688 77.7404 315.024 77.7404 315.72V322.44H80.4044V315.6C80.4044 314.904 80.8844 314.568 81.3884 314.568C81.8444 314.568 82.3484 314.904 82.3484 315.6V334.92C82.3484 335.592 81.8444 335.952 81.3884 335.952C80.8844 335.952 80.4044 335.592 80.4044 334.92V324.096H77.7404ZM65.6204 316.2H70.4924C72.2924 316.2 73.5644 317.28 73.5644 319.32V321.024C73.5644 325.008 70.2044 328.512 65.2124 330.144C64.6124 330.336 64.1564 329.832 64.1564 329.28C64.1564 328.944 64.3244 328.632 64.6844 328.512C67.8524 327.384 70.1564 325.656 71.1164 323.424H65.6204C65.2124 323.424 64.8764 323.112 64.8764 322.608C64.8764 322.128 65.2124 321.792 65.6204 321.792H71.5484C71.5964 321.528 71.6204 321.264 71.6204 320.976V319.392C71.6204 318.264 71.0204 317.832 70.1804 317.832H65.6204C65.2124 317.832 64.8764 317.52 64.8764 317.016C64.8764 316.512 65.2124 316.2 65.6204 316.2ZM94.1056 321.384H89.7376C88.6576 321.384 88.1056 322.008 88.1056 322.968C88.1056 323.952 88.6576 324.576 89.7376 324.576H97.5136C98.0176 324.576 98.2816 325.032 98.2816 325.416C98.2816 325.8 98.0176 326.232 97.5136 326.232H89.4496C87.3376 326.232 86.1616 324.744 86.1616 323.016C86.1616 321.312 87.3376 319.824 89.4496 319.824H93.8896C94.9456 319.824 95.4736 319.32 95.4736 318.36C95.4736 317.448 94.9456 316.896 93.8896 316.896H87.4336C86.9056 316.896 86.6416 316.464 86.6416 316.08C86.6416 315.696 86.9056 315.24 87.4336 315.24H94.1056C96.2176 315.24 97.3936 316.632 97.3936 318.312C97.3936 320.016 96.2176 321.384 94.1056 321.384ZM102.914 315.6V326.328C102.914 327 102.41 327.36 101.954 327.36C101.45 327.36 100.97 327 100.97 326.328V315.6C100.97 314.904 101.45 314.568 101.954 314.568C102.41 314.568 102.914 314.904 102.914 315.6ZM99.6256 330.192H90.4096C89.8336 330.192 89.5456 329.76 89.5456 329.376C89.5456 328.992 89.8336 328.536 90.4096 328.536H99.7936C101.69 328.536 102.914 329.328 102.914 331.464V335.736C102.914 336.408 102.458 336.72 101.954 336.72C101.426 336.72 100.97 336.408 100.97 335.736V331.608C100.97 330.576 100.562 330.192 99.6256 330.192ZM118.319 329.76H110.999C109.079 329.76 107.807 328.512 107.807 326.376V318.384C107.807 316.968 108.479 316.2 110.039 316.2H117.479C118.055 316.2 118.343 316.608 118.343 316.992C118.343 317.4 118.055 317.856 117.479 317.856H110.687C109.919 317.856 109.751 317.976 109.751 318.816V321.984H116.231C116.639 321.984 116.975 322.296 116.975 322.8C116.975 323.28 116.639 323.592 116.231 323.592H109.751V326.256C109.751 327.552 110.423 328.104 111.359 328.104H118.319C118.871 328.104 119.135 328.56 119.135 328.92C119.135 329.328 118.871 329.76 118.319 329.76ZM124.031 315.6V334.92C124.031 335.592 123.527 335.952 123.047 335.952C122.543 335.952 122.063 335.592 122.063 334.92V323.688H118.703C118.175 323.688 117.935 323.304 117.935 322.872C117.935 322.464 118.175 322.032 118.703 322.032H122.063V315.6C122.063 314.904 122.543 314.568 123.047 314.568C123.527 314.568 124.031 314.904 124.031 315.6ZM152.295 315.6V334.92C152.295 335.592 151.791 335.952 151.335 335.952C150.831 335.952 150.351 335.592 150.351 334.92V315.6C150.351 314.904 150.831 314.568 151.335 314.568C151.791 314.568 152.295 314.904 152.295 315.6ZM135.183 322.248C135.183 318.528 137.991 316.368 141.207 316.368C144.423 316.368 147.231 318.528 147.231 322.248C147.231 325.968 144.423 328.128 141.207 328.128C137.991 328.128 135.183 325.968 135.183 322.248ZM145.287 322.248C145.287 319.656 143.391 318.024 141.207 318.024C139.023 318.024 137.127 319.656 137.127 322.248C137.127 324.84 139.023 326.472 141.207 326.472C143.391 326.472 145.287 324.84 145.287 322.248ZM161.1 322.296H170.964C171.492 322.296 171.78 322.704 171.78 323.088C171.78 323.496 171.492 323.904 170.964 323.904H160.836C158.916 323.904 157.98 322.752 157.98 321.336C157.98 319.824 158.916 318.72 160.836 318.72H168.252C169.116 318.72 169.548 318.384 169.548 317.688C169.548 316.992 169.116 316.68 168.252 316.68H159.204C158.7 316.68 158.46 316.272 158.46 315.888C158.46 315.504 158.7 315.072 159.204 315.072H168.54C170.46 315.072 171.396 316.152 171.396 317.664C171.396 319.08 170.46 320.208 168.54 320.208H161.1C160.26 320.208 159.828 320.52 159.828 321.24C159.828 321.912 160.26 322.296 161.1 322.296ZM156.42 325.776H173.172C173.748 325.776 174.036 326.208 174.036 326.592C174.036 327 173.748 327.384 173.172 327.384H156.42C155.868 327.384 155.58 327 155.58 326.592C155.58 326.208 155.868 325.776 156.42 325.776ZM160.092 329.208H169.524C170.844 329.208 171.444 329.664 171.444 330.912V334.896C171.444 336.144 170.844 336.6 169.524 336.6H160.092C158.772 336.6 158.172 336.144 158.172 334.896V330.912C158.172 329.664 158.772 329.208 160.092 329.208ZM169.5 334.992V330.816H160.116V334.992H169.5ZM178.844 319.8C178.844 316.896 181.124 314.568 184.484 314.568C187.844 314.568 190.124 316.896 190.124 319.8C190.124 321.36 189.452 322.776 188.324 323.736H192.884C193.46 323.736 193.748 324.144 193.748 324.528C193.748 324.936 193.46 325.296 192.884 325.296H176.108C175.556 325.296 175.268 324.936 175.268 324.528C175.268 324.144 175.556 323.736 176.108 323.736H180.644C179.492 322.776 178.844 321.36 178.844 319.8ZM187.916 332.784H180.836C179.972 332.784 179.324 333.12 179.324 333.984C179.324 334.8 179.972 335.232 180.836 335.232H190.844C191.396 335.232 191.66 335.664 191.66 336.048C191.66 336.432 191.396 336.84 190.844 336.84H180.692C178.532 336.84 177.476 335.688 177.476 334.08C177.476 332.424 178.532 331.224 180.692 331.224H187.772C188.612 331.224 189.26 330.888 189.26 330.048C189.26 329.208 188.612 328.896 187.772 328.896H178.748C178.22 328.896 177.932 328.488 177.932 328.104C177.932 327.72 178.22 327.288 178.748 327.288H187.916C190.076 327.288 191.108 328.368 191.108 330.024C191.108 331.608 190.076 332.784 187.916 332.784ZM180.716 319.92C180.716 322.008 182.252 323.664 184.484 323.664C186.716 323.664 188.252 322.008 188.252 319.92C188.252 317.832 186.716 316.176 184.484 316.176C182.252 316.176 180.716 317.832 180.716 319.92ZM214.151 329.568C211.775 327.96 210.143 325.752 209.207 323.304C208.271 325.8 206.663 328.104 204.431 329.688C203.375 330.432 202.439 328.896 203.351 328.2C206.495 325.8 208.247 322.824 208.247 318.312V317.88H204.455C203.927 317.88 203.663 317.472 203.663 317.064C203.663 316.632 203.927 316.224 204.455 316.224H213.983C214.535 316.224 214.775 316.632 214.775 317.064C214.775 317.472 214.535 317.88 213.983 317.88H210.239V318.696C210.239 323.184 212.063 325.728 215.231 328.08C216.215 328.824 215.135 330.24 214.151 329.568ZM220.031 315.6V334.92C220.031 335.592 219.527 335.952 219.071 335.952C218.567 335.952 218.087 335.592 218.087 334.92V315.6C218.087 314.904 218.567 314.568 219.071 314.568C219.527 314.568 220.031 314.904 220.031 315.6ZM224.084 322.248C224.084 318.528 226.772 316.368 229.988 316.368C232.94 316.368 235.436 318.192 235.82 321.384H239.204V315.6C239.204 314.904 239.684 314.568 240.188 314.568C240.644 314.568 241.148 314.904 241.148 315.6V334.92C241.148 335.592 240.644 335.952 240.188 335.952C239.684 335.952 239.204 335.592 239.204 334.92V323.04H235.844C235.484 326.28 232.964 328.128 229.988 328.128C226.772 328.128 224.084 325.968 224.084 322.248ZM233.948 322.248C233.948 319.656 232.172 318.024 229.988 318.024C227.804 318.024 226.028 319.656 226.028 322.248C226.028 324.84 227.804 326.472 229.988 326.472C232.172 326.472 233.948 324.84 233.948 322.248ZM260.129 325.248C257.273 324.384 254.897 322.56 253.601 320.28C252.329 322.56 249.953 324.408 247.097 325.248C245.969 325.584 245.393 324 246.425 323.616C249.809 322.464 252.353 320.544 252.545 317.256H247.553C247.025 317.256 246.785 316.872 246.785 316.464C246.785 316.032 247.025 315.624 247.553 315.624H259.673C260.225 315.624 260.465 316.032 260.465 316.464C260.465 316.872 260.225 317.256 259.673 317.256H254.633C254.825 320.568 257.393 322.464 260.753 323.616C261.833 324.048 261.209 325.584 260.129 325.248ZM254.585 329.232V335.16C254.585 335.832 254.153 336.168 253.601 336.168C253.073 336.168 252.641 335.832 252.641 335.16V329.232H245.225C244.673 329.232 244.385 328.824 244.385 328.416C244.385 328.032 244.673 327.576 245.225 327.576H261.977C262.553 327.576 262.841 328.032 262.841 328.416C262.841 328.824 262.553 329.232 261.977 329.232H254.585ZM273.169 329.448C271.321 328.128 270.121 326.328 269.401 324.384C268.705 326.352 267.529 328.2 265.585 329.688C264.577 330.456 263.569 328.992 264.505 328.224C267.505 325.704 268.345 322.728 268.345 318.312V316.536C268.345 315.816 268.849 315.456 269.353 315.456C269.833 315.456 270.337 315.816 270.337 316.536V318.552C270.337 323.208 271.489 325.872 274.249 327.984C275.233 328.728 274.129 330.144 273.169 329.448ZM277.993 315.72V334.44C277.993 335.112 277.537 335.472 277.081 335.472C276.577 335.472 276.145 335.112 276.145 334.44V322.272H273.193C272.665 322.272 272.425 321.864 272.425 321.432C272.425 321.024 272.665 320.616 273.193 320.616H276.145V315.72C276.145 315.024 276.577 314.688 277.081 314.688C277.537 314.688 277.993 315.024 277.993 315.72ZM282.505 315.6V334.92C282.505 335.592 282.001 335.952 281.545 335.952C281.041 335.952 280.561 335.592 280.561 334.92V315.6C280.561 314.904 281.041 314.568 281.545 314.568C282.001 314.568 282.505 314.904 282.505 315.6ZM288.094 321.336C288.094 317.952 290.758 315.312 294.43 315.312C298.102 315.312 300.766 317.952 300.766 321.336C300.766 323.136 300.022 324.72 298.774 325.8V331.008H302.782C303.358 331.008 303.646 331.464 303.646 331.848C303.646 332.256 303.358 332.664 302.782 332.664H286.03C285.478 332.664 285.19 332.256 285.19 331.848C285.19 331.464 285.478 331.008 286.03 331.008H290.086V325.8C288.838 324.72 288.094 323.136 288.094 321.336ZM298.87 321.336C298.87 318.84 296.998 316.944 294.43 316.944C291.862 316.944 289.99 318.84 289.99 321.336C289.99 323.832 291.862 325.728 294.43 325.728C296.998 325.728 298.87 323.832 298.87 321.336ZM294.43 327.36C293.566 327.36 292.75 327.216 292.03 326.952V331.008H296.83V326.952C296.086 327.216 295.294 327.36 294.43 327.36ZM305.237 332.784C305.237 332.088 305.789 331.512 306.485 331.512C307.181 331.512 307.733 332.088 307.733 332.784C307.733 333.48 307.181 334.08 306.485 334.08C305.789 334.08 305.237 333.48 305.237 332.784Z" fill="black"/>
            <rect x="24.75" y="349.75" width="326.5" height="60.5" rx="20.25" stroke="#767676" stroke-width="0.5"/>
            <path d="M69.36 373.5V389.6C69.36 390.16 68.94 390.46 68.56 390.46C68.14 390.46 67.74 390.16 67.74 389.6V373.5C67.74 372.92 68.14 372.64 68.56 372.64C68.94 372.64 69.36 372.92 69.36 373.5ZM55.1 379.04C55.1 375.94 57.44 374.14 60.12 374.14C62.8 374.14 65.14 375.94 65.14 379.04C65.14 382.14 62.8 383.94 60.12 383.94C57.44 383.94 55.1 382.14 55.1 379.04ZM63.52 379.04C63.52 376.88 61.94 375.52 60.12 375.52C58.3 375.52 56.72 376.88 56.72 379.04C56.72 381.2 58.3 382.56 60.12 382.56C61.94 382.56 63.52 381.2 63.52 379.04ZM76.1977 379.08H84.4177C84.8577 379.08 85.0977 379.42 85.0977 379.74C85.0977 380.08 84.8577 380.42 84.4177 380.42H75.9777C74.3777 380.42 73.5977 379.46 73.5977 378.28C73.5977 377.02 74.3777 376.1 75.9777 376.1H82.1577C82.8777 376.1 83.2377 375.82 83.2377 375.24C83.2377 374.66 82.8777 374.4 82.1577 374.4H74.6177C74.1977 374.4 73.9977 374.06 73.9977 373.74C73.9977 373.42 74.1977 373.06 74.6177 373.06H82.3977C83.9977 373.06 84.7777 373.96 84.7777 375.22C84.7777 376.4 83.9977 377.34 82.3977 377.34H76.1977C75.4977 377.34 75.1377 377.6 75.1377 378.2C75.1377 378.76 75.4977 379.08 76.1977 379.08ZM72.2977 381.98H86.2577C86.7377 381.98 86.9777 382.34 86.9777 382.66C86.9777 383 86.7377 383.32 86.2577 383.32H72.2977C71.8377 383.32 71.5977 383 71.5977 382.66C71.5977 382.34 71.8377 381.98 72.2977 381.98ZM75.3577 384.84H83.2177C84.3177 384.84 84.8177 385.22 84.8177 386.26V389.58C84.8177 390.62 84.3177 391 83.2177 391H75.3577C74.2577 391 73.7577 390.62 73.7577 389.58V386.26C73.7577 385.22 74.2577 384.84 75.3577 384.84ZM83.1977 389.66V386.18H75.3777V389.66H83.1977Z" fill="#767676"/>
            <g clip-path="url(#clip2_1839_38510)">
                <path d="M188 292C215.614 292 238 269.614 238 242C238 214.386 215.614 192 188 192C160.386 192 138 214.386 138 242C138 269.614 160.386 292 188 292Z" fill="#E5C1DB"/>
                <path d="M206.034 229.172C206.856 223.725 204.676 218.88 201.164 218.35C197.653 217.82 194.14 221.806 193.318 227.254C192.496 232.701 194.677 237.547 198.188 238.076C201.7 238.606 205.212 234.62 206.034 229.172Z" fill="#FFFFFB"/>
                <path d="M181.012 237.174C184.53 236.689 186.772 231.872 186.02 226.414C185.267 220.957 181.806 216.926 178.288 217.411C174.77 217.896 172.528 222.713 173.28 228.171C174.033 233.628 177.495 237.659 181.012 237.174Z" fill="#FFFFFB"/>
                <path d="M181.548 234.998C183.252 234.763 184.308 232.213 183.907 229.302C183.506 226.391 181.799 224.222 180.095 224.457C178.39 224.692 177.334 227.242 177.735 230.153C178.137 233.064 179.844 235.233 181.548 234.998Z" fill="black"/>
                <path d="M204.665 229.88C203.235 226.65 199.735 224.18 196.12 225.12C195.55 225.27 195.205 225.9 195.36 226.46C195.515 227.02 196.13 227.37 196.7 227.22C197.27 227.07 197.975 227.055 198.52 227.17C199.245 227.325 199.8 227.57 200.42 227.99C200.695 228.175 200.76 228.23 201.04 228.485C201.295 228.72 201.535 228.975 201.755 229.24C201.89 229.4 202.095 229.695 202.265 229.975C202.46 230.295 202.635 230.63 202.785 230.975C203.025 231.515 203.81 231.64 204.275 231.365C204.83 231.04 204.905 230.415 204.665 229.875V229.88Z" fill="#231F20"/>
                <path d="M180.491 263.343C184.291 263.123 187.761 261.663 190.406 258.903L189.196 258.748C190.061 260.193 191.696 261.008 193.231 261.548C195.281 262.268 197.516 262.523 199.681 262.413C200.666 262.363 200.676 260.823 199.681 260.873C197.761 260.973 195.836 260.768 194.001 260.183C192.746 259.783 191.236 259.158 190.526 257.973C190.276 257.553 189.661 257.453 189.316 257.818C186.961 260.283 183.891 261.613 180.491 261.808C179.506 261.863 179.496 263.408 180.491 263.348V263.343Z" fill="#231F20"/>
                <path d="M168.53 247.049C169.015 246.944 169.29 246.894 169.72 246.874C169.94 246.864 170.16 246.859 170.38 246.874C170.46 246.874 170.545 246.884 170.625 246.894C171.005 246.929 170.38 246.834 170.735 246.914C170.895 246.949 171.055 246.984 171.21 247.034C171.295 247.059 171.375 247.089 171.455 247.119C171.415 247.104 171.21 246.999 171.415 247.109C171.545 247.174 171.67 247.249 171.8 247.324C171.87 247.364 171.93 247.414 172 247.459C171.83 247.339 171.915 247.384 172.03 247.489C172.24 247.679 172.43 247.884 172.615 248.099C172.735 248.244 172.515 247.944 172.695 248.214C172.785 248.349 172.875 248.479 172.96 248.614C173.295 249.139 173.58 249.694 173.885 250.234C174.56 251.429 175.36 252.579 176.555 253.304C177.995 254.174 179.75 254.284 181.32 253.724C183.18 253.059 184.875 251.854 186.205 250.404C187.535 248.954 188.715 247.069 188.725 245.024C188.735 243.179 187.815 240.754 185.82 240.299C183.645 239.804 182.155 241.929 181.705 243.774C180.865 247.209 181.415 251.614 183.76 254.364C184.995 255.819 186.96 256.704 188.875 256.509C191.145 256.279 193.175 255.084 194.785 253.509C196.395 251.934 197.745 249.819 198.395 247.594C199 245.524 199.03 242.894 197.23 241.379C194.955 239.464 192.24 241.349 191.1 243.559C189.805 246.059 189.41 249.219 189.92 251.974C190.32 254.154 191.68 256.089 193.965 256.519C195.95 256.894 198.16 256.419 199.845 255.304C201.31 254.334 202.505 253.034 203.755 251.814C204.34 251.244 205.085 250.564 205.6 250.199C206.325 249.684 206.885 249.374 207.62 249.174C208.32 248.984 209.09 248.969 209.845 249.134C210.54 249.284 211.27 248.929 211.465 248.214C211.645 247.559 211.245 246.749 210.545 246.594C208.77 246.209 207.045 246.414 205.425 247.229C204.01 247.939 202.81 249.054 201.69 250.159C201.14 250.699 200.6 251.254 200.04 251.779C199.775 252.024 199.51 252.269 199.235 252.499C198.975 252.719 198.9 252.784 198.515 253.039C197.42 253.759 195.825 254.244 194.525 253.959C193.885 253.814 193.415 253.559 193.075 253.044C192.565 252.274 192.405 251.274 192.36 250.349C192.255 248.284 192.58 245.614 193.96 243.969C194.21 243.674 194.53 243.379 194.89 243.244C195.15 243.144 195.275 243.199 195.41 243.289C195.525 243.364 195.56 243.389 195.69 243.549C195.69 243.549 195.86 243.809 195.91 243.919C196.05 244.209 196.145 244.594 196.16 244.934C196.22 246.579 195.435 248.349 194.485 249.784C193.485 251.299 192.115 252.619 190.465 253.404C189.775 253.734 188.98 253.944 188.245 253.924C187.65 253.904 187.075 253.699 186.515 253.334C186.08 253.054 185.635 252.579 185.325 252.089C185.13 251.784 184.96 251.464 184.815 251.139C184.805 251.119 184.72 250.909 184.785 251.074C184.75 250.989 184.72 250.899 184.685 250.814C184.615 250.619 184.545 250.419 184.49 250.214C184.055 248.754 183.945 247.489 184.05 245.909C184.06 245.734 184.075 245.559 184.095 245.389C184.105 245.304 184.115 245.219 184.125 245.134C184.095 245.369 184.125 245.154 184.13 245.114C184.205 244.654 184.295 244.179 184.485 243.749C184.485 243.759 184.635 243.459 184.68 243.389C184.775 243.234 184.815 243.189 184.82 243.179C184.875 243.119 184.93 243.064 184.985 243.009C185.125 242.864 184.825 243.109 184.985 243.004C185.045 242.964 185.105 242.929 185.165 242.894C185.24 242.849 184.99 242.869 185.175 242.894C185.445 242.929 185.105 242.824 185.105 242.889C185.105 242.879 185.27 242.889 185.295 242.889C184.93 242.889 185.455 242.979 185.185 242.849C185.27 242.889 185.54 243.109 185.355 242.939C185.41 242.989 185.47 243.044 185.52 243.104C185.755 243.394 185.41 242.894 185.615 243.244C185.985 243.869 186.13 244.579 186.11 245.189C186.11 245.274 186.1 245.364 186.09 245.449C186.115 245.234 186.09 245.449 186.08 245.489C186.045 245.664 186 245.839 185.95 246.014C185.835 246.389 185.775 246.529 185.55 246.934C185.145 247.674 184.725 248.214 184.145 248.809C183.565 249.404 182.985 249.904 182.3 250.349C181.97 250.564 181.625 250.764 181.275 250.944C180.88 251.144 180.825 251.169 180.39 251.309C180.23 251.359 180.07 251.399 179.905 251.439C179.83 251.459 179.745 251.474 179.67 251.484C179.72 251.474 179.93 251.464 179.675 251.484C179.53 251.494 179.385 251.499 179.24 251.494C179.17 251.494 179.1 251.484 179.03 251.479C179.22 251.499 179.07 251.489 178.965 251.464C178.82 251.429 178.67 251.399 178.53 251.354C178.475 251.339 178.095 251.194 178.24 251.259C178.395 251.329 178.08 251.174 178.03 251.149C177.885 251.069 177.75 250.979 177.615 250.884C177.85 251.049 177.59 250.859 177.51 250.784C177.415 250.699 177.325 250.609 177.235 250.514C177.145 250.419 177.065 250.324 176.98 250.224C176.935 250.174 176.83 250.029 177.01 250.264C176.96 250.199 176.915 250.134 176.87 250.069C176.57 249.619 176.295 249.159 176.03 248.689C175.48 247.694 174.925 246.669 174.11 245.864C173.1 244.869 171.8 244.364 170.395 244.294C169.54 244.249 168.675 244.384 167.845 244.569C166.19 244.929 166.89 247.464 168.545 247.104L168.53 247.049Z" fill="#9B5EA5"/>
            </g>
        </g>
        <rect x="71" y="88" width="22" height="44" rx="11" fill="#5A402A"/>
        <rect x="124" y="87" width="22" height="44" rx="11" fill="#5A402A"/>
        <rect x="177" y="87" width="22" height="44" rx="11" fill="#5A402A"/>
        <rect x="230" y="87" width="22" height="44" rx="11" fill="#5A402A"/>
        <rect x="283.5" y="87.5" width="21" height="43" rx="10.5" fill="white" stroke="#5A402A"/>
        <path d="M160.088 51.4398C161.86 56.1467 163.687 61.9316 168.681 64.1566C170.064 64.7713 171.492 65.1246 173.012 64.9594C174.386 64.8126 175.654 64.4502 176.881 63.8125C179.065 62.6794 180.818 60.7618 182.114 58.6974C184.467 54.931 185.946 49.6919 183.977 45.4714C182.837 43.0308 180.099 41.2141 177.384 42.1912C174.537 43.2189 173.379 46.2054 173.324 49.0359C173.232 53.7474 175.214 58.9222 179.298 61.5233C184.622 64.9181 191.197 62.3583 195.399 58.3854C197.542 56.3577 199.227 53.8621 200.302 51.1141C201.282 48.6047 201.726 45.4438 200.316 43.0078C199.515 41.627 198.128 40.4709 196.548 40.1314C194.561 39.7002 192.721 40.3654 191.174 41.6132C188.267 43.9483 187.378 48.1918 187.502 51.7426C187.621 55.1695 188.775 58.7983 191.819 60.6976C194.548 62.4041 197.968 62.2344 200.829 60.982C202.17 60.3948 203.37 59.4819 204.537 58.6102C205.503 57.89 206.451 57.1376 207.316 56.3027C208.822 54.8484 210.058 53.1418 211.363 51.5132C212.366 50.2608 213.391 49.0313 214.444 47.8248C215.113 47.0587 215.255 45.8154 214.444 45.0722C213.712 44.3979 212.412 44.2511 211.697 45.0722C209.99 47.0311 208.392 49.0726 206.762 51.1003C205.654 52.4766 204.464 53.7474 203.086 54.8576C202.985 54.9401 202.884 55.0181 202.779 55.1007C202.82 55.0686 203.127 54.8346 202.852 55.0457C202.624 55.22 202.39 55.3943 202.157 55.5641C201.571 55.9907 200.975 56.4082 200.371 56.8073C200.138 56.9587 199.904 57.1055 199.662 57.2385C199.52 57.3165 199.373 57.3945 199.227 57.4633C199.162 57.4954 198.668 57.6973 199.103 57.5275C198.467 57.7753 197.826 57.9496 197.153 58.0597C197.665 57.9771 197.166 58.0505 197.07 58.0597C196.919 58.0689 196.773 58.0781 196.622 58.0826C196.374 58.0872 196.132 58.0826 195.885 58.0643C195.743 58.0551 195.34 58.1102 195.825 58.0643C195.701 58.0735 195.523 58.0138 195.399 57.9863C195.074 57.9175 194.763 57.812 194.442 57.7065C193.994 57.5597 194.804 57.9037 194.388 57.6835C194.264 57.6193 194.136 57.5597 194.012 57.4908C193.806 57.3762 193.618 57.2431 193.422 57.1147C193.834 57.3899 193.458 57.1376 193.376 57.0688C193.27 56.977 193.165 56.8761 193.069 56.7752C192.973 56.6742 192.877 56.5641 192.781 56.4586C192.648 56.2935 192.657 56.3118 192.817 56.5137C192.758 56.4357 192.703 56.3531 192.648 56.2751C192.483 56.0228 192.341 55.7613 192.208 55.4907C192.222 55.5182 191.97 54.9814 192.08 55.2246C192.19 55.4677 191.966 54.9126 191.975 54.9401C191.847 54.5869 191.741 54.2245 191.654 53.8575C191.609 53.6694 191.572 53.4813 191.535 53.2932C191.512 53.1647 191.49 53.0363 191.471 52.9124C191.494 53.1097 191.49 53.0868 191.462 52.8482C191.389 52.1188 191.361 51.3939 191.384 50.6599C191.398 50.2562 191.435 49.8617 191.471 49.458C191.526 48.8157 191.398 49.8158 191.508 49.1827C191.549 48.9304 191.595 48.6735 191.65 48.4258C191.732 48.0542 191.833 47.6826 191.952 47.3202C192.011 47.1412 192.076 46.9623 192.144 46.788C192.35 46.2329 192.053 46.9669 192.204 46.655C192.355 46.343 192.501 46.0586 192.675 45.7741C192.767 45.6227 192.868 45.4759 192.968 45.3291C193.101 45.1456 193.106 45.1411 192.982 45.3062C193.055 45.219 193.133 45.1319 193.211 45.0493C193.339 44.9117 193.476 44.7924 193.609 44.6594C194.017 44.2511 193.399 44.7649 193.847 44.4575C194.003 44.352 194.159 44.2511 194.319 44.1639C194.378 44.1318 194.891 43.9299 194.479 44.0721C194.635 44.0171 195.381 43.8703 194.877 43.9208C195.024 43.907 195.175 43.8978 195.321 43.8978C195.418 43.8978 195.514 43.9024 195.61 43.9116C195.331 43.8703 195.299 43.8657 195.514 43.9116C195.647 43.9529 195.784 43.9896 195.921 44.0263C196.352 44.1455 195.592 43.8107 195.967 44.0492C196.081 44.1226 196.205 44.196 196.324 44.2648C196.713 44.4896 196.054 43.9804 196.374 44.3015C196.539 44.4713 196.704 44.6318 196.86 44.8107C196.539 44.4346 196.832 44.7924 196.887 44.8796C196.988 45.0401 197.07 45.2099 197.157 45.3842C196.933 44.9438 197.134 45.3475 197.166 45.453C197.208 45.5906 197.235 45.7328 197.276 45.8705C197.409 46.3246 197.276 45.453 197.29 45.9255C197.29 46.0632 197.304 46.2008 197.308 46.3384C197.313 46.5403 197.313 46.7421 197.308 46.9486C197.304 47.0724 197.295 47.1963 197.285 47.3202C197.281 47.4027 197.272 47.4853 197.263 47.5725C197.235 47.7881 197.244 47.7422 197.285 47.4348C197.208 47.4853 197.166 48.0955 197.144 48.2056C197.084 48.4671 197.015 48.7285 196.942 48.9855C196.878 49.2057 196.805 49.4259 196.732 49.6415C196.686 49.7745 196.635 49.9076 196.585 50.036C196.553 50.1232 196.516 50.2103 196.48 50.3021C196.585 50.0589 196.594 50.036 196.507 50.2333C196.004 51.3251 195.418 52.3665 194.717 53.3437C194.626 53.4675 194.534 53.5914 194.442 53.7153C194.722 53.3391 194.41 53.7565 194.365 53.8116C194.168 54.0547 193.966 54.2933 193.756 54.5273C193.335 54.9998 192.89 55.4494 192.424 55.876C192.19 56.0916 191.952 56.2981 191.705 56.4999C191.654 56.5412 191.233 56.8715 191.604 56.5871C191.48 56.6834 191.352 56.7752 191.224 56.8715C190.711 57.2385 190.18 57.5826 189.631 57.89C189.356 58.0414 189.077 58.1882 188.798 58.3212C188.656 58.39 188.514 58.4542 188.372 58.5185C188.807 58.3212 188.331 58.5322 188.262 58.5597C187.685 58.7845 187.09 58.968 186.486 59.1057C186.335 59.1378 186.184 59.1699 186.032 59.202C185.932 59.2204 185.446 59.2479 185.932 59.2249C185.62 59.2387 185.314 59.2617 185.002 59.2617C184.709 59.2617 184.412 59.2479 184.119 59.2204L183.977 59.2066C183.757 59.1791 183.789 59.1837 184.073 59.2204C183.986 59.2387 183.753 59.1653 183.666 59.147C183.4 59.0919 183.139 59.0277 182.883 58.9543C182.768 58.9176 182.191 58.8029 182.146 58.6974L182.375 58.7937C182.297 58.7616 182.219 58.7249 182.146 58.6882C182.031 58.6332 181.921 58.5781 181.807 58.5185C181.569 58.39 181.335 58.2524 181.111 58.101C181.024 58.0459 180.942 57.9817 180.859 57.9267C180.498 57.6835 181.193 58.2157 180.859 57.9313C180.672 57.7707 180.484 57.6147 180.31 57.445C180.136 57.2752 179.962 57.1009 179.802 56.9174C179.719 56.8256 179.641 56.7339 179.564 56.6376C179.216 56.2201 179.683 56.8256 179.49 56.5504C179.234 56.1788 178.982 55.8072 178.758 55.4173C178.639 55.2016 178.52 54.986 178.415 54.7612C178.36 54.6511 178.309 54.541 178.259 54.4263C178.03 53.9217 178.337 54.6465 178.213 54.3254C177.865 53.4125 177.581 52.4858 177.403 51.5224C177.366 51.3297 177.334 51.1324 177.307 50.9352C177.238 50.5085 177.357 51.4169 177.316 50.9856C177.307 50.871 177.288 50.7563 177.279 50.6416C177.233 50.1599 177.215 49.6736 177.22 49.1873C177.22 49.0084 177.229 48.8295 177.238 48.6506C177.247 48.5175 177.357 47.7927 177.261 48.279C177.32 47.9854 177.375 47.6963 177.462 47.4119C177.485 47.3293 177.531 47.0724 177.6 47.0174C177.485 47.2743 177.476 47.3064 177.563 47.1137C177.6 47.0357 177.636 46.9577 177.677 46.8843C177.737 46.7742 177.801 46.6687 177.865 46.5632C177.897 46.5127 178.14 46.2191 177.92 46.4669C177.7 46.7146 178.154 46.2329 178.227 46.1549C178.515 45.8521 178.176 46.1274 178.167 46.1824C178.167 46.1411 178.396 46.031 178.433 46.0081C178.451 45.9989 178.698 45.8521 178.708 45.8659C178.396 45.9898 178.337 46.0173 178.524 45.9485C178.588 45.9255 178.653 45.9072 178.717 45.8888C178.749 45.8797 179.001 45.843 179.01 45.8246C178.932 45.9898 178.483 45.8338 178.886 45.8567C178.95 45.8567 179.023 45.8567 179.083 45.8567C179.518 45.8475 178.978 45.9485 178.964 45.8338C178.964 45.8338 179.239 45.9026 179.261 45.9072C179.66 45.9943 179.248 45.8384 179.188 45.8567C179.234 45.843 179.435 45.9806 179.477 46.0035C179.541 46.0402 179.605 46.0769 179.664 46.1182C179.829 46.2329 179.793 46.2008 179.55 46.0173C179.651 46.187 179.93 46.3751 180.076 46.5219C180.369 46.8155 179.925 46.2512 180.058 46.4852C180.113 46.5816 180.191 46.6733 180.25 46.7696C180.411 47.0174 180.539 47.2835 180.667 47.5495C180.461 47.1229 180.685 47.6092 180.708 47.6826C180.745 47.7881 180.781 47.8982 180.813 48.0037C180.864 48.1734 180.905 48.3478 180.942 48.5221C180.96 48.6139 180.974 48.7056 180.992 48.7928C181.033 48.9992 180.896 48.8708 180.96 48.5542C180.928 48.7194 181.001 48.9671 181.01 49.1368C181.024 49.3754 181.024 49.6139 181.019 49.8525C181.01 50.1782 181.074 50.7471 180.932 51.0407C181.111 50.6645 180.978 50.7196 180.937 50.9719C180.919 51.0866 180.9 51.1967 180.878 51.3114C180.827 51.582 180.772 51.8481 180.708 52.1142C180.603 52.5684 180.475 53.0134 180.328 53.4584C180.26 53.674 180.182 53.8896 180.104 54.1052C180.058 54.2245 180.017 54.3392 179.971 54.4539C179.765 54.9677 180.067 54.2566 179.925 54.5685C179.504 55.4998 179.028 56.399 178.456 57.2431C178.373 57.3624 178.144 57.8257 178.012 57.8624L178.163 57.6698C178.112 57.734 178.057 57.8028 178.007 57.867C177.929 57.9634 177.847 58.0597 177.764 58.156C177.439 58.5368 177.091 58.8946 176.725 59.2341C176.542 59.3993 176.354 59.5598 176.162 59.7158C175.828 59.9957 176.524 59.4635 176.162 59.7112C176.061 59.78 175.965 59.8535 175.865 59.9223C175.462 60.1929 175.04 60.4361 174.606 60.6379L174.496 60.6884C174.303 60.771 174.349 60.7526 174.628 60.6333C174.555 60.6242 174.363 60.7343 174.29 60.7618C174.061 60.8398 173.827 60.9132 173.594 60.9728C173.379 61.0279 173.15 61.0508 172.935 61.1105C172.664 61.1839 173.447 61.0646 173.022 61.0967C172.857 61.1104 172.687 61.1288 172.523 61.1334C172.266 61.1426 172.01 61.1334 171.753 61.1334C171.314 61.1334 172.184 61.2573 171.712 61.1242C171.57 61.0829 171.419 61.0554 171.277 61.0187C170.998 60.9407 170.723 60.8398 170.449 60.7434C170.504 60.7618 170.833 60.9224 170.522 60.771C170.352 60.6884 170.183 60.6104 170.018 60.5187C169.776 60.3856 169.538 60.2388 169.309 60.0828C169.194 60.0048 169.084 59.9223 168.974 59.8397C169.387 60.1471 169.016 59.8626 168.938 59.7984C168.517 59.4406 168.132 59.0414 167.775 58.6194C167.683 58.5139 167.596 58.4038 167.509 58.2983C167.835 58.6928 167.532 58.3258 167.477 58.2478C167.313 58.0184 167.152 57.789 167.001 57.5505C166.695 57.0734 166.415 56.5825 166.154 56.0779C165.893 55.5732 165.651 55.064 165.422 54.541C165.367 54.4126 165.312 54.2841 165.252 54.1557C165.458 54.6374 165.271 54.197 165.234 54.1052C165.129 53.8483 165.028 53.5914 164.927 53.3345C164.552 52.3757 164.209 51.4031 163.842 50.4397C163.476 49.4763 162.515 48.7331 161.453 49.0818C160.528 49.38 159.713 50.4581 160.098 51.4765L160.088 51.4398Z" fill="#E84D59"/>
        <g clip-path="url(#clip3_1839_38510)">
            <path d="M42.4167 63L32 53L42.4167 43L44.2656 44.775L35.6979 53L44.2656 61.225L42.4167 63Z" fill="#767676"/>
        </g>
        <path fill-rule="evenodd" clip-rule="evenodd" d="M375 0H0V667H375V0ZM42 344C29.2975 344 19 354.297 19 367V393C19 405.703 29.2975 416 42 416H334C346.703 416 357 405.703 357 393V367C357 354.297 346.703 344 334 344H42Z" fill="#050505" fill-opacity="0.5"/>
        <path d="M187 374.667C184.054 374.667 181.667 377.054 181.667 380C181.667 382.946 184.054 385.333 187 385.333C189.946 385.333 192.333 382.946 192.333 380C192.333 377.054 189.946 374.667 187 374.667ZM186 468C186 468.552 186.448 469 187 469C187.552 469 188 468.552 188 468L186 468ZM186 380L186 468L188 468L188 380L186 380Z" fill="#FFCC00"/>
        <path d="M128.095 483.704V488.612C128.095 489.056 127.795 489.284 127.459 489.284C127.123 489.284 126.799 489.056 126.799 488.612V479.48C126.799 479.036 127.123 478.808 127.459 478.808C127.795 478.808 128.095 479.036 128.095 479.48V482.552H129.127V479.432C129.127 478.988 129.463 478.76 129.799 478.76C130.135 478.76 130.459 478.988 130.459 479.432V488.852C130.459 489.296 130.135 489.524 129.799 489.524C129.463 489.524 129.127 489.296 129.127 488.852V483.704H128.095ZM125.911 481.172V482.324C125.911 484.352 124.363 485.888 121.975 486.632C121.531 486.776 121.231 486.416 121.231 486.056C121.231 485.84 121.351 485.624 121.603 485.54C122.935 485.096 123.955 484.352 124.375 483.368H121.927C121.603 483.368 121.363 483.14 121.363 482.804C121.363 482.456 121.603 482.228 121.927 482.228H124.591V481.268C124.591 480.8 124.279 480.656 123.943 480.656H122.059C121.663 480.656 121.459 480.368 121.459 480.08C121.459 479.792 121.663 479.504 122.059 479.504H124.243C125.263 479.504 125.911 480.032 125.911 481.172ZM138.93 487.088H134.586C134.19 487.088 133.998 486.8 133.998 486.512C133.998 486.224 134.19 485.936 134.586 485.936H139.074C140.094 485.936 140.862 486.596 140.862 487.736V489.248C140.862 489.692 140.526 489.92 140.19 489.92C139.854 489.92 139.518 489.692 139.518 489.248V487.784C139.518 487.316 139.266 487.088 138.93 487.088ZM140.862 479.432V484.664C140.862 485.108 140.526 485.336 140.19 485.336C139.854 485.336 139.518 485.108 139.518 484.664V479.432C139.518 478.988 139.854 478.76 140.19 478.76C140.526 478.76 140.862 478.988 140.862 479.432ZM133.122 479H136.23C137.286 479 137.814 479.876 137.814 480.716C137.814 481.556 137.286 482.42 136.23 482.42H134.13C133.806 482.42 133.638 482.732 133.638 483.032C133.638 483.332 133.806 483.68 134.13 483.68H137.814C138.186 483.68 138.366 483.968 138.366 484.256C138.366 484.544 138.186 484.82 137.814 484.82H133.914C132.858 484.82 132.33 483.944 132.33 483.08C132.33 482.216 132.858 481.328 133.914 481.328H136.038C136.362 481.328 136.518 481.016 136.518 480.728C136.518 480.44 136.362 480.128 136.038 480.128H133.122C132.75 480.128 132.558 479.852 132.558 479.564C132.558 479.288 132.75 479 133.122 479ZM148.3 486.488H144.808C143.788 486.488 143.104 485.852 143.104 484.712V480.716C143.104 479.912 143.488 479.48 144.352 479.48H147.844C148.24 479.48 148.432 479.768 148.432 480.044C148.432 480.344 148.24 480.632 147.844 480.632H144.82C144.568 480.632 144.436 480.752 144.436 481.004V482.348H147.352C147.676 482.348 147.916 482.576 147.916 482.924C147.916 483.26 147.676 483.488 147.352 483.488H144.436V484.676C144.436 485.144 144.688 485.348 145.024 485.348H148.3C148.684 485.348 148.876 485.636 148.876 485.912C148.876 486.2 148.684 486.488 148.3 486.488ZM151.54 479.432V488.84C151.54 489.284 151.204 489.512 150.868 489.512C150.532 489.512 150.196 489.284 150.196 488.84V483.512H148.768C148.384 483.512 148.192 483.224 148.192 482.936C148.192 482.648 148.384 482.36 148.768 482.36H150.196V479.432C150.196 478.988 150.532 478.76 150.868 478.76C151.204 478.76 151.54 478.988 151.54 479.432ZM153.939 482.012C153.939 480.428 155.043 479.18 156.879 479.18C158.703 479.18 159.819 480.428 159.819 482.012C159.819 483.584 158.715 484.832 156.879 484.832C155.043 484.832 153.939 483.584 153.939 482.012ZM160.947 487.64H153.867C153.483 487.64 153.291 487.352 153.291 487.052C153.291 486.764 153.483 486.476 153.867 486.476H160.947V479.432C160.947 478.988 161.283 478.76 161.619 478.76C161.955 478.76 162.291 478.988 162.291 479.432V488.852C162.291 489.296 161.955 489.524 161.619 489.524C161.283 489.524 160.947 489.296 160.947 488.852V487.64ZM155.271 482.012C155.271 482.936 155.847 483.68 156.879 483.68C157.923 483.68 158.487 482.936 158.487 482.012C158.487 481.1 157.923 480.332 156.879 480.332C155.847 480.332 155.271 481.1 155.271 482.012ZM176.615 479.432V488.84C176.615 489.284 176.279 489.512 175.943 489.512C175.607 489.512 175.271 489.284 175.271 488.84V479.432C175.271 478.988 175.607 478.76 175.943 478.76C176.279 478.76 176.615 478.988 176.615 479.432ZM167.831 482.636C167.831 480.788 169.199 479.6 170.879 479.6C172.571 479.6 173.939 480.788 173.939 482.636C173.939 484.484 172.571 485.66 170.879 485.66C169.199 485.66 167.831 484.484 167.831 482.636ZM169.163 482.636C169.163 483.812 169.955 484.508 170.879 484.508C171.803 484.508 172.595 483.812 172.595 482.636C172.595 481.448 171.803 480.752 170.879 480.752C169.955 480.752 169.163 481.448 169.163 482.636ZM186.886 485.468H178.714C178.318 485.468 178.126 485.204 178.126 484.904C178.126 484.592 178.318 484.328 178.714 484.328H186.886C187.282 484.328 187.486 484.592 187.486 484.904C187.486 485.204 187.282 485.468 186.886 485.468ZM180.742 487.328V488.672H184.87V487.328H180.742ZM184.954 489.8H180.658C179.794 489.8 179.41 489.368 179.41 488.564V487.436C179.41 486.632 179.794 486.2 180.658 486.2H184.954C185.818 486.2 186.202 486.632 186.202 487.436V488.564C186.202 489.368 185.818 489.8 184.954 489.8ZM184.666 481.808H181.018C180.778 481.808 180.67 482 180.67 482.168C180.67 482.324 180.778 482.516 181.018 482.516H185.758C186.142 482.516 186.346 482.804 186.346 483.08C186.346 483.356 186.142 483.632 185.758 483.632H180.838C179.818 483.632 179.338 482.936 179.338 482.192C179.338 481.412 179.818 480.752 180.838 480.752H184.486C184.726 480.752 184.834 480.56 184.834 480.392C184.834 480.224 184.726 480.032 184.486 480.032H180.13C179.758 480.032 179.566 479.768 179.566 479.492C179.566 479.216 179.758 478.94 180.13 478.94H184.666C185.686 478.94 186.166 479.6 186.166 480.38C186.166 481.124 185.686 481.808 184.666 481.808ZM196.85 484.352H188.678C188.282 484.352 188.09 484.1 188.09 483.8C188.09 483.488 188.282 483.224 188.678 483.224H190.478C190.022 482.768 189.758 482.156 189.758 481.448C189.758 479.924 191.018 478.7 192.758 478.7C194.51 478.7 195.782 479.924 195.782 481.448C195.782 482.156 195.506 482.768 195.05 483.224H196.85C197.246 483.224 197.45 483.488 197.45 483.8C197.45 484.1 197.246 484.352 196.85 484.352ZM194.654 487.988H190.898C190.67 487.988 190.562 488.18 190.562 488.384C190.562 488.588 190.682 488.792 190.898 488.792H195.83C196.214 488.792 196.406 489.08 196.406 489.356C196.406 489.644 196.214 489.92 195.83 489.92H190.742C189.746 489.92 189.254 489.176 189.254 488.42C189.254 487.676 189.746 486.92 190.742 486.92H194.51C194.726 486.92 194.846 486.728 194.846 486.524C194.846 486.332 194.726 486.128 194.51 486.128H190.01C189.638 486.128 189.446 485.852 189.446 485.576C189.446 485.3 189.638 485.024 190.01 485.024H194.654C195.638 485.024 196.142 485.768 196.142 486.512C196.142 487.256 195.638 487.988 194.654 487.988ZM191.054 481.52C191.054 482.444 191.75 483.188 192.686 483.224H192.758C193.73 483.224 194.462 482.468 194.462 481.52C194.462 480.56 193.73 479.828 192.758 479.828C191.786 479.828 191.054 480.56 191.054 481.52ZM204.675 480.632H203.079C202.695 480.632 202.503 480.356 202.503 480.068C202.503 479.768 202.695 479.48 203.079 479.48H207.627C208.023 479.48 208.215 479.768 208.215 480.068C208.215 480.356 208.023 480.632 207.627 480.632H206.067V481.04C206.067 483.152 206.919 484.424 208.371 485.408C208.563 485.54 208.647 485.708 208.647 485.888C208.647 486.212 208.359 486.548 208.011 486.548C207.879 486.548 207.747 486.5 207.615 486.404C206.619 485.708 205.863 484.748 205.359 483.704C204.867 484.772 204.135 485.756 203.175 486.44C203.043 486.536 202.911 486.584 202.779 486.584C202.431 486.584 202.143 486.248 202.143 485.924C202.143 485.744 202.227 485.576 202.419 485.444C203.871 484.46 204.675 482.96 204.675 480.848V480.632ZM210.939 479.432V488.84C210.939 489.284 210.603 489.512 210.267 489.512C209.931 489.512 209.595 489.284 209.595 488.84V479.432C209.595 478.988 209.931 478.76 210.267 478.76C210.603 478.76 210.939 478.988 210.939 479.432ZM212.786 482.636C212.786 480.788 214.154 479.6 215.834 479.6C217.334 479.6 218.57 480.536 218.834 482.036H220.274V479.432C220.274 478.988 220.61 478.76 220.946 478.76C221.282 478.76 221.618 478.988 221.618 479.432V488.852C221.618 489.296 221.282 489.524 220.946 489.524C220.61 489.524 220.274 489.296 220.274 488.852V483.188H218.846C218.606 484.724 217.346 485.66 215.834 485.66C214.154 485.66 212.786 484.484 212.786 482.636ZM214.118 482.636C214.118 483.812 214.91 484.508 215.834 484.508C216.758 484.508 217.55 483.812 217.55 482.636C217.55 481.448 216.758 480.752 215.834 480.752C214.91 480.752 214.118 481.448 214.118 482.636ZM227.112 480.392H224.916C224.544 480.392 224.352 480.104 224.352 479.816C224.352 479.528 224.544 479.216 224.916 479.216H230.688C231.072 479.216 231.264 479.528 231.264 479.816C231.264 480.104 231.072 480.392 230.688 480.392H228.492C228.648 481.784 229.752 482.516 231.24 483.032C231.528 483.128 231.648 483.356 231.648 483.584C231.648 483.956 231.312 484.316 230.808 484.148C229.56 483.728 228.468 482.984 227.808 482.024C227.148 482.984 226.056 483.728 224.808 484.148C224.304 484.316 223.968 483.956 223.968 483.584C223.968 483.356 224.088 483.128 224.376 483.032C225.852 482.516 226.968 481.784 227.112 480.392ZM227.124 486.272H223.704C223.32 486.272 223.128 485.984 223.128 485.696C223.128 485.396 223.32 485.108 223.704 485.108H231.9C232.296 485.108 232.488 485.396 232.488 485.696C232.488 485.984 232.296 486.272 231.9 486.272H228.492V488.936C228.492 489.404 228.144 489.62 227.808 489.62C227.46 489.62 227.124 489.404 227.124 488.936V486.272ZM240.172 479.48V488.612C240.172 489.056 239.872 489.284 239.536 489.284C239.2 489.284 238.876 489.056 238.876 488.612V482.804H237.76C237.376 482.804 237.184 482.516 237.184 482.228C237.184 481.94 237.376 481.652 237.76 481.652H238.876V479.48C238.876 479.036 239.2 478.808 239.536 478.808C239.872 478.808 240.172 479.036 240.172 479.48ZM237.436 486.26C236.644 485.708 236.092 485 235.72 484.22C235.36 485.06 234.808 485.828 234.028 486.38C233.896 486.476 233.764 486.524 233.632 486.524C233.284 486.524 232.996 486.2 232.996 485.876C232.996 485.708 233.08 485.528 233.272 485.396C234.724 484.412 235.036 482.9 235.036 480.788V479.936C235.036 479.48 235.372 479.24 235.72 479.24C236.056 479.24 236.404 479.48 236.404 479.936V480.968C236.404 483.08 236.74 484.292 238.192 485.276C238.384 485.408 238.468 485.588 238.468 485.756C238.468 486.08 238.18 486.404 237.832 486.404C237.7 486.404 237.568 486.356 237.436 486.26ZM242.536 479.432V488.852C242.536 489.296 242.212 489.524 241.876 489.524C241.54 489.524 241.204 489.296 241.204 488.852V479.432C241.204 478.988 241.54 478.76 241.876 478.76C242.212 478.76 242.536 478.988 242.536 479.432ZM250.791 486.716H252.543C252.939 486.716 253.131 487.004 253.131 487.292C253.131 487.592 252.939 487.88 252.543 487.88H244.347C243.963 487.88 243.771 487.592 243.771 487.292C243.771 487.004 243.963 486.716 244.347 486.716H246.087V484.448C245.487 483.908 245.139 483.128 245.139 482.252C245.139 480.5 246.531 479.18 248.439 479.18C250.347 479.18 251.763 480.5 251.763 482.252C251.763 483.14 251.391 483.908 250.791 484.46V486.716ZM246.471 482.252C246.471 483.38 247.335 484.16 248.439 484.16C249.567 484.16 250.431 483.38 250.431 482.252C250.431 481.136 249.567 480.332 248.439 480.332C247.335 480.332 246.471 481.136 246.471 482.252ZM248.439 485.312C248.079 485.312 247.743 485.264 247.431 485.18V486.716H249.447V485.18C249.123 485.264 248.787 485.312 248.439 485.312ZM253.974 487.892C253.974 487.412 254.37 487.016 254.862 487.016C255.354 487.016 255.75 487.412 255.75 487.892C255.75 488.372 255.354 488.78 254.862 488.78C254.37 488.78 253.974 488.372 253.974 487.892ZM58.9563 504.38C57.9963 503.708 57.2763 502.796 56.8083 501.8C56.3403 502.832 55.6443 503.78 54.7083 504.44C54.5763 504.536 54.4443 504.584 54.3123 504.584C53.9643 504.584 53.6763 504.248 53.6763 503.924C53.6763 503.744 53.7603 503.576 53.9523 503.444C55.4043 502.46 56.1243 500.96 56.1243 498.848V498.632H54.5283C54.1443 498.632 53.9523 498.356 53.9523 498.068C53.9523 497.768 54.1443 497.48 54.5283 497.48H59.0763C59.4723 497.48 59.6643 497.768 59.6643 498.068C59.6643 498.356 59.4723 498.632 59.0763 498.632H57.5163V499.04C57.5163 501.152 58.2603 502.4 59.7123 503.384C59.9043 503.516 59.9883 503.684 59.9883 503.864C59.9883 504.188 59.7003 504.524 59.3523 504.524C59.2203 504.524 59.0883 504.476 58.9563 504.38ZM62.0763 501.128V506.852C62.0763 507.296 61.7403 507.524 61.4043 507.524C61.0683 507.524 60.7323 507.296 60.7323 506.852V497.432C60.7323 496.988 61.0683 496.76 61.4043 496.76C61.7403 496.76 62.0763 496.988 62.0763 497.432V499.976H63.3363C63.7203 499.976 63.9123 500.264 63.9123 500.552C63.9123 500.84 63.7203 501.128 63.3363 501.128H62.0763ZM69.9349 502.676C68.9389 502.16 68.2429 501.344 67.7869 500.468C67.2949 501.368 66.5509 502.208 65.5549 502.772C65.4229 502.844 65.3029 502.892 65.1829 502.892C64.8349 502.892 64.5709 502.568 64.5709 502.244C64.5709 502.052 64.6549 501.872 64.8709 501.74C66.4069 500.828 67.1029 499.784 67.1029 498.152V497.516C67.1029 497.06 67.4509 496.82 67.7989 496.82C68.1469 496.82 68.4949 497.06 68.4949 497.516V498.044C68.4949 499.676 69.0229 500.756 70.5829 501.62C70.8109 501.752 70.9069 501.944 70.9069 502.136C70.9069 502.46 70.6309 502.784 70.2829 502.784C70.1749 502.784 70.0549 502.736 69.9349 502.676ZM66.5989 505.988V504.32C66.5989 503.852 66.9229 503.624 67.2949 503.624C67.6309 503.624 67.9909 503.852 67.9909 504.32V505.952C67.9909 506.42 68.2309 506.612 68.5789 506.612H73.0429C73.4269 506.612 73.6189 506.9 73.6189 507.188C73.6189 507.476 73.4269 507.764 73.0429 507.764H68.3029C67.2829 507.764 66.5989 507.128 66.5989 505.988ZM73.4389 497.432V503.852C73.4389 504.296 73.1029 504.524 72.7669 504.524C72.4309 504.524 72.0949 504.296 72.0949 503.852V497.432C72.0949 496.988 72.4309 496.76 72.7669 496.76C73.1029 496.76 73.4389 496.988 73.4389 497.432ZM75.8375 500.012C75.8375 498.428 76.9415 497.18 78.7775 497.18C80.6015 497.18 81.7175 498.428 81.7175 500.012C81.7175 501.584 80.6135 502.832 78.7775 502.832C76.9415 502.832 75.8375 501.584 75.8375 500.012ZM82.8455 505.64H75.7655C75.3815 505.64 75.1895 505.352 75.1895 505.052C75.1895 504.764 75.3815 504.476 75.7655 504.476H82.8455V497.432C82.8455 496.988 83.1815 496.76 83.5175 496.76C83.8535 496.76 84.1895 496.988 84.1895 497.432V506.852C84.1895 507.296 83.8535 507.524 83.5175 507.524C83.1815 507.524 82.8455 507.296 82.8455 506.852V505.64ZM77.1695 500.012C77.1695 500.936 77.7455 501.68 78.7775 501.68C79.8215 501.68 80.3855 500.936 80.3855 500.012C80.3855 499.1 79.8215 498.332 78.7775 498.332C77.7455 498.332 77.1695 499.1 77.1695 500.012ZM97.7098 501.248V506.852C97.7098 507.296 97.3738 507.524 97.0378 507.524C96.7018 507.524 96.3658 507.296 96.3658 506.852V497.432C96.3658 496.988 96.7018 496.76 97.0378 496.76C97.3738 496.76 97.7098 496.988 97.7098 497.432V500.096H99.0898C99.4738 500.096 99.6658 500.384 99.6658 500.672C99.6658 500.96 99.4738 501.248 99.0898 501.248H97.7098ZM89.9578 502.448V498.056C89.9578 497.588 90.2698 497.36 90.6418 497.36C90.9778 497.36 91.3258 497.588 91.3258 498.056V502.424C91.3258 502.892 91.5418 503.084 91.9138 503.084H95.0218C95.4058 503.084 95.5978 503.36 95.5978 503.648C95.5978 503.936 95.4058 504.224 95.0218 504.224H91.6618C90.5218 504.224 89.9578 503.588 89.9578 502.448ZM105.592 504.488H102.22C101.2 504.488 100.516 503.852 100.516 502.712V498.716C100.516 497.912 100.9 497.48 101.764 497.48H105.256C105.652 497.48 105.844 497.768 105.844 498.044C105.844 498.344 105.652 498.632 105.256 498.632H102.232C101.98 498.632 101.848 498.752 101.848 499.004V500.348H105.124C105.448 500.348 105.688 500.576 105.688 500.924C105.688 501.26 105.448 501.488 105.124 501.488H101.848V502.676C101.848 503.144 102.1 503.348 102.436 503.348H105.592C105.976 503.348 106.168 503.636 106.168 503.912C106.168 504.2 105.976 504.488 105.592 504.488ZM108.508 501.368V506.852C108.508 507.296 108.172 507.524 107.836 507.524C107.5 507.524 107.164 507.296 107.164 506.852V497.432C107.164 496.988 107.5 496.76 107.836 496.76C108.172 496.76 108.508 496.988 108.508 497.432V500.216H109.768C110.152 500.216 110.344 500.504 110.344 500.792C110.344 501.08 110.152 501.368 109.768 501.368H108.508ZM117.627 501.212V506.612C117.627 507.056 117.327 507.284 116.991 507.284C116.655 507.284 116.331 507.056 116.331 506.612V497.48C116.331 497.036 116.655 496.808 116.991 496.808C117.327 496.808 117.627 497.036 117.627 497.48V500.06H118.815V497.432C118.815 496.988 119.151 496.76 119.487 496.76C119.823 496.76 120.147 496.988 120.147 497.432V506.852C120.147 507.296 119.823 507.524 119.487 507.524C119.151 507.524 118.815 507.296 118.815 506.852V501.212H117.627ZM111.399 502.448V498.08C111.399 497.624 111.735 497.384 112.071 497.384C112.407 497.384 112.755 497.624 112.755 498.08V502.424C112.755 502.892 112.971 503.084 113.343 503.084H115.479C115.863 503.084 116.055 503.36 116.055 503.648C116.055 503.936 115.863 504.224 115.479 504.224H113.103C111.963 504.224 111.399 503.588 111.399 502.448ZM124.058 497.516V499.46C124.058 499.88 124.286 500.072 124.646 500.072H128.894C129.266 500.072 129.446 500.36 129.446 500.648C129.446 500.936 129.266 501.212 128.894 501.212H124.394C123.374 501.212 122.69 500.624 122.69 499.484V497.516C122.69 497.048 123.002 496.82 123.374 496.82C123.71 496.82 124.058 497.048 124.058 497.516ZM130.142 503.456H121.97C121.574 503.456 121.382 503.192 121.382 502.892C121.382 502.58 121.574 502.316 121.97 502.316H130.142C130.538 502.316 130.742 502.58 130.742 502.892C130.742 503.192 130.538 503.456 130.142 503.456ZM122.666 505.976V504.86C122.666 504.392 122.99 504.164 123.362 504.164C123.698 504.164 124.058 504.392 124.058 504.86V505.94C124.058 506.408 124.298 506.6 124.646 506.6H129.146C129.53 506.6 129.722 506.888 129.722 507.176C129.722 507.464 129.53 507.752 129.146 507.752H124.37C123.35 507.752 122.666 507.116 122.666 505.976ZM144.231 497.432V501.536C144.231 501.98 143.895 502.208 143.559 502.208C143.223 502.208 142.887 501.98 142.887 501.536V501.032H140.991C140.895 501.632 140.511 501.956 139.767 501.956H136.983C136.119 501.956 135.735 501.524 135.735 500.72V497.624C135.735 497.18 136.059 496.952 136.395 496.952C136.731 496.952 137.067 497.18 137.067 497.624V498.524H139.695V497.612C139.695 497.168 140.019 496.952 140.355 496.952C140.679 496.952 141.015 497.168 141.015 497.612V497.912H142.887V497.432C142.887 496.988 143.223 496.76 143.559 496.76C143.895 496.76 144.231 496.988 144.231 497.432ZM142.539 505.832H139.023C138.735 505.832 138.603 506.072 138.603 506.312C138.603 506.528 138.735 506.768 139.023 506.768H143.847C144.231 506.768 144.423 507.056 144.423 507.344C144.423 507.632 144.231 507.92 143.847 507.92H138.999C137.847 507.92 137.283 507.176 137.283 506.336C137.283 505.46 137.847 504.728 138.999 504.728H142.503C142.779 504.728 142.911 504.5 142.911 504.284C142.911 504.056 142.779 503.828 142.503 503.828H138.087C137.715 503.828 137.523 503.54 137.523 503.264C137.523 502.976 137.715 502.688 138.087 502.688H142.539C143.679 502.688 144.231 503.408 144.231 504.272C144.231 505.1 143.679 505.832 142.539 505.832ZM137.067 500.828H139.695V499.652H137.067V500.828ZM141.015 499.028V499.916H142.887V499.028H141.015ZM150.446 502.004H147.662C146.798 502.004 146.414 501.572 146.414 500.768V498.236C146.414 497.432 146.798 497 147.662 497H150.446C151.202 497 151.598 497.348 151.67 497.972H153.566V497.432C153.566 496.988 153.902 496.76 154.238 496.76C154.574 496.76 154.91 496.988 154.91 497.432V501.764C154.91 502.208 154.574 502.436 154.238 502.436C153.902 502.436 153.566 502.208 153.566 501.764V501.152H151.658C151.538 501.716 151.154 502.004 150.446 502.004ZM148.694 505.184C148.694 503.432 150.026 502.316 151.754 502.316C153.494 502.316 154.838 503.432 154.838 505.184C154.838 506.924 153.494 508.04 151.754 508.04C150.026 508.04 148.694 506.924 148.694 505.184ZM150.014 505.184C150.014 506.252 150.758 506.888 151.754 506.888C152.75 506.888 153.494 506.252 153.494 505.184C153.494 504.128 152.75 503.468 151.754 503.468C150.758 503.468 150.014 504.128 150.014 505.184ZM147.746 498.152V500.864H150.374V498.152H147.746ZM151.694 499.088V500.036H153.566V499.088H151.694ZM165.588 497.432V506.84C165.588 507.284 165.252 507.512 164.916 507.512C164.58 507.512 164.244 507.284 164.244 506.84V497.432C164.244 496.988 164.58 496.76 164.916 496.76C165.252 496.76 165.588 496.988 165.588 497.432ZM156.804 500.636C156.804 498.788 158.172 497.6 159.852 497.6C161.544 497.6 162.912 498.788 162.912 500.636C162.912 502.484 161.544 503.66 159.852 503.66C158.172 503.66 156.804 502.484 156.804 500.636ZM158.136 500.636C158.136 501.812 158.928 502.508 159.852 502.508C160.776 502.508 161.568 501.812 161.568 500.636C161.568 499.448 160.776 498.752 159.852 498.752C158.928 498.752 158.136 499.448 158.136 500.636ZM175.463 501.248V506.852C175.463 507.296 175.127 507.524 174.791 507.524C174.455 507.524 174.119 507.296 174.119 506.852V497.432C174.119 496.988 174.455 496.76 174.791 496.76C175.127 496.76 175.463 496.988 175.463 497.432V500.096H176.843C177.227 500.096 177.419 500.384 177.419 500.672C177.419 500.96 177.227 501.248 176.843 501.248H175.463ZM167.711 502.448V498.056C167.711 497.588 168.023 497.36 168.395 497.36C168.731 497.36 169.079 497.588 169.079 498.056V502.424C169.079 502.892 169.295 503.084 169.667 503.084H172.775C173.159 503.084 173.351 503.36 173.351 503.648C173.351 503.936 173.159 504.224 172.775 504.224H169.415C168.275 504.224 167.711 503.588 167.711 502.448ZM178.029 507.008L178.605 505.532C178.785 505.064 179.265 504.944 179.661 505.172C180.045 505.4 180.201 505.82 179.925 506.216L179.061 507.608C178.857 507.932 178.521 508.076 178.185 507.896C177.861 507.74 177.897 507.356 178.029 507.008ZM185.164 499.556C185.164 497.924 186.424 496.88 187.96 496.88C189.304 496.88 190.432 497.672 190.696 498.956H192.544V497.432C192.544 496.988 192.88 496.76 193.216 496.76C193.552 496.76 193.888 496.988 193.888 497.432V501.764C193.888 502.208 193.552 502.436 193.216 502.436C192.88 502.436 192.544 502.208 192.544 501.764V500.108H190.708C190.456 501.416 189.316 502.208 187.96 502.208C186.424 502.208 185.164 501.176 185.164 499.556ZM190.444 503.636V506.684C190.444 507.488 190.18 507.8 189.316 507.8H187.276C186.412 507.8 186.148 507.488 186.148 506.684V503.636C186.148 503.192 186.472 502.976 186.796 502.976C187.12 502.976 187.444 503.192 187.444 503.636V504.512H189.148V503.636C189.148 503.192 189.472 502.976 189.796 502.976C190.12 502.976 190.444 503.192 190.444 503.636ZM193.36 503.648V504.236C193.36 505.412 193.66 506.012 194.608 506.792C194.764 506.924 194.824 507.08 194.824 507.236C194.824 507.548 194.572 507.848 194.248 507.848C194.116 507.848 193.96 507.8 193.816 507.68C193.36 507.32 192.976 506.876 192.688 506.396C192.388 506.876 192.004 507.32 191.56 507.68C191.416 507.8 191.26 507.848 191.128 507.848C190.804 507.848 190.552 507.548 190.552 507.236C190.552 507.08 190.612 506.924 190.768 506.792C191.716 506.012 192.016 505.412 192.016 504.236V503.648C192.016 503.204 192.352 502.976 192.688 502.976C193.024 502.976 193.36 503.204 193.36 503.648ZM186.46 499.556C186.46 500.504 187.156 501.08 187.96 501.08C188.764 501.08 189.46 500.504 189.46 499.556C189.46 498.584 188.764 498.008 187.96 498.008C187.156 498.008 186.46 498.584 186.46 499.556ZM187.444 506.696H189.148V505.544H187.444V506.696ZM200.967 504.344H197.595C196.575 504.344 195.891 503.708 195.891 502.568V498.716C195.891 497.912 196.275 497.48 197.139 497.48H200.631C201.027 497.48 201.219 497.768 201.219 498.044C201.219 498.344 201.027 498.632 200.631 498.632H197.607C197.355 498.632 197.223 498.752 197.223 499.004V502.532C197.223 503 197.475 503.204 197.811 503.204H200.967C201.351 503.204 201.543 503.492 201.543 503.768C201.543 504.056 201.351 504.344 200.967 504.344ZM203.883 501.368V506.852C203.883 507.296 203.547 507.524 203.211 507.524C202.875 507.524 202.539 507.296 202.539 506.852V497.432C202.539 496.988 202.875 496.76 203.211 496.76C203.547 496.76 203.883 496.988 203.883 497.432V500.216H205.143C205.527 500.216 205.719 500.504 205.719 500.792C205.719 501.08 205.527 501.368 205.143 501.368H203.883ZM215.246 497.432V503.852C215.246 504.296 214.91 504.524 214.574 504.524C214.238 504.524 213.902 504.296 213.902 503.852V501.548H212.03C212.006 502.316 211.622 502.724 210.782 502.724H207.998C207.134 502.724 206.75 502.292 206.75 501.488V498.236C206.75 497.432 207.134 497 207.998 497H210.782C211.574 497 211.958 497.372 212.018 498.044H213.902V497.432C213.902 496.988 214.238 496.76 214.574 496.76C214.91 496.76 215.246 496.988 215.246 497.432ZM208.406 505.988V504.32C208.406 503.852 208.73 503.624 209.102 503.624C209.438 503.624 209.798 503.852 209.798 504.32V505.952C209.798 506.42 210.038 506.612 210.386 506.612H214.85C215.234 506.612 215.426 506.9 215.426 507.188C215.426 507.476 215.234 507.764 214.85 507.764H210.11C209.09 507.764 208.406 507.128 208.406 505.988ZM208.082 498.152V501.584H210.71V498.152H208.082ZM212.03 499.196V500.396H213.902V499.196H212.03ZM225.838 504.38C224.878 503.708 224.158 502.796 223.69 501.8C223.222 502.832 222.526 503.78 221.59 504.44C221.458 504.536 221.326 504.584 221.194 504.584C220.846 504.584 220.558 504.248 220.558 503.924C220.558 503.744 220.642 503.576 220.834 503.444C222.286 502.46 223.006 500.96 223.006 498.848V498.632H221.41C221.026 498.632 220.834 498.356 220.834 498.068C220.834 497.768 221.026 497.48 221.41 497.48H225.958C226.354 497.48 226.546 497.768 226.546 498.068C226.546 498.356 226.354 498.632 225.958 498.632H224.398V499.04C224.398 501.152 225.142 502.4 226.594 503.384C226.786 503.516 226.87 503.684 226.87 503.864C226.87 504.188 226.582 504.524 226.234 504.524C226.102 504.524 225.97 504.476 225.838 504.38ZM228.958 501.128V506.852C228.958 507.296 228.622 507.524 228.286 507.524C227.95 507.524 227.614 507.296 227.614 506.852V497.432C227.614 496.988 227.95 496.76 228.286 496.76C228.622 496.76 228.958 496.988 228.958 497.432V499.976H230.218C230.602 499.976 230.794 500.264 230.794 500.552C230.794 500.84 230.602 501.128 230.218 501.128H228.958ZM236.816 502.676C235.82 502.16 235.124 501.344 234.668 500.468C234.176 501.368 233.432 502.208 232.436 502.772C232.304 502.844 232.184 502.892 232.064 502.892C231.716 502.892 231.452 502.568 231.452 502.244C231.452 502.052 231.536 501.872 231.752 501.74C233.288 500.828 233.984 499.784 233.984 498.152V497.516C233.984 497.06 234.332 496.82 234.68 496.82C235.028 496.82 235.376 497.06 235.376 497.516V498.044C235.376 499.676 235.904 500.756 237.464 501.62C237.692 501.752 237.788 501.944 237.788 502.136C237.788 502.46 237.512 502.784 237.164 502.784C237.056 502.784 236.936 502.736 236.816 502.676ZM233.48 505.988V504.32C233.48 503.852 233.804 503.624 234.176 503.624C234.512 503.624 234.872 503.852 234.872 504.32V505.952C234.872 506.42 235.112 506.612 235.46 506.612H239.924C240.308 506.612 240.5 506.9 240.5 507.188C240.5 507.476 240.308 507.764 239.924 507.764H235.184C234.164 507.764 233.48 507.128 233.48 505.988ZM240.32 497.432V503.852C240.32 504.296 239.984 504.524 239.648 504.524C239.312 504.524 238.976 504.296 238.976 503.852V497.432C238.976 496.988 239.312 496.76 239.648 496.76C239.984 496.76 240.32 496.988 240.32 497.432ZM242.719 500.012C242.719 498.428 243.823 497.18 245.659 497.18C247.483 497.18 248.599 498.428 248.599 500.012C248.599 501.584 247.495 502.832 245.659 502.832C243.823 502.832 242.719 501.584 242.719 500.012ZM249.727 505.64H242.647C242.263 505.64 242.071 505.352 242.071 505.052C242.071 504.764 242.263 504.476 242.647 504.476H249.727V497.432C249.727 496.988 250.063 496.76 250.399 496.76C250.735 496.76 251.071 496.988 251.071 497.432V506.852C251.071 507.296 250.735 507.524 250.399 507.524C250.063 507.524 249.727 507.296 249.727 506.852V505.64ZM244.051 500.012C244.051 500.936 244.627 501.68 245.659 501.68C246.703 501.68 247.267 500.936 247.267 500.012C247.267 499.1 246.703 498.332 245.659 498.332C244.627 498.332 244.051 499.1 244.051 500.012ZM265.395 497.432V506.84C265.395 507.284 265.059 507.512 264.723 507.512C264.387 507.512 264.051 507.284 264.051 506.84V497.432C264.051 496.988 264.387 496.76 264.723 496.76C265.059 496.76 265.395 496.988 265.395 497.432ZM256.611 500.636C256.611 498.788 257.979 497.6 259.659 497.6C261.351 497.6 262.719 498.788 262.719 500.636C262.719 502.484 261.351 503.66 259.659 503.66C257.979 503.66 256.611 502.484 256.611 500.636ZM257.943 500.636C257.943 501.812 258.735 502.508 259.659 502.508C260.583 502.508 261.375 501.812 261.375 500.636C261.375 499.448 260.583 498.752 259.659 498.752C258.735 498.752 257.943 499.448 257.943 500.636ZM275.666 503.468H267.494C267.098 503.468 266.906 503.204 266.906 502.904C266.906 502.592 267.098 502.328 267.494 502.328H275.666C276.062 502.328 276.266 502.592 276.266 502.904C276.266 503.204 276.062 503.468 275.666 503.468ZM269.522 505.328V506.672H273.65V505.328H269.522ZM273.734 507.8H269.438C268.574 507.8 268.19 507.368 268.19 506.564V505.436C268.19 504.632 268.574 504.2 269.438 504.2H273.734C274.598 504.2 274.982 504.632 274.982 505.436V506.564C274.982 507.368 274.598 507.8 273.734 507.8ZM273.446 499.808H269.798C269.558 499.808 269.45 500 269.45 500.168C269.45 500.324 269.558 500.516 269.798 500.516H274.538C274.922 500.516 275.126 500.804 275.126 501.08C275.126 501.356 274.922 501.632 274.538 501.632H269.618C268.598 501.632 268.118 500.936 268.118 500.192C268.118 499.412 268.598 498.752 269.618 498.752H273.266C273.506 498.752 273.614 498.56 273.614 498.392C273.614 498.224 273.506 498.032 273.266 498.032H268.91C268.538 498.032 268.346 497.768 268.346 497.492C268.346 497.216 268.538 496.94 268.91 496.94H273.446C274.466 496.94 274.946 497.6 274.946 498.38C274.946 499.124 274.466 499.808 273.446 499.808ZM279.498 498.956V501.008C279.498 501.428 279.726 501.68 280.086 501.68H284.406C284.778 501.68 284.97 501.968 284.97 502.256C284.97 502.544 284.778 502.832 284.406 502.832H282.282V504.716H285.642C286.038 504.716 286.23 505.004 286.23 505.292C286.23 505.592 286.038 505.88 285.642 505.88H277.446C277.062 505.88 276.87 505.592 276.87 505.292C276.87 505.004 277.062 504.716 277.446 504.716H280.914V502.832H279.858C278.838 502.832 278.154 502.184 278.154 501.044V498.668C278.154 497.864 278.538 497.42 279.402 497.42H284.322C284.706 497.42 284.898 497.72 284.898 498.008C284.898 498.296 284.706 498.584 284.322 498.584H279.882C279.63 498.584 279.498 498.704 279.498 498.956ZM295.963 503.384H298.039C298.423 503.384 298.615 503.624 298.615 503.912C298.615 504.212 298.423 504.464 298.039 504.464H297.391C297.679 504.8 297.847 505.22 297.847 505.712C297.847 507.128 296.767 508.028 295.279 508.028C293.803 508.028 292.723 507.128 292.723 505.712C292.723 505.22 292.891 504.8 293.167 504.464H292.411C292.027 504.464 291.835 504.212 291.835 503.912C291.835 503.624 292.027 503.384 292.411 503.384H294.595V503.024C294.595 502.556 294.943 502.34 295.279 502.34C295.627 502.34 295.963 502.556 295.963 503.024V503.384ZM294.439 498.104H292.327C291.967 498.104 291.775 497.828 291.775 497.54C291.775 497.264 291.967 496.952 292.327 496.952H298.123C298.495 496.952 298.687 497.264 298.687 497.54C298.687 497.828 298.495 498.104 298.123 498.104H296.023C296.359 498.668 297.367 499.052 298.555 499.376C298.879 499.472 299.035 499.664 299.035 499.904C299.035 500.228 298.747 500.564 298.255 500.42C297.055 500.084 295.927 499.58 295.243 498.932C294.559 499.592 293.431 500.084 292.207 500.42C291.715 500.552 291.427 500.228 291.427 499.904C291.427 499.664 291.583 499.46 291.907 499.376C293.083 499.052 294.103 498.668 294.439 498.104ZM295.927 501.044H299.323C299.719 501.044 299.911 501.308 299.911 501.596C299.911 501.896 299.719 502.16 299.323 502.16H291.127C290.743 502.16 290.551 501.896 290.551 501.596C290.551 501.308 290.743 501.044 291.127 501.044H294.535V500.42C294.535 499.94 294.871 499.724 295.231 499.724C295.567 499.724 295.927 499.94 295.927 500.42V501.044ZM293.995 505.652C293.995 506.42 294.583 506.876 295.279 506.876C295.975 506.876 296.575 506.42 296.575 505.652C296.575 504.872 295.975 504.416 295.279 504.416C294.583 504.416 293.995 504.872 293.995 505.652ZM300.611 500.636C300.611 498.788 301.979 497.6 303.659 497.6C305.351 497.6 306.719 498.788 306.719 500.636C306.719 502.484 305.351 503.66 303.659 503.66C301.979 503.66 300.611 502.484 300.611 500.636ZM308.999 501.248V506.852C308.999 507.296 308.663 507.524 308.327 507.524C307.991 507.524 307.655 507.296 307.655 506.852V497.432C307.655 496.988 307.991 496.76 308.327 496.76C308.663 496.76 308.999 496.988 308.999 497.432V500.096H310.259C310.643 500.096 310.835 500.384 310.835 500.672C310.835 500.96 310.643 501.248 310.259 501.248H308.999ZM301.943 500.636C301.943 501.812 302.735 502.508 303.659 502.508C304.583 502.508 305.375 501.812 305.375 500.636C305.375 499.448 304.583 498.752 303.659 498.752C302.735 498.752 301.943 499.448 301.943 500.636ZM318.213 504.716H319.965C320.361 504.716 320.553 505.004 320.553 505.292C320.553 505.592 320.361 505.88 319.965 505.88H311.769C311.385 505.88 311.193 505.592 311.193 505.292C311.193 505.004 311.385 504.716 311.769 504.716H313.509V502.448C312.909 501.908 312.561 501.128 312.561 500.252C312.561 498.5 313.953 497.18 315.861 497.18C317.769 497.18 319.185 498.5 319.185 500.252C319.185 501.14 318.813 501.908 318.213 502.46V504.716ZM313.893 500.252C313.893 501.38 314.757 502.16 315.861 502.16C316.989 502.16 317.853 501.38 317.853 500.252C317.853 499.136 316.989 498.332 315.861 498.332C314.757 498.332 313.893 499.136 313.893 500.252ZM315.861 503.312C315.501 503.312 315.165 503.264 314.853 503.18V504.716H316.869V503.18C316.545 503.264 316.209 503.312 315.861 503.312ZM321.397 505.892C321.397 505.412 321.793 505.016 322.285 505.016C322.777 505.016 323.173 505.412 323.173 505.892C323.173 506.372 322.777 506.78 322.285 506.78C321.793 506.78 321.397 506.372 321.397 505.892Z" fill="#FFCC00"/>
    </g>
    <defs>
        <clipPath id="clip0_1839_38510">
            <rect width="375" height="667" fill="white"/>
        </clipPath>
        <clipPath id="clip1_1839_38510">
            <rect width="375.49" height="514.5" fill="white" transform="matrix(-1 0 0 -1 375.49 625)"/>
        </clipPath>
        <clipPath id="clip2_1839_38510">
            <rect width="100" height="100" fill="white" transform="translate(138 192)"/>
        </clipPath>
        <clipPath id="clip3_1839_38510">
            <rect width="25" height="24" fill="white" transform="translate(32 41)"/>
        </clipPath>
    </defs>
</svg>
