<svg width="96" height="104" viewBox="0 0 96 104" fill="none" xmlns="http://www.w3.org/2000/svg">
    <g filter="url(#filter0_d_1813_37296)">
        <mask id="path-1-inside-1_1813_37296" fill="white">
            <path fill-rule="evenodd" clip-rule="evenodd" d="M24 0C12.9543 0 4 8.95431 4 20V62C4 73.0457 12.9543 82 24 82H65.841L72.2114 94.7305C72.9487 96.2038 75.0513 96.2038 75.7886 94.7305L84.2588 77.8038C88.9691 74.1447 92 68.4263 92 62V20C92 8.95431 83.0457 0 72 0H24Z"/>
        </mask>
        <path fill-rule="evenodd" clip-rule="evenodd" d="M24 0C12.9543 0 4 8.95431 4 20V62C4 73.0457 12.9543 82 24 82H65.841L72.2114 94.7305C72.9487 96.2038 75.0513 96.2038 75.7886 94.7305L84.2588 77.8038C88.9691 74.1447 92 68.4263 92 62V20C92 8.95431 83.0457 0 72 0H24Z" fill="#EFF0F1"/>
        <path d="M65.841 82L66.2882 81.7762L66.1499 81.5H65.841V82ZM72.2114 94.7305L72.6586 94.5067L72.2114 94.7305ZM75.7886 94.7305L75.3414 94.5067L75.7886 94.7305ZM84.2588 77.8038L83.9521 77.4089L83.8625 77.4785L83.8117 77.58L84.2588 77.8038ZM3.5 20V20.9545H4.5V20H3.5ZM3.5 22.8636V24.7727H4.5V22.8636H3.5ZM3.5 26.6818V28.5909H4.5V26.6818H3.5ZM3.5 30.5V32.4091H4.5V30.5H3.5ZM3.5 34.3182V36.2273H4.5V34.3182H3.5ZM3.5 38.1364V40.0455H4.5V38.1364H3.5ZM3.5 41.9545V43.8636H4.5V41.9545H3.5ZM3.5 45.7727V47.6818H4.5V45.7727H3.5ZM3.5 49.5909V51.5H4.5V49.5909H3.5ZM3.5 53.4091V55.3182H4.5V53.4091H3.5ZM3.5 57.2273V59.1364H4.5V57.2273H3.5ZM3.5 61.0455V62H4.5V61.0455H3.5ZM3.5 62C3.5 62.3372 3.50815 62.6726 3.52426 63.0059L4.52309 62.9576C4.50776 62.6404 4.5 62.3211 4.5 62H3.5ZM3.71926 65.0085C3.81767 65.6775 3.9484 66.336 4.10983 66.9825L5.08003 66.7402C4.92654 66.1255 4.80221 65.4993 4.70861 64.8629L3.71926 65.0085ZM4.69332 68.9084C4.92044 69.543 5.17795 70.1632 5.46409 70.7671L6.36779 70.339C6.09567 69.7646 5.8508 69.1749 5.63485 68.5714L4.69332 68.9084ZM6.41407 72.5408C6.76024 73.1172 7.13393 73.675 7.5333 74.2127L8.33605 73.6163C7.95608 73.1049 7.6006 72.5741 7.27132 72.0259L6.41407 72.5408ZM8.81041 75.7671C9.26114 76.2641 9.73592 76.7389 10.2329 77.1896L10.9047 76.4488C10.4318 76.02 9.98003 75.5682 9.55116 75.0953L8.81041 75.7671ZM11.7873 78.4667C12.325 78.8661 12.8828 79.2398 13.4592 79.5859L13.9741 78.7287C13.4259 78.3994 12.8952 78.0439 12.3837 77.664L11.7873 78.4667ZM15.2329 80.5359C15.8368 80.8221 16.457 81.0796 17.0916 81.3067L17.4286 80.3652C16.8251 80.1492 16.2354 79.9043 15.661 79.6322L15.2329 80.5359ZM19.0175 81.8902C19.664 82.0516 20.3225 82.1823 20.9915 82.2807L21.1371 81.2914C20.5007 81.1978 19.8745 81.0735 19.2598 80.92L19.0175 81.8902ZM22.9941 82.4757C23.3274 82.4919 23.6628 82.5 24 82.5V81.5C23.6789 81.5 23.3596 81.4922 23.0424 81.4769L22.9941 82.4757ZM24 82.5H25.046V81.5H24V82.5ZM27.1381 82.5H29.2301V81.5H27.1381V82.5ZM31.3222 82.5H33.4142V81.5H31.3222V82.5ZM35.5063 82.5H37.5983V81.5H35.5063V82.5ZM39.6904 82.5H41.7824V81.5H39.6904V82.5ZM43.8745 82.5H45.9665V81.5H43.8745V82.5ZM48.0586 82.5H50.1506V81.5H48.0586V82.5ZM52.2427 82.5H54.3347V81.5H52.2427V82.5ZM56.4268 82.5H58.5188V81.5H56.4268V82.5ZM60.6109 82.5H62.7029V81.5H60.6109V82.5ZM64.795 82.5H65.841V81.5H64.795V82.5ZM65.3939 82.2238L65.792 83.0194L66.6863 82.5719L66.2882 81.7762L65.3939 82.2238ZM66.5883 84.6107L67.3846 86.202L68.2789 85.7545L67.4826 84.1632L66.5883 84.6107ZM68.1809 87.7933L68.9772 89.3846L69.8715 88.9371L69.0752 87.3458L68.1809 87.7933ZM69.7735 90.976L70.5698 92.5673L71.4641 92.1198L70.6678 90.5284L69.7735 90.976ZM71.3661 94.1586L71.7643 94.9542L72.6586 94.5067L72.2604 93.7111L71.3661 94.1586ZM71.7643 94.9542C71.9847 95.3947 72.3072 95.7342 72.6846 95.9663L73.2085 95.1146C72.9877 94.9787 72.7945 94.7783 72.6586 94.5067L71.7643 94.9542ZM75.3154 95.9663C75.6928 95.7342 76.0153 95.3947 76.2357 94.9542L75.3414 94.5067C75.2055 94.7783 75.0123 94.9787 74.7915 95.1146L75.3154 95.9663ZM76.2357 94.9542L76.6592 94.1079L75.7649 93.6604L75.3414 94.5067L76.2357 94.9542ZM77.5062 92.4152L78.3533 90.7225L77.459 90.275L76.612 91.9677L77.5062 92.4152ZM79.2003 89.0299L80.0473 87.3372L79.153 86.8897L78.306 88.5824L79.2003 89.0299ZM80.8943 85.6445L81.7414 83.9519L80.8471 83.5044L80.0001 85.197L80.8943 85.6445ZM82.5884 82.2592L83.4354 80.5665L82.5411 80.119L81.6941 81.8117L82.5884 82.2592ZM84.2824 78.8738L84.706 78.0275L83.8117 77.58L83.3882 78.4263L84.2824 78.8738ZM84.5655 78.1986C84.8115 78.0076 85.053 77.811 85.2898 77.6092L84.6412 76.8481C84.4158 77.0401 84.1861 77.2271 83.9521 77.4089L84.5655 78.1986ZM86.6545 76.3352C87.0897 75.8903 87.5048 75.4258 87.8983 74.9429L87.1232 74.3111C86.7487 74.7705 86.3538 75.2126 85.9397 75.6358L86.6545 76.3352ZM89.011 73.4437C89.3583 72.9284 89.6828 72.3966 89.9831 71.8494L89.1065 71.3683C88.8209 71.8887 88.5122 72.3946 88.1818 72.8848L89.011 73.4437ZM90.8059 70.173C91.0533 69.6043 91.2758 69.0223 91.4718 68.4282L90.5221 68.1149C90.3358 68.6797 90.1242 69.2332 89.8889 69.7739L90.8059 70.173ZM91.9749 66.6298C92.114 66.0273 92.2266 65.4146 92.3113 64.7931L91.3204 64.6581C91.2399 65.2492 91.1328 65.8319 91.0005 66.4049L91.9749 66.6298ZM92.4791 62.9337C92.493 62.6242 92.5 62.3129 92.5 62H91.5C91.5 62.298 91.4933 62.5943 91.4801 62.8889L92.4791 62.9337ZM92.5 62V61.0455H91.5V62H92.5ZM92.5 59.1364V57.2273H91.5V59.1364H92.5ZM92.5 55.3182V53.4091H91.5V55.3182H92.5ZM92.5 51.5V49.5909H91.5V51.5H92.5ZM92.5 47.6818V45.7727H91.5V47.6818H92.5ZM92.5 43.8636V41.9545H91.5V43.8636H92.5ZM92.5 40.0455V38.1364H91.5V40.0455H92.5ZM92.5 36.2273V34.3182H91.5V36.2273H92.5ZM92.5 32.4091V30.5H91.5V32.4091H92.5ZM92.5 28.5909V26.6818H91.5V28.5909H92.5ZM92.5 24.7727V22.8636H91.5V24.7727H92.5ZM92.5 20.9545V20H91.5V20.9545H92.5ZM92.5 20C92.5 19.6628 92.4919 19.3274 92.4757 18.9941L91.4769 19.0424C91.4922 19.3596 91.5 19.6789 91.5 20H92.5ZM92.2807 16.9915C92.1823 16.3225 92.0516 15.664 91.8902 15.0175L90.92 15.2598C91.0735 15.8745 91.1978 16.5007 91.2914 17.1371L92.2807 16.9915ZM91.3067 13.0916C91.0796 12.457 90.8221 11.8368 90.5359 11.2329L89.6322 11.661C89.9043 12.2354 90.1492 12.8251 90.3652 13.4286L91.3067 13.0916ZM89.5859 9.45918C89.2398 8.88285 88.8661 8.32496 88.4667 7.78734L87.664 8.38366C88.0439 8.89515 88.3994 9.42587 88.7287 9.97408L89.5859 9.45918ZM87.1896 6.23292C86.7389 5.73592 86.2641 5.26113 85.7671 4.81041L85.0953 5.55116C85.5682 5.98003 86.02 6.4318 86.4488 6.9047L87.1896 6.23292ZM84.2127 3.5333C83.675 3.13392 83.1172 2.76024 82.5408 2.41407L82.0259 3.27132C82.5741 3.6006 83.1049 3.95608 83.6163 4.33604L84.2127 3.5333ZM80.7671 1.46409C80.1632 1.17795 79.543 0.920436 78.9084 0.693317L78.5714 1.63484C79.1749 1.8508 79.7646 2.09567 80.339 2.36779L80.7671 1.46409ZM76.9825 0.109827C76.336 -0.0515988 75.6775 -0.182331 75.0085 -0.28074L74.8629 0.708614C75.4993 0.802214 76.1255 0.926542 76.7402 1.08003L76.9825 0.109827ZM73.0059 -0.475742C72.6726 -0.491853 72.3372 -0.5 72 -0.5V0.5C72.3211 0.5 72.6404 0.507758 72.9576 0.523092L73.0059 -0.475742ZM72 -0.5H71V0.5H72V-0.5ZM69 -0.5H67V0.5H69V-0.5ZM65 -0.5H63V0.5H65V-0.5ZM61 -0.5H59V0.5H61V-0.5ZM57 -0.5H55V0.5H57V-0.5ZM53 -0.5H51V0.5H53V-0.5ZM49 -0.5H47V0.5H49V-0.5ZM45 -0.5H43V0.5H45V-0.5ZM41 -0.5H39V0.5H41V-0.5ZM37 -0.5H35V0.5H37V-0.5ZM33 -0.5H31V0.5H33V-0.5ZM29 -0.5H27V0.5H29V-0.5ZM25 -0.5H24V0.5H25V-0.5ZM24 -0.5C23.6628 -0.5 23.3274 -0.491853 22.9941 -0.475742L23.0424 0.523092C23.3596 0.507758 23.6789 0.5 24 0.5V-0.5ZM20.9915 -0.28074C20.3225 -0.182331 19.664 -0.0515988 19.0175 0.109827L19.2598 1.08003C19.8745 0.926542 20.5007 0.802214 21.1371 0.708614L20.9915 -0.28074ZM17.0916 0.693317C16.457 0.920436 15.8368 1.17795 15.2329 1.46409L15.661 2.36779C16.2354 2.09567 16.8251 1.8508 17.4286 1.63484L17.0916 0.693317ZM13.4592 2.41407C12.8828 2.76024 12.325 3.13392 11.7873 3.5333L12.3837 4.33604C12.8952 3.95608 13.4259 3.6006 13.9741 3.27132L13.4592 2.41407ZM10.2329 4.81041C9.73592 5.26114 9.26113 5.73592 8.81041 6.23292L9.55116 6.9047C9.98003 6.4318 10.4318 5.98003 10.9047 5.55116L10.2329 4.81041ZM7.5333 7.78734C7.13392 8.32496 6.76024 8.88285 6.41407 9.45918L7.27132 9.97408C7.6006 9.42587 7.95608 8.89515 8.33604 8.38366L7.5333 7.78734ZM5.46409 11.2329C5.17795 11.8368 4.92044 12.457 4.69332 13.0916L5.63484 13.4286C5.8508 12.8251 6.09567 12.2354 6.36779 11.661L5.46409 11.2329ZM4.10983 15.0175C3.9484 15.664 3.81767 16.3225 3.71926 16.9915L4.70861 17.1371C4.80221 16.5007 4.92654 15.8745 5.08003 15.2598L4.10983 15.0175ZM3.52426 18.9941C3.50815 19.3274 3.5 19.6628 3.5 20H4.5C4.5 19.6789 4.50776 19.3596 4.52309 19.0424L3.52426 18.9941ZM65.841 82L66.7353 81.5525L66.4588 81H65.841V82ZM72.2114 94.7305L73.1057 94.283L72.2114 94.7305ZM75.7886 94.7305L74.8943 94.283L75.7886 94.7305ZM84.2588 77.8038L83.6453 77.014L83.4661 77.1533L83.3645 77.3563L84.2588 77.8038ZM3 20V20.9545H5V20H3ZM3 22.8636V24.7727H5V22.8636H3ZM3 26.6818V28.5909H5V26.6818H3ZM3 30.5V32.4091H5V30.5H3ZM3 34.3182V36.2273H5V34.3182H3ZM3 38.1364V40.0455H5V38.1364H3ZM3 41.9545V43.8636H5V41.9545H3ZM3 45.7727V47.6818H5V45.7727H3ZM3 49.5909V51.5H5V49.5909H3ZM3 53.4091V55.3182H5V53.4091H3ZM3 57.2273V59.1364H5V57.2273H3ZM3 61.0455V62H5V61.0455H3ZM3 62C3 62.3453 3.00834 62.6887 3.02484 63.03L5.02251 62.9335C5.00756 62.6243 5 62.3131 5 62H3ZM3.22458 65.0812C3.3254 65.7666 3.45933 66.4413 3.62472 67.1036L5.56514 66.6191C5.41561 66.0203 5.29449 65.4101 5.20329 64.7902L3.22458 65.0812ZM4.22255 69.0768C4.45525 69.7271 4.71909 70.3625 5.01224 70.9812L6.81964 70.1249C6.55453 69.5653 6.31598 68.9908 6.10561 68.403L4.22255 69.0768ZM5.98545 72.7983C6.34006 73.3887 6.72285 73.9601 7.13192 74.5108L8.73742 73.3182C8.36716 72.8198 8.02078 72.3026 7.69994 71.7685L5.98545 72.7983ZM8.44003 76.103C8.90169 76.612 9.38798 77.0983 9.89704 77.56L11.2406 76.0785C10.7797 75.6605 10.3395 75.2203 9.92154 74.7594L8.44003 76.103ZM11.4892 78.8681C12.0399 79.2772 12.6113 79.6599 13.2017 80.0146L14.2315 78.3001C13.6974 77.9792 13.1802 77.6328 12.6818 77.2626L11.4892 78.8681ZM15.0188 80.9878C15.6375 81.2809 16.2729 81.5447 16.9232 81.7775L17.597 79.8944C17.0092 79.684 16.4347 79.4455 15.8751 79.1804L15.0188 80.9878ZM18.8964 82.3753C19.5587 82.5407 20.2334 82.6746 20.9188 82.7754L21.2098 80.7967C20.5899 80.7055 19.9797 80.5844 19.3809 80.4349L18.8964 82.3753ZM22.97 82.9752C23.3113 82.9917 23.6547 83 24 83V81C23.6869 81 23.3757 80.9924 23.0665 80.9775L22.97 82.9752ZM24 83H25.046V81H24V83ZM27.1381 83H29.2301V81H27.1381V83ZM31.3222 83H33.4142V81H31.3222V83ZM35.5063 83H37.5983V81H35.5063V83ZM39.6904 83H41.7824V81H39.6904V83ZM43.8745 83H45.9665V81H43.8745V83ZM48.0586 83H50.1506V81H48.0586V83ZM52.2427 83H54.3347V81H52.2427V83ZM56.4268 83H58.5188V81H56.4268V83ZM60.6109 83H62.7029V81H60.6109V83ZM64.795 83H65.841V81H64.795V83ZM64.9467 82.4475L65.3449 83.2432L67.1334 82.3482L66.7353 81.5525L64.9467 82.4475ZM66.1412 84.8345L66.9375 86.4258L68.7261 85.5308L67.9298 83.9395L66.1412 84.8345ZM67.7338 88.0171L68.5301 89.6084L70.3187 88.7134L69.5224 87.1221L67.7338 88.0171ZM69.3264 91.1997L70.1227 92.791L71.9113 91.896L71.115 90.3047L69.3264 91.1997ZM70.919 94.3823L71.3172 95.178L73.1057 94.283L72.7076 93.4873L70.919 94.3823ZM71.3172 95.178C71.5798 95.7029 71.967 96.1119 72.4226 96.3922L73.4705 94.6887C73.3279 94.601 73.1994 94.4701 73.1057 94.283L71.3172 95.178ZM75.5774 96.3922C76.033 96.1119 76.4202 95.7029 76.6828 95.178L74.8943 94.283C74.8006 94.4701 74.672 94.601 74.5295 94.6887L75.5774 96.3922ZM76.6828 95.178L77.1064 94.3316L75.3178 93.4366L74.8943 94.283L76.6828 95.178ZM77.9534 92.639L78.8004 90.9463L77.0118 90.0513L76.1648 91.744L77.9534 92.639ZM79.6474 89.2536L80.4945 87.561L78.7059 86.6659L77.8589 88.3586L79.6474 89.2536ZM81.3415 85.8683L82.1885 84.1756L80.3999 83.2806L79.5529 84.9733L81.3415 85.8683ZM83.0355 82.4829L83.8826 80.7903L82.094 79.8953L81.247 81.5879L83.0355 82.4829ZM84.7296 79.0976L85.1531 78.2513L83.3645 77.3563L82.941 78.2026L84.7296 79.0976ZM84.8723 78.5935C85.1242 78.3978 85.3715 78.1965 85.6141 77.9898L84.3169 76.4675C84.0973 76.6547 83.8734 76.8369 83.6453 77.014L84.8723 78.5935ZM87.0119 76.6848C87.4576 76.2292 87.8828 75.7534 88.2859 75.2588L86.7356 73.9952C86.3707 74.4429 85.9858 74.8737 85.5823 75.2862L87.0119 76.6848ZM89.4257 73.7231C89.7814 73.1954 90.1138 72.6505 90.4214 72.09L88.6681 71.1277C88.3899 71.6347 88.0891 72.1277 87.7672 72.6053L89.4257 73.7231ZM91.2643 70.3725C91.5179 69.7899 91.7458 69.1936 91.9466 68.5849L90.0473 67.9582C89.8658 68.5085 89.6597 69.0476 89.4305 69.5744L91.2643 70.3725ZM92.4621 66.7423C92.6046 66.1249 92.7199 65.4972 92.8067 64.8606L90.825 64.5905C90.7465 65.1665 90.6422 65.7342 90.5134 66.2924L92.4621 66.7423ZM92.9786 62.9561C92.9928 62.6391 93 62.3204 93 62H91C91 62.2905 90.9935 62.5794 90.9806 62.8665L92.9786 62.9561ZM93 62V61.0455H91V62H93ZM93 59.1364V57.2273H91V59.1364H93ZM93 55.3182V53.4091H91V55.3182H93ZM93 51.5V49.5909H91V51.5H93ZM93 47.6818V45.7727H91V47.6818H93ZM93 43.8636V41.9545H91V43.8636H93ZM93 40.0455V38.1364H91V40.0455H93ZM93 36.2273V34.3182H91V36.2273H93ZM93 32.4091V30.5H91V32.4091H93ZM93 28.5909V26.6818H91V28.5909H93ZM93 24.7727V22.8636H91V24.7727H93ZM93 20.9545V20H91V20.9545H93ZM93 20C93 19.6547 92.9917 19.3113 92.9752 18.97L90.9775 19.0665C90.9924 19.3757 91 19.6869 91 20H93ZM92.7754 16.9188C92.6746 16.2334 92.5407 15.5587 92.3753 14.8964L90.4349 15.3809C90.5844 15.9797 90.7055 16.5898 90.7967 17.2098L92.7754 16.9188ZM91.7775 12.9232C91.5447 12.2729 91.2809 11.6375 90.9878 11.0188L89.1804 11.8751C89.4455 12.4347 89.684 13.0092 89.8944 13.597L91.7775 12.9232ZM90.0146 9.20173C89.6599 8.61133 89.2772 8.03987 88.8681 7.48918L87.2626 8.68182C87.6328 9.18025 87.9792 9.69738 88.3001 10.2315L90.0146 9.20173ZM87.56 5.89703C87.0983 5.38798 86.612 4.90169 86.103 4.44003L84.7594 5.92154C85.2203 6.33948 85.6605 6.77973 86.0785 7.24059L87.56 5.89703ZM84.5108 3.13192C83.9601 2.72285 83.3887 2.34006 82.7983 1.98545L81.7685 3.69994C82.3026 4.02078 82.8198 4.36716 83.3182 4.73742L84.5108 3.13192ZM80.9812 1.01224C80.3625 0.719087 79.7271 0.455254 79.0768 0.222553L78.403 2.10561C78.9908 2.31598 79.5653 2.55453 80.1249 2.81964L80.9812 1.01224ZM77.1036 -0.375277C76.4413 -0.540669 75.7666 -0.674604 75.0812 -0.775417L74.7902 1.20329C75.4101 1.29449 76.0203 1.41561 76.6191 1.56514L77.1036 -0.375277ZM73.03 -0.975159C72.6887 -0.991659 72.3453 -1 72 -1V1C72.3131 1 72.6243 1.00756 72.9335 1.02251L73.03 -0.975159ZM72 -1H71V1H72V-1ZM69 -1H67V1H69V-1ZM65 -1H63V1H65V-1ZM61 -1H59V1H61V-1ZM57 -1H55V1H57V-1ZM53 -1H51V1H53V-1ZM49 -1H47V1H49V-1ZM45 -1H43V1H45V-1ZM41 -1H39V1H41V-1ZM37 -1H35V1H37V-1ZM33 -1H31V1H33V-1ZM29 -1H27V1H29V-1ZM25 -1H24V1H25V-1ZM24 -1C23.6547 -1 23.3113 -0.991659 22.97 -0.975159L23.0665 1.02251C23.3757 1.00756 23.6869 1 24 1V-1ZM20.9188 -0.775417C20.2334 -0.674604 19.5587 -0.540669 18.8964 -0.375277L19.3809 1.56514C19.9797 1.41561 20.5898 1.29449 21.2098 1.20329L20.9188 -0.775417ZM16.9232 0.222553C16.2729 0.455254 15.6375 0.719087 15.0188 1.01224L15.8751 2.81964C16.4347 2.55453 17.0092 2.31598 17.597 2.10561L16.9232 0.222553ZM13.2017 1.98544C12.6113 2.34006 12.0399 2.72285 11.4892 3.13192L12.6818 4.73742C13.1802 4.36716 13.6974 4.02078 14.2315 3.69994L13.2017 1.98544ZM9.89703 4.44003C9.38798 4.90169 8.90169 5.38798 8.44003 5.89704L9.92154 7.24059C10.3395 6.77974 10.7797 6.33948 11.2406 5.92154L9.89703 4.44003ZM7.13192 7.48918C6.72284 8.03987 6.34006 8.61134 5.98544 9.20173L7.69994 10.2315C8.02078 9.69738 8.36716 9.18025 8.73742 8.68182L7.13192 7.48918ZM5.01224 11.0188C4.71909 11.6375 4.45525 12.2729 4.22255 12.9232L6.10561 13.597C6.31598 13.0092 6.55453 12.4347 6.81964 11.8751L5.01224 11.0188ZM3.62472 14.8964C3.45933 15.5587 3.3254 16.2334 3.22458 16.9188L5.20329 17.2098C5.29449 16.5899 5.41561 15.9797 5.56514 15.3809L3.62472 14.8964ZM3.02484 18.97C3.00834 19.3113 3 19.6547 3 20H5C5 19.6869 5.00756 19.3757 5.02251 19.0665L3.02484 18.97Z" fill="#767676" mask="url(#path-1-inside-1_1813_37296)"/>
    </g>
    <defs>
        <filter id="filter0_d_1813_37296" x="0" y="0" width="96" height="103.836" filterUnits="userSpaceOnUse" color-interpolation-filters="sRGB">
            <feFlood flood-opacity="0" result="BackgroundImageFix"/>
            <feColorMatrix in="SourceAlpha" type="matrix" values="0 0 0 0 0 0 0 0 0 0 0 0 0 0 0 0 0 0 127 0" result="hardAlpha"/>
            <feOffset dy="4"/>
            <feGaussianBlur stdDeviation="2"/>
            <feComposite in2="hardAlpha" operator="out"/>
            <feColorMatrix type="matrix" values="0 0 0 0 0 0 0 0 0 0 0 0 0 0 0 0 0 0 0.25 0"/>
            <feBlend mode="normal" in2="BackgroundImageFix" result="effect1_dropShadow_1813_37296"/>
            <feBlend mode="normal" in="SourceGraphic" in2="effect1_dropShadow_1813_37296" result="shape"/>
        </filter>
    </defs>
</svg>
