<svg width="231" height="501" viewBox="0 0 231 501" fill="none" xmlns="http://www.w3.org/2000/svg">
    <rect width="71.0235" height="23.6775" transform="matrix(-0.657732 0.753252 -0.752624 -0.65845 129.535 76.5898)" fill="#FFABAB" fill-opacity="0.47"/>
    <path d="M169.202 459.995C173.852 466.098 179.04 473.75 187.482 474.828C189.819 475.124 192.113 475.019 194.327 474.117C196.327 473.306 198.079 472.225 199.652 470.761C202.454 468.157 204.277 464.595 205.351 461.018C207.294 454.496 207.301 446.203 202.561 440.897C199.817 437.829 194.937 436.366 191.273 438.973C187.43 441.711 186.952 446.575 188.066 450.732C189.919 457.651 195.083 464.345 202.316 466.368C211.747 469.01 220.54 462.415 225.174 454.787C227.535 450.895 229.011 446.519 229.466 442.039C229.877 437.949 229.208 433.141 226.061 430.197C224.274 428.529 221.702 427.444 219.186 427.635C216.02 427.869 213.537 429.641 211.74 432.135C208.36 436.808 208.819 443.39 210.505 448.521C212.132 453.473 215.398 458.27 220.774 459.719C225.593 461.025 230.658 459.291 234.426 456.218C236.193 454.778 237.609 452.923 238.994 451.143C240.141 449.672 241.246 448.161 242.193 446.566C243.841 443.788 244.976 440.759 246.248 437.814C247.224 435.549 248.245 433.309 249.317 431.089C249.997 429.68 249.685 427.803 248.154 427.07C246.769 426.404 244.754 426.755 244.028 428.264C242.291 431.867 240.754 435.542 239.162 439.211C238.08 441.702 236.829 444.075 235.228 446.295C235.112 446.459 234.994 446.617 234.871 446.783C234.919 446.718 235.281 446.244 234.957 446.671C234.687 447.025 234.41 447.381 234.131 447.73C233.431 448.608 232.714 449.476 231.975 450.322C231.688 450.644 231.399 450.96 231.091 451.26C230.911 451.435 230.724 451.613 230.533 451.777C230.45 451.852 229.793 452.362 230.374 451.925C229.523 452.563 228.634 453.096 227.67 453.549C228.405 453.206 227.687 453.53 227.546 453.585C227.323 453.664 227.107 453.741 226.882 453.814C226.513 453.928 226.146 454.027 225.767 454.107C225.55 454.156 224.968 454.411 225.678 454.133C225.496 454.2 225.203 454.191 225.005 454.204C224.488 454.245 223.976 454.227 223.45 454.212C222.714 454.192 224.076 454.343 223.358 454.202C223.145 454.162 222.927 454.131 222.712 454.084C222.354 454.006 222.016 453.893 221.666 453.791C222.402 454.014 221.731 453.809 221.578 453.744C221.381 453.656 221.18 453.555 220.993 453.449C220.806 453.343 220.615 453.225 220.426 453.112C220.157 452.929 220.179 452.952 220.505 453.177C220.382 453.089 220.265 452.992 220.149 452.902C219.795 452.605 219.472 452.285 219.158 451.948C219.19 451.982 218.585 451.308 218.853 451.615C219.121 451.922 218.549 451.209 218.575 451.245C218.233 450.785 217.921 450.302 217.636 449.804C217.487 449.549 217.353 449.29 217.219 449.032C217.13 448.854 217.041 448.677 216.961 448.504C217.079 448.782 217.063 448.75 216.92 448.414C216.502 447.381 216.155 446.334 215.879 445.253C215.729 444.657 215.617 444.065 215.502 443.46C215.313 442.498 215.543 444.014 215.44 443.042C215.396 442.656 215.356 442.261 215.334 441.875C215.3 441.297 215.295 440.71 215.32 440.129C215.334 439.842 215.355 439.553 215.384 439.269C215.459 438.369 215.322 439.57 215.417 439.049C215.512 438.528 215.612 438.049 215.753 437.558C215.827 437.297 215.916 437.039 216.006 436.781C216.127 436.455 216.132 436.446 216.016 436.741C216.09 436.582 216.17 436.421 216.252 436.267C216.386 436.01 216.542 435.776 216.685 435.524C217.125 434.751 216.413 435.77 216.957 435.126C217.147 434.904 217.338 434.689 217.542 434.492C217.617 434.419 218.302 433.902 217.744 434.289C217.954 434.141 219.013 433.602 218.278 433.894C218.492 433.811 218.715 433.732 218.935 433.668C219.08 433.626 219.226 433.591 219.374 433.563C218.937 433.624 218.887 433.631 219.23 433.604C219.447 433.607 219.668 433.601 219.89 433.595C220.587 433.582 219.304 433.423 219.969 433.608C220.172 433.666 220.388 433.719 220.596 433.768C221.276 433.927 220.07 433.47 220.687 433.8C221.007 433.976 221.322 434.139 221.631 434.332C220.991 433.922 221.582 434.317 221.702 434.421C221.921 434.611 222.116 434.823 222.321 435.04C221.798 434.495 222.271 434.997 222.363 435.137C222.483 435.32 222.585 435.515 222.705 435.698C223.096 436.304 222.528 435.089 222.749 435.773C222.807 435.974 222.886 436.169 222.951 436.368C223.043 436.66 223.128 436.955 223.209 437.259C223.254 437.441 223.293 437.626 223.331 437.811C223.359 437.934 223.38 438.058 223.403 438.189C223.453 438.516 223.448 438.445 223.38 437.979C223.284 438.086 223.48 438.995 223.492 439.166C223.513 439.573 223.521 439.985 223.519 440.392C223.516 440.741 223.499 441.095 223.48 441.441C223.468 441.655 223.448 441.871 223.427 442.081C223.415 442.222 223.397 442.365 223.381 442.515C223.436 442.114 223.44 442.077 223.393 442.403C223.098 444.216 222.658 445.991 222.019 447.722C221.934 447.943 221.848 448.164 221.763 448.384C222.024 447.714 221.733 448.458 221.687 448.559C221.494 448.999 221.292 449.435 221.075 449.868C220.642 450.741 220.165 451.591 219.644 452.417C219.384 452.833 219.114 453.238 218.828 453.64C218.77 453.722 218.277 454.388 218.714 453.811C218.569 454.006 218.415 454.195 218.263 454.392C217.648 455.15 216.996 455.884 216.3 456.571C215.952 456.912 215.594 457.247 215.231 457.563C215.047 457.725 214.861 457.881 214.675 458.036C215.245 457.559 214.619 458.074 214.527 458.144C213.756 458.723 212.94 459.25 212.09 459.713C211.877 459.826 211.663 459.939 211.45 460.051C211.306 460.122 210.589 460.373 211.308 460.128C210.847 460.284 210.396 460.451 209.928 460.586C209.488 460.713 209.035 460.823 208.583 460.91L208.364 460.951C208.023 461.007 208.073 460.999 208.515 460.93C208.392 460.994 208.01 460.989 207.872 461C207.45 461.035 207.031 461.054 206.614 461.059C206.427 461.055 205.512 461.138 205.399 461.004L205.783 461.045C205.653 461.032 205.52 461.012 205.395 460.99C205.2 460.96 205.011 460.927 204.814 460.89C204.402 460.806 203.994 460.706 203.593 460.583C203.439 460.54 203.288 460.482 203.141 460.438C202.495 460.24 203.765 460.714 203.143 460.444C202.793 460.292 202.445 460.145 202.112 459.973C201.779 459.801 201.444 459.622 201.126 459.424C200.963 459.326 200.808 459.226 200.65 459.119C199.951 458.66 200.908 459.342 200.503 459.023C199.961 458.592 199.426 458.159 198.924 457.687C198.654 457.424 198.384 457.161 198.131 456.879C198.002 456.742 197.88 456.603 197.756 456.457C197.199 455.82 197.966 456.745 197.645 456.33C196.736 455.148 195.918 453.919 195.243 452.589C195.107 452.324 194.975 452.05 194.851 451.774C194.567 451.181 195.13 452.455 194.886 451.844C194.823 451.68 194.747 451.521 194.685 451.357C194.413 450.674 194.18 449.972 193.981 449.26C193.906 448.998 193.844 448.733 193.782 448.468C193.74 448.27 193.598 447.164 193.659 447.916C193.625 447.461 193.585 447.015 193.596 446.562C193.595 446.431 193.555 446.036 193.635 445.926C193.572 446.351 193.572 446.402 193.621 446.083C193.643 445.953 193.665 445.823 193.696 445.698C193.739 445.512 193.79 445.33 193.842 445.148C193.869 445.06 194.109 444.526 193.884 444.983C193.658 445.44 194.136 444.54 194.213 444.394C194.518 443.827 194.125 444.376 194.135 444.46C194.118 444.4 194.415 444.14 194.46 444.09C194.484 444.069 194.793 443.747 194.813 443.763C194.397 444.08 194.32 444.146 194.572 443.964C194.659 443.902 194.748 443.848 194.836 443.793C194.88 443.766 195.243 443.603 195.249 443.572C195.202 443.847 194.462 443.814 195.077 443.672C195.173 443.645 195.283 443.613 195.373 443.587C196.022 443.384 195.253 443.767 195.184 443.605C195.184 443.605 195.626 443.586 195.662 443.583C196.297 443.537 195.612 443.488 195.531 443.541C195.594 443.501 195.954 443.614 196.026 443.63C196.138 443.656 196.25 443.681 196.356 443.716C196.652 443.812 196.584 443.781 196.142 443.618C196.365 443.822 196.864 443.976 197.146 444.126C197.71 444.428 196.805 443.797 197.103 444.081C197.226 444.197 197.382 444.297 197.512 444.412C197.857 444.704 198.162 445.037 198.467 445.37C197.977 444.837 198.52 445.449 198.585 445.546C198.685 445.684 198.786 445.829 198.879 445.969C199.026 446.195 199.162 446.432 199.291 446.671C199.357 446.797 199.416 446.925 199.481 447.044C199.63 447.327 199.369 447.199 199.332 446.709C199.353 446.965 199.568 447.294 199.654 447.538C199.775 447.881 199.876 448.229 199.97 448.579C200.094 449.059 200.43 449.861 200.341 450.352C200.45 449.725 200.274 449.863 200.319 450.249C200.34 450.425 200.359 450.594 200.373 450.771C200.412 451.188 200.442 451.6 200.458 452.017C200.492 452.726 200.487 453.431 200.455 454.145C200.443 454.489 200.417 454.838 200.391 455.186C200.373 455.381 200.36 455.566 200.339 455.753C200.247 456.593 200.4 455.423 200.319 455.941C200.08 457.483 199.745 459.003 199.242 460.485C199.169 460.694 199.021 461.471 198.837 461.582L198.982 461.235C198.934 461.35 198.88 461.475 198.832 461.591C198.756 461.765 198.672 461.941 198.589 462.118C198.262 462.815 197.891 463.489 197.484 464.144C197.279 464.465 197.065 464.781 196.842 465.092C196.458 465.646 197.278 464.566 196.84 465.085C196.718 465.229 196.604 465.378 196.482 465.523C195.991 466.093 195.461 466.631 194.893 467.115L194.75 467.236C194.496 467.44 194.557 467.394 194.926 467.098C194.812 467.117 194.57 467.361 194.471 467.433C194.16 467.646 193.841 467.855 193.515 468.044C193.215 468.218 192.881 468.351 192.583 468.531C192.209 468.756 193.334 468.241 192.708 468.473C192.466 468.565 192.22 468.665 191.974 468.744C191.593 468.869 191.204 468.967 190.819 469.078C190.159 469.269 191.518 469.072 190.753 469.083C190.523 469.084 190.284 469.109 190.055 469.118C189.603 469.125 189.148 469.097 188.694 469.076C188.785 469.079 189.348 469.17 188.816 469.084C188.527 469.037 188.239 468.997 187.953 468.935C187.532 468.846 187.113 468.735 186.703 468.607C186.498 468.543 186.298 468.47 186.098 468.397C186.847 468.667 186.17 468.413 186.026 468.353C185.242 468.013 184.496 467.598 183.781 467.137C183.599 467.023 183.422 466.9 183.247 466.783C183.901 467.218 183.293 466.814 183.177 466.724C182.833 466.46 182.495 466.195 182.167 465.912C181.505 465.349 180.878 464.754 180.273 464.13C179.668 463.507 179.088 462.869 178.523 462.205C178.387 462.041 178.25 461.878 178.106 461.716C178.619 462.33 178.151 461.768 178.057 461.65C177.791 461.321 177.531 460.99 177.271 460.658C176.302 459.421 175.375 458.151 174.418 456.903C173.461 455.656 171.703 454.989 170.255 455.959C168.992 456.797 168.223 458.725 169.231 460.045L169.202 459.995Z" fill="#FFCC00"/>
    <circle cx="7" cy="91.3281" r="7" fill="#E84D59"/>
    <circle cx="94" cy="7" r="7" fill="#656EB3"/>
    <circle cx="196.855" cy="64.7902" r="7" transform="rotate(36.4794 196.855 64.7902)" fill="#FF7029"/>
    <circle cx="26.8554" cy="454.79" r="7" transform="rotate(36.4794 26.8554 454.79)" fill="#E5C1DB"/>
    <circle cx="212.79" cy="266.79" r="7" transform="rotate(36.4794 212.79 266.79)" fill="#BFE0A6"/>
    <ellipse cx="168" cy="493.222" rx="7" ry="7.22202" fill="#B0D4FF"/>
</svg>
