<svg width="162" height="161" viewBox="0 0 162 161" fill="none" xmlns="http://www.w3.org/2000/svg">
    <path d="M1.28779 79.1C1.61859 60.1486 8.70063 41.9372 21.2601 27.7413C33.8196 13.5454 51.0322 4.2967 69.802 1.65878C88.5717 -0.979144 107.667 3.16681 123.653 13.3509C139.639 23.535 151.466 39.0889 157.008 57.2149C162.549 75.341 161.442 94.8496 153.884 112.232C146.326 129.614 132.813 143.729 115.777 152.038C98.7415 160.347 79.2998 162.305 60.9493 157.559C42.5988 152.813 26.5438 141.675 15.6721 126.149" stroke="black" stroke-width="0.789616" stroke-linecap="round" stroke-dasharray="6.32 6.32"/>
    <path d="M9.29968 119.645C9.07246 118.363 10.4053 117.371 11.5663 117.958L18.2763 121.352C19.3234 121.882 19.4473 123.33 18.5055 124.03L13.1087 128.046C12.1669 128.747 10.8179 128.211 10.6129 127.054L9.29968 119.645Z" fill="black"/>
</svg>
