<svg width="218" height="278" viewBox="0 0 218 278" fill="none" xmlns="http://www.w3.org/2000/svg">
    <path d="M8.83952 0.945939H209.402C213.654 0.945939 217.101 4.39279 217.101 8.6447V270.008C217.101 274.259 213.654 277.706 209.402 277.706H8.83952C4.58761 277.706 1.14076 274.259 1.14076 270.008V8.64469C1.14076 4.39278 4.58761 0.945939 8.83952 0.945939Z" fill="white" stroke="#767676" stroke-width="0.394808"/>
    <path d="M30.5656 140.718C30.8921 122.014 37.8817 104.04 50.2774 90.0297C62.673 76.019 79.6611 66.891 98.186 64.2875C116.711 61.684 135.557 65.7758 151.334 75.8271C167.112 85.8784 178.785 101.229 184.254 119.119C189.724 137.009 188.63 156.263 181.171 173.418C173.712 190.574 160.376 204.504 143.562 212.705C126.748 220.906 107.56 222.838 89.4489 218.154C71.3377 213.47 55.4922 202.478 44.7623 187.154" stroke="black" stroke-width="0.789616" stroke-linecap="round" stroke-dasharray="6.32 6.32"/>
    <path d="M38.6229 181.107C38.3956 179.825 39.7287 178.835 40.8901 179.422L47.6094 182.817C48.6572 183.347 48.7814 184.794 47.8392 185.494L42.435 189.511C41.4928 190.212 40.143 189.676 39.9379 188.52L38.6229 181.107Z" fill="black"/>
</svg>
