<svg width="16" height="16" viewBox="0 0 16 16" fill="none" xmlns="http://www.w3.org/2000/svg">
    <g clip-path="url(#clip0_1272_8044)">
        <path d="M7.86667 10.8L8.8 9.86667L6.66667 7.73334V4.66667H5.33333V8.26667L7.86667 10.8ZM12 13.6667V12.2C12.8222 11.8111 13.4722 11.2389 13.95 10.4833C14.4278 9.72778 14.6667 8.9 14.6667 8C14.6667 7.1 14.4278 6.27222 13.95 5.51667C13.4722 4.76111 12.8222 4.18889 12 3.8V2.33333C13.2111 2.75556 14.1806 3.48611 14.9083 4.525C15.6361 5.56389 16 6.72223 16 8C16 9.27778 15.6361 10.4361 14.9083 11.475C14.1806 12.5139 13.2111 13.2445 12 13.6667ZM6 14C5.16667 14 4.38611 13.8417 3.65833 13.525C2.93056 13.2083 2.29722 12.7806 1.75833 12.2417C1.21944 11.7028 0.791667 11.0695 0.475 10.3417C0.158333 9.61389 0 8.83334 0 8C0 7.16667 0.158333 6.38611 0.475 5.65834C0.791667 4.93056 1.21944 4.29722 1.75833 3.75833C2.29722 3.21945 2.93056 2.79167 3.65833 2.475C4.38611 2.15833 5.16667 2 6 2C6.83333 2 7.61389 2.15833 8.34167 2.475C9.06944 2.79167 9.70278 3.21945 10.2417 3.75833C10.7806 4.29722 11.2083 4.93056 11.525 5.65834C11.8417 6.38611 12 7.16667 12 8C12 8.83334 11.8417 9.61389 11.525 10.3417C11.2083 11.0695 10.7806 11.7028 10.2417 12.2417C9.70278 12.7806 9.06944 13.2083 8.34167 13.525C7.61389 13.8417 6.83333 14 6 14ZM6 12.6667C7.3 12.6667 8.40278 12.2139 9.30833 11.3083C10.2139 10.4028 10.6667 9.3 10.6667 8C10.6667 6.7 10.2139 5.59722 9.30833 4.69167C8.40278 3.78611 7.3 3.33333 6 3.33333C4.7 3.33333 3.59722 3.78611 2.69167 4.69167C1.78611 5.59722 1.33333 6.7 1.33333 8C1.33333 9.3 1.78611 10.4028 2.69167 11.3083C3.59722 12.2139 4.7 12.6667 6 12.6667Z" fill="#FCF9D1"/>
    </g>
    <defs>
        <clipPath id="clip0_1272_8044">
            <rect width="16" height="16" fill="white"/>
        </clipPath>
    </defs>
</svg>
