<svg width="15" height="12" viewBox="0 0 15 12" fill="none" xmlns="http://www.w3.org/2000/svg">
<path fill-rule="evenodd" clip-rule="evenodd" d="M5.15575 0.330732C5.62715 -0.267058 6.58816 0.0827223 6.56502 0.843668L6.43912 4.98464L9.00438 1.73161C9.47578 1.13382 10.4368 1.4836 10.4137 2.24455L10.2875 6.39245L12.8569 3.1342C13.3283 2.53641 14.2893 2.88619 14.2662 3.64713L14.0361 11.2149C14.0197 11.7526 13.4823 12.1169 12.9768 11.9329L8.51866 10.3103C8.51105 10.3075 8.50352 10.3047 8.49606 10.3017L4.66612 8.90772L4.65498 8.90357L0.817487 7.50684C0.311993 7.32285 0.134431 6.6983 0.467526 6.2759L5.15575 0.330732Z" fill="#FCF9D1"/>
</svg>
