<svg xmlns="http://www.w3.org/2000/svg" width="50" height="50" viewBox="0 0 50 50" fill="none">
    <path d="M25.0001 35.416C25.5904 35.416 26.0852 35.2164 26.4845 34.8171C26.8838 34.4178 27.0834 33.923 27.0834 33.3327C27.0834 32.7424 26.8838 32.2476 26.4845 31.8483C26.0852 31.449 25.5904 31.2493 25.0001 31.2493C24.4098 31.2493 23.915 31.449 23.5157 31.8483C23.1164 32.2476 22.9167 32.7424 22.9167 33.3327C22.9167 33.923 23.1164 34.4178 23.5157 34.8171C23.915 35.2164 24.4098 35.416 25.0001 35.416ZM22.9167 27.0827H27.0834V14.5827H22.9167V27.0827ZM25.0001 45.8327C22.1181 45.8327 19.4098 45.2858 16.8751 44.1921C14.3404 43.0983 12.1355 41.6139 10.2605 39.7389C8.3855 37.8639 6.90112 35.6591 5.80737 33.1243C4.71362 30.5896 4.16675 27.8813 4.16675 24.9993C4.16675 22.1174 4.71362 19.4091 5.80737 16.8743C6.90112 14.3396 8.3855 12.1348 10.2605 10.2598C12.1355 8.38477 14.3404 6.90039 16.8751 5.80664C19.4098 4.71289 22.1181 4.16602 25.0001 4.16602C27.882 4.16602 30.5904 4.71289 33.1251 5.80664C35.6598 6.90039 37.8647 8.38477 39.7397 10.2598C41.6147 12.1348 43.099 14.3396 44.1928 16.8743C45.2865 19.4091 45.8334 22.1174 45.8334 24.9993C45.8334 27.8813 45.2865 30.5896 44.1928 33.1243C43.099 35.6591 41.6147 37.8639 39.7397 39.7389C37.8647 41.6139 35.6598 43.0983 33.1251 44.1921C30.5904 45.2858 27.882 45.8327 25.0001 45.8327ZM25.0001 41.666C29.6529 41.666 33.5938 40.0514 36.823 36.8223C40.0522 33.5931 41.6667 29.6521 41.6667 24.9993C41.6667 20.3466 40.0522 16.4056 36.823 13.1764C33.5938 9.94727 29.6529 8.33268 25.0001 8.33268C20.3473 8.33268 16.4063 9.94727 13.1772 13.1764C9.948 16.4056 8.33342 20.3466 8.33342 24.9993C8.33342 29.6521 9.948 33.5931 13.1772 36.8223C16.4063 40.0514 20.3473 41.666 25.0001 41.666Z" fill="#E84D59"/>
</svg>
