<svg xmlns="http://www.w3.org/2000/svg" width="100" height="100" viewBox="0 0 100 100" fill="none">
    <g filter="url(#filter0_i_776_6736)">
        <circle cx="50" cy="50" r="50" fill="#FFCC00"/>
    </g>
    <circle cx="36.5" cy="59.5" r="3.5" fill="black"/>
    <circle cx="63.5" cy="59.5" r="3.5" fill="black"/>
    <rect x="31" y="68" width="37" height="2" rx="1" fill="black"/>
    <path d="M38 69C38 70.5759 38.3104 72.1363 38.9134 73.5922C39.5165 75.0481 40.4004 76.371 41.5147 77.4853C42.629 78.5996 43.9519 79.4835 45.4078 80.0866C46.8637 80.6896 48.4241 81 50 81C51.5759 81 53.1363 80.6896 54.5922 80.0866C56.0481 79.4835 57.371 78.5996 58.4853 77.4853C59.5996 76.371 60.4835 75.0481 61.0866 73.5922C61.6896 72.1363 62 70.5759 62 69L50 69L38 69Z" fill="black"/>
    <defs>
        <filter id="filter0_i_776_6736" x="-4" y="0" width="104" height="104" filterUnits="userSpaceOnUse" color-interpolation-filters="sRGB">
            <feFlood flood-opacity="0" result="BackgroundImageFix"/>
            <feBlend mode="normal" in="SourceGraphic" in2="BackgroundImageFix" result="shape"/>
            <feColorMatrix in="SourceAlpha" type="matrix" values="0 0 0 0 0 0 0 0 0 0 0 0 0 0 0 0 0 0 127 0" result="hardAlpha"/>
            <feOffset dx="-10" dy="10"/>
            <feGaussianBlur stdDeviation="2"/>
            <feComposite in2="hardAlpha" operator="arithmetic" k2="-1" k3="1"/>
            <feColorMatrix type="matrix" values="0 0 0 0 0 0 0 0 0 0 0 0 0 0 0 0 0 0 0.25 0"/>
            <feBlend mode="normal" in2="shape" result="effect1_innerShadow_776_6736"/>
        </filter>
    </defs>
</svg>