<svg xmlns="http://www.w3.org/2000/svg" width="100" height="100" viewBox="0 0 100 100" fill="none">
    <g filter="url(#filter0_i_776_6697)">
        <circle cx="50" cy="50" r="50" fill="#FFCC00"/>
    </g>
    <circle cx="36.5" cy="59.5" r="3.5" fill="black"/>
    <circle cx="63.5" cy="59.5" r="3.5" fill="black"/>
    <path d="M63 78C63 76.4241 62.6896 74.8637 62.0866 73.4078C61.4835 71.9519 60.5996 70.629 59.4853 69.5147C58.371 68.4004 57.0481 67.5165 55.5922 66.9134C54.1363 66.3104 52.5759 66 51 66C49.4241 66 47.8637 66.3104 46.4078 66.9134C44.9519 67.5165 43.629 68.4004 42.5147 69.5147C41.4004 70.629 40.5165 71.9519 39.9134 73.4078C39.3104 74.8637 39 76.4241 39 78L51 78H63Z" fill="black"/>
    <defs>
        <filter id="filter0_i_776_6697" x="-4" y="0" width="104" height="104" filterUnits="userSpaceOnUse" color-interpolation-filters="sRGB">
            <feFlood flood-opacity="0" result="BackgroundImageFix"/>
            <feBlend mode="normal" in="SourceGraphic" in2="BackgroundImageFix" result="shape"/>
            <feColorMatrix in="SourceAlpha" type="matrix" values="0 0 0 0 0 0 0 0 0 0 0 0 0 0 0 0 0 0 127 0" result="hardAlpha"/>
            <feOffset dx="-10" dy="10"/>
            <feGaussianBlur stdDeviation="2"/>
            <feComposite in2="hardAlpha" operator="arithmetic" k2="-1" k3="1"/>
            <feColorMatrix type="matrix" values="0 0 0 0 0 0 0 0 0 0 0 0 0 0 0 0 0 0 0.25 0"/>
            <feBlend mode="normal" in2="shape" result="effect1_innerShadow_776_6697"/>
        </filter>
    </defs>
</svg>