<svg width="375" height="514" viewBox="0 0 376 515" fill="none" xmlns="http://www.w3.org/2000/svg">
<path d="M375.5 514.5V0.500488H298.698V15.2805C301.729 17.0005 303.699 20.2505 303.699 23.9805C303.699 29.5005 299.218 33.9805 293.698 33.9805C288.178 33.9805 283.698 29.5005 283.698 23.9805C283.698 20.2505 285.668 17.0005 288.698 15.2805V0.500488H245.857V15.2805H245.777C248.807 17.0005 250.857 20.2505 250.857 23.9805C250.857 29.5005 246.377 33.9805 240.857 33.9805C235.337 33.9805 230.857 29.5005 230.857 23.9805C230.857 20.2505 232.907 17.0005 235.937 15.2805H235.857V0.500488H193.006V15.2805C196.036 17.0005 198.006 20.2505 198.006 23.9805C198.006 29.5005 193.526 33.9805 188.005 33.9805C182.485 33.9805 178.005 29.5005 178.005 23.9805C178.005 20.2505 179.975 17.0005 183.005 15.2805V0.500488H140.164V15.2805C143.194 17.0005 145.164 20.2505 145.164 23.9805C145.164 29.5005 140.684 33.9805 135.164 33.9805C129.644 33.9805 125.164 29.5005 125.164 23.9805C125.164 20.2505 127.134 17.0005 130.164 15.2805V0.500488H87.3328V15.2805C90.3629 17.0005 92.3329 20.2505 92.3329 23.9805C92.3329 29.5005 87.8528 33.9805 82.3327 33.9805C76.8125 33.9805 72.3324 29.5005 72.3324 23.9805C72.3324 20.2505 74.3024 17.0005 77.3325 15.2805V0.500488H0.500485V514.5H375.5Z" fill="white" stroke="#777677" stroke-width="0.5" stroke-miterlimit="10"/>
</svg>
